ISO-10303-21;
HEADER;
/* Generated by software containing ST-Developer
 * from STEP Tools, Inc. (www.steptools.com) 
 */

FILE_DESCRIPTION(
/* description */ (''),
/* implementation_level */ '2;1');

FILE_NAME(
/* name */ 'R Insert.step',
/* time_stamp */ '2026-08-04T11:14:08+02:00',
/* author */ (''),
/* organization */ (''),
/* preprocessor_version */ 'ST-DEVELOPER v20.1',
/* originating_system */ 'Autodesk Translation Framework v15.8.0.0',
/* authorisation */ '');

FILE_SCHEMA (('AUTOMOTIVE_DESIGN { 1 0 10303 214 3 1 1 }'));
ENDSEC;

DATA;
#10=MECHANICAL_DESIGN_GEOMETRIC_PRESENTATION_REPRESENTATION('',(#13),#1192);
#11=SHAPE_REPRESENTATION_RELATIONSHIP('SRR','None',#1199,#12);
#12=ADVANCED_BREP_SHAPE_REPRESENTATION('',(#14),#1191);
#13=STYLED_ITEM('',(#1208),#14);
#14=MANIFOLD_SOLID_BREP('Body4',#600);
#15=FACE_BOUND('',#91,.T.);
#16=FACE_BOUND('',#93,.T.);
#17=PLANE('',#614);
#18=PLANE('',#615);
#19=PLANE('',#616);
#20=PLANE('',#617);
#21=PLANE('',#618);
#22=PLANE('',#619);
#23=PLANE('',#620);
#24=PLANE('',#621);
#25=PLANE('',#622);
#26=PLANE('',#623);
#27=PLANE('',#624);
#28=PLANE('',#625);
#29=PLANE('',#626);
#30=FACE_OUTER_BOUND('',#61,.T.);
#31=FACE_OUTER_BOUND('',#62,.T.);
#32=FACE_OUTER_BOUND('',#63,.T.);
#33=FACE_OUTER_BOUND('',#64,.T.);
#34=FACE_OUTER_BOUND('',#65,.T.);
#35=FACE_OUTER_BOUND('',#66,.T.);
#36=FACE_OUTER_BOUND('',#67,.T.);
#37=FACE_OUTER_BOUND('',#68,.T.);
#38=FACE_OUTER_BOUND('',#69,.T.);
#39=FACE_OUTER_BOUND('',#70,.T.);
#40=FACE_OUTER_BOUND('',#71,.T.);
#41=FACE_OUTER_BOUND('',#72,.T.);
#42=FACE_OUTER_BOUND('',#73,.T.);
#43=FACE_OUTER_BOUND('',#74,.T.);
#44=FACE_OUTER_BOUND('',#75,.T.);
#45=FACE_OUTER_BOUND('',#76,.T.);
#46=FACE_OUTER_BOUND('',#77,.T.);
#47=FACE_OUTER_BOUND('',#78,.T.);
#48=FACE_OUTER_BOUND('',#79,.T.);
#49=FACE_OUTER_BOUND('',#80,.T.);
#50=FACE_OUTER_BOUND('',#81,.T.);
#51=FACE_OUTER_BOUND('',#82,.T.);
#52=FACE_OUTER_BOUND('',#83,.T.);
#53=FACE_OUTER_BOUND('',#84,.T.);
#54=FACE_OUTER_BOUND('',#85,.T.);
#55=FACE_OUTER_BOUND('',#86,.T.);
#56=FACE_OUTER_BOUND('',#87,.T.);
#57=FACE_OUTER_BOUND('',#88,.T.);
#58=FACE_OUTER_BOUND('',#89,.T.);
#59=FACE_OUTER_BOUND('',#90,.T.);
#60=FACE_OUTER_BOUND('',#92,.T.);
#61=EDGE_LOOP('',(#377,#378,#379,#380));
#62=EDGE_LOOP('',(#381,#382,#383,#384));
#63=EDGE_LOOP('',(#385,#386,#387,#388));
#64=EDGE_LOOP('',(#389,#390,#391,#392));
#65=EDGE_LOOP('',(#393,#394,#395,#396));
#66=EDGE_LOOP('',(#397,#398,#399,#400));
#67=EDGE_LOOP('',(#401,#402,#403,#404));
#68=EDGE_LOOP('',(#405,#406,#407,#408));
#69=EDGE_LOOP('',(#409,#410,#411,#412));
#70=EDGE_LOOP('',(#413,#414,#415,#416));
#71=EDGE_LOOP('',(#417,#418,#419,#420));
#72=EDGE_LOOP('',(#421,#422,#423,#424));
#73=EDGE_LOOP('',(#425,#426,#427,#428));
#74=EDGE_LOOP('',(#429,#430,#431,#432));
#75=EDGE_LOOP('',(#433,#434,#435,#436));
#76=EDGE_LOOP('',(#437,#438,#439,#440));
#77=EDGE_LOOP('',(#441,#442,#443,#444));
#78=EDGE_LOOP('',(#445,#446,#447,#448));
#79=EDGE_LOOP('',(#449,#450,#451,#452));
#80=EDGE_LOOP('',(#453,#454,#455,#456));
#81=EDGE_LOOP('',(#457,#458,#459,#460));
#82=EDGE_LOOP('',(#461,#462,#463,#464));
#83=EDGE_LOOP('',(#465,#466,#467,#468));
#84=EDGE_LOOP('',(#469,#470,#471,#472));
#85=EDGE_LOOP('',(#473,#474,#475,#476));
#86=EDGE_LOOP('',(#477,#478,#479,#480));
#87=EDGE_LOOP('',(#481,#482,#483,#484));
#88=EDGE_LOOP('',(#485,#486,#487,#488));
#89=EDGE_LOOP('',(#489,#490,#491,#492));
#90=EDGE_LOOP('',(#493,#494,#495,#496,#497,#498,#499,#500,#501,#502,#503,
#504,#505,#506,#507,#508,#509,#510,#511,#512));
#91=EDGE_LOOP('',(#513,#514,#515,#516,#517,#518,#519,#520,#521));
#92=EDGE_LOOP('',(#522,#523,#524,#525,#526,#527,#528,#529,#530,#531,#532,
#533,#534,#535,#536,#537,#538,#539,#540,#541));
#93=EDGE_LOOP('',(#542,#543,#544,#545,#546,#547,#548,#549,#550));
#94=LINE('',#725,#145);
#95=LINE('',#732,#146);
#96=LINE('',#755,#147);
#97=LINE('',#778,#148);
#98=LINE('',#781,#149);
#99=LINE('',#783,#150);
#100=LINE('',#784,#151);
#101=LINE('',#787,#152);
#102=LINE('',#789,#153);
#103=LINE('',#790,#154);
#104=LINE('',#793,#155);
#105=LINE('',#795,#156);
#106=LINE('',#796,#157);
#107=LINE('',#819,#158);
#108=LINE('',#842,#159);
#109=LINE('',#866,#160);
#110=LINE('',#868,#161);
#111=LINE('',#870,#162);
#112=LINE('',#871,#163);
#113=LINE('',#874,#164);
#114=LINE('',#876,#165);
#115=LINE('',#877,#166);
#116=LINE('',#900,#167);
#117=LINE('',#923,#168);
#118=LINE('',#926,#169);
#119=LINE('',#928,#170);
#120=LINE('',#929,#171);
#121=LINE('',#932,#172);
#122=LINE('',#934,#173);
#123=LINE('',#935,#174);
#124=LINE('',#938,#175);
#125=LINE('',#940,#176);
#126=LINE('',#941,#177);
#127=LINE('',#944,#178);
#128=LINE('',#946,#179);
#129=LINE('',#947,#180);
#130=LINE('',#950,#181);
#131=LINE('',#952,#182);
#132=LINE('',#953,#183);
#133=LINE('',#976,#184);
#134=LINE('',#999,#185);
#135=LINE('',#1022,#186);
#136=LINE('',#1045,#187);
#137=LINE('',#1068,#188);
#138=LINE('',#1091,#189);
#139=LINE('',#1114,#190);
#140=LINE('',#1137,#191);
#141=LINE('',#1160,#192);
#142=LINE('',#1183,#193);
#143=LINE('',#1185,#194);
#144=LINE('',#1186,#195);
#145=VECTOR('',#629,10.);
#146=VECTOR('',#630,10.);
#147=VECTOR('',#631,10.);
#148=VECTOR('',#632,10.);
#149=VECTOR('',#635,10.);
#150=VECTOR('',#636,10.);
#151=VECTOR('',#637,10.);
#152=VECTOR('',#640,10.);
#153=VECTOR('',#641,10.);
#154=VECTOR('',#642,10.);
#155=VECTOR('',#645,10.);
#156=VECTOR('',#646,10.);
#157=VECTOR('',#647,10.);
#158=VECTOR('',#648,10.);
#159=VECTOR('',#649,10.);
#160=VECTOR('',#652,10.);
#161=VECTOR('',#653,10.);
#162=VECTOR('',#654,10.);
#163=VECTOR('',#655,10.);
#164=VECTOR('',#658,10.);
#165=VECTOR('',#659,10.);
#166=VECTOR('',#660,10.);
#167=VECTOR('',#661,10.);
#168=VECTOR('',#662,10.);
#169=VECTOR('',#665,10.);
#170=VECTOR('',#666,10.);
#171=VECTOR('',#667,10.);
#172=VECTOR('',#670,10.);
#173=VECTOR('',#671,10.);
#174=VECTOR('',#672,10.);
#175=VECTOR('',#675,10.);
#176=VECTOR('',#676,10.);
#177=VECTOR('',#677,10.);
#178=VECTOR('',#680,10.);
#179=VECTOR('',#681,10.);
#180=VECTOR('',#682,10.);
#181=VECTOR('',#685,10.);
#182=VECTOR('',#686,10.);
#183=VECTOR('',#687,10.);
#184=VECTOR('',#688,10.);
#185=VECTOR('',#689,10.);
#186=VECTOR('',#690,10.);
#187=VECTOR('',#691,10.);
#188=VECTOR('',#692,10.);
#189=VECTOR('',#693,10.);
#190=VECTOR('',#694,10.);
#191=VECTOR('',#695,10.);
#192=VECTOR('',#696,10.);
#193=VECTOR('',#697,10.);
#194=VECTOR('',#700,10.);
#195=VECTOR('',#701,10.);
#196=B_SPLINE_CURVE_WITH_KNOTS('',3,(#719,#720,#721,#722,#723),
 .UNSPECIFIED.,.F.,.F.,(4,1,4),(0.,0.0154723339576433,0.0321547319163817),
 .UNSPECIFIED.);
#197=B_SPLINE_CURVE_WITH_KNOTS('',3,(#727,#728,#729,#730,#731),
 .UNSPECIFIED.,.F.,.F.,(4,1,4),(-0.0321547319163817,-0.0154723339576433,
0.),.UNSPECIFIED.);
#198=B_SPLINE_CURVE_WITH_KNOTS('',3,(#744,#745,#746,#747,#748),
 .UNSPECIFIED.,.F.,.F.,(4,1,4),(0.,0.0320955008748249,0.0596110744087246),
 .UNSPECIFIED.);
#199=B_SPLINE_CURVE_WITH_KNOTS('',3,(#750,#751,#752,#753,#754),
 .UNSPECIFIED.,.F.,.F.,(4,1,4),(-0.0596110744087246,-0.0320955008748249,
0.),.UNSPECIFIED.);
#200=B_SPLINE_CURVE_WITH_KNOTS('',3,(#767,#768,#769,#770,#771),
 .UNSPECIFIED.,.F.,.F.,(4,1,4),(0.,0.0315610108448851,0.0725958536437949),
 .UNSPECIFIED.);
#201=B_SPLINE_CURVE_WITH_KNOTS('',3,(#773,#774,#775,#776,#777),
 .UNSPECIFIED.,.F.,.F.,(4,1,4),(-0.0725958536437949,-0.0315610108448851,
0.),.UNSPECIFIED.);
#202=B_SPLINE_CURVE_WITH_KNOTS('',3,(#808,#809,#810,#811,#812),
 .UNSPECIFIED.,.F.,.F.,(4,1,4),(0.,0.0208330618885985,0.0399388951179776),
 .UNSPECIFIED.);
#203=B_SPLINE_CURVE_WITH_KNOTS('',3,(#814,#815,#816,#817,#818),
 .UNSPECIFIED.,.F.,.F.,(4,1,4),(-0.0399388951179776,-0.0208330618885985,
0.),.UNSPECIFIED.);
#204=B_SPLINE_CURVE_WITH_KNOTS('',3,(#831,#832,#833,#834,#835),
 .UNSPECIFIED.,.F.,.F.,(4,1,4),(0.,0.0174671537876897,0.0335351805073619),
 .UNSPECIFIED.);
#205=B_SPLINE_CURVE_WITH_KNOTS('',3,(#837,#838,#839,#840,#841),
 .UNSPECIFIED.,.F.,.F.,(4,1,4),(-0.0335351805073619,-0.0174671537876897,
0.),.UNSPECIFIED.);
#206=B_SPLINE_CURVE_WITH_KNOTS('',3,(#853,#854,#855,#856,#857),
 .UNSPECIFIED.,.F.,.F.,(4,1,4),(0.,0.0151958069045225,0.030195927778262),
 .UNSPECIFIED.);
#207=B_SPLINE_CURVE_WITH_KNOTS('',3,(#858,#859,#860,#861,#862),
 .UNSPECIFIED.,.F.,.F.,(4,1,4),(-0.030195927778262,-0.0151958069045225,
0.),.UNSPECIFIED.);
#208=B_SPLINE_CURVE_WITH_KNOTS('',3,(#889,#890,#891,#892,#893),
 .UNSPECIFIED.,.F.,.F.,(4,1,4),(0.,0.0233896400373067,0.0448482383956992),
 .UNSPECIFIED.);
#209=B_SPLINE_CURVE_WITH_KNOTS('',3,(#895,#896,#897,#898,#899),
 .UNSPECIFIED.,.F.,.F.,(4,1,4),(-0.0448482383956992,-0.0233896400373067,
0.),.UNSPECIFIED.);
#210=B_SPLINE_CURVE_WITH_KNOTS('',3,(#912,#913,#914,#915,#916),
 .UNSPECIFIED.,.F.,.F.,(4,1,4),(0.,0.0212522270792592,0.0439632607662625),
 .UNSPECIFIED.);
#211=B_SPLINE_CURVE_WITH_KNOTS('',3,(#918,#919,#920,#921,#922),
 .UNSPECIFIED.,.F.,.F.,(4,1,4),(-0.0439632607662625,-0.0212522270792592,
0.),.UNSPECIFIED.);
#212=B_SPLINE_CURVE_WITH_KNOTS('',3,(#965,#966,#967,#968,#969),
 .UNSPECIFIED.,.F.,.F.,(4,1,4),(0.,0.0394429032861902,0.0754143377188348),
 .UNSPECIFIED.);
#213=B_SPLINE_CURVE_WITH_KNOTS('',3,(#971,#972,#973,#974,#975),
 .UNSPECIFIED.,.F.,.F.,(4,1,4),(-0.0754143377188348,-0.0394429032861902,
0.),.UNSPECIFIED.);
#214=B_SPLINE_CURVE_WITH_KNOTS('',3,(#988,#989,#990,#991,#992),
 .UNSPECIFIED.,.F.,.F.,(4,1,4),(0.,0.0325703276092727,0.0623311362199387),
 .UNSPECIFIED.);
#215=B_SPLINE_CURVE_WITH_KNOTS('',3,(#994,#995,#996,#997,#998),
 .UNSPECIFIED.,.F.,.F.,(4,1,4),(-0.0623311362199387,-0.0325703276092727,
0.),.UNSPECIFIED.);
#216=B_SPLINE_CURVE_WITH_KNOTS('',3,(#1011,#1012,#1013,#1014,#1015),
 .UNSPECIFIED.,.F.,.F.,(4,1,4),(0.,0.0282716313162113,0.0567884922052778),
 .UNSPECIFIED.);
#217=B_SPLINE_CURVE_WITH_KNOTS('',3,(#1017,#1018,#1019,#1020,#1021),
 .UNSPECIFIED.,.F.,.F.,(4,1,4),(-0.0567884922052778,-0.0282716313162113,
0.),.UNSPECIFIED.);
#218=B_SPLINE_CURVE_WITH_KNOTS('',3,(#1034,#1035,#1036,#1037,#1038),
 .UNSPECIFIED.,.F.,.F.,(4,1,4),(0.,0.0308943547888256,0.0663302061009427),
 .UNSPECIFIED.);
#219=B_SPLINE_CURVE_WITH_KNOTS('',3,(#1040,#1041,#1042,#1043,#1044),
 .UNSPECIFIED.,.F.,.F.,(4,1,4),(-0.0663302061009427,-0.0308943547888256,
0.),.UNSPECIFIED.);
#220=B_SPLINE_CURVE_WITH_KNOTS('',3,(#1057,#1058,#1059,#1060,#1061),
 .UNSPECIFIED.,.F.,.F.,(4,1,4),(0.,0.0260912087690252,0.0498221674906932),
 .UNSPECIFIED.);
#221=B_SPLINE_CURVE_WITH_KNOTS('',3,(#1063,#1064,#1065,#1066,#1067),
 .UNSPECIFIED.,.F.,.F.,(4,1,4),(-0.0498221674906932,-0.0260912087690252,
0.),.UNSPECIFIED.);
#222=B_SPLINE_CURVE_WITH_KNOTS('',3,(#1080,#1081,#1082,#1083,#1084),
 .UNSPECIFIED.,.F.,.F.,(4,1,4),(0.,0.0221571775209069,0.0434850838761411),
 .UNSPECIFIED.);
#223=B_SPLINE_CURVE_WITH_KNOTS('',3,(#1086,#1087,#1088,#1089,#1090),
 .UNSPECIFIED.,.F.,.F.,(4,1,4),(-0.0434850838761411,-0.0221571775209069,
0.),.UNSPECIFIED.);
#224=B_SPLINE_CURVE_WITH_KNOTS('',3,(#1103,#1104,#1105,#1106,#1107),
 .UNSPECIFIED.,.F.,.F.,(4,1,4),(0.,0.0212103294944269,0.0429270239354774),
 .UNSPECIFIED.);
#225=B_SPLINE_CURVE_WITH_KNOTS('',3,(#1109,#1110,#1111,#1112,#1113),
 .UNSPECIFIED.,.F.,.F.,(4,1,4),(-0.0429270239354774,-0.0212103294944269,
0.),.UNSPECIFIED.);
#226=B_SPLINE_CURVE_WITH_KNOTS('',3,(#1126,#1127,#1128,#1129,#1130),
 .UNSPECIFIED.,.F.,.F.,(4,1,4),(0.,0.0225118250278881,0.0459203407942315),
 .UNSPECIFIED.);
#227=B_SPLINE_CURVE_WITH_KNOTS('',3,(#1132,#1133,#1134,#1135,#1136),
 .UNSPECIFIED.,.F.,.F.,(4,1,4),(-0.0459203407942315,-0.0225118250278881,
0.),.UNSPECIFIED.);
#228=B_SPLINE_CURVE_WITH_KNOTS('',3,(#1149,#1150,#1151,#1152,#1153),
 .UNSPECIFIED.,.F.,.F.,(4,1,4),(0.,0.0189852769522036,0.040116172916724),
 .UNSPECIFIED.);
#229=B_SPLINE_CURVE_WITH_KNOTS('',3,(#1155,#1156,#1157,#1158,#1159),
 .UNSPECIFIED.,.F.,.F.,(4,1,4),(-0.040116172916724,-0.0189852769522036,
0.),.UNSPECIFIED.);
#230=B_SPLINE_CURVE_WITH_KNOTS('',3,(#1172,#1173,#1174,#1175,#1176),
 .UNSPECIFIED.,.F.,.F.,(4,1,4),(0.,0.0258236390913207,0.058045853191193),
 .UNSPECIFIED.);
#231=B_SPLINE_CURVE_WITH_KNOTS('',3,(#1178,#1179,#1180,#1181,#1182),
 .UNSPECIFIED.,.F.,.F.,(4,1,4),(-0.058045853191193,-0.0258236390913207,
0.),.UNSPECIFIED.);
#232=VERTEX_POINT('',#717);
#233=VERTEX_POINT('',#718);
#234=VERTEX_POINT('',#724);
#235=VERTEX_POINT('',#726);
#236=VERTEX_POINT('',#743);
#237=VERTEX_POINT('',#749);
#238=VERTEX_POINT('',#766);
#239=VERTEX_POINT('',#772);
#240=VERTEX_POINT('',#780);
#241=VERTEX_POINT('',#782);
#242=VERTEX_POINT('',#786);
#243=VERTEX_POINT('',#788);
#244=VERTEX_POINT('',#792);
#245=VERTEX_POINT('',#794);
#246=VERTEX_POINT('',#807);
#247=VERTEX_POINT('',#813);
#248=VERTEX_POINT('',#830);
#249=VERTEX_POINT('',#836);
#250=VERTEX_POINT('',#864);
#251=VERTEX_POINT('',#865);
#252=VERTEX_POINT('',#867);
#253=VERTEX_POINT('',#869);
#254=VERTEX_POINT('',#873);
#255=VERTEX_POINT('',#875);
#256=VERTEX_POINT('',#888);
#257=VERTEX_POINT('',#894);
#258=VERTEX_POINT('',#911);
#259=VERTEX_POINT('',#917);
#260=VERTEX_POINT('',#925);
#261=VERTEX_POINT('',#927);
#262=VERTEX_POINT('',#931);
#263=VERTEX_POINT('',#933);
#264=VERTEX_POINT('',#937);
#265=VERTEX_POINT('',#939);
#266=VERTEX_POINT('',#943);
#267=VERTEX_POINT('',#945);
#268=VERTEX_POINT('',#949);
#269=VERTEX_POINT('',#951);
#270=VERTEX_POINT('',#964);
#271=VERTEX_POINT('',#970);
#272=VERTEX_POINT('',#987);
#273=VERTEX_POINT('',#993);
#274=VERTEX_POINT('',#1010);
#275=VERTEX_POINT('',#1016);
#276=VERTEX_POINT('',#1033);
#277=VERTEX_POINT('',#1039);
#278=VERTEX_POINT('',#1056);
#279=VERTEX_POINT('',#1062);
#280=VERTEX_POINT('',#1079);
#281=VERTEX_POINT('',#1085);
#282=VERTEX_POINT('',#1102);
#283=VERTEX_POINT('',#1108);
#284=VERTEX_POINT('',#1125);
#285=VERTEX_POINT('',#1131);
#286=VERTEX_POINT('',#1148);
#287=VERTEX_POINT('',#1154);
#288=VERTEX_POINT('',#1171);
#289=VERTEX_POINT('',#1177);
#290=EDGE_CURVE('',#232,#233,#196,.T.);
#291=EDGE_CURVE('',#232,#234,#94,.T.);
#292=EDGE_CURVE('',#235,#234,#197,.T.);
#293=EDGE_CURVE('',#233,#235,#95,.T.);
#294=EDGE_CURVE('',#233,#236,#198,.T.);
#295=EDGE_CURVE('',#237,#235,#199,.T.);
#296=EDGE_CURVE('',#236,#237,#96,.T.);
#297=EDGE_CURVE('',#236,#238,#200,.T.);
#298=EDGE_CURVE('',#239,#237,#201,.T.);
#299=EDGE_CURVE('',#238,#239,#97,.T.);
#300=EDGE_CURVE('',#238,#240,#98,.T.);
#301=EDGE_CURVE('',#241,#239,#99,.T.);
#302=EDGE_CURVE('',#240,#241,#100,.T.);
#303=EDGE_CURVE('',#240,#242,#101,.T.);
#304=EDGE_CURVE('',#243,#241,#102,.T.);
#305=EDGE_CURVE('',#242,#243,#103,.T.);
#306=EDGE_CURVE('',#242,#244,#104,.T.);
#307=EDGE_CURVE('',#245,#243,#105,.T.);
#308=EDGE_CURVE('',#244,#245,#106,.T.);
#309=EDGE_CURVE('',#244,#246,#202,.T.);
#310=EDGE_CURVE('',#247,#245,#203,.T.);
#311=EDGE_CURVE('',#246,#247,#107,.T.);
#312=EDGE_CURVE('',#246,#248,#204,.T.);
#313=EDGE_CURVE('',#249,#247,#205,.T.);
#314=EDGE_CURVE('',#248,#249,#108,.T.);
#315=EDGE_CURVE('',#248,#232,#206,.T.);
#316=EDGE_CURVE('',#234,#249,#207,.T.);
#317=EDGE_CURVE('',#250,#251,#109,.T.);
#318=EDGE_CURVE('',#250,#252,#110,.T.);
#319=EDGE_CURVE('',#253,#252,#111,.T.);
#320=EDGE_CURVE('',#251,#253,#112,.T.);
#321=EDGE_CURVE('',#251,#254,#113,.T.);
#322=EDGE_CURVE('',#255,#253,#114,.T.);
#323=EDGE_CURVE('',#254,#255,#115,.T.);
#324=EDGE_CURVE('',#254,#256,#208,.T.);
#325=EDGE_CURVE('',#257,#255,#209,.T.);
#326=EDGE_CURVE('',#256,#257,#116,.T.);
#327=EDGE_CURVE('',#256,#258,#210,.T.);
#328=EDGE_CURVE('',#259,#257,#211,.T.);
#329=EDGE_CURVE('',#258,#259,#117,.T.);
#330=EDGE_CURVE('',#258,#260,#118,.T.);
#331=EDGE_CURVE('',#261,#259,#119,.T.);
#332=EDGE_CURVE('',#260,#261,#120,.T.);
#333=EDGE_CURVE('',#260,#262,#121,.T.);
#334=EDGE_CURVE('',#263,#261,#122,.T.);
#335=EDGE_CURVE('',#262,#263,#123,.T.);
#336=EDGE_CURVE('',#262,#264,#124,.T.);
#337=EDGE_CURVE('',#265,#263,#125,.T.);
#338=EDGE_CURVE('',#264,#265,#126,.T.);
#339=EDGE_CURVE('',#264,#266,#127,.T.);
#340=EDGE_CURVE('',#267,#265,#128,.T.);
#341=EDGE_CURVE('',#266,#267,#129,.T.);
#342=EDGE_CURVE('',#266,#268,#130,.T.);
#343=EDGE_CURVE('',#269,#267,#131,.T.);
#344=EDGE_CURVE('',#268,#269,#132,.T.);
#345=EDGE_CURVE('',#268,#270,#212,.T.);
#346=EDGE_CURVE('',#271,#269,#213,.T.);
#347=EDGE_CURVE('',#270,#271,#133,.T.);
#348=EDGE_CURVE('',#270,#272,#214,.T.);
#349=EDGE_CURVE('',#273,#271,#215,.T.);
#350=EDGE_CURVE('',#272,#273,#134,.T.);
#351=EDGE_CURVE('',#272,#274,#216,.T.);
#352=EDGE_CURVE('',#275,#273,#217,.T.);
#353=EDGE_CURVE('',#274,#275,#135,.T.);
#354=EDGE_CURVE('',#274,#276,#218,.T.);
#355=EDGE_CURVE('',#277,#275,#219,.T.);
#356=EDGE_CURVE('',#276,#277,#136,.T.);
#357=EDGE_CURVE('',#276,#278,#220,.T.);
#358=EDGE_CURVE('',#279,#277,#221,.T.);
#359=EDGE_CURVE('',#278,#279,#137,.T.);
#360=EDGE_CURVE('',#278,#280,#222,.T.);
#361=EDGE_CURVE('',#281,#279,#223,.T.);
#362=EDGE_CURVE('',#280,#281,#138,.T.);
#363=EDGE_CURVE('',#280,#282,#224,.T.);
#364=EDGE_CURVE('',#283,#281,#225,.T.);
#365=EDGE_CURVE('',#282,#283,#139,.T.);
#366=EDGE_CURVE('',#282,#284,#226,.T.);
#367=EDGE_CURVE('',#285,#283,#227,.T.);
#368=EDGE_CURVE('',#284,#285,#140,.T.);
#369=EDGE_CURVE('',#284,#286,#228,.T.);
#370=EDGE_CURVE('',#287,#285,#229,.T.);
#371=EDGE_CURVE('',#286,#287,#141,.T.);
#372=EDGE_CURVE('',#286,#288,#230,.T.);
#373=EDGE_CURVE('',#289,#287,#231,.T.);
#374=EDGE_CURVE('',#288,#289,#142,.T.);
#375=EDGE_CURVE('',#288,#250,#143,.T.);
#376=EDGE_CURVE('',#252,#289,#144,.T.);
#377=ORIENTED_EDGE('',*,*,#290,.F.);
#378=ORIENTED_EDGE('',*,*,#291,.T.);
#379=ORIENTED_EDGE('',*,*,#292,.F.);
#380=ORIENTED_EDGE('',*,*,#293,.F.);
#381=ORIENTED_EDGE('',*,*,#294,.F.);
#382=ORIENTED_EDGE('',*,*,#293,.T.);
#383=ORIENTED_EDGE('',*,*,#295,.F.);
#384=ORIENTED_EDGE('',*,*,#296,.F.);
#385=ORIENTED_EDGE('',*,*,#297,.F.);
#386=ORIENTED_EDGE('',*,*,#296,.T.);
#387=ORIENTED_EDGE('',*,*,#298,.F.);
#388=ORIENTED_EDGE('',*,*,#299,.F.);
#389=ORIENTED_EDGE('',*,*,#300,.F.);
#390=ORIENTED_EDGE('',*,*,#299,.T.);
#391=ORIENTED_EDGE('',*,*,#301,.F.);
#392=ORIENTED_EDGE('',*,*,#302,.F.);
#393=ORIENTED_EDGE('',*,*,#303,.F.);
#394=ORIENTED_EDGE('',*,*,#302,.T.);
#395=ORIENTED_EDGE('',*,*,#304,.F.);
#396=ORIENTED_EDGE('',*,*,#305,.F.);
#397=ORIENTED_EDGE('',*,*,#306,.F.);
#398=ORIENTED_EDGE('',*,*,#305,.T.);
#399=ORIENTED_EDGE('',*,*,#307,.F.);
#400=ORIENTED_EDGE('',*,*,#308,.F.);
#401=ORIENTED_EDGE('',*,*,#309,.F.);
#402=ORIENTED_EDGE('',*,*,#308,.T.);
#403=ORIENTED_EDGE('',*,*,#310,.F.);
#404=ORIENTED_EDGE('',*,*,#311,.F.);
#405=ORIENTED_EDGE('',*,*,#312,.F.);
#406=ORIENTED_EDGE('',*,*,#311,.T.);
#407=ORIENTED_EDGE('',*,*,#313,.F.);
#408=ORIENTED_EDGE('',*,*,#314,.F.);
#409=ORIENTED_EDGE('',*,*,#315,.F.);
#410=ORIENTED_EDGE('',*,*,#314,.T.);
#411=ORIENTED_EDGE('',*,*,#316,.F.);
#412=ORIENTED_EDGE('',*,*,#291,.F.);
#413=ORIENTED_EDGE('',*,*,#317,.F.);
#414=ORIENTED_EDGE('',*,*,#318,.T.);
#415=ORIENTED_EDGE('',*,*,#319,.F.);
#416=ORIENTED_EDGE('',*,*,#320,.F.);
#417=ORIENTED_EDGE('',*,*,#321,.F.);
#418=ORIENTED_EDGE('',*,*,#320,.T.);
#419=ORIENTED_EDGE('',*,*,#322,.F.);
#420=ORIENTED_EDGE('',*,*,#323,.F.);
#421=ORIENTED_EDGE('',*,*,#324,.F.);
#422=ORIENTED_EDGE('',*,*,#323,.T.);
#423=ORIENTED_EDGE('',*,*,#325,.F.);
#424=ORIENTED_EDGE('',*,*,#326,.F.);
#425=ORIENTED_EDGE('',*,*,#327,.F.);
#426=ORIENTED_EDGE('',*,*,#326,.T.);
#427=ORIENTED_EDGE('',*,*,#328,.F.);
#428=ORIENTED_EDGE('',*,*,#329,.F.);
#429=ORIENTED_EDGE('',*,*,#330,.F.);
#430=ORIENTED_EDGE('',*,*,#329,.T.);
#431=ORIENTED_EDGE('',*,*,#331,.F.);
#432=ORIENTED_EDGE('',*,*,#332,.F.);
#433=ORIENTED_EDGE('',*,*,#333,.F.);
#434=ORIENTED_EDGE('',*,*,#332,.T.);
#435=ORIENTED_EDGE('',*,*,#334,.F.);
#436=ORIENTED_EDGE('',*,*,#335,.F.);
#437=ORIENTED_EDGE('',*,*,#336,.F.);
#438=ORIENTED_EDGE('',*,*,#335,.T.);
#439=ORIENTED_EDGE('',*,*,#337,.F.);
#440=ORIENTED_EDGE('',*,*,#338,.F.);
#441=ORIENTED_EDGE('',*,*,#339,.F.);
#442=ORIENTED_EDGE('',*,*,#338,.T.);
#443=ORIENTED_EDGE('',*,*,#340,.F.);
#444=ORIENTED_EDGE('',*,*,#341,.F.);
#445=ORIENTED_EDGE('',*,*,#342,.F.);
#446=ORIENTED_EDGE('',*,*,#341,.T.);
#447=ORIENTED_EDGE('',*,*,#343,.F.);
#448=ORIENTED_EDGE('',*,*,#344,.F.);
#449=ORIENTED_EDGE('',*,*,#345,.F.);
#450=ORIENTED_EDGE('',*,*,#344,.T.);
#451=ORIENTED_EDGE('',*,*,#346,.F.);
#452=ORIENTED_EDGE('',*,*,#347,.F.);
#453=ORIENTED_EDGE('',*,*,#348,.F.);
#454=ORIENTED_EDGE('',*,*,#347,.T.);
#455=ORIENTED_EDGE('',*,*,#349,.F.);
#456=ORIENTED_EDGE('',*,*,#350,.F.);
#457=ORIENTED_EDGE('',*,*,#351,.F.);
#458=ORIENTED_EDGE('',*,*,#350,.T.);
#459=ORIENTED_EDGE('',*,*,#352,.F.);
#460=ORIENTED_EDGE('',*,*,#353,.F.);
#461=ORIENTED_EDGE('',*,*,#354,.F.);
#462=ORIENTED_EDGE('',*,*,#353,.T.);
#463=ORIENTED_EDGE('',*,*,#355,.F.);
#464=ORIENTED_EDGE('',*,*,#356,.F.);
#465=ORIENTED_EDGE('',*,*,#357,.F.);
#466=ORIENTED_EDGE('',*,*,#356,.T.);
#467=ORIENTED_EDGE('',*,*,#358,.F.);
#468=ORIENTED_EDGE('',*,*,#359,.F.);
#469=ORIENTED_EDGE('',*,*,#360,.F.);
#470=ORIENTED_EDGE('',*,*,#359,.T.);
#471=ORIENTED_EDGE('',*,*,#361,.F.);
#472=ORIENTED_EDGE('',*,*,#362,.F.);
#473=ORIENTED_EDGE('',*,*,#363,.F.);
#474=ORIENTED_EDGE('',*,*,#362,.T.);
#475=ORIENTED_EDGE('',*,*,#364,.F.);
#476=ORIENTED_EDGE('',*,*,#365,.F.);
#477=ORIENTED_EDGE('',*,*,#366,.F.);
#478=ORIENTED_EDGE('',*,*,#365,.T.);
#479=ORIENTED_EDGE('',*,*,#367,.F.);
#480=ORIENTED_EDGE('',*,*,#368,.F.);
#481=ORIENTED_EDGE('',*,*,#369,.F.);
#482=ORIENTED_EDGE('',*,*,#368,.T.);
#483=ORIENTED_EDGE('',*,*,#370,.F.);
#484=ORIENTED_EDGE('',*,*,#371,.F.);
#485=ORIENTED_EDGE('',*,*,#372,.F.);
#486=ORIENTED_EDGE('',*,*,#371,.T.);
#487=ORIENTED_EDGE('',*,*,#373,.F.);
#488=ORIENTED_EDGE('',*,*,#374,.F.);
#489=ORIENTED_EDGE('',*,*,#375,.F.);
#490=ORIENTED_EDGE('',*,*,#374,.T.);
#491=ORIENTED_EDGE('',*,*,#376,.F.);
#492=ORIENTED_EDGE('',*,*,#318,.F.);
#493=ORIENTED_EDGE('',*,*,#376,.T.);
#494=ORIENTED_EDGE('',*,*,#373,.T.);
#495=ORIENTED_EDGE('',*,*,#370,.T.);
#496=ORIENTED_EDGE('',*,*,#367,.T.);
#497=ORIENTED_EDGE('',*,*,#364,.T.);
#498=ORIENTED_EDGE('',*,*,#361,.T.);
#499=ORIENTED_EDGE('',*,*,#358,.T.);
#500=ORIENTED_EDGE('',*,*,#355,.T.);
#501=ORIENTED_EDGE('',*,*,#352,.T.);
#502=ORIENTED_EDGE('',*,*,#349,.T.);
#503=ORIENTED_EDGE('',*,*,#346,.T.);
#504=ORIENTED_EDGE('',*,*,#343,.T.);
#505=ORIENTED_EDGE('',*,*,#340,.T.);
#506=ORIENTED_EDGE('',*,*,#337,.T.);
#507=ORIENTED_EDGE('',*,*,#334,.T.);
#508=ORIENTED_EDGE('',*,*,#331,.T.);
#509=ORIENTED_EDGE('',*,*,#328,.T.);
#510=ORIENTED_EDGE('',*,*,#325,.T.);
#511=ORIENTED_EDGE('',*,*,#322,.T.);
#512=ORIENTED_EDGE('',*,*,#319,.T.);
#513=ORIENTED_EDGE('',*,*,#316,.T.);
#514=ORIENTED_EDGE('',*,*,#313,.T.);
#515=ORIENTED_EDGE('',*,*,#310,.T.);
#516=ORIENTED_EDGE('',*,*,#307,.T.);
#517=ORIENTED_EDGE('',*,*,#304,.T.);
#518=ORIENTED_EDGE('',*,*,#301,.T.);
#519=ORIENTED_EDGE('',*,*,#298,.T.);
#520=ORIENTED_EDGE('',*,*,#295,.T.);
#521=ORIENTED_EDGE('',*,*,#292,.T.);
#522=ORIENTED_EDGE('',*,*,#375,.T.);
#523=ORIENTED_EDGE('',*,*,#317,.T.);
#524=ORIENTED_EDGE('',*,*,#321,.T.);
#525=ORIENTED_EDGE('',*,*,#324,.T.);
#526=ORIENTED_EDGE('',*,*,#327,.T.);
#527=ORIENTED_EDGE('',*,*,#330,.T.);
#528=ORIENTED_EDGE('',*,*,#333,.T.);
#529=ORIENTED_EDGE('',*,*,#336,.T.);
#530=ORIENTED_EDGE('',*,*,#339,.T.);
#531=ORIENTED_EDGE('',*,*,#342,.T.);
#532=ORIENTED_EDGE('',*,*,#345,.T.);
#533=ORIENTED_EDGE('',*,*,#348,.T.);
#534=ORIENTED_EDGE('',*,*,#351,.T.);
#535=ORIENTED_EDGE('',*,*,#354,.T.);
#536=ORIENTED_EDGE('',*,*,#357,.T.);
#537=ORIENTED_EDGE('',*,*,#360,.T.);
#538=ORIENTED_EDGE('',*,*,#363,.T.);
#539=ORIENTED_EDGE('',*,*,#366,.T.);
#540=ORIENTED_EDGE('',*,*,#369,.T.);
#541=ORIENTED_EDGE('',*,*,#372,.T.);
#542=ORIENTED_EDGE('',*,*,#315,.T.);
#543=ORIENTED_EDGE('',*,*,#290,.T.);
#544=ORIENTED_EDGE('',*,*,#294,.T.);
#545=ORIENTED_EDGE('',*,*,#297,.T.);
#546=ORIENTED_EDGE('',*,*,#300,.T.);
#547=ORIENTED_EDGE('',*,*,#303,.T.);
#548=ORIENTED_EDGE('',*,*,#306,.T.);
#549=ORIENTED_EDGE('',*,*,#309,.T.);
#550=ORIENTED_EDGE('',*,*,#312,.T.);
#551=B_SPLINE_SURFACE_WITH_KNOTS('',3,1,((#707,#708),(#709,#710),(#711,
#712),(#713,#714),(#715,#716)),.UNSPECIFIED.,.F.,.F.,.F.,(4,1,4),(2,2),
(-0.0321547319163817,-0.0154723339576433,0.),(0.,0.0500000000000007),
 .UNSPECIFIED.);
#552=B_SPLINE_SURFACE_WITH_KNOTS('',3,1,((#733,#734),(#735,#736),(#737,
#738),(#739,#740),(#741,#742)),.UNSPECIFIED.,.F.,.F.,.F.,(4,1,4),(2,2),
(-0.0596110744087246,-0.0320955008748249,0.),(0.,0.0500000000000007),
 .UNSPECIFIED.);
#553=B_SPLINE_SURFACE_WITH_KNOTS('',3,1,((#756,#757),(#758,#759),(#760,
#761),(#762,#763),(#764,#765)),.UNSPECIFIED.,.F.,.F.,.F.,(4,1,4),(2,2),
(-0.0725958536437949,-0.0315610108448851,0.),(0.,0.0500000000000007),
 .UNSPECIFIED.);
#554=B_SPLINE_SURFACE_WITH_KNOTS('',3,1,((#797,#798),(#799,#800),(#801,
#802),(#803,#804),(#805,#806)),.UNSPECIFIED.,.F.,.F.,.F.,(4,1,4),(2,2),
(-0.0399388951179776,-0.0208330618885985,0.),(0.,0.0500000000000007),
 .UNSPECIFIED.);
#555=B_SPLINE_SURFACE_WITH_KNOTS('',3,1,((#820,#821),(#822,#823),(#824,
#825),(#826,#827),(#828,#829)),.UNSPECIFIED.,.F.,.F.,.F.,(4,1,4),(2,2),
(-0.0335351805073619,-0.0174671537876897,0.),(0.,0.0500000000000007),
 .UNSPECIFIED.);
#556=B_SPLINE_SURFACE_WITH_KNOTS('',3,1,((#843,#844),(#845,#846),(#847,
#848),(#849,#850),(#851,#852)),.UNSPECIFIED.,.F.,.F.,.F.,(4,1,4),(2,2),
(-0.030195927778262,-0.0151958069045225,0.),(0.,0.0500000000000007),
 .UNSPECIFIED.);
#557=B_SPLINE_SURFACE_WITH_KNOTS('',3,1,((#878,#879),(#880,#881),(#882,
#883),(#884,#885),(#886,#887)),.UNSPECIFIED.,.F.,.F.,.F.,(4,1,4),(2,2),
(-0.0448482383956992,-0.0233896400373067,0.),(0.,0.0500000000000007),
 .UNSPECIFIED.);
#558=B_SPLINE_SURFACE_WITH_KNOTS('',3,1,((#901,#902),(#903,#904),(#905,
#906),(#907,#908),(#909,#910)),.UNSPECIFIED.,.F.,.F.,.F.,(4,1,4),(2,2),
(-0.0439632607662625,-0.0212522270792592,0.),(0.,0.0500000000000007),
 .UNSPECIFIED.);
#559=B_SPLINE_SURFACE_WITH_KNOTS('',3,1,((#954,#955),(#956,#957),(#958,
#959),(#960,#961),(#962,#963)),.UNSPECIFIED.,.F.,.F.,.F.,(4,1,4),(2,2),
(-0.0754143377188348,-0.0394429032861902,0.),(0.,0.0500000000000007),
 .UNSPECIFIED.);
#560=B_SPLINE_SURFACE_WITH_KNOTS('',3,1,((#977,#978),(#979,#980),(#981,
#982),(#983,#984),(#985,#986)),.UNSPECIFIED.,.F.,.F.,.F.,(4,1,4),(2,2),
(-0.0623311362199387,-0.0325703276092727,0.),(0.,0.0500000000000007),
 .UNSPECIFIED.);
#561=B_SPLINE_SURFACE_WITH_KNOTS('',3,1,((#1000,#1001),(#1002,#1003),(#1004,
#1005),(#1006,#1007),(#1008,#1009)),.UNSPECIFIED.,.F.,.F.,.F.,(4,1,4),(2,
2),(-0.0567884922052778,-0.0282716313162113,0.),(0.,0.0500000000000007),
 .UNSPECIFIED.);
#562=B_SPLINE_SURFACE_WITH_KNOTS('',3,1,((#1023,#1024),(#1025,#1026),(#1027,
#1028),(#1029,#1030),(#1031,#1032)),.UNSPECIFIED.,.F.,.F.,.F.,(4,1,4),(2,
2),(-0.0663302061009427,-0.0308943547888256,0.),(0.,0.0500000000000007),
 .UNSPECIFIED.);
#563=B_SPLINE_SURFACE_WITH_KNOTS('',3,1,((#1046,#1047),(#1048,#1049),(#1050,
#1051),(#1052,#1053),(#1054,#1055)),.UNSPECIFIED.,.F.,.F.,.F.,(4,1,4),(2,
2),(-0.0498221674906932,-0.0260912087690252,0.),(0.,0.0500000000000007),
 .UNSPECIFIED.);
#564=B_SPLINE_SURFACE_WITH_KNOTS('',3,1,((#1069,#1070),(#1071,#1072),(#1073,
#1074),(#1075,#1076),(#1077,#1078)),.UNSPECIFIED.,.F.,.F.,.F.,(4,1,4),(2,
2),(-0.0434850838761411,-0.0221571775209069,0.),(0.,0.0500000000000007),
 .UNSPECIFIED.);
#565=B_SPLINE_SURFACE_WITH_KNOTS('',3,1,((#1092,#1093),(#1094,#1095),(#1096,
#1097),(#1098,#1099),(#1100,#1101)),.UNSPECIFIED.,.F.,.F.,.F.,(4,1,4),(2,
2),(-0.0429270239354774,-0.0212103294944269,0.),(0.,0.0500000000000007),
 .UNSPECIFIED.);
#566=B_SPLINE_SURFACE_WITH_KNOTS('',3,1,((#1115,#1116),(#1117,#1118),(#1119,
#1120),(#1121,#1122),(#1123,#1124)),.UNSPECIFIED.,.F.,.F.,.F.,(4,1,4),(2,
2),(-0.0459203407942315,-0.0225118250278881,0.),(0.,0.0500000000000007),
 .UNSPECIFIED.);
#567=B_SPLINE_SURFACE_WITH_KNOTS('',3,1,((#1138,#1139),(#1140,#1141),(#1142,
#1143),(#1144,#1145),(#1146,#1147)),.UNSPECIFIED.,.F.,.F.,.F.,(4,1,4),(2,
2),(-0.040116172916724,-0.0189852769522036,0.),(0.,0.0500000000000007),
 .UNSPECIFIED.);
#568=B_SPLINE_SURFACE_WITH_KNOTS('',3,1,((#1161,#1162),(#1163,#1164),(#1165,
#1166),(#1167,#1168),(#1169,#1170)),.UNSPECIFIED.,.F.,.F.,.F.,(4,1,4),(2,
2),(-0.058045853191193,-0.0258236390913207,0.),(0.,0.0500000000000007),
 .UNSPECIFIED.);
#569=ADVANCED_FACE('',(#30),#551,.T.);
#570=ADVANCED_FACE('',(#31),#552,.T.);
#571=ADVANCED_FACE('',(#32),#553,.T.);
#572=ADVANCED_FACE('',(#33),#17,.T.);
#573=ADVANCED_FACE('',(#34),#18,.T.);
#574=ADVANCED_FACE('',(#35),#19,.T.);
#575=ADVANCED_FACE('',(#36),#554,.T.);
#576=ADVANCED_FACE('',(#37),#555,.T.);
#577=ADVANCED_FACE('',(#38),#556,.T.);
#578=ADVANCED_FACE('',(#39),#20,.T.);
#579=ADVANCED_FACE('',(#40),#21,.T.);
#580=ADVANCED_FACE('',(#41),#557,.T.);
#581=ADVANCED_FACE('',(#42),#558,.T.);
#582=ADVANCED_FACE('',(#43),#22,.T.);
#583=ADVANCED_FACE('',(#44),#23,.T.);
#584=ADVANCED_FACE('',(#45),#24,.T.);
#585=ADVANCED_FACE('',(#46),#25,.T.);
#586=ADVANCED_FACE('',(#47),#26,.T.);
#587=ADVANCED_FACE('',(#48),#559,.T.);
#588=ADVANCED_FACE('',(#49),#560,.T.);
#589=ADVANCED_FACE('',(#50),#561,.T.);
#590=ADVANCED_FACE('',(#51),#562,.T.);
#591=ADVANCED_FACE('',(#52),#563,.T.);
#592=ADVANCED_FACE('',(#53),#564,.T.);
#593=ADVANCED_FACE('',(#54),#565,.T.);
#594=ADVANCED_FACE('',(#55),#566,.T.);
#595=ADVANCED_FACE('',(#56),#567,.T.);
#596=ADVANCED_FACE('',(#57),#568,.T.);
#597=ADVANCED_FACE('',(#58),#27,.T.);
#598=ADVANCED_FACE('',(#59,#15),#28,.T.);
#599=ADVANCED_FACE('',(#60,#16),#29,.F.);
#600=CLOSED_SHELL('',(#569,#570,#571,#572,#573,#574,#575,#576,#577,#578,
#579,#580,#581,#582,#583,#584,#585,#586,#587,#588,#589,#590,#591,#592,#593,
#594,#595,#596,#597,#598,#599));
#601=DERIVED_UNIT_ELEMENT(#603,1.);
#602=DERIVED_UNIT_ELEMENT(#1194,-3.);
#603=(
MASS_UNIT()
NAMED_UNIT(*)
SI_UNIT(.KILO.,.GRAM.)
);
#604=DERIVED_UNIT((#601,#602));
#605=MEASURE_REPRESENTATION_ITEM('density measure',
POSITIVE_RATIO_MEASURE(7850.),#604);
#606=PROPERTY_DEFINITION_REPRESENTATION(#611,#608);
#607=PROPERTY_DEFINITION_REPRESENTATION(#612,#609);
#608=REPRESENTATION('material name',(#610),#1191);
#609=REPRESENTATION('density',(#605),#1191);
#610=DESCRIPTIVE_REPRESENTATION_ITEM('Steel','Steel');
#611=PROPERTY_DEFINITION('material property','material name',#1201);
#612=PROPERTY_DEFINITION('material property','density of part',#1201);
#613=AXIS2_PLACEMENT_3D('',#706,#627,#628);
#614=AXIS2_PLACEMENT_3D('',#779,#633,#634);
#615=AXIS2_PLACEMENT_3D('',#785,#638,#639);
#616=AXIS2_PLACEMENT_3D('',#791,#643,#644);
#617=AXIS2_PLACEMENT_3D('',#863,#650,#651);
#618=AXIS2_PLACEMENT_3D('',#872,#656,#657);
#619=AXIS2_PLACEMENT_3D('',#924,#663,#664);
#620=AXIS2_PLACEMENT_3D('',#930,#668,#669);
#621=AXIS2_PLACEMENT_3D('',#936,#673,#674);
#622=AXIS2_PLACEMENT_3D('',#942,#678,#679);
#623=AXIS2_PLACEMENT_3D('',#948,#683,#684);
#624=AXIS2_PLACEMENT_3D('',#1184,#698,#699);
#625=AXIS2_PLACEMENT_3D('',#1187,#702,#703);
#626=AXIS2_PLACEMENT_3D('',#1188,#704,#705);
#627=DIRECTION('axis',(0.,0.,1.));
#628=DIRECTION('refdir',(1.,0.,0.));
#629=DIRECTION('',(-1.,0.,0.));
#630=DIRECTION('',(-1.,0.,0.));
#631=DIRECTION('',(-1.,0.,0.));
#632=DIRECTION('',(-1.,0.,0.));
#633=DIRECTION('center_axis',(0.,-4.5681519540611E-13,-1.));
#634=DIRECTION('ref_axis',(0.,-1.,4.5681519540611E-13));
#635=DIRECTION('',(0.,1.,-4.5681519540611E-13));
#636=DIRECTION('',(0.,-1.,4.5681519540611E-13));
#637=DIRECTION('',(-1.,0.,0.));
#638=DIRECTION('center_axis',(0.,-1.,-6.29186453271458E-15));
#639=DIRECTION('ref_axis',(0.,-6.29186453271458E-15,1.));
#640=DIRECTION('',(0.,6.29186453271458E-15,-1.));
#641=DIRECTION('',(0.,-6.29186453271458E-15,1.));
#642=DIRECTION('',(-1.,0.,0.));
#643=DIRECTION('center_axis',(0.,4.58535129020961E-13,1.));
#644=DIRECTION('ref_axis',(0.,1.,-4.58535129020961E-13));
#645=DIRECTION('',(0.,-1.,4.58535129020961E-13));
#646=DIRECTION('',(0.,1.,-4.58535129020961E-13));
#647=DIRECTION('',(-1.,0.,0.));
#648=DIRECTION('',(-1.,0.,0.));
#649=DIRECTION('',(-1.,0.,0.));
#650=DIRECTION('center_axis',(0.,-4.57912918709575E-13,-1.));
#651=DIRECTION('ref_axis',(0.,-1.,4.57912918709575E-13));
#652=DIRECTION('',(0.,1.,-4.57912918709575E-13));
#653=DIRECTION('',(-1.,0.,0.));
#654=DIRECTION('',(0.,-1.,4.57912918709575E-13));
#655=DIRECTION('',(-1.,0.,0.));
#656=DIRECTION('center_axis',(0.,0.915956994776291,-0.401276443017013));
#657=DIRECTION('ref_axis',(0.,-0.401276443017013,-0.915956994776291));
#658=DIRECTION('',(0.,0.401276443017013,0.915956994776291));
#659=DIRECTION('',(0.,-0.401276443017013,-0.915956994776291));
#660=DIRECTION('',(-1.,0.,0.));
#661=DIRECTION('',(-1.,0.,0.));
#662=DIRECTION('',(-1.,0.,0.));
#663=DIRECTION('center_axis',(0.,-4.56930215354877E-13,-1.));
#664=DIRECTION('ref_axis',(0.,-1.,4.56930215354877E-13));
#665=DIRECTION('',(0.,1.,-4.56930215354877E-13));
#666=DIRECTION('',(0.,-1.,4.56930215354877E-13));
#667=DIRECTION('',(-1.,0.,0.));
#668=DIRECTION('center_axis',(0.,-1.,-5.36436739015699E-15));
#669=DIRECTION('ref_axis',(0.,-5.36436739015699E-15,1.));
#670=DIRECTION('',(0.,5.36436739015699E-15,-1.));
#671=DIRECTION('',(0.,-5.36436739015699E-15,1.));
#672=DIRECTION('',(-1.,0.,0.));
#673=DIRECTION('center_axis',(0.,-4.57733386346599E-13,-1.));
#674=DIRECTION('ref_axis',(0.,-1.,4.57733386346599E-13));
#675=DIRECTION('',(0.,1.,-4.57733386346599E-13));
#676=DIRECTION('',(0.,-1.,4.57733386346599E-13));
#677=DIRECTION('',(-1.,0.,0.));
#678=DIRECTION('center_axis',(0.,1.,5.77315972805081E-15));
#679=DIRECTION('ref_axis',(0.,5.77315972805081E-15,-1.));
#680=DIRECTION('',(0.,-5.77315972805081E-15,1.));
#681=DIRECTION('',(0.,5.77315972805081E-15,-1.));
#682=DIRECTION('',(-1.,0.,0.));
#683=DIRECTION('center_axis',(0.,4.57027186822683E-13,1.));
#684=DIRECTION('ref_axis',(0.,1.,-4.57027186822683E-13));
#685=DIRECTION('',(0.,-1.,4.57027186822683E-13));
#686=DIRECTION('',(0.,1.,-4.57027186822683E-13));
#687=DIRECTION('',(-1.,0.,0.));
#688=DIRECTION('',(-1.,0.,0.));
#689=DIRECTION('',(-1.,0.,0.));
#690=DIRECTION('',(-1.,0.,0.));
#691=DIRECTION('',(-1.,0.,0.));
#692=DIRECTION('',(-1.,0.,0.));
#693=DIRECTION('',(-1.,0.,0.));
#694=DIRECTION('',(-1.,0.,0.));
#695=DIRECTION('',(-1.,0.,0.));
#696=DIRECTION('',(-1.,0.,0.));
#697=DIRECTION('',(-1.,0.,0.));
#698=DIRECTION('center_axis',(0.,-0.902517424727379,0.430653338618732));
#699=DIRECTION('ref_axis',(0.,0.430653338618732,0.902517424727379));
#700=DIRECTION('',(0.,-0.430653338618732,-0.902517424727379));
#701=DIRECTION('',(0.,0.430653338618732,0.902517424727379));
#702=DIRECTION('center_axis',(-1.,0.,8.32667268468867E-17));
#703=DIRECTION('ref_axis',(8.32667268468867E-17,0.,1.));
#704=DIRECTION('center_axis',(-1.,0.,8.32667268468867E-17));
#705=DIRECTION('ref_axis',(8.32667268468867E-17,0.,1.));
#706=CARTESIAN_POINT('',(0.,0.,0.));
#707=CARTESIAN_POINT('Ctrl Pts',(-109.5,17.5256313160062,-16.7228381633784));
#708=CARTESIAN_POINT('Ctrl Pts',(-110.,17.5256313160062,-16.7228381633784));
#709=CARTESIAN_POINT('Ctrl Pts',(-109.5,17.5280432551596,-16.7788995943));
#710=CARTESIAN_POINT('Ctrl Pts',(-110.,17.5280432551596,-16.7788995943));
#711=CARTESIAN_POINT('Ctrl Pts',(-109.5,17.5326921825541,-16.8869560191973));
#712=CARTESIAN_POINT('Ctrl Pts',(-110.,17.5326921825541,-16.8869560191973));
#713=CARTESIAN_POINT('Ctrl Pts',(-109.5,17.5744150195423,-16.9866499983783));
#714=CARTESIAN_POINT('Ctrl Pts',(-110.,17.5744150195423,-16.9866499983783));
#715=CARTESIAN_POINT('Ctrl Pts',(-109.5,17.5944913700223,-17.0346211195018));
#716=CARTESIAN_POINT('Ctrl Pts',(-110.,17.5944913700223,-17.0346211195018));
#717=CARTESIAN_POINT('',(-109.5,17.5944913700223,-17.0346211195018));
#718=CARTESIAN_POINT('',(-109.5,17.5256313160062,-16.7228381633784));
#719=CARTESIAN_POINT('Ctrl Pts',(-109.5,17.5944913700223,-17.0346211195018));
#720=CARTESIAN_POINT('Ctrl Pts',(-109.5,17.5744150195423,-16.9866499983783));
#721=CARTESIAN_POINT('Ctrl Pts',(-109.5,17.5326921825541,-16.8869560191973));
#722=CARTESIAN_POINT('Ctrl Pts',(-109.5,17.5280432551596,-16.7788995943));
#723=CARTESIAN_POINT('Ctrl Pts',(-109.5,17.5256313160062,-16.7228381633784));
#724=CARTESIAN_POINT('',(-110.,17.5944913700223,-17.0346211195018));
#725=CARTESIAN_POINT('',(-109.5,17.5944913700223,-17.0346211195018));
#726=CARTESIAN_POINT('',(-110.,17.5256313160062,-16.7228381633784));
#727=CARTESIAN_POINT('Ctrl Pts',(-110.,17.5256313160062,-16.7228381633784));
#728=CARTESIAN_POINT('Ctrl Pts',(-110.,17.5280432551596,-16.7788995943));
#729=CARTESIAN_POINT('Ctrl Pts',(-110.,17.5326921825541,-16.8869560191973));
#730=CARTESIAN_POINT('Ctrl Pts',(-110.,17.5744150195423,-16.9866499983783));
#731=CARTESIAN_POINT('Ctrl Pts',(-110.,17.5944913700223,-17.0346211195018));
#732=CARTESIAN_POINT('',(-109.5,17.5256313160062,-16.7228381633784));
#733=CARTESIAN_POINT('Ctrl Pts',(-109.5,17.7589894607663,-16.1949114799526));
#734=CARTESIAN_POINT('Ctrl Pts',(-110.,17.7589894607663,-16.1949114799526));
#735=CARTESIAN_POINT('Ctrl Pts',(-109.5,17.6910331267647,-16.2612027378362));
#736=CARTESIAN_POINT('Ctrl Pts',(-110.,17.6910331267647,-16.2612027378362));
#737=CARTESIAN_POINT('Ctrl Pts',(-109.5,17.5438092254449,-16.404819337413));
#738=CARTESIAN_POINT('Ctrl Pts',(-110.,17.5438092254449,-16.404819337413));
#739=CARTESIAN_POINT('Ctrl Pts',(-109.5,17.531993227423,-16.6115378179514));
#740=CARTESIAN_POINT('Ctrl Pts',(-110.,17.531993227423,-16.6115378179514));
#741=CARTESIAN_POINT('Ctrl Pts',(-109.5,17.5256313160062,-16.7228381633784));
#742=CARTESIAN_POINT('Ctrl Pts',(-110.,17.5256313160062,-16.7228381633784));
#743=CARTESIAN_POINT('',(-109.5,17.7589894607663,-16.1949114799526));
#744=CARTESIAN_POINT('Ctrl Pts',(-109.5,17.5256313160062,-16.7228381633784));
#745=CARTESIAN_POINT('Ctrl Pts',(-109.5,17.531993227423,-16.6115378179514));
#746=CARTESIAN_POINT('Ctrl Pts',(-109.5,17.5438092254449,-16.404819337413));
#747=CARTESIAN_POINT('Ctrl Pts',(-109.5,17.6910331267647,-16.2612027378362));
#748=CARTESIAN_POINT('Ctrl Pts',(-109.5,17.7589894607663,-16.1949114799526));
#749=CARTESIAN_POINT('',(-110.,17.7589894607663,-16.1949114799526));
#750=CARTESIAN_POINT('Ctrl Pts',(-110.,17.7589894607663,-16.1949114799526));
#751=CARTESIAN_POINT('Ctrl Pts',(-110.,17.6910331267647,-16.2612027378362));
#752=CARTESIAN_POINT('Ctrl Pts',(-110.,17.5438092254449,-16.404819337413));
#753=CARTESIAN_POINT('Ctrl Pts',(-110.,17.531993227423,-16.6115378179514));
#754=CARTESIAN_POINT('Ctrl Pts',(-110.,17.5256313160062,-16.7228381633784));
#755=CARTESIAN_POINT('',(-109.5,17.7589894607663,-16.1949114799526));
#756=CARTESIAN_POINT('Ctrl Pts',(-109.5,18.4590662792325,-16.0342382192641));
#757=CARTESIAN_POINT('Ctrl Pts',(-110.,18.4590662792325,-16.0342382192641));
#758=CARTESIAN_POINT('Ctrl Pts',(-109.5,18.3201972712508,-16.036651754007));
#759=CARTESIAN_POINT('Ctrl Pts',(-110.,18.3201972712508,-16.036651754007));
#760=CARTESIAN_POINT('Ctrl Pts',(-109.5,18.0745203418058,-16.0409216037983));
#761=CARTESIAN_POINT('Ctrl Pts',(-110.,18.0745203418058,-16.0409216037983));
#762=CARTESIAN_POINT('Ctrl Pts',(-109.5,17.854599803947,-16.1482503580461));
#763=CARTESIAN_POINT('Ctrl Pts',(-110.,17.854599803947,-16.1482503580461));
#764=CARTESIAN_POINT('Ctrl Pts',(-109.5,17.7589894607663,-16.1949114799526));
#765=CARTESIAN_POINT('Ctrl Pts',(-110.,17.7589894607663,-16.1949114799526));
#766=CARTESIAN_POINT('',(-109.5,18.4590662792325,-16.0342382192641));
#767=CARTESIAN_POINT('Ctrl Pts',(-109.5,17.7589894607663,-16.1949114799526));
#768=CARTESIAN_POINT('Ctrl Pts',(-109.5,17.854599803947,-16.1482503580461));
#769=CARTESIAN_POINT('Ctrl Pts',(-109.5,18.0745203418058,-16.0409216037983));
#770=CARTESIAN_POINT('Ctrl Pts',(-109.5,18.3201972712508,-16.036651754007));
#771=CARTESIAN_POINT('Ctrl Pts',(-109.5,18.4590662792325,-16.0342382192641));
#772=CARTESIAN_POINT('',(-110.,18.4590662792325,-16.0342382192641));
#773=CARTESIAN_POINT('Ctrl Pts',(-110.,18.4590662792325,-16.0342382192641));
#774=CARTESIAN_POINT('Ctrl Pts',(-110.,18.3201972712508,-16.036651754007));
#775=CARTESIAN_POINT('Ctrl Pts',(-110.,18.0745203418058,-16.0409216037983));
#776=CARTESIAN_POINT('Ctrl Pts',(-110.,17.854599803947,-16.1482503580461));
#777=CARTESIAN_POINT('Ctrl Pts',(-110.,17.7589894607663,-16.1949114799526));
#778=CARTESIAN_POINT('',(-109.5,18.4590662792325,-16.0342382192641));
#779=CARTESIAN_POINT('Origin',(-109.5,18.8722266033292,-16.0342382192643));
#780=CARTESIAN_POINT('',(-109.5,18.8722266033292,-16.0342382192643));
#781=CARTESIAN_POINT('',(-109.5,18.4590662792325,-16.0342382192641));
#782=CARTESIAN_POINT('',(-110.,18.8722266033292,-16.0342382192643));
#783=CARTESIAN_POINT('',(-110.,18.4590662792325,-16.0342382192641));
#784=CARTESIAN_POINT('',(-109.5,18.8722266033292,-16.0342382192643));
#785=CARTESIAN_POINT('Origin',(-109.5,18.8722266033292,-17.4458681345017));
#786=CARTESIAN_POINT('',(-109.5,18.8722266033292,-17.4458681345017));
#787=CARTESIAN_POINT('',(-109.5,18.8722266033292,-16.0342382192643));
#788=CARTESIAN_POINT('',(-110.,18.8722266033292,-17.4458681345017));
#789=CARTESIAN_POINT('',(-110.,18.8722266033292,-16.0342382192643));
#790=CARTESIAN_POINT('',(-109.5,18.8722266033292,-17.4458681345017));
#791=CARTESIAN_POINT('Origin',(-109.5,18.4896708801389,-17.4458681345016));
#792=CARTESIAN_POINT('',(-109.5,18.4896708801389,-17.4458681345016));
#793=CARTESIAN_POINT('',(-109.5,18.8722266033292,-17.4458681345017));
#794=CARTESIAN_POINT('',(-110.,18.4896708801389,-17.4458681345016));
#795=CARTESIAN_POINT('',(-110.,18.8722266033292,-17.4458681345017));
#796=CARTESIAN_POINT('',(-109.5,18.4896708801389,-17.4458681345016));
#797=CARTESIAN_POINT('Ctrl Pts',(-109.5,18.0937261655927,-17.3999612331418));
#798=CARTESIAN_POINT('Ctrl Pts',(-110.,18.0937261655927,-17.3999612331418));
#799=CARTESIAN_POINT('Ctrl Pts',(-109.5,18.1561434033902,-17.4133438152793));
#800=CARTESIAN_POINT('Ctrl Pts',(-110.,18.1561434033902,-17.4133438152793));
#801=CARTESIAN_POINT('Ctrl Pts',(-109.5,18.2866205976596,-17.4413188079415));
#802=CARTESIAN_POINT('Ctrl Pts',(-110.,18.2866205976596,-17.4413188079415));
#803=CARTESIAN_POINT('Ctrl Pts',(-109.5,18.4200637898006,-17.4443085927911));
#804=CARTESIAN_POINT('Ctrl Pts',(-110.,18.4200637898006,-17.4443085927911));
#805=CARTESIAN_POINT('Ctrl Pts',(-109.5,18.4896708801389,-17.4458681345016));
#806=CARTESIAN_POINT('Ctrl Pts',(-110.,18.4896708801389,-17.4458681345016));
#807=CARTESIAN_POINT('',(-109.5,18.0937261655927,-17.3999612331418));
#808=CARTESIAN_POINT('Ctrl Pts',(-109.5,18.4896708801389,-17.4458681345016));
#809=CARTESIAN_POINT('Ctrl Pts',(-109.5,18.4200637898006,-17.4443085927911));
#810=CARTESIAN_POINT('Ctrl Pts',(-109.5,18.2866205976596,-17.4413188079415));
#811=CARTESIAN_POINT('Ctrl Pts',(-109.5,18.1561434033902,-17.4133438152793));
#812=CARTESIAN_POINT('Ctrl Pts',(-109.5,18.0937261655927,-17.3999612331418));
#813=CARTESIAN_POINT('',(-110.,18.0937261655927,-17.3999612331418));
#814=CARTESIAN_POINT('Ctrl Pts',(-110.,18.0937261655927,-17.3999612331418));
#815=CARTESIAN_POINT('Ctrl Pts',(-110.,18.1561434033902,-17.4133438152793));
#816=CARTESIAN_POINT('Ctrl Pts',(-110.,18.2866205976596,-17.4413188079415));
#817=CARTESIAN_POINT('Ctrl Pts',(-110.,18.4200637898006,-17.4443085927911));
#818=CARTESIAN_POINT('Ctrl Pts',(-110.,18.4896708801389,-17.4458681345016));
#819=CARTESIAN_POINT('',(-109.5,18.0937261655927,-17.3999612331418));
#820=CARTESIAN_POINT('Ctrl Pts',(-109.5,17.7895940616727,-17.2622417211559));
#821=CARTESIAN_POINT('Ctrl Pts',(-110.,17.7895940616727,-17.2622417211559));
#822=CARTESIAN_POINT('Ctrl Pts',(-109.5,17.8349724697719,-17.2912205128747));
#823=CARTESIAN_POINT('Ctrl Pts',(-110.,17.8349724697719,-17.2912205128747));
#824=CARTESIAN_POINT('Ctrl Pts',(-109.5,17.9296806211394,-17.3517014311686));
#825=CARTESIAN_POINT('Ctrl Pts',(-110.,17.9296806211394,-17.3517014311686));
#826=CARTESIAN_POINT('Ctrl Pts',(-109.5,18.0375442517106,-17.3834333350666));
#827=CARTESIAN_POINT('Ctrl Pts',(-110.,18.0375442517106,-17.3834333350666));
#828=CARTESIAN_POINT('Ctrl Pts',(-109.5,18.0937261655927,-17.3999612331418));
#829=CARTESIAN_POINT('Ctrl Pts',(-110.,18.0937261655927,-17.3999612331418));
#830=CARTESIAN_POINT('',(-109.5,17.7895940616727,-17.2622417211559));
#831=CARTESIAN_POINT('Ctrl Pts',(-109.5,18.0937261655927,-17.3999612331418));
#832=CARTESIAN_POINT('Ctrl Pts',(-109.5,18.0375442517106,-17.3834333350666));
#833=CARTESIAN_POINT('Ctrl Pts',(-109.5,17.9296806211394,-17.3517014311686));
#834=CARTESIAN_POINT('Ctrl Pts',(-109.5,17.8349724697719,-17.2912205128747));
#835=CARTESIAN_POINT('Ctrl Pts',(-109.5,17.7895940616727,-17.2622417211559));
#836=CARTESIAN_POINT('',(-110.,17.7895940616727,-17.2622417211559));
#837=CARTESIAN_POINT('Ctrl Pts',(-110.,17.7895940616727,-17.2622417211559));
#838=CARTESIAN_POINT('Ctrl Pts',(-110.,17.8349724697719,-17.2912205128747));
#839=CARTESIAN_POINT('Ctrl Pts',(-110.,17.9296806211394,-17.3517014311686));
#840=CARTESIAN_POINT('Ctrl Pts',(-110.,18.0375442517106,-17.3834333350666));
#841=CARTESIAN_POINT('Ctrl Pts',(-110.,18.0937261655927,-17.3999612331418));
#842=CARTESIAN_POINT('',(-109.5,17.7895940616727,-17.2622417211559));
#843=CARTESIAN_POINT('Ctrl Pts',(-109.5,17.5944913700223,-17.0346211195018));
#844=CARTESIAN_POINT('Ctrl Pts',(-110.,17.5944913700223,-17.0346211195018));
#845=CARTESIAN_POINT('Ctrl Pts',(-109.5,17.6199704594578,-17.0781547481846));
#846=CARTESIAN_POINT('Ctrl Pts',(-110.,17.6199704594578,-17.0781547481846));
#847=CARTESIAN_POINT('Ctrl Pts',(-109.5,17.671261029109,-17.1657899291738));
#848=CARTESIAN_POINT('Ctrl Pts',(-110.,17.671261029109,-17.1657899291738));
#849=CARTESIAN_POINT('Ctrl Pts',(-109.5,17.7499796709509,-17.2299525210009));
#850=CARTESIAN_POINT('Ctrl Pts',(-110.,17.7499796709509,-17.2299525210009));
#851=CARTESIAN_POINT('Ctrl Pts',(-109.5,17.7895940616727,-17.2622417211559));
#852=CARTESIAN_POINT('Ctrl Pts',(-110.,17.7895940616727,-17.2622417211559));
#853=CARTESIAN_POINT('Ctrl Pts',(-109.5,17.7895940616727,-17.2622417211559));
#854=CARTESIAN_POINT('Ctrl Pts',(-109.5,17.7499796709509,-17.2299525210009));
#855=CARTESIAN_POINT('Ctrl Pts',(-109.5,17.671261029109,-17.1657899291738));
#856=CARTESIAN_POINT('Ctrl Pts',(-109.5,17.6199704594578,-17.0781547481846));
#857=CARTESIAN_POINT('Ctrl Pts',(-109.5,17.5944913700223,-17.0346211195018));
#858=CARTESIAN_POINT('Ctrl Pts',(-110.,17.5944913700223,-17.0346211195018));
#859=CARTESIAN_POINT('Ctrl Pts',(-110.,17.6199704594578,-17.0781547481846));
#860=CARTESIAN_POINT('Ctrl Pts',(-110.,17.671261029109,-17.1657899291738));
#861=CARTESIAN_POINT('Ctrl Pts',(-110.,17.7499796709509,-17.2299525210009));
#862=CARTESIAN_POINT('Ctrl Pts',(-110.,17.7895940616727,-17.2622417211559));
#863=CARTESIAN_POINT('Origin',(-109.5,17.2922719791532,-20.2499996423746));
#864=CARTESIAN_POINT('',(-109.5,16.1866868808866,-20.249999642374));
#865=CARTESIAN_POINT('',(-109.5,17.2922719791532,-20.2499996423746));
#866=CARTESIAN_POINT('',(-109.5,16.1866868808866,-20.249999642374));
#867=CARTESIAN_POINT('',(-110.,16.1866868808866,-20.249999642374));
#868=CARTESIAN_POINT('',(-109.5,16.1866868808866,-20.249999642374));
#869=CARTESIAN_POINT('',(-110.,17.2922719791532,-20.2499996423746));
#870=CARTESIAN_POINT('',(-110.,16.1866868808866,-20.249999642374));
#871=CARTESIAN_POINT('',(-109.5,17.2922719791532,-20.2499996423746));
#872=CARTESIAN_POINT('Origin',(-109.5,17.996174223721,-18.6432664394406));
#873=CARTESIAN_POINT('',(-109.5,17.996174223721,-18.6432664394406));
#874=CARTESIAN_POINT('',(-109.5,17.2922719791532,-20.2499996423746));
#875=CARTESIAN_POINT('',(-110.,17.996174223721,-18.6432664394406));
#876=CARTESIAN_POINT('',(-110.,17.2922719791532,-20.2499996423746));
#877=CARTESIAN_POINT('',(-109.5,17.996174223721,-18.6432664394406));
#878=CARTESIAN_POINT('Ctrl Pts',(-109.5,18.2735271528363,-18.2970540523558));
#879=CARTESIAN_POINT('Ctrl Pts',(-110.,18.2735271528363,-18.2970540523558));
#880=CARTESIAN_POINT('Ctrl Pts',(-109.5,18.2168554059573,-18.3421770954172));
#881=CARTESIAN_POINT('Ctrl Pts',(-110.,18.2168554059573,-18.3421770954172));
#882=CARTESIAN_POINT('Ctrl Pts',(-109.5,18.0984120681454,-18.4364837672024));
#883=CARTESIAN_POINT('Ctrl Pts',(-110.,18.0984120681454,-18.4364837672024));
#884=CARTESIAN_POINT('Ctrl Pts',(-109.5,18.0312179037736,-18.5723883233463));
#885=CARTESIAN_POINT('Ctrl Pts',(-110.,18.0312179037736,-18.5723883233463));
#886=CARTESIAN_POINT('Ctrl Pts',(-109.5,17.996174223721,-18.6432664394406));
#887=CARTESIAN_POINT('Ctrl Pts',(-110.,17.996174223721,-18.6432664394406));
#888=CARTESIAN_POINT('',(-109.5,18.2735271528363,-18.2970540523558));
#889=CARTESIAN_POINT('Ctrl Pts',(-109.5,17.996174223721,-18.6432664394406));
#890=CARTESIAN_POINT('Ctrl Pts',(-109.5,18.0312179037736,-18.5723883233463));
#891=CARTESIAN_POINT('Ctrl Pts',(-109.5,18.0984120681454,-18.4364837672024));
#892=CARTESIAN_POINT('Ctrl Pts',(-109.5,18.2168554059573,-18.3421770954172));
#893=CARTESIAN_POINT('Ctrl Pts',(-109.5,18.2735271528363,-18.2970540523558));
#894=CARTESIAN_POINT('',(-110.,18.2735271528363,-18.2970540523558));
#895=CARTESIAN_POINT('Ctrl Pts',(-110.,18.2735271528363,-18.2970540523558));
#896=CARTESIAN_POINT('Ctrl Pts',(-110.,18.2168554059573,-18.3421770954172));
#897=CARTESIAN_POINT('Ctrl Pts',(-110.,18.0984120681454,-18.4364837672024));
#898=CARTESIAN_POINT('Ctrl Pts',(-110.,18.0312179037736,-18.5723883233463));
#899=CARTESIAN_POINT('Ctrl Pts',(-110.,17.996174223721,-18.6432664394406));
#900=CARTESIAN_POINT('',(-109.5,18.2735271528363,-18.2970540523558));
#901=CARTESIAN_POINT('Ctrl Pts',(-109.5,18.6924256160855,-18.1803743839295));
#902=CARTESIAN_POINT('Ctrl Pts',(-110.,18.6924256160855,-18.1803743839295));
#903=CARTESIAN_POINT('Ctrl Pts',(-109.5,18.6157765088606,-18.1845575309861));
#904=CARTESIAN_POINT('Ctrl Pts',(-110.,18.6157765088606,-18.1845575309861));
#905=CARTESIAN_POINT('Ctrl Pts',(-109.5,18.4674017261504,-18.1926551273973));
#906=CARTESIAN_POINT('Ctrl Pts',(-110.,18.4674017261504,-18.1926551273973));
#907=CARTESIAN_POINT('Ctrl Pts',(-109.5,18.3367064158164,-18.2630328446129));
#908=CARTESIAN_POINT('Ctrl Pts',(-110.,18.3367064158164,-18.2630328446129));
#909=CARTESIAN_POINT('Ctrl Pts',(-109.5,18.2735271528363,-18.2970540523558));
#910=CARTESIAN_POINT('Ctrl Pts',(-110.,18.2735271528363,-18.2970540523558));
#911=CARTESIAN_POINT('',(-109.5,18.6924256160855,-18.1803743839295));
#912=CARTESIAN_POINT('Ctrl Pts',(-109.5,18.2735271528363,-18.2970540523558));
#913=CARTESIAN_POINT('Ctrl Pts',(-109.5,18.3367064158164,-18.2630328446129));
#914=CARTESIAN_POINT('Ctrl Pts',(-109.5,18.4674017261504,-18.1926551273973));
#915=CARTESIAN_POINT('Ctrl Pts',(-109.5,18.6157765088606,-18.1845575309861));
#916=CARTESIAN_POINT('Ctrl Pts',(-109.5,18.6924256160855,-18.1803743839295));
#917=CARTESIAN_POINT('',(-110.,18.6924256160855,-18.1803743839295));
#918=CARTESIAN_POINT('Ctrl Pts',(-110.,18.6924256160855,-18.1803743839295));
#919=CARTESIAN_POINT('Ctrl Pts',(-110.,18.6157765088606,-18.1845575309861));
#920=CARTESIAN_POINT('Ctrl Pts',(-110.,18.4674017261504,-18.1926551273973));
#921=CARTESIAN_POINT('Ctrl Pts',(-110.,18.3367064158164,-18.2630328446129));
#922=CARTESIAN_POINT('Ctrl Pts',(-110.,18.2735271528363,-18.2970540523558));
#923=CARTESIAN_POINT('',(-109.5,18.6924256160855,-18.1803743839295));
#924=CARTESIAN_POINT('Origin',(-109.5,18.8722266033292,-18.1803743839295));
#925=CARTESIAN_POINT('',(-109.5,18.8722266033292,-18.1803743839295));
#926=CARTESIAN_POINT('',(-109.5,18.6924256160855,-18.1803743839295));
#927=CARTESIAN_POINT('',(-110.,18.8722266033292,-18.1803743839295));
#928=CARTESIAN_POINT('',(-110.,18.6924256160855,-18.1803743839295));
#929=CARTESIAN_POINT('',(-109.5,18.8722266033292,-18.1803743839295));
#930=CARTESIAN_POINT('Origin',(-109.5,18.8722266033292,-20.2499996423753));
#931=CARTESIAN_POINT('',(-109.5,18.8722266033292,-20.2499996423753));
#932=CARTESIAN_POINT('',(-109.5,18.8722266033292,-18.1803743839295));
#933=CARTESIAN_POINT('',(-110.,18.8722266033292,-20.2499996423753));
#934=CARTESIAN_POINT('',(-110.,18.8722266033292,-18.1803743839295));
#935=CARTESIAN_POINT('',(-109.5,18.8722266033292,-20.2499996423753));
#936=CARTESIAN_POINT('Origin',(-109.5,19.8133127167821,-20.2499996423757));
#937=CARTESIAN_POINT('',(-109.5,19.8133127167821,-20.2499996423757));
#938=CARTESIAN_POINT('',(-109.5,18.8722266033292,-20.2499996423753));
#939=CARTESIAN_POINT('',(-110.,19.8133127167821,-20.2499996423757));
#940=CARTESIAN_POINT('',(-110.,18.8722266033292,-20.2499996423753));
#941=CARTESIAN_POINT('',(-109.5,19.8133127167821,-20.2499996423757));
#942=CARTESIAN_POINT('Origin',(-109.5,19.8133127167821,-15.2499996423757));
#943=CARTESIAN_POINT('',(-109.5,19.8133127167821,-15.2499996423757));
#944=CARTESIAN_POINT('',(-109.5,19.8133127167821,-20.2499996423757));
#945=CARTESIAN_POINT('',(-110.,19.8133127167821,-15.2499996423757));
#946=CARTESIAN_POINT('',(-110.,19.8133127167821,-20.2499996423757));
#947=CARTESIAN_POINT('',(-109.5,19.8133127167821,-15.2499996423757));
#948=CARTESIAN_POINT('Origin',(-109.5,18.3557761982083,-15.249999642375));
#949=CARTESIAN_POINT('',(-109.5,18.3557761982083,-15.249999642375));
#950=CARTESIAN_POINT('',(-109.5,19.8133127167821,-15.2499996423757));
#951=CARTESIAN_POINT('',(-110.,18.3557761982083,-15.249999642375));
#952=CARTESIAN_POINT('',(-110.,19.8133127167821,-15.2499996423757));
#953=CARTESIAN_POINT('',(-109.5,18.3557761982083,-15.249999642375));
#954=CARTESIAN_POINT('Ctrl Pts',(-109.5,17.6059676483274,-15.3207724094416));
#955=CARTESIAN_POINT('Ctrl Pts',(-110.,17.6059676483274,-15.3207724094416));
#956=CARTESIAN_POINT('Ctrl Pts',(-109.5,17.7242755718323,-15.3001422270556));
#957=CARTESIAN_POINT('Ctrl Pts',(-110.,17.7242755718323,-15.3001422270556));
#958=CARTESIAN_POINT('Ctrl Pts',(-109.5,17.972308874889,-15.2568909203951));
#959=CARTESIAN_POINT('Ctrl Pts',(-110.,17.972308874889,-15.2568909203951));
#960=CARTESIAN_POINT('Ctrl Pts',(-109.5,18.2240904253763,-15.2523661628494));
#961=CARTESIAN_POINT('Ctrl Pts',(-110.,18.2240904253763,-15.2523661628494));
#962=CARTESIAN_POINT('Ctrl Pts',(-109.5,18.3557761982083,-15.249999642375));
#963=CARTESIAN_POINT('Ctrl Pts',(-110.,18.3557761982083,-15.249999642375));
#964=CARTESIAN_POINT('',(-109.5,17.6059676483274,-15.3207724094416));
#965=CARTESIAN_POINT('Ctrl Pts',(-109.5,18.3557761982083,-15.249999642375));
#966=CARTESIAN_POINT('Ctrl Pts',(-109.5,18.2240904253763,-15.2523661628494));
#967=CARTESIAN_POINT('Ctrl Pts',(-109.5,17.972308874889,-15.2568909203951));
#968=CARTESIAN_POINT('Ctrl Pts',(-109.5,17.7242755718323,-15.3001422270556));
#969=CARTESIAN_POINT('Ctrl Pts',(-109.5,17.6059676483274,-15.3207724094416));
#970=CARTESIAN_POINT('',(-110.,17.6059676483274,-15.3207724094416));
#971=CARTESIAN_POINT('Ctrl Pts',(-110.,17.6059676483274,-15.3207724094416));
#972=CARTESIAN_POINT('Ctrl Pts',(-110.,17.7242755718323,-15.3001422270556));
#973=CARTESIAN_POINT('Ctrl Pts',(-110.,17.972308874889,-15.2568909203951));
#974=CARTESIAN_POINT('Ctrl Pts',(-110.,18.2240904253763,-15.2523661628494));
#975=CARTESIAN_POINT('Ctrl Pts',(-110.,18.3557761982083,-15.249999642375));
#976=CARTESIAN_POINT('',(-109.5,17.6059676483274,-15.3207724094416));
#977=CARTESIAN_POINT('Ctrl Pts',(-109.5,17.0321346595883,-15.5560438632988));
#978=CARTESIAN_POINT('Ctrl Pts',(-110.,17.0321346595883,-15.5560438632988));
#979=CARTESIAN_POINT('Ctrl Pts',(-109.5,17.1176675368452,-15.5046454458285));
#980=CARTESIAN_POINT('Ctrl Pts',(-110.,17.1176675368452,-15.5046454458285));
#981=CARTESIAN_POINT('Ctrl Pts',(-109.5,17.2968078785383,-15.396996429878));
#982=CARTESIAN_POINT('Ctrl Pts',(-110.,17.2968078785383,-15.396996429878));
#983=CARTESIAN_POINT('Ctrl Pts',(-109.5,17.4998635422436,-15.3469326098973));
#984=CARTESIAN_POINT('Ctrl Pts',(-110.,17.4998635422436,-15.3469326098973));
#985=CARTESIAN_POINT('Ctrl Pts',(-109.5,17.6059676483274,-15.3207724094416));
#986=CARTESIAN_POINT('Ctrl Pts',(-110.,17.6059676483274,-15.3207724094416));
#987=CARTESIAN_POINT('',(-109.5,17.0321346595883,-15.5560438632988));
#988=CARTESIAN_POINT('Ctrl Pts',(-109.5,17.6059676483274,-15.3207724094416));
#989=CARTESIAN_POINT('Ctrl Pts',(-109.5,17.4998635422436,-15.3469326098973));
#990=CARTESIAN_POINT('Ctrl Pts',(-109.5,17.2968078785383,-15.396996429878));
#991=CARTESIAN_POINT('Ctrl Pts',(-109.5,17.1176675368452,-15.5046454458285));
#992=CARTESIAN_POINT('Ctrl Pts',(-109.5,17.0321346595883,-15.5560438632988));
#993=CARTESIAN_POINT('',(-110.,17.0321346595883,-15.5560438632988));
#994=CARTESIAN_POINT('Ctrl Pts',(-110.,17.0321346595883,-15.5560438632988));
#995=CARTESIAN_POINT('Ctrl Pts',(-110.,17.1176675368452,-15.5046454458285));
#996=CARTESIAN_POINT('Ctrl Pts',(-110.,17.2968078785383,-15.396996429878));
#997=CARTESIAN_POINT('Ctrl Pts',(-110.,17.4998635422436,-15.3469326098973));
#998=CARTESIAN_POINT('Ctrl Pts',(-110.,17.6059676483274,-15.3207724094416));
#999=CARTESIAN_POINT('',(-109.5,17.0321346595883,-15.5560438632988));
#1000=CARTESIAN_POINT('Ctrl Pts',(-109.5,16.6667939499021,-15.9845064878485));
#1001=CARTESIAN_POINT('Ctrl Pts',(-110.,16.6667939499021,-15.9845064878485));
#1002=CARTESIAN_POINT('Ctrl Pts',(-109.5,16.7138834499014,-15.9007822444299));
#1003=CARTESIAN_POINT('Ctrl Pts',(-110.,16.7138834499014,-15.9007822444299));
#1004=CARTESIAN_POINT('Ctrl Pts',(-109.5,16.8076575056809,-15.734053740782));
#1005=CARTESIAN_POINT('Ctrl Pts',(-110.,16.8076575056809,-15.734053740782));
#1006=CARTESIAN_POINT('Ctrl Pts',(-109.5,16.957524665252,-15.6152094207715));
#1007=CARTESIAN_POINT('Ctrl Pts',(-110.,16.957524665252,-15.6152094207715));
#1008=CARTESIAN_POINT('Ctrl Pts',(-109.5,17.0321346595883,-15.5560438632988));
#1009=CARTESIAN_POINT('Ctrl Pts',(-110.,17.0321346595883,-15.5560438632988));
#1010=CARTESIAN_POINT('',(-109.5,16.6667939499021,-15.9845064878485));
#1011=CARTESIAN_POINT('Ctrl Pts',(-109.5,17.0321346595883,-15.5560438632988));
#1012=CARTESIAN_POINT('Ctrl Pts',(-109.5,16.957524665252,-15.6152094207715));
#1013=CARTESIAN_POINT('Ctrl Pts',(-109.5,16.8076575056809,-15.734053740782));
#1014=CARTESIAN_POINT('Ctrl Pts',(-109.5,16.7138834499014,-15.9007822444299));
#1015=CARTESIAN_POINT('Ctrl Pts',(-109.5,16.6667939499021,-15.9845064878485));
#1016=CARTESIAN_POINT('',(-110.,16.6667939499021,-15.9845064878485));
#1017=CARTESIAN_POINT('Ctrl Pts',(-110.,16.6667939499021,-15.9845064878485));
#1018=CARTESIAN_POINT('Ctrl Pts',(-110.,16.7138834499014,-15.9007822444299));
#1019=CARTESIAN_POINT('Ctrl Pts',(-110.,16.8076575056809,-15.734053740782));
#1020=CARTESIAN_POINT('Ctrl Pts',(-110.,16.957524665252,-15.6152094207715));
#1021=CARTESIAN_POINT('Ctrl Pts',(-110.,17.0321346595883,-15.5560438632988));
#1022=CARTESIAN_POINT('',(-109.5,16.6667939499021,-15.9845064878485));
#1023=CARTESIAN_POINT('Ctrl Pts',(-109.5,16.5386380031705,-16.6310249567053));
#1024=CARTESIAN_POINT('Ctrl Pts',(-110.,16.5386380031705,-16.6310249567053));
#1025=CARTESIAN_POINT('Ctrl Pts',(-109.5,16.5423540138856,-16.5119526048547));
#1026=CARTESIAN_POINT('Ctrl Pts',(-110.,16.5423540138856,-16.5119526048547));
#1027=CARTESIAN_POINT('Ctrl Pts',(-109.5,16.5493097874167,-16.2890683408476));
#1028=CARTESIAN_POINT('Ctrl Pts',(-110.,16.5493097874167,-16.2890683408476));
#1029=CARTESIAN_POINT('Ctrl Pts',(-109.5,16.6294618461139,-16.0812849341134));
#1030=CARTESIAN_POINT('Ctrl Pts',(-110.,16.6294618461139,-16.0812849341134));
#1031=CARTESIAN_POINT('Ctrl Pts',(-109.5,16.6667939499021,-15.9845064878485));
#1032=CARTESIAN_POINT('Ctrl Pts',(-110.,16.6667939499021,-15.9845064878485));
#1033=CARTESIAN_POINT('',(-109.5,16.5386380031705,-16.6310249567053));
#1034=CARTESIAN_POINT('Ctrl Pts',(-109.5,16.6667939499021,-15.9845064878485));
#1035=CARTESIAN_POINT('Ctrl Pts',(-109.5,16.6294618461139,-16.0812849341134));
#1036=CARTESIAN_POINT('Ctrl Pts',(-109.5,16.5493097874167,-16.2890683408476));
#1037=CARTESIAN_POINT('Ctrl Pts',(-109.5,16.5423540138856,-16.5119526048547));
#1038=CARTESIAN_POINT('Ctrl Pts',(-109.5,16.5386380031705,-16.6310249567053));
#1039=CARTESIAN_POINT('',(-110.,16.5386380031705,-16.6310249567053));
#1040=CARTESIAN_POINT('Ctrl Pts',(-110.,16.5386380031705,-16.6310249567053));
#1041=CARTESIAN_POINT('Ctrl Pts',(-110.,16.5423540138856,-16.5119526048547));
#1042=CARTESIAN_POINT('Ctrl Pts',(-110.,16.5493097874167,-16.2890683408476));
#1043=CARTESIAN_POINT('Ctrl Pts',(-110.,16.6294618461139,-16.0812849341134));
#1044=CARTESIAN_POINT('Ctrl Pts',(-110.,16.6667939499021,-15.9845064878485));
#1045=CARTESIAN_POINT('',(-109.5,16.5386380031705,-16.6310249567053));
#1046=CARTESIAN_POINT('Ctrl Pts',(-109.5,16.6189743354917,-17.1206961870215));
#1047=CARTESIAN_POINT('Ctrl Pts',(-110.,16.6189743354917,-17.1206961870215));
#1048=CARTESIAN_POINT('Ctrl Pts',(-109.5,16.5955573947305,-17.0447465072498));
#1049=CARTESIAN_POINT('Ctrl Pts',(-110.,16.5955573947305,-17.0447465072498));
#1050=CARTESIAN_POINT('Ctrl Pts',(-109.5,16.5463944949755,-16.8852932921131));
#1051=CARTESIAN_POINT('Ctrl Pts',(-110.,16.5463944949755,-16.8852932921131));
#1052=CARTESIAN_POINT('Ctrl Pts',(-109.5,16.541303887063,-16.7184162512221));
#1053=CARTESIAN_POINT('Ctrl Pts',(-110.,16.541303887063,-16.7184162512221));
#1054=CARTESIAN_POINT('Ctrl Pts',(-109.5,16.5386380031705,-16.6310249567053));
#1055=CARTESIAN_POINT('Ctrl Pts',(-110.,16.5386380031705,-16.6310249567053));
#1056=CARTESIAN_POINT('',(-109.5,16.6189743354917,-17.1206961870215));
#1057=CARTESIAN_POINT('Ctrl Pts',(-109.5,16.5386380031705,-16.6310249567053));
#1058=CARTESIAN_POINT('Ctrl Pts',(-109.5,16.541303887063,-16.7184162512221));
#1059=CARTESIAN_POINT('Ctrl Pts',(-109.5,16.5463944949755,-16.8852932921131));
#1060=CARTESIAN_POINT('Ctrl Pts',(-109.5,16.5955573947305,-17.0447465072498));
#1061=CARTESIAN_POINT('Ctrl Pts',(-109.5,16.6189743354917,-17.1206961870215));
#1062=CARTESIAN_POINT('',(-110.,16.6189743354917,-17.1206961870215));
#1063=CARTESIAN_POINT('Ctrl Pts',(-110.,16.6189743354917,-17.1206961870215));
#1064=CARTESIAN_POINT('Ctrl Pts',(-110.,16.5955573947305,-17.0447465072498));
#1065=CARTESIAN_POINT('Ctrl Pts',(-110.,16.5463944949755,-16.8852932921131));
#1066=CARTESIAN_POINT('Ctrl Pts',(-110.,16.541303887063,-16.7184162512221));
#1067=CARTESIAN_POINT('Ctrl Pts',(-110.,16.5386380031705,-16.6310249567053));
#1068=CARTESIAN_POINT('',(-109.5,16.6189743354917,-17.1206961870215));
#1069=CARTESIAN_POINT('Ctrl Pts',(-109.5,16.8446822240949,-17.4898623228095));
#1070=CARTESIAN_POINT('Ctrl Pts',(-110.,16.8446822240949,-17.4898623228095));
#1071=CARTESIAN_POINT('Ctrl Pts',(-109.5,16.7986913592276,-17.4350895816696));
#1072=CARTESIAN_POINT('Ctrl Pts',(-110.,16.7986913592276,-17.4350895816696));
#1073=CARTESIAN_POINT('Ctrl Pts',(-109.5,16.7049214137402,-17.323414426925));
#1074=CARTESIAN_POINT('Ctrl Pts',(-110.,16.7049214137402,-17.323414426925));
#1075=CARTESIAN_POINT('Ctrl Pts',(-109.5,16.6479852901667,-17.1891225930086));
#1076=CARTESIAN_POINT('Ctrl Pts',(-110.,16.6479852901667,-17.1891225930086));
#1077=CARTESIAN_POINT('Ctrl Pts',(-109.5,16.6189743354917,-17.1206961870215));
#1078=CARTESIAN_POINT('Ctrl Pts',(-110.,16.6189743354917,-17.1206961870215));
#1079=CARTESIAN_POINT('',(-109.5,16.8446822240949,-17.4898623228095));
#1080=CARTESIAN_POINT('Ctrl Pts',(-109.5,16.6189743354917,-17.1206961870215));
#1081=CARTESIAN_POINT('Ctrl Pts',(-109.5,16.6479852901667,-17.1891225930086));
#1082=CARTESIAN_POINT('Ctrl Pts',(-109.5,16.7049214137402,-17.323414426925));
#1083=CARTESIAN_POINT('Ctrl Pts',(-109.5,16.7986913592276,-17.4350895816696));
#1084=CARTESIAN_POINT('Ctrl Pts',(-109.5,16.8446822240949,-17.4898623228095));
#1085=CARTESIAN_POINT('',(-110.,16.8446822240949,-17.4898623228095));
#1086=CARTESIAN_POINT('Ctrl Pts',(-110.,16.8446822240949,-17.4898623228095));
#1087=CARTESIAN_POINT('Ctrl Pts',(-110.,16.7986913592276,-17.4350895816696));
#1088=CARTESIAN_POINT('Ctrl Pts',(-110.,16.7049214137402,-17.323414426925));
#1089=CARTESIAN_POINT('Ctrl Pts',(-110.,16.6479852901667,-17.1891225930086));
#1090=CARTESIAN_POINT('Ctrl Pts',(-110.,16.6189743354917,-17.1206961870215));
#1091=CARTESIAN_POINT('',(-109.5,16.8446822240949,-17.4898623228095));
#1092=CARTESIAN_POINT('Ctrl Pts',(-109.5,17.1908952072263,-17.7404354810738));
#1093=CARTESIAN_POINT('Ctrl Pts',(-110.,17.1908952072263,-17.7404354810738));
#1094=CARTESIAN_POINT('Ctrl Pts',(-109.5,17.1265523573771,-17.7063963004627));
#1095=CARTESIAN_POINT('Ctrl Pts',(-110.,17.1265523573771,-17.7063963004627));
#1096=CARTESIAN_POINT('Ctrl Pts',(-109.5,16.9993669303752,-17.6391116257714));
#1097=CARTESIAN_POINT('Ctrl Pts',(-110.,16.9993669303752,-17.6391116257714));
#1098=CARTESIAN_POINT('Ctrl Pts',(-109.5,16.8958367138345,-17.539219315628));
#1099=CARTESIAN_POINT('Ctrl Pts',(-110.,16.8958367138345,-17.539219315628));
#1100=CARTESIAN_POINT('Ctrl Pts',(-109.5,16.8446822240949,-17.4898623228095));
#1101=CARTESIAN_POINT('Ctrl Pts',(-110.,16.8446822240949,-17.4898623228095));
#1102=CARTESIAN_POINT('',(-109.5,17.1908952072263,-17.7404354810738));
#1103=CARTESIAN_POINT('Ctrl Pts',(-109.5,16.8446822240949,-17.4898623228095));
#1104=CARTESIAN_POINT('Ctrl Pts',(-109.5,16.8958367138345,-17.539219315628));
#1105=CARTESIAN_POINT('Ctrl Pts',(-109.5,16.9993669303752,-17.6391116257714));
#1106=CARTESIAN_POINT('Ctrl Pts',(-109.5,17.1265523573771,-17.7063963004627));
#1107=CARTESIAN_POINT('Ctrl Pts',(-109.5,17.1908952072263,-17.7404354810738));
#1108=CARTESIAN_POINT('',(-110.,17.1908952072263,-17.7404354810738));
#1109=CARTESIAN_POINT('Ctrl Pts',(-110.,17.1908952072263,-17.7404354810738));
#1110=CARTESIAN_POINT('Ctrl Pts',(-110.,17.1265523573771,-17.7063963004627));
#1111=CARTESIAN_POINT('Ctrl Pts',(-110.,16.9993669303752,-17.6391116257714));
#1112=CARTESIAN_POINT('Ctrl Pts',(-110.,16.8958367138345,-17.539219315628));
#1113=CARTESIAN_POINT('Ctrl Pts',(-110.,16.8446822240949,-17.4898623228095));
#1114=CARTESIAN_POINT('',(-109.5,17.1908952072263,-17.7404354810738));
#1115=CARTESIAN_POINT('Ctrl Pts',(-109.5,17.6289213970304,-17.8743301630046));
#1116=CARTESIAN_POINT('Ctrl Pts',(-110.,17.6289213970304,-17.8743301630046));
#1117=CARTESIAN_POINT('Ctrl Pts',(-109.5,17.5520551212294,-17.8595093033389));
#1118=CARTESIAN_POINT('Ctrl Pts',(-110.,17.5520551212294,-17.8595093033389));
#1119=CARTESIAN_POINT('Ctrl Pts',(-109.5,17.4012670227613,-17.830435314475));
#1120=CARTESIAN_POINT('Ctrl Pts',(-110.,17.4012670227613,-17.830435314475));
#1121=CARTESIAN_POINT('Ctrl Pts',(-109.5,17.2601002871069,-17.7700423257167));
#1122=CARTESIAN_POINT('Ctrl Pts',(-110.,17.2601002871069,-17.7700423257167));
#1123=CARTESIAN_POINT('Ctrl Pts',(-109.5,17.1908952072263,-17.7404354810738));
#1124=CARTESIAN_POINT('Ctrl Pts',(-110.,17.1908952072263,-17.7404354810738));
#1125=CARTESIAN_POINT('',(-109.5,17.6289213970304,-17.8743301630046));
#1126=CARTESIAN_POINT('Ctrl Pts',(-109.5,17.1908952072263,-17.7404354810738));
#1127=CARTESIAN_POINT('Ctrl Pts',(-109.5,17.2601002871069,-17.7700423257167));
#1128=CARTESIAN_POINT('Ctrl Pts',(-109.5,17.4012670227613,-17.830435314475));
#1129=CARTESIAN_POINT('Ctrl Pts',(-109.5,17.5520551212294,-17.8595093033389));
#1130=CARTESIAN_POINT('Ctrl Pts',(-109.5,17.6289213970304,-17.8743301630046));
#1131=CARTESIAN_POINT('',(-110.,17.6289213970304,-17.8743301630046));
#1132=CARTESIAN_POINT('Ctrl Pts',(-110.,17.6289213970304,-17.8743301630046));
#1133=CARTESIAN_POINT('Ctrl Pts',(-110.,17.5520551212294,-17.8595093033389));
#1134=CARTESIAN_POINT('Ctrl Pts',(-110.,17.4012670227613,-17.830435314475));
#1135=CARTESIAN_POINT('Ctrl Pts',(-110.,17.2601002871069,-17.7700423257167));
#1136=CARTESIAN_POINT('Ctrl Pts',(-110.,17.1908952072263,-17.7404354810738));
#1137=CARTESIAN_POINT('',(-109.5,17.6289213970304,-17.8743301630046));
#1138=CARTESIAN_POINT('Ctrl Pts',(-109.5,17.2922719791532,-18.0828230381036));
#1139=CARTESIAN_POINT('Ctrl Pts',(-110.,17.2922719791532,-18.0828230381036));
#1140=CARTESIAN_POINT('Ctrl Pts',(-109.5,17.3427406245687,-18.0319891993032));
#1141=CARTESIAN_POINT('Ctrl Pts',(-110.,17.3427406245687,-18.0319891993032));
#1142=CARTESIAN_POINT('Ctrl Pts',(-109.5,17.4385533581962,-17.9354831604317));
#1143=CARTESIAN_POINT('Ctrl Pts',(-110.,17.4385533581962,-17.9354831604317));
#1144=CARTESIAN_POINT('Ctrl Pts',(-109.5,17.5677690911541,-17.8939744626823));
#1145=CARTESIAN_POINT('Ctrl Pts',(-110.,17.5677690911541,-17.8939744626823));
#1146=CARTESIAN_POINT('Ctrl Pts',(-109.5,17.6289213970304,-17.8743301630046));
#1147=CARTESIAN_POINT('Ctrl Pts',(-110.,17.6289213970304,-17.8743301630046));
#1148=CARTESIAN_POINT('',(-109.5,17.2922719791532,-18.0828230381036));
#1149=CARTESIAN_POINT('Ctrl Pts',(-109.5,17.6289213970304,-17.8743301630046));
#1150=CARTESIAN_POINT('Ctrl Pts',(-109.5,17.5677690911541,-17.8939744626823));
#1151=CARTESIAN_POINT('Ctrl Pts',(-109.5,17.4385533581962,-17.9354831604317));
#1152=CARTESIAN_POINT('Ctrl Pts',(-109.5,17.3427406245687,-18.0319891993032));
#1153=CARTESIAN_POINT('Ctrl Pts',(-109.5,17.2922719791532,-18.0828230381036));
#1154=CARTESIAN_POINT('',(-110.,17.2922719791532,-18.0828230381036));
#1155=CARTESIAN_POINT('Ctrl Pts',(-110.,17.2922719791532,-18.0828230381036));
#1156=CARTESIAN_POINT('Ctrl Pts',(-110.,17.3427406245687,-18.0319891993032));
#1157=CARTESIAN_POINT('Ctrl Pts',(-110.,17.4385533581962,-17.9354831604317));
#1158=CARTESIAN_POINT('Ctrl Pts',(-110.,17.5677690911541,-17.8939744626823));
#1159=CARTESIAN_POINT('Ctrl Pts',(-110.,17.6289213970304,-17.8743301630046));
#1160=CARTESIAN_POINT('',(-109.5,17.2922719791532,-18.0828230381036));
#1161=CARTESIAN_POINT('Ctrl Pts',(-109.5,16.9862277582288,-18.5744069814705));
#1162=CARTESIAN_POINT('Ctrl Pts',(-110.,16.9862277582288,-18.5744069814705));
#1163=CARTESIAN_POINT('Ctrl Pts',(-109.5,17.0337270207446,-18.4776623369993));
#1164=CARTESIAN_POINT('Ctrl Pts',(-110.,17.0337270207446,-18.4776623369993));
#1165=CARTESIAN_POINT('Ctrl Pts',(-109.5,17.1192933077209,-18.303384262482));
#1166=CARTESIAN_POINT('Ctrl Pts',(-110.,17.1192933077209,-18.303384262482));
#1167=CARTESIAN_POINT('Ctrl Pts',(-109.5,17.2390113874887,-18.1507344240066));
#1168=CARTESIAN_POINT('Ctrl Pts',(-110.,17.2390113874887,-18.1507344240066));
#1169=CARTESIAN_POINT('Ctrl Pts',(-109.5,17.2922719791532,-18.0828230381036));
#1170=CARTESIAN_POINT('Ctrl Pts',(-110.,17.2922719791532,-18.0828230381036));
#1171=CARTESIAN_POINT('',(-109.5,16.9862277582288,-18.5744069814705));
#1172=CARTESIAN_POINT('Ctrl Pts',(-109.5,17.2922719791532,-18.0828230381036));
#1173=CARTESIAN_POINT('Ctrl Pts',(-109.5,17.2390113874887,-18.1507344240066));
#1174=CARTESIAN_POINT('Ctrl Pts',(-109.5,17.1192933077209,-18.303384262482));
#1175=CARTESIAN_POINT('Ctrl Pts',(-109.5,17.0337270207446,-18.4776623369993));
#1176=CARTESIAN_POINT('Ctrl Pts',(-109.5,16.9862277582288,-18.5744069814705));
#1177=CARTESIAN_POINT('',(-110.,16.9862277582288,-18.5744069814705));
#1178=CARTESIAN_POINT('Ctrl Pts',(-110.,16.9862277582288,-18.5744069814705));
#1179=CARTESIAN_POINT('Ctrl Pts',(-110.,17.0337270207446,-18.4776623369993));
#1180=CARTESIAN_POINT('Ctrl Pts',(-110.,17.1192933077209,-18.303384262482));
#1181=CARTESIAN_POINT('Ctrl Pts',(-110.,17.2390113874887,-18.1507344240066));
#1182=CARTESIAN_POINT('Ctrl Pts',(-110.,17.2922719791532,-18.0828230381036));
#1183=CARTESIAN_POINT('',(-109.5,16.9862277582288,-18.5744069814705));
#1184=CARTESIAN_POINT('Origin',(-109.5,16.1866868808866,-20.249999642374));
#1185=CARTESIAN_POINT('',(-109.5,16.9862277582288,-18.5744069814705));
#1186=CARTESIAN_POINT('',(-110.,16.9862277582288,-18.5744069814705));
#1187=CARTESIAN_POINT('Origin',(-110.,2.22044604925031E-15,-17.75));
#1188=CARTESIAN_POINT('Origin',(-109.5,2.22044604925031E-15,-17.75));
#1189=UNCERTAINTY_MEASURE_WITH_UNIT(LENGTH_MEASURE(0.01),#1193,
'DISTANCE_ACCURACY_VALUE',
'Maximum model space distance between geometric entities at asserted c
onnectivities');
#1190=UNCERTAINTY_MEASURE_WITH_UNIT(LENGTH_MEASURE(0.01),#1193,
'DISTANCE_ACCURACY_VALUE',
'Maximum model space distance between geometric entities at asserted c
onnectivities');
#1191=(
GEOMETRIC_REPRESENTATION_CONTEXT(3)
GLOBAL_UNCERTAINTY_ASSIGNED_CONTEXT((#1189))
GLOBAL_UNIT_ASSIGNED_CONTEXT((#1193,#1195,#1196))
REPRESENTATION_CONTEXT('','3D')
);
#1192=(
GEOMETRIC_REPRESENTATION_CONTEXT(3)
GLOBAL_UNCERTAINTY_ASSIGNED_CONTEXT((#1190))
GLOBAL_UNIT_ASSIGNED_CONTEXT((#1193,#1195,#1196))
REPRESENTATION_CONTEXT('','3D')
);
#1193=(
LENGTH_UNIT()
NAMED_UNIT(*)
SI_UNIT(.MILLI.,.METRE.)
);
#1194=(
LENGTH_UNIT()
NAMED_UNIT(*)
SI_UNIT($,.METRE.)
);
#1195=(
NAMED_UNIT(*)
PLANE_ANGLE_UNIT()
SI_UNIT($,.RADIAN.)
);
#1196=(
NAMED_UNIT(*)
SI_UNIT($,.STERADIAN.)
SOLID_ANGLE_UNIT()
);
#1197=SHAPE_DEFINITION_REPRESENTATION(#1198,#1199);
#1198=PRODUCT_DEFINITION_SHAPE('',$,#1201);
#1199=SHAPE_REPRESENTATION('',(#613),#1191);
#1200=PRODUCT_DEFINITION_CONTEXT('part definition',#1205,'design');
#1201=PRODUCT_DEFINITION('2026-08-04-11-14-07-995','Body4',#1202,#1200);
#1202=PRODUCT_DEFINITION_FORMATION('',$,#1207);
#1203=PRODUCT_RELATED_PRODUCT_CATEGORY('Body4','Body4',(#1207));
#1204=APPLICATION_PROTOCOL_DEFINITION('international standard',
'automotive_design',2009,#1205);
#1205=APPLICATION_CONTEXT(
'Core Data for Automotive Mechanical Design Process');
#1206=PRODUCT_CONTEXT('part definition',#1205,'mechanical');
#1207=PRODUCT('2026-08-04-11-14-07-995','Body4',$,(#1206));
#1208=PRESENTATION_STYLE_ASSIGNMENT((#1209));
#1209=SURFACE_STYLE_USAGE(.BOTH.,#1210);
#1210=SURFACE_SIDE_STYLE('',(#1211));
#1211=SURFACE_STYLE_FILL_AREA(#1212);
#1212=FILL_AREA_STYLE('Steel - Satin',(#1213));
#1213=FILL_AREA_STYLE_COLOUR('Steel - Satin',#1214);
#1214=COLOUR_RGB('Steel - Satin',0.627450980392157,0.627450980392157,0.627450980392157);
ENDSEC;
END-ISO-10303-21;
