ISO-10303-21;
HEADER;
/* Generated by software containing ST-Developer
 * from STEP Tools, Inc. (www.steptools.com) 
 */

FILE_DESCRIPTION(
/* description */ (''),
/* implementation_level */ '2;1');

FILE_NAME(
/* name */ 'Shaft Extender - 60AIM.step',
/* time_stamp */ '2026-09-01T22:14:33+02:00',
/* author */ (''),
/* organization */ (''),
/* preprocessor_version */ 'ST-DEVELOPER v20.1',
/* originating_system */ 'Autodesk Translation Framework v15.8.0.0',
/* authorisation */ '');

FILE_SCHEMA (('AUTOMOTIVE_DESIGN { 1 0 10303 214 3 1 1 }'));
ENDSEC;

DATA;
#10=MECHANICAL_DESIGN_GEOMETRIC_PRESENTATION_REPRESENTATION('',(#13),#730);
#11=SHAPE_REPRESENTATION_RELATIONSHIP('SRR','None',#737,#12);
#12=ADVANCED_BREP_SHAPE_REPRESENTATION('',(#14),#729);
#13=STYLED_ITEM('',(#747),#14);
#14=MANIFOLD_SOLID_BREP('Body1',#304);
#15=B_SPLINE_SURFACE_WITH_KNOTS('',3,3,((#496,#497,#498,#499,#500,#501,
#502,#503,#504,#505,#506,#507,#508),(#509,#510,#511,#512,#513,#514,#515,
#516,#517,#518,#519,#520,#521),(#522,#523,#524,#525,#526,#527,#528,#529,
#530,#531,#532,#533,#534),(#535,#536,#537,#538,#539,#540,#541,#542,#543,
#544,#545,#546,#547)),.UNSPECIFIED.,.F.,.F.,.F.,(4,4),(4,1,1,1,1,1,1,1,
1,1,4),(0.,1.),(1.5214008371295,1.6029044534043,1.6300723254959,1.73874381386229,
1.84741530222868,1.95608679059508,1.99683859873247,2.06475827896147,2.11909402314467,
2.17342976732786,2.28210125569426),.UNSPECIFIED.);
#16=(
BOUNDED_CURVE()
B_SPLINE_CURVE(2,(#481,#482,#483),.UNSPECIFIED.,.F.,.F.)
B_SPLINE_CURVE_WITH_KNOTS((3,3),(-0.834801747492083,-0.828984163235371),
 .UNSPECIFIED.)
CURVE()
GEOMETRIC_REPRESENTATION_ITEM()
RATIONAL_B_SPLINE_CURVE((2.94444444444553,2.93868097842792,2.93290341062424))
REPRESENTATION_ITEM('')
);
#17=(
BOUNDED_CURVE()
B_SPLINE_CURVE(2,(#493,#494,#495),.UNSPECIFIED.,.F.,.F.)
B_SPLINE_CURVE_WITH_KNOTS((3,3),(-5.59596719844822,-5.59014961419151),
 .UNSPECIFIED.)
CURVE()
GEOMETRIC_REPRESENTATION_ITEM()
RATIONAL_B_SPLINE_CURVE((2.93290341062427,2.93868097842796,2.94444444444557))
REPRESENTATION_ITEM('')
);
#18=B_SPLINE_CURVE_WITH_KNOTS('',3,(#476,#477,#478,#479),.UNSPECIFIED.,
 .F.,.F.,(4,4),(-0.0935098679369549,0.),.UNSPECIFIED.);
#19=B_SPLINE_CURVE_WITH_KNOTS('',3,(#489,#490,#491,#492),.UNSPECIFIED.,
 .F.,.F.,(4,4),(-0.0935098679369582,0.),.UNSPECIFIED.);
#20=B_SPLINE_CURVE_WITH_KNOTS('',3,(#549,#550,#551,#552,#553,#554,#555,
#556,#557,#558,#559,#560,#561,#562,#563,#564,#565,#566,#567,#568,#569,#570,
#571,#572,#573,#574,#575,#576,#577,#578,#579,#580,#581,#582,#583,#584,#585,
#586,#587,#588,#589,#590,#591,#592,#593,#594,#595,#596,#597,#598,#599,#600,
#601,#602,#603,#604,#605,#606,#607,#608,#609,#610,#611,#612,#613,#614,#615,
#616,#617,#618,#619,#620,#621,#622,#623,#624,#625,#626,#627,#628,#629,#630,
#631,#632,#633,#634,#635,#636,#637,#638,#639,#640,#641,#642,#643,#644,#645,
#646,#647,#648,#649,#650,#651,#652,#653,#654,#655,#656,#657,#658,#659,#660,
#661,#662,#663,#664,#665,#666,#667,#668,#669,#670,#671,#672,#673,#674,#675,
#676,#677,#678,#679,#680,#681,#682,#683,#684,#685,#686,#687,#688,#689,#690),
 .UNSPECIFIED.,.F.,.F.,(4,3,3,3,3,3,3,3,3,3,3,3,3,3,3,3,3,3,3,3,3,3,3,3,
3,3,3,3,3,3,3,3,3,3,3,3,3,3,3,3,3,3,3,3,3,3,3,4),(-2.28210125569426,-2.25063742099194,
-2.21881078224063,-2.18862360672749,-2.18698414348932,-2.17338057809221,
-2.15236765529434,-2.13037171412022,-2.11911685620941,-2.09644119764036,
-2.09186703128438,-2.07106617218827,-2.06450931328981,-2.04258428053719,
-2.01969665969266,-1.99905106336056,-1.99680903884813,-1.9967312143843,
-1.97842546696446,-1.9592083490704,-1.95611784651533,-1.93677070037039,
-1.91749619204763,-1.90175104641188,-1.88290268700431,-1.86447205591546,
-1.84714175415247,-1.82883601619924,-1.8102811019832,-1.80669305397563,
-1.78548661998562,-1.76439879191239,-1.74392014925899,-1.73878085165484,
-1.71833815423935,-1.71163506153938,-1.69511110484151,-1.67888016138477,
-1.66304254480485,-1.6466149379097,-1.63117305005137,-1.63018733101456,
-1.61651794933444,-1.60293431350252,-1.57817217108617,-1.55255106327711,
-1.52668828509578,-1.5214008371295),.UNSPECIFIED.);
#21=B_SPLINE_CURVE_WITH_KNOTS('',3,(#693,#694,#695,#696,#697,#698,#699,
#700,#701,#702,#703,#704,#705),.UNSPECIFIED.,.F.,.F.,(4,1,1,1,1,1,1,1,1,
1,4),(1.5214008371295,1.6029044534043,1.6300723254959,1.73874381386229,
1.84741530222868,1.95608679059508,1.99683859873247,2.06475827896147,2.11909402314467,
2.17342976732786,2.28210125569426),.UNSPECIFIED.);
#22=FACE_BOUND('',#68,.T.);
#23=FACE_BOUND('',#79,.T.);
#24=CYLINDRICAL_SURFACE('',#327,2.625);
#25=CYLINDRICAL_SURFACE('',#337,2.5);
#26=CYLINDRICAL_SURFACE('',#339,7.);
#27=CIRCLE('',#320,2.5);
#28=CIRCLE('',#321,2.);
#29=CIRCLE('',#325,2.625);
#30=CIRCLE('',#326,3.125);
#31=CIRCLE('',#328,2.625);
#32=CIRCLE('',#330,6.5);
#33=CIRCLE('',#333,7.);
#34=CIRCLE('',#334,7.);
#35=CIRCLE('',#340,7.);
#36=CIRCLE('',#342,6.5);
#37=CIRCLE('',#344,5.125);
#38=CONICAL_SURFACE('',#319,2.25,0.785398163397451);
#39=CONICAL_SURFACE('',#324,2.875,0.785398163397448);
#40=CONICAL_SURFACE('',#332,6.75,0.785398163397449);
#41=CONICAL_SURFACE('',#341,6.75,0.785398163397448);
#42=CONICAL_SURFACE('',#345,3.875,0.785398163397448);
#43=FACE_OUTER_BOUND('',#61,.T.);
#44=FACE_OUTER_BOUND('',#62,.T.);
#45=FACE_OUTER_BOUND('',#63,.T.);
#46=FACE_OUTER_BOUND('',#64,.T.);
#47=FACE_OUTER_BOUND('',#65,.T.);
#48=FACE_OUTER_BOUND('',#66,.T.);
#49=FACE_OUTER_BOUND('',#67,.T.);
#50=FACE_OUTER_BOUND('',#69,.T.);
#51=FACE_OUTER_BOUND('',#70,.T.);
#52=FACE_OUTER_BOUND('',#71,.T.);
#53=FACE_OUTER_BOUND('',#72,.T.);
#54=FACE_OUTER_BOUND('',#73,.T.);
#55=FACE_OUTER_BOUND('',#74,.T.);
#56=FACE_OUTER_BOUND('',#75,.T.);
#57=FACE_OUTER_BOUND('',#76,.T.);
#58=FACE_OUTER_BOUND('',#77,.T.);
#59=FACE_OUTER_BOUND('',#78,.T.);
#60=FACE_OUTER_BOUND('',#80,.T.);
#61=EDGE_LOOP('',(#195,#196,#197,#198));
#62=EDGE_LOOP('',(#199,#200,#201,#202));
#63=EDGE_LOOP('',(#203,#204,#205,#206));
#64=EDGE_LOOP('',(#207,#208,#209,#210));
#65=EDGE_LOOP('',(#211,#212,#213,#214));
#66=EDGE_LOOP('',(#215,#216,#217,#218));
#67=EDGE_LOOP('',(#219,#220,#221,#222,#223,#224));
#68=EDGE_LOOP('',(#225));
#69=EDGE_LOOP('',(#226,#227,#228,#229));
#70=EDGE_LOOP('',(#230,#231,#232,#233,#234,#235,#236));
#71=EDGE_LOOP('',(#237,#238,#239,#240));
#72=EDGE_LOOP('',(#241,#242,#243,#244));
#73=EDGE_LOOP('',(#245,#246,#247,#248,#249));
#74=EDGE_LOOP('',(#250,#251,#252,#253));
#75=EDGE_LOOP('',(#254,#255,#256,#257,#258));
#76=EDGE_LOOP('',(#259,#260,#261,#262,#263,#264,#265,#266));
#77=EDGE_LOOP('',(#267,#268,#269,#270));
#78=EDGE_LOOP('',(#271));
#79=EDGE_LOOP('',(#272));
#80=EDGE_LOOP('',(#273,#274,#275,#276));
#81=LINE('',#432,#105);
#82=LINE('',#434,#106);
#83=LINE('',#436,#107);
#84=LINE('',#437,#108);
#85=LINE('',#441,#109);
#86=LINE('',#447,#110);
#87=LINE('',#448,#111);
#88=LINE('',#449,#112);
#89=LINE('',#451,#113);
#90=LINE('',#456,#114);
#91=LINE('',#461,#115);
#92=LINE('',#466,#116);
#93=LINE('',#467,#117);
#94=LINE('',#471,#118);
#95=LINE('',#473,#119);
#96=LINE('',#475,#120);
#97=LINE('',#692,#121);
#98=LINE('',#707,#122);
#99=LINE('',#708,#123);
#100=LINE('',#710,#124);
#101=LINE('',#712,#125);
#102=LINE('',#717,#126);
#103=LINE('',#721,#127);
#104=LINE('',#726,#128);
#105=VECTOR('',#350,10.);
#106=VECTOR('',#351,10.);
#107=VECTOR('',#352,10.);
#108=VECTOR('',#353,10.);
#109=VECTOR('',#356,10.);
#110=VECTOR('',#363,10.);
#111=VECTOR('',#364,10.);
#112=VECTOR('',#365,10.);
#113=VECTOR('',#368,10.);
#114=VECTOR('',#373,2.875);
#115=VECTOR('',#380,2.625);
#116=VECTOR('',#385,10.);
#117=VECTOR('',#386,10.);
#118=VECTOR('',#389,10.);
#119=VECTOR('',#390,10.);
#120=VECTOR('',#391,10.);
#121=VECTOR('',#398,10.);
#122=VECTOR('',#401,10.);
#123=VECTOR('',#402,10.);
#124=VECTOR('',#405,10.);
#125=VECTOR('',#408,10.);
#126=VECTOR('',#415,7.);
#127=VECTOR('',#420,6.75);
#128=VECTOR('',#427,3.875);
#129=VERTEX_POINT('',#430);
#130=VERTEX_POINT('',#431);
#131=VERTEX_POINT('',#433);
#132=VERTEX_POINT('',#435);
#133=VERTEX_POINT('',#439);
#134=VERTEX_POINT('',#440);
#135=VERTEX_POINT('',#445);
#136=VERTEX_POINT('',#446);
#137=VERTEX_POINT('',#453);
#138=VERTEX_POINT('',#455);
#139=VERTEX_POINT('',#459);
#140=VERTEX_POINT('',#463);
#141=VERTEX_POINT('',#464);
#142=VERTEX_POINT('',#469);
#143=VERTEX_POINT('',#470);
#144=VERTEX_POINT('',#472);
#145=VERTEX_POINT('',#474);
#146=VERTEX_POINT('',#484);
#147=VERTEX_POINT('',#486);
#148=VERTEX_POINT('',#488);
#149=VERTEX_POINT('',#548);
#150=VERTEX_POINT('',#691);
#151=VERTEX_POINT('',#715);
#152=VERTEX_POINT('',#719);
#153=VERTEX_POINT('',#723);
#154=EDGE_CURVE('',#129,#130,#81,.F.);
#155=EDGE_CURVE('',#130,#131,#82,.T.);
#156=EDGE_CURVE('',#131,#132,#83,.T.);
#157=EDGE_CURVE('',#132,#129,#84,.T.);
#158=EDGE_CURVE('',#133,#134,#85,.T.);
#159=EDGE_CURVE('',#134,#132,#27,.T.);
#160=EDGE_CURVE('',#131,#133,#28,.T.);
#161=EDGE_CURVE('',#135,#136,#86,.F.);
#162=EDGE_CURVE('',#136,#134,#87,.T.);
#163=EDGE_CURVE('',#133,#135,#88,.T.);
#164=EDGE_CURVE('',#135,#130,#89,.T.);
#165=EDGE_CURVE('',#137,#137,#29,.T.);
#166=EDGE_CURVE('',#137,#138,#90,.T.);
#167=EDGE_CURVE('',#138,#138,#30,.T.);
#168=EDGE_CURVE('',#139,#139,#31,.T.);
#169=EDGE_CURVE('',#139,#137,#91,.T.);
#170=EDGE_CURVE('',#140,#141,#32,.T.);
#171=EDGE_CURVE('',#140,#136,#92,.T.);
#172=EDGE_CURVE('',#129,#141,#93,.T.);
#173=EDGE_CURVE('',#142,#143,#94,.T.);
#174=EDGE_CURVE('',#143,#144,#95,.T.);
#175=EDGE_CURVE('',#144,#145,#96,.T.);
#176=EDGE_CURVE('',#145,#142,#18,.T.);
#177=EDGE_CURVE('',#141,#142,#16,.T.);
#178=EDGE_CURVE('',#145,#146,#33,.T.);
#179=EDGE_CURVE('',#146,#147,#34,.T.);
#180=EDGE_CURVE('',#147,#148,#19,.T.);
#181=EDGE_CURVE('',#148,#140,#17,.T.);
#182=EDGE_CURVE('',#143,#149,#20,.T.);
#183=EDGE_CURVE('',#149,#150,#97,.T.);
#184=EDGE_CURVE('',#150,#144,#21,.T.);
#185=EDGE_CURVE('',#147,#150,#98,.T.);
#186=EDGE_CURVE('',#149,#148,#99,.T.);
#187=EDGE_CURVE('',#134,#149,#100,.T.);
#188=EDGE_CURVE('',#143,#132,#101,.T.);
#189=EDGE_CURVE('',#151,#151,#35,.T.);
#190=EDGE_CURVE('',#151,#146,#102,.T.);
#191=EDGE_CURVE('',#152,#152,#36,.T.);
#192=EDGE_CURVE('',#152,#151,#103,.T.);
#193=EDGE_CURVE('',#153,#153,#37,.T.);
#194=EDGE_CURVE('',#153,#139,#104,.T.);
#195=ORIENTED_EDGE('',*,*,#154,.T.);
#196=ORIENTED_EDGE('',*,*,#155,.T.);
#197=ORIENTED_EDGE('',*,*,#156,.T.);
#198=ORIENTED_EDGE('',*,*,#157,.T.);
#199=ORIENTED_EDGE('',*,*,#158,.T.);
#200=ORIENTED_EDGE('',*,*,#159,.T.);
#201=ORIENTED_EDGE('',*,*,#156,.F.);
#202=ORIENTED_EDGE('',*,*,#160,.T.);
#203=ORIENTED_EDGE('',*,*,#161,.T.);
#204=ORIENTED_EDGE('',*,*,#162,.T.);
#205=ORIENTED_EDGE('',*,*,#158,.F.);
#206=ORIENTED_EDGE('',*,*,#163,.T.);
#207=ORIENTED_EDGE('',*,*,#163,.F.);
#208=ORIENTED_EDGE('',*,*,#160,.F.);
#209=ORIENTED_EDGE('',*,*,#155,.F.);
#210=ORIENTED_EDGE('',*,*,#164,.F.);
#211=ORIENTED_EDGE('',*,*,#165,.T.);
#212=ORIENTED_EDGE('',*,*,#166,.T.);
#213=ORIENTED_EDGE('',*,*,#167,.T.);
#214=ORIENTED_EDGE('',*,*,#166,.F.);
#215=ORIENTED_EDGE('',*,*,#168,.F.);
#216=ORIENTED_EDGE('',*,*,#169,.T.);
#217=ORIENTED_EDGE('',*,*,#165,.F.);
#218=ORIENTED_EDGE('',*,*,#169,.F.);
#219=ORIENTED_EDGE('',*,*,#170,.F.);
#220=ORIENTED_EDGE('',*,*,#171,.T.);
#221=ORIENTED_EDGE('',*,*,#161,.F.);
#222=ORIENTED_EDGE('',*,*,#164,.T.);
#223=ORIENTED_EDGE('',*,*,#154,.F.);
#224=ORIENTED_EDGE('',*,*,#172,.T.);
#225=ORIENTED_EDGE('',*,*,#167,.F.);
#226=ORIENTED_EDGE('',*,*,#173,.T.);
#227=ORIENTED_EDGE('',*,*,#174,.T.);
#228=ORIENTED_EDGE('',*,*,#175,.T.);
#229=ORIENTED_EDGE('',*,*,#176,.T.);
#230=ORIENTED_EDGE('',*,*,#170,.T.);
#231=ORIENTED_EDGE('',*,*,#177,.T.);
#232=ORIENTED_EDGE('',*,*,#176,.F.);
#233=ORIENTED_EDGE('',*,*,#178,.T.);
#234=ORIENTED_EDGE('',*,*,#179,.T.);
#235=ORIENTED_EDGE('',*,*,#180,.T.);
#236=ORIENTED_EDGE('',*,*,#181,.T.);
#237=ORIENTED_EDGE('',*,*,#174,.F.);
#238=ORIENTED_EDGE('',*,*,#182,.T.);
#239=ORIENTED_EDGE('',*,*,#183,.T.);
#240=ORIENTED_EDGE('',*,*,#184,.T.);
#241=ORIENTED_EDGE('',*,*,#185,.T.);
#242=ORIENTED_EDGE('',*,*,#183,.F.);
#243=ORIENTED_EDGE('',*,*,#186,.T.);
#244=ORIENTED_EDGE('',*,*,#180,.F.);
#245=ORIENTED_EDGE('',*,*,#162,.F.);
#246=ORIENTED_EDGE('',*,*,#171,.F.);
#247=ORIENTED_EDGE('',*,*,#181,.F.);
#248=ORIENTED_EDGE('',*,*,#186,.F.);
#249=ORIENTED_EDGE('',*,*,#187,.F.);
#250=ORIENTED_EDGE('',*,*,#159,.F.);
#251=ORIENTED_EDGE('',*,*,#187,.T.);
#252=ORIENTED_EDGE('',*,*,#182,.F.);
#253=ORIENTED_EDGE('',*,*,#188,.T.);
#254=ORIENTED_EDGE('',*,*,#157,.F.);
#255=ORIENTED_EDGE('',*,*,#188,.F.);
#256=ORIENTED_EDGE('',*,*,#173,.F.);
#257=ORIENTED_EDGE('',*,*,#177,.F.);
#258=ORIENTED_EDGE('',*,*,#172,.F.);
#259=ORIENTED_EDGE('',*,*,#189,.F.);
#260=ORIENTED_EDGE('',*,*,#190,.T.);
#261=ORIENTED_EDGE('',*,*,#178,.F.);
#262=ORIENTED_EDGE('',*,*,#175,.F.);
#263=ORIENTED_EDGE('',*,*,#184,.F.);
#264=ORIENTED_EDGE('',*,*,#185,.F.);
#265=ORIENTED_EDGE('',*,*,#179,.F.);
#266=ORIENTED_EDGE('',*,*,#190,.F.);
#267=ORIENTED_EDGE('',*,*,#191,.T.);
#268=ORIENTED_EDGE('',*,*,#192,.T.);
#269=ORIENTED_EDGE('',*,*,#189,.T.);
#270=ORIENTED_EDGE('',*,*,#192,.F.);
#271=ORIENTED_EDGE('',*,*,#191,.F.);
#272=ORIENTED_EDGE('',*,*,#193,.F.);
#273=ORIENTED_EDGE('',*,*,#193,.T.);
#274=ORIENTED_EDGE('',*,*,#194,.T.);
#275=ORIENTED_EDGE('',*,*,#168,.T.);
#276=ORIENTED_EDGE('',*,*,#194,.F.);
#277=PLANE('',#318);
#278=PLANE('',#322);
#279=PLANE('',#323);
#280=PLANE('',#329);
#281=PLANE('',#331);
#282=PLANE('',#335);
#283=PLANE('',#336);
#284=PLANE('',#338);
#285=PLANE('',#343);
#286=ADVANCED_FACE('',(#43),#277,.T.);
#287=ADVANCED_FACE('',(#44),#38,.T.);
#288=ADVANCED_FACE('',(#45),#278,.T.);
#289=ADVANCED_FACE('',(#46),#279,.T.);
#290=ADVANCED_FACE('',(#47),#39,.F.);
#291=ADVANCED_FACE('',(#48),#24,.F.);
#292=ADVANCED_FACE('',(#49,#22),#280,.F.);
#293=ADVANCED_FACE('',(#50),#281,.T.);
#294=ADVANCED_FACE('',(#51),#40,.T.);
#295=ADVANCED_FACE('',(#52),#15,.T.);
#296=ADVANCED_FACE('',(#53),#282,.T.);
#297=ADVANCED_FACE('',(#54),#283,.T.);
#298=ADVANCED_FACE('',(#55),#25,.T.);
#299=ADVANCED_FACE('',(#56),#284,.T.);
#300=ADVANCED_FACE('',(#57),#26,.T.);
#301=ADVANCED_FACE('',(#58),#41,.T.);
#302=ADVANCED_FACE('',(#59,#23),#285,.T.);
#303=ADVANCED_FACE('',(#60),#42,.F.);
#304=CLOSED_SHELL('',(#286,#287,#288,#289,#290,#291,#292,#293,#294,#295,
#296,#297,#298,#299,#300,#301,#302,#303));
#305=DERIVED_UNIT_ELEMENT(#307,1.);
#306=DERIVED_UNIT_ELEMENT(#732,-3.);
#307=(
MASS_UNIT()
NAMED_UNIT(*)
SI_UNIT(.KILO.,.GRAM.)
);
#308=DERIVED_UNIT((#305,#306));
#309=MEASURE_REPRESENTATION_ITEM('density measure',
POSITIVE_RATIO_MEASURE(7850.),#308);
#310=PROPERTY_DEFINITION_REPRESENTATION(#315,#312);
#311=PROPERTY_DEFINITION_REPRESENTATION(#316,#313);
#312=REPRESENTATION('material name',(#314),#729);
#313=REPRESENTATION('density',(#309),#729);
#314=DESCRIPTIVE_REPRESENTATION_ITEM('Steel','Steel');
#315=PROPERTY_DEFINITION('material property','material name',#739);
#316=PROPERTY_DEFINITION('material property','density of part',#739);
#317=AXIS2_PLACEMENT_3D('',#428,#346,#347);
#318=AXIS2_PLACEMENT_3D('',#429,#348,#349);
#319=AXIS2_PLACEMENT_3D('',#438,#354,#355);
#320=AXIS2_PLACEMENT_3D('',#442,#357,#358);
#321=AXIS2_PLACEMENT_3D('',#443,#359,#360);
#322=AXIS2_PLACEMENT_3D('',#444,#361,#362);
#323=AXIS2_PLACEMENT_3D('',#450,#366,#367);
#324=AXIS2_PLACEMENT_3D('',#452,#369,#370);
#325=AXIS2_PLACEMENT_3D('',#454,#371,#372);
#326=AXIS2_PLACEMENT_3D('',#457,#374,#375);
#327=AXIS2_PLACEMENT_3D('',#458,#376,#377);
#328=AXIS2_PLACEMENT_3D('',#460,#378,#379);
#329=AXIS2_PLACEMENT_3D('',#462,#381,#382);
#330=AXIS2_PLACEMENT_3D('',#465,#383,#384);
#331=AXIS2_PLACEMENT_3D('',#468,#387,#388);
#332=AXIS2_PLACEMENT_3D('',#480,#392,#393);
#333=AXIS2_PLACEMENT_3D('',#485,#394,#395);
#334=AXIS2_PLACEMENT_3D('',#487,#396,#397);
#335=AXIS2_PLACEMENT_3D('',#706,#399,#400);
#336=AXIS2_PLACEMENT_3D('',#709,#403,#404);
#337=AXIS2_PLACEMENT_3D('',#711,#406,#407);
#338=AXIS2_PLACEMENT_3D('',#713,#409,#410);
#339=AXIS2_PLACEMENT_3D('',#714,#411,#412);
#340=AXIS2_PLACEMENT_3D('',#716,#413,#414);
#341=AXIS2_PLACEMENT_3D('',#718,#416,#417);
#342=AXIS2_PLACEMENT_3D('',#720,#418,#419);
#343=AXIS2_PLACEMENT_3D('',#722,#421,#422);
#344=AXIS2_PLACEMENT_3D('',#724,#423,#424);
#345=AXIS2_PLACEMENT_3D('',#725,#425,#426);
#346=DIRECTION('axis',(0.,0.,1.));
#347=DIRECTION('refdir',(1.,0.,0.));
#348=DIRECTION('center_axis',(0.,-0.707106781186548,0.707106781186547));
#349=DIRECTION('ref_axis',(1.,0.,0.));
#350=DIRECTION('',(0.,-0.707106781186547,-0.707106781186548));
#351=DIRECTION('',(-1.,0.,0.));
#352=DIRECTION('',(0.,-0.707106781186547,-0.707106781186548));
#353=DIRECTION('',(1.,0.,0.));
#354=DIRECTION('center_axis',(0.,-4.44089209850063E-16,-1.));
#355=DIRECTION('ref_axis',(-0.707106781186547,-0.707106781186547,1.39563774105224E-16));
#356=DIRECTION('',(3.14018491736756E-15,0.707106781186549,-0.707106781186546));
#357=DIRECTION('center_axis',(0.,4.44089209850063E-16,1.));
#358=DIRECTION('ref_axis',(-0.707106781186547,-0.707106781186547,0.));
#359=DIRECTION('center_axis',(0.,-4.44089209850063E-16,-1.));
#360=DIRECTION('ref_axis',(-0.707106781186547,-0.707106781186547,3.14018491736755E-16));
#361=DIRECTION('center_axis',(0.,0.707106781186547,0.707106781186548));
#362=DIRECTION('ref_axis',(1.,0.,0.));
#363=DIRECTION('',(0.,-0.707106781186548,0.707106781186547));
#364=DIRECTION('',(-1.,0.,0.));
#365=DIRECTION('',(1.,0.,0.));
#366=DIRECTION('center_axis',(0.,4.44089209850063E-16,1.));
#367=DIRECTION('ref_axis',(0.,1.,-4.44089209850063E-16));
#368=DIRECTION('',(0.,-1.,4.44089209850063E-16));
#369=DIRECTION('center_axis',(-1.,0.,0.));
#370=DIRECTION('ref_axis',(0.,1.,0.));
#371=DIRECTION('center_axis',(1.,0.,0.));
#372=DIRECTION('ref_axis',(0.,1.,0.));
#373=DIRECTION('',(-0.707106781186548,-0.707106781186547,-8.65956056235493E-17));
#374=DIRECTION('center_axis',(-1.,0.,0.));
#375=DIRECTION('ref_axis',(0.,1.,0.));
#376=DIRECTION('center_axis',(1.,0.,0.));
#377=DIRECTION('ref_axis',(0.,1.,0.));
#378=DIRECTION('center_axis',(-1.,0.,0.));
#379=DIRECTION('ref_axis',(0.,1.,0.));
#380=DIRECTION('',(-1.,0.,0.));
#381=DIRECTION('center_axis',(1.,0.,0.));
#382=DIRECTION('ref_axis',(0.,1.,0.));
#383=DIRECTION('center_axis',(1.,0.,0.));
#384=DIRECTION('ref_axis',(0.,1.,0.));
#385=DIRECTION('',(0.,1.09345019179442E-16,1.));
#386=DIRECTION('',(0.,-4.37380076717769E-16,-1.));
#387=DIRECTION('center_axis',(0.,-0.813497416806065,-0.581568528077181));
#388=DIRECTION('ref_axis',(-1.,0.,0.));
#389=DIRECTION('',(-1.,0.,0.));
#390=DIRECTION('',(0.,0.581568528077181,-0.813497416806065));
#391=DIRECTION('',(1.,0.,0.));
#392=DIRECTION('center_axis',(1.,0.,0.));
#393=DIRECTION('ref_axis',(0.,5.0532154980743E-16,1.));
#394=DIRECTION('center_axis',(-1.,0.,0.));
#395=DIRECTION('ref_axis',(0.,1.,0.));
#396=DIRECTION('center_axis',(-1.,0.,0.));
#397=DIRECTION('ref_axis',(0.,1.,0.));
#398=DIRECTION('',(0.,-0.581568528077182,-0.813497416806064));
#399=DIRECTION('center_axis',(0.,0.813497416806065,-0.581568528077181));
#400=DIRECTION('ref_axis',(-1.,0.,0.));
#401=DIRECTION('',(-1.,0.,0.));
#402=DIRECTION('',(1.,0.,0.));
#403=DIRECTION('center_axis',(0.,1.,-1.09345019179442E-16));
#404=DIRECTION('ref_axis',(0.,-1.09345019179442E-16,-1.));
#405=DIRECTION('',(0.,-1.09345019179442E-16,-1.));
#406=DIRECTION('center_axis',(0.,4.37380076717769E-16,1.));
#407=DIRECTION('ref_axis',(-0.707106781186547,-0.707106781186547,0.));
#408=DIRECTION('',(0.,4.37380076717769E-16,1.));
#409=DIRECTION('center_axis',(0.,-1.,4.37380076717769E-16));
#410=DIRECTION('ref_axis',(0.,4.37380076717769E-16,1.));
#411=DIRECTION('center_axis',(1.,0.,0.));
#412=DIRECTION('ref_axis',(0.,1.,0.));
#413=DIRECTION('center_axis',(1.,0.,0.));
#414=DIRECTION('ref_axis',(0.,1.,0.));
#415=DIRECTION('',(-1.,0.,0.));
#416=DIRECTION('center_axis',(-1.,0.,0.));
#417=DIRECTION('ref_axis',(0.,1.,0.));
#418=DIRECTION('center_axis',(-1.,0.,0.));
#419=DIRECTION('ref_axis',(0.,1.,0.));
#420=DIRECTION('',(-0.707106781186548,-0.707106781186548,-8.65956056235493E-17));
#421=DIRECTION('center_axis',(1.,0.,0.));
#422=DIRECTION('ref_axis',(0.,1.,0.));
#423=DIRECTION('center_axis',(1.,0.,0.));
#424=DIRECTION('ref_axis',(0.,1.,0.));
#425=DIRECTION('center_axis',(1.,0.,0.));
#426=DIRECTION('ref_axis',(0.,1.,0.));
#427=DIRECTION('',(-0.707106781186548,0.707106781186547,8.65956056235493E-17));
#428=CARTESIAN_POINT('',(0.,0.,0.));
#429=CARTESIAN_POINT('Origin',(0.,-2.25,-4.25));
#430=CARTESIAN_POINT('',(0.,-2.5,-4.5));
#431=CARTESIAN_POINT('',(0.,-2.,-4.));
#432=CARTESIAN_POINT('',(0.,-0.625000000000004,-2.625));
#433=CARTESIAN_POINT('',(-17.5,-2.,-4.));
#434=CARTESIAN_POINT('',(0.,-2.,-4.));
#435=CARTESIAN_POINT('',(-17.5,-2.5,-4.5));
#436=CARTESIAN_POINT('',(-17.5,-2.,-4.));
#437=CARTESIAN_POINT('',(0.,-2.5,-4.5));
#438=CARTESIAN_POINT('Origin',(-17.5,-3.43833680977184E-15,-4.25));
#439=CARTESIAN_POINT('',(-17.5,2.,-4.));
#440=CARTESIAN_POINT('',(-17.5,2.5,-4.5));
#441=CARTESIAN_POINT('',(-17.5,2.,-4.));
#442=CARTESIAN_POINT('Origin',(-17.5,-3.54935911223435E-15,-4.5));
#443=CARTESIAN_POINT('Origin',(-17.5,-3.32731450730932E-15,-4.));
#444=CARTESIAN_POINT('Origin',(0.,2.25,-4.25));
#445=CARTESIAN_POINT('',(0.,2.,-4.));
#446=CARTESIAN_POINT('',(0.,2.5,-4.5));
#447=CARTESIAN_POINT('',(0.,0.624999999999996,-2.625));
#448=CARTESIAN_POINT('',(0.,2.5,-4.5));
#449=CARTESIAN_POINT('',(0.,2.,-4.));
#450=CARTESIAN_POINT('Origin',(0.,-2.5,-4.));
#451=CARTESIAN_POINT('',(0.,-1.25,-4.));
#452=CARTESIAN_POINT('Origin',(0.25,0.,0.));
#453=CARTESIAN_POINT('',(0.5,-2.625,-3.2146978477618E-16));
#454=CARTESIAN_POINT('Origin',(0.5,0.,0.));
#455=CARTESIAN_POINT('',(0.,-3.125,3.82702124733548E-16));
#456=CARTESIAN_POINT('',(0.25,-2.875,-3.52085954754864E-16));
#457=CARTESIAN_POINT('Origin',(0.,0.,0.));
#458=CARTESIAN_POINT('Origin',(0.,0.,0.));
#459=CARTESIAN_POINT('',(15.,-2.625,3.2146978477618E-16));
#460=CARTESIAN_POINT('Origin',(15.,0.,0.));
#461=CARTESIAN_POINT('',(0.,-2.625,-3.2146978477618E-16));
#462=CARTESIAN_POINT('Origin',(0.,0.,0.));
#463=CARTESIAN_POINT('',(0.,2.5,-6.));
#464=CARTESIAN_POINT('',(0.,-2.5,-6.));
#465=CARTESIAN_POINT('Origin',(0.,0.,0.));
#466=CARTESIAN_POINT('',(0.,2.5,-2.));
#467=CARTESIAN_POINT('',(0.,-2.5,-3.2691742076555));
#468=CARTESIAN_POINT('Origin',(0.,-2.26344775235676,-6.36923743888608));
#469=CARTESIAN_POINT('',(0.0354151807432249,-2.5,-6.03834841531101));
#470=CARTESIAN_POINT('',(-17.5,-2.5,-6.03834841531101));
#471=CARTESIAN_POINT('',(0.,-2.5,-6.03834841531101));
#472=CARTESIAN_POINT('',(-17.5,-2.02689550471351,-6.70012646246115));
#473=CARTESIAN_POINT('',(-17.5,-2.5,-6.03834841531101));
#474=CARTESIAN_POINT('',(0.5,-2.02689550471351,-6.70012646246115));
#475=CARTESIAN_POINT('',(0.,-2.02689550471351,-6.70012646246115));
#476=CARTESIAN_POINT('Ctrl Pts',(0.500000000000001,-2.02689550471351,-6.70012646246115));
#477=CARTESIAN_POINT('Ctrl Pts',(0.337713058199046,-2.18155478314511,-6.48378923406062));
#478=CARTESIAN_POINT('Ctrl Pts',(0.181200712371948,-2.33977476285701,-6.26247130062929));
#479=CARTESIAN_POINT('Ctrl Pts',(0.0354151807432253,-2.5,-6.03834841531101));
#480=CARTESIAN_POINT('Origin',(0.25,0.,0.));
#481=CARTESIAN_POINT('Ctrl Pts',(-3.3138774743169E-12,-2.50000000000001,
-5.99999999999641));
#482=CARTESIAN_POINT('Ctrl Pts',(0.0176511824622852,-2.50000000000001,-6.01912211433415));
#483=CARTESIAN_POINT('Ctrl Pts',(0.0354151807405409,-2.50000000000001,-6.03834841530811));
#484=CARTESIAN_POINT('',(0.5,-7.,-8.57252759403147E-16));
#485=CARTESIAN_POINT('Origin',(0.5,0.,0.));
#486=CARTESIAN_POINT('',(0.5,2.0268955047135,-6.70012646246115));
#487=CARTESIAN_POINT('Origin',(0.5,0.,0.));
#488=CARTESIAN_POINT('',(0.0354151807432236,2.5,-6.03834841531101));
#489=CARTESIAN_POINT('Ctrl Pts',(0.5,2.0268955047135,-6.70012646246115));
#490=CARTESIAN_POINT('Ctrl Pts',(0.337713058199061,2.18155478314509,-6.48378923406064));
#491=CARTESIAN_POINT('Ctrl Pts',(0.181200712371951,2.339774762857,-6.2624713006293));
#492=CARTESIAN_POINT('Ctrl Pts',(0.0354151807432228,2.5,-6.03834841531101));
#493=CARTESIAN_POINT('Ctrl Pts',(0.0354151807404582,2.5,-6.03834841530802));
#494=CARTESIAN_POINT('Ctrl Pts',(0.0176511824621877,2.5,-6.01912211433404));
#495=CARTESIAN_POINT('Ctrl Pts',(-3.42699453720315E-12,2.5,-5.99999999999629));
#496=CARTESIAN_POINT('Ctrl Pts',(-17.5,2.5,-6.03834841531101));
#497=CARTESIAN_POINT('Ctrl Pts',(-17.7924545119613,2.5,-6.03834841531101));
#498=CARTESIAN_POINT('Ctrl Pts',(-18.200311591931,2.4290808889973,-6.06467938872321));
#499=CARTESIAN_POINT('Ctrl Pts',(-18.9373580984469,2.09147179912158,-6.17499592294017));
#500=CARTESIAN_POINT('Ctrl Pts',(-19.5654619114725,1.5470650856323,-6.33854931911572));
#501=CARTESIAN_POINT('Ctrl Pts',(-20.0229765273123,0.516906471620422,-6.50850514269334));
#502=CARTESIAN_POINT('Ctrl Pts',(-20.0178581776457,-0.298001337688555,-6.50645257104981));
#503=CARTESIAN_POINT('Ctrl Pts',(-19.8180187272872,-0.99041922663934,-6.43185121649583));
#504=CARTESIAN_POINT('Ctrl Pts',(-19.5455105722348,-1.47655358469842,-6.33982551836949));
#505=CARTESIAN_POINT('Ctrl Pts',(-19.1540587177323,-1.89943875667173,-6.23192668743198));
#506=CARTESIAN_POINT('Ctrl Pts',(-18.5102523023108,-2.34836706081068,-6.09482165578516));
#507=CARTESIAN_POINT('Ctrl Pts',(-17.8899393492817,-2.5,-6.03834841531101));
#508=CARTESIAN_POINT('Ctrl Pts',(-17.5,-2.5,-6.03834841531101));
#509=CARTESIAN_POINT('Ctrl Pts',(-17.5,2.34229850157116,-6.25894109769439));
#510=CARTESIAN_POINT('Ctrl Pts',(-17.7661508804588,2.34229850157117,-6.25894109769439));
#511=CARTESIAN_POINT('Ctrl Pts',(-18.1375537053207,2.27894072093694,-6.2816343093136));
#512=CARTESIAN_POINT('Ctrl Pts',(-18.8176043572565,1.97202346417366,-6.37772246605325));
#513=CARTESIAN_POINT('Ctrl Pts',(-19.4106632288307,1.46997658577636,-6.522064507629));
#514=CARTESIAN_POINT('Ctrl Pts',(-19.8557141916738,0.494324547920204,-6.67429614399714));
#515=CARTESIAN_POINT('Ctrl Pts',(-19.850638813038,-0.284845984401273,-6.67243351664475));
#516=CARTESIAN_POINT('Ctrl Pts',(-19.6562033407243,-0.942927919197898,-6.60562286301269));
#517=CARTESIAN_POINT('Ctrl Pts',(-19.3935281886126,-1.40136255669558,-6.52350266995407));
#518=CARTESIAN_POINT('Ctrl Pts',(-19.022161754411,-1.79499141281607,-6.42790460588551));
#519=CARTESIAN_POINT('Ctrl Pts',(-18.4205123559957,-2.20704931961343,-6.30756096739565));
#520=CARTESIAN_POINT('Ctrl Pts',(-17.8548678406117,-2.34229850157117,-6.25894109769439));
#521=CARTESIAN_POINT('Ctrl Pts',(-17.5,-2.34229850157117,-6.25894109769439));
#522=CARTESIAN_POINT('Ctrl Pts',(-17.5,2.18459700314233,-6.47953378007777));
#523=CARTESIAN_POINT('Ctrl Pts',(-17.7398472489562,2.18459700314233,-6.47953378007777));
#524=CARTESIAN_POINT('Ctrl Pts',(-18.0747958187105,2.12880055287659,-6.49858922990399));
#525=CARTESIAN_POINT('Ctrl Pts',(-18.697850616066,1.85257512922574,-6.58044900916633));
#526=CARTESIAN_POINT('Ctrl Pts',(-19.2558645461889,1.39288808592042,-6.70557969614228));
#527=CARTESIAN_POINT('Ctrl Pts',(-19.6884518560352,0.471742624219985,-6.84008714530094));
#528=CARTESIAN_POINT('Ctrl Pts',(-19.6834194484303,-0.271690631113989,-6.83841446223969));
#529=CARTESIAN_POINT('Ctrl Pts',(-19.4943879541614,-0.895436611756456,-6.77939450952955));
#530=CARTESIAN_POINT('Ctrl Pts',(-19.2415458049903,-1.32617152869274,-6.70717982153865));
#531=CARTESIAN_POINT('Ctrl Pts',(-18.8902647910897,-1.6905440689604,-6.62388252433905));
#532=CARTESIAN_POINT('Ctrl Pts',(-18.3307724096806,-2.06573157841617,-6.52030027900614));
#533=CARTESIAN_POINT('Ctrl Pts',(-17.8197963319417,-2.18459700314234,-6.47953378007777));
#534=CARTESIAN_POINT('Ctrl Pts',(-17.5,-2.18459700314234,-6.47953378007777));
#535=CARTESIAN_POINT('Ctrl Pts',(-17.5,2.0268955047135,-6.70012646246115));
#536=CARTESIAN_POINT('Ctrl Pts',(-17.7135436174537,2.0268955047135,-6.70012646246115));
#537=CARTESIAN_POINT('Ctrl Pts',(-18.0120379321003,1.97866038481624,-6.71554415049438));
#538=CARTESIAN_POINT('Ctrl Pts',(-18.5780968748756,1.73312679427782,-6.7831755522794));
#539=CARTESIAN_POINT('Ctrl Pts',(-19.1010658635472,1.31579958606448,-6.88909488465555));
#540=CARTESIAN_POINT('Ctrl Pts',(-19.5211895203966,0.449160700519767,-7.00587814660475));
#541=CARTESIAN_POINT('Ctrl Pts',(-19.5162000838226,-0.258535277826706,-7.00439540783463));
#542=CARTESIAN_POINT('Ctrl Pts',(-19.3325725675985,-0.847945304315014,-6.95316615604641));
#543=CARTESIAN_POINT('Ctrl Pts',(-19.0895634213681,-1.2509805006899,-6.89085697312323));
#544=CARTESIAN_POINT('Ctrl Pts',(-18.7583678277684,-1.58609672510473,-6.81986044279258));
#545=CARTESIAN_POINT('Ctrl Pts',(-18.2410324633655,-1.92441383721892,-6.73303959061662));
#546=CARTESIAN_POINT('Ctrl Pts',(-17.7847248232717,-2.02689550471351,-6.70012646246115));
#547=CARTESIAN_POINT('Ctrl Pts',(-17.5,-2.02689550471351,-6.70012646246115));
#548=CARTESIAN_POINT('',(-17.5,2.5,-6.03834841531101));
#549=CARTESIAN_POINT('Ctrl Pts',(-17.5,-2.5,-6.03834841531101));
#550=CARTESIAN_POINT('Ctrl Pts',(-17.6128997809284,-2.5,-6.03834841531101));
#551=CARTESIAN_POINT('Ctrl Pts',(-17.7278505811039,-2.49152163957368,-6.04150608016806));
#552=CARTESIAN_POINT('Ctrl Pts',(-17.8427112224837,-2.47501357550889,-6.04741287661858));
#553=CARTESIAN_POINT('Ctrl Pts',(-17.9588963021006,-2.45831515980577,-6.05338778331978));
#554=CARTESIAN_POINT('Ctrl Pts',(-18.0749870001312,-2.43340113143381,-6.06217521240864));
#555=CARTESIAN_POINT('Ctrl Pts',(-18.1887688432372,-2.40078504171402,-6.07333577526833));
#556=CARTESIAN_POINT('Ctrl Pts',(-18.2966895223542,-2.36984908166442,-6.08392143190971));
#557=CARTESIAN_POINT('Ctrl Pts',(-18.4025315230739,-2.3319848339942,-6.0966415966478));
#558=CARTESIAN_POINT('Ctrl Pts',(-18.5044332678016,-2.28766610730438,-6.11111262130707));
#559=CARTESIAN_POINT('Ctrl Pts',(-18.5099675439154,-2.28525916058161,-6.11189854157104));
#560=CARTESIAN_POINT('Ctrl Pts',(-18.5154902084559,-2.28283318361128,-6.11268962477307));
#561=CARTESIAN_POINT('Ctrl Pts',(-18.5210009670765,-2.28038825488332,-6.11348580904281));
#562=CARTESIAN_POINT('Ctrl Pts',(-18.5667268873274,-2.26010128103267,-6.12009220589846));
#563=CARTESIAN_POINT('Ctrl Pts',(-18.611754935636,-2.23846062657848,-6.12706011588884));
#564=CARTESIAN_POINT('Ctrl Pts',(-18.6558803059701,-2.21550481141858,-6.13435597758506));
#565=CARTESIAN_POINT('Ctrl Pts',(-18.7240391285429,-2.180045815366,-6.14562562448212));
#566=CARTESIAN_POINT('Ctrl Pts',(-18.7900423368147,-2.14144647573616,-6.15767839326374));
#567=CARTESIAN_POINT('Ctrl Pts',(-18.8534754539605,-2.10042435600792,-6.17017286995923));
#568=CARTESIAN_POINT('Ctrl Pts',(-18.9198760745048,-2.05748315544007,-6.18325185840072));
#569=CARTESIAN_POINT('Ctrl Pts',(-18.9834594384583,-2.01188862115102,-6.19681406024646));
#570=CARTESIAN_POINT('Ctrl Pts',(-19.043787940483,-1.96450391437915,-6.21045973903379));
#571=CARTESIAN_POINT('Ctrl Pts',(-19.074656759093,-1.94025816205417,-6.21744194427939));
#572=CARTESIAN_POINT('Ctrl Pts',(-19.1046741049973,-1.91554420949281,-6.22444595293243));
#573=CARTESIAN_POINT('Ctrl Pts',(-19.1337863368906,-1.89047946444645,-6.23141853700411));
#574=CARTESIAN_POINT('Ctrl Pts',(-19.1924400343275,-1.8399804172532,-6.24546650962235));
#575=CARTESIAN_POINT('Ctrl Pts',(-19.2474185300103,-1.78805398627666,-6.25938690106852));
#576=CARTESIAN_POINT('Ctrl Pts',(-19.2991883867908,-1.73446067865868,-6.27311827677034));
#577=CARTESIAN_POINT('Ctrl Pts',(-19.3096314765215,-1.72364975981081,-6.27588818956319));
#578=CARTESIAN_POINT('Ctrl Pts',(-19.3199440854047,-1.71277116022324,-6.27865042137562));
#579=CARTESIAN_POINT('Ctrl Pts',(-19.3301301523022,-1.70182314911168,-6.28140448508165));
#580=CARTESIAN_POINT('Ctrl Pts',(-19.3764509298578,-1.65203745729562,-6.29392849200065));
#581=CARTESIAN_POINT('Ctrl Pts',(-19.4206069268605,-1.60033449028823,-6.30639803740458));
#582=CARTESIAN_POINT('Ctrl Pts',(-19.4628504904864,-1.54647559651356,-6.31875433998693));
#583=CARTESIAN_POINT('Ctrl Pts',(-19.4761665311742,-1.5294981647029,-6.32264930087122));
#584=CARTESIAN_POINT('Ctrl Pts',(-19.4892929315048,-1.51230660507611,-6.32653301267233));
#585=CARTESIAN_POINT('Ctrl Pts',(-19.5022385921067,-1.49489375928225,-6.33040364937307));
#586=CARTESIAN_POINT('Ctrl Pts',(-19.5455267026329,-1.43666813322275,-6.34334640714038));
#587=CARTESIAN_POINT('Ctrl Pts',(-19.5867919411851,-1.37596461757049,-6.35614310392121));
#588=CARTESIAN_POINT('Ctrl Pts',(-19.6255400994816,-1.31334279954318,-6.36850578031873));
#589=CARTESIAN_POINT('Ctrl Pts',(-19.6659894418166,-1.24797165762628,-6.38141122284201));
#590=CARTESIAN_POINT('Ctrl Pts',(-19.7036942843485,-1.18051124354586,-6.39384283151395));
#591=CARTESIAN_POINT('Ctrl Pts',(-19.7381370128095,-1.11163824246772,-6.40547889081123));
#592=CARTESIAN_POINT('Ctrl Pts',(-19.7692058020565,-1.04951189966876,-6.41597510554582));
#593=CARTESIAN_POINT('Ctrl Pts',(-19.7976201927777,-0.986237491860535,-6.42582362422545));
#594=CARTESIAN_POINT('Ctrl Pts',(-19.8230451030799,-0.92232467430671,-6.43480128373526));
#595=CARTESIAN_POINT('Ctrl Pts',(-19.8258061408918,-0.91538401241887,-6.43577621961802));
#596=CARTESIAN_POINT('Ctrl Pts',(-19.8285319718222,-0.908435825186332,-6.43674090207811));
#597=CARTESIAN_POINT('Ctrl Pts',(-19.8312222030374,-0.901480766473542,-6.43769505823404));
#598=CARTESIAN_POINT('Ctrl Pts',(-19.8313155855142,-0.901239344619232,-6.43772817860843));
#599=CARTESIAN_POINT('Ctrl Pts',(-19.8314089278208,-0.900997907000428,-6.4377612874877));
#600=CARTESIAN_POINT('Ctrl Pts',(-19.8315022299319,-0.900756453646505,-6.43779438485748));
#601=CARTESIAN_POINT('Ctrl Pts',(-19.8534486050841,-0.843962177229206,-6.44557949588578));
#602=CARTESIAN_POINT('Ctrl Pts',(-19.8731670677259,-0.786295533093348,-6.45272682121379));
#603=CARTESIAN_POINT('Ctrl Pts',(-19.8907073622271,-0.728195489116225,-6.45917305931078));
#604=CARTESIAN_POINT('Ctrl Pts',(-19.9091209183412,-0.667202874657453,-6.46594023000541));
#605=CARTESIAN_POINT('Ctrl Pts',(-19.9251340908925,-0.605733662090205,-6.4719345242787));
#606=CARTESIAN_POINT('Ctrl Pts',(-19.9388568054357,-0.544310516953813,-6.4770979793621));
#607=CARTESIAN_POINT('Ctrl Pts',(-19.9410636964269,-0.53443242867695,-6.47792836772815));
#608=CARTESIAN_POINT('Ctrl Pts',(-19.9432114520087,-0.524555541333539,-6.47873730312627));
#609=CARTESIAN_POINT('Ctrl Pts',(-19.9453006447273,-0.514682032509294,-6.47952458561301));
#610=CARTESIAN_POINT('Ctrl Pts',(-19.9583793968497,-0.452871949915203,-6.4844531268638));
#611=CARTESIAN_POINT('Ctrl Pts',(-19.9691591282716,-0.39119439030364,-6.48853161478969));
#612=CARTESIAN_POINT('Ctrl Pts',(-19.9776096654077,-0.329796281576142,-6.49174599992889));
#613=CARTESIAN_POINT('Ctrl Pts',(-19.9860284754555,-0.26862868875369,-6.49494831683154));
#614=CARTESIAN_POINT('Ctrl Pts',(-19.992135519535,-0.207738401894843,-6.4972930017796));
#615=CARTESIAN_POINT('Ctrl Pts',(-19.9959494092186,-0.147269616527663,-6.49878427466058));
#616=CARTESIAN_POINT('Ctrl Pts',(-19.9990649360845,-0.0978732938781069,
-6.50000247998653));
#617=CARTESIAN_POINT('Ctrl Pts',(-20.0006511186751,-0.0487582121337479,
-6.50065153277805));
#618=CARTESIAN_POINT('Ctrl Pts',(-20.0007423070135,-2.77790429924269E-6,
-6.50074274591732));
#619=CARTESIAN_POINT('Ctrl Pts',(-20.0008514676789,0.0583618742042467,-6.50085193627169));
#620=CARTESIAN_POINT('Ctrl Pts',(-19.998851710834,0.117270827324386,-6.50013041584941));
#621=CARTESIAN_POINT('Ctrl Pts',(-19.9945971991434,0.176559924308441,-6.49854016078228));
#622=CARTESIAN_POINT('Ctrl Pts',(-19.9904369784187,0.234535021794392,-6.49698514987413));
#623=CARTESIAN_POINT('Ctrl Pts',(-19.9841207721243,0.292873644542661,-6.49459944498152));
#624=CARTESIAN_POINT('Ctrl Pts',(-19.9755584532127,0.351421661753845,-6.49136452418895));
#625=CARTESIAN_POINT('Ctrl Pts',(-19.9675073143335,0.40647429673977,-6.48832273179214));
#626=CARTESIAN_POINT('Ctrl Pts',(-19.9574705087016,0.461712101077673,-6.48453017967133));
#627=CARTESIAN_POINT('Ctrl Pts',(-19.9454125293303,0.517005830728367,-6.47998617955728));
#628=CARTESIAN_POINT('Ctrl Pts',(-19.9326758664819,0.575411768448625,-6.47518642035603));
#629=CARTESIAN_POINT('Ctrl Pts',(-19.9176836320386,0.633879940984297,-6.46954811503978));
#630=CARTESIAN_POINT('Ctrl Pts',(-19.9005420482424,0.691994487797747,-6.4632018150785));
#631=CARTESIAN_POINT('Ctrl Pts',(-19.883167134558,0.750900085243889,-6.45676912978214));
#632=CARTESIAN_POINT('Ctrl Pts',(-19.8635841223932,0.809441379869977,-6.44960939907075));
#633=CARTESIAN_POINT('Ctrl Pts',(-19.8419533226476,0.867194431321262,-6.44187403689318));
#634=CARTESIAN_POINT('Ctrl Pts',(-19.8377704766896,0.87836240109887,-6.44037821478773));
#635=CARTESIAN_POINT('Ctrl Pts',(-19.8335111989748,0.889500948554869,-6.43886090397935));
#636=CARTESIAN_POINT('Ctrl Pts',(-19.8291768503976,0.900607095411652,-6.43732324693028));
#637=CARTESIAN_POINT('Ctrl Pts',(-19.80355955743,0.966247736145769,-6.42823523510837));
#638=CARTESIAN_POINT('Ctrl Pts',(-19.7751336581577,1.03131156592582,-6.41832597227563));
#639=CARTESIAN_POINT('Ctrl Pts',(-19.7440459384205,1.09526813908331,-6.40777025030537));
#640=CARTESIAN_POINT('Ctrl Pts',(-19.7131320898537,1.15886700815925,-6.39727356565757));
#641=CARTESIAN_POINT('Ctrl Pts',(-19.6795864463004,1.2213698919157,-6.3861380873939));
#642=CARTESIAN_POINT('Ctrl Pts',(-19.6435996049486,1.28227358512353,-6.37454718290739));
#643=CARTESIAN_POINT('Ctrl Pts',(-19.6086523518836,1.34141789174175,-6.36329111660295));
#644=CARTESIAN_POINT('Ctrl Pts',(-19.5714033767976,1.39905326503682,-6.35160597897585));
#645=CARTESIAN_POINT('Ctrl Pts',(-19.5320648100688,1.4547498793307,-6.33966409271787));
#646=CARTESIAN_POINT('Ctrl Pts',(-19.5221924466919,1.46872744030702,-6.33666717009593));
#647=CARTESIAN_POINT('Ctrl Pts',(-19.5121886504809,1.48258308635661,-6.33365408240307));
#648=CARTESIAN_POINT('Ctrl Pts',(-19.5020571080309,1.49631043073491,-6.3306275517201));
#649=CARTESIAN_POINT('Ctrl Pts',(-19.4617566481997,1.55091399119361,-6.31858885387926));
#650=CARTESIAN_POINT('Ctrl Pts',(-19.4194317690131,1.6034851272383,-6.30633791500173));
#651=CARTESIAN_POINT('Ctrl Pts',(-19.3751944517715,1.65392316717223,-6.29405170930749));
#652=CARTESIAN_POINT('Ctrl Pts',(-19.3606891821272,1.67046163322741,-6.29002310319815));
#653=CARTESIAN_POINT('Ctrl Pts',(-19.3459786173741,1.68677101167137,-6.28599065398472));
#654=CARTESIAN_POINT('Ctrl Pts',(-19.3310676574522,1.70284850620694,-6.28196041588673));
#655=CARTESIAN_POINT('Ctrl Pts',(-19.2943102878168,1.7424815286649,-6.27202537801779));
#656=CARTESIAN_POINT('Ctrl Pts',(-19.2556674234901,1.78146331098294,-6.26188218264955));
#657=CARTESIAN_POINT('Ctrl Pts',(-19.21515771386,1.8195415819896,-6.25164920583984));
#658=CARTESIAN_POINT('Ctrl Pts',(-19.1753663479978,1.85694462503432,-6.2415976866408));
#659=CARTESIAN_POINT('Ctrl Pts',(-19.1337736036995,1.8934757932793,-6.23145990045319));
#660=CARTESIAN_POINT('Ctrl Pts',(-19.0904370472413,1.92892626758786,-6.22135546243061));
#661=CARTESIAN_POINT('Ctrl Pts',(-19.048150672028,1.96351766525812,-6.21149588676368));
#662=CARTESIAN_POINT('Ctrl Pts',(-19.0042039297812,1.99708007003295,-6.20166839866711));
#663=CARTESIAN_POINT('Ctrl Pts',(-18.9586900109385,2.02944969269185,-6.19198616543725));
#664=CARTESIAN_POINT('Ctrl Pts',(-18.9114805862608,2.06302516370424,-6.18194324511748));
#665=CARTESIAN_POINT('Ctrl Pts',(-18.8625845756001,2.09531696109598,-6.17205699455756));
#666=CARTESIAN_POINT('Ctrl Pts',(-18.8121537607927,2.12617876962793,-6.16245039918242));
#667=CARTESIAN_POINT('Ctrl Pts',(-18.7647489871194,2.15518875200075,-6.15342023615076));
#668=CARTESIAN_POINT('Ctrl Pts',(-18.7159883972119,2.18293544774579,-6.14463740808947));
#669=CARTESIAN_POINT('Ctrl Pts',(-18.6660392384407,2.20932887019713,-6.13619677091945));
#670=CARTESIAN_POINT('Ctrl Pts',(-18.6628507787702,2.21101367060467,-6.13565797042966));
#671=CARTESIAN_POINT('Ctrl Pts',(-18.6596574897121,2.21269296728557,-6.13512056102907));
#672=CARTESIAN_POINT('Ctrl Pts',(-18.6564594204259,2.21436674117784,-6.13458456598548));
#673=CARTESIAN_POINT('Ctrl Pts',(-18.6121104446233,2.23757766977432,-6.12715169662232));
#674=CARTESIAN_POINT('Ctrl Pts',(-18.5668419836854,2.25972284879629,-6.11999198644927));
#675=CARTESIAN_POINT('Ctrl Pts',(-18.5210649999869,2.28047068904611,-6.11323569231031));
#676=CARTESIAN_POINT('Ctrl Pts',(-18.4755751679963,2.30108838140759,-6.10652177932546));
#677=CARTESIAN_POINT('Ctrl Pts',(-18.4291620754909,2.32053668657714,-6.10012281345322));
#678=CARTESIAN_POINT('Ctrl Pts',(-18.3820794946315,2.33849515894958,-6.0941587519114));
#679=CARTESIAN_POINT('Ctrl Pts',(-18.2962508117224,2.37123236244716,-6.08328663025667));
#680=CARTESIAN_POINT('Ctrl Pts',(-18.2081957971983,2.39901476082529,-6.0738608158944));
#681=CARTESIAN_POINT('Ctrl Pts',(-18.1189726357356,2.42180596484313,-6.06601298425442));
#682=CARTESIAN_POINT('Ctrl Pts',(-18.0266544428885,2.44538776505336,-6.05789292189735));
#683=CARTESIAN_POINT('Ctrl Pts',(-17.933086951382,2.46362583316139,-6.05146247102537));
#684=CARTESIAN_POINT('Ctrl Pts',(-17.8394729093306,2.47652579080207,-6.04685519666006));
#685=CARTESIAN_POINT('Ctrl Pts',(-17.7449758554844,2.48954742692708,-6.04220446431005));
#686=CARTESIAN_POINT('Ctrl Pts',(-17.6504330232028,2.49712970510848,-6.03941169443518));
#687=CARTESIAN_POINT('Ctrl Pts',(-17.5570893420146,2.49932663640884,-6.0385983193297));
#688=CARTESIAN_POINT('Ctrl Pts',(-17.5380059375249,2.4997757822761,-6.038432030986));
#689=CARTESIAN_POINT('Ctrl Pts',(-17.518972630727,2.5,-6.03834841531101));
#690=CARTESIAN_POINT('Ctrl Pts',(-17.5,2.5,-6.03834841531101));
#691=CARTESIAN_POINT('',(-17.5,2.0268955047135,-6.70012646246115));
#692=CARTESIAN_POINT('',(-17.5,2.5,-6.03834841531101));
#693=CARTESIAN_POINT('Ctrl Pts',(-17.5,2.0268955047135,-6.70012646246115));
#694=CARTESIAN_POINT('Ctrl Pts',(-17.7135436174537,2.0268955047135,-6.70012646246115));
#695=CARTESIAN_POINT('Ctrl Pts',(-18.0120379321003,1.97866038481624,-6.71554415049438));
#696=CARTESIAN_POINT('Ctrl Pts',(-18.5780968748756,1.73312679427782,-6.7831755522794));
#697=CARTESIAN_POINT('Ctrl Pts',(-19.1010658635472,1.31579958606448,-6.88909488465555));
#698=CARTESIAN_POINT('Ctrl Pts',(-19.5211895203966,0.449160700519767,-7.00587814660475));
#699=CARTESIAN_POINT('Ctrl Pts',(-19.5162000838226,-0.258535277826706,-7.00439540783463));
#700=CARTESIAN_POINT('Ctrl Pts',(-19.3325725675985,-0.847945304315014,-6.95316615604641));
#701=CARTESIAN_POINT('Ctrl Pts',(-19.0895634213681,-1.2509805006899,-6.89085697312323));
#702=CARTESIAN_POINT('Ctrl Pts',(-18.7583678277684,-1.58609672510473,-6.81986044279258));
#703=CARTESIAN_POINT('Ctrl Pts',(-18.2410324633655,-1.92441383721892,-6.73303959061662));
#704=CARTESIAN_POINT('Ctrl Pts',(-17.7847248232717,-2.02689550471351,-6.70012646246115));
#705=CARTESIAN_POINT('Ctrl Pts',(-17.5,-2.02689550471351,-6.70012646246115));
#706=CARTESIAN_POINT('Origin',(0.,2.26344775235675,-6.36923743888608));
#707=CARTESIAN_POINT('',(0.,2.0268955047135,-6.70012646246115));
#708=CARTESIAN_POINT('',(0.,2.5,-6.03834841531101));
#709=CARTESIAN_POINT('Origin',(0.,2.5,-4.));
#710=CARTESIAN_POINT('',(-17.5,2.5,-4.75));
#711=CARTESIAN_POINT('Origin',(-17.5,-4.21381564372637E-15,-6.01917420765551));
#712=CARTESIAN_POINT('',(-17.5,-2.5,-6.01917420765551));
#713=CARTESIAN_POINT('Origin',(0.,-2.5,-6.53834841531101));
#714=CARTESIAN_POINT('Origin',(0.,0.,0.));
#715=CARTESIAN_POINT('',(17.,-7.,-8.57252759403147E-16));
#716=CARTESIAN_POINT('Origin',(17.,0.,0.));
#717=CARTESIAN_POINT('',(0.,-7.,-8.57252759403147E-16));
#718=CARTESIAN_POINT('Origin',(17.25,0.,0.));
#719=CARTESIAN_POINT('',(17.5,-6.5,7.9602041944578E-16));
#720=CARTESIAN_POINT('Origin',(17.5,0.,0.));
#721=CARTESIAN_POINT('',(17.25,-6.75,-8.26636589424463E-16));
#722=CARTESIAN_POINT('Origin',(17.5,0.,0.));
#723=CARTESIAN_POINT('',(17.5,-5.125,-6.27631484563018E-16));
#724=CARTESIAN_POINT('Origin',(17.5,0.,0.));
#725=CARTESIAN_POINT('Origin',(16.25,0.,0.));
#726=CARTESIAN_POINT('',(16.25,-3.875,-4.74550634669599E-16));
#727=UNCERTAINTY_MEASURE_WITH_UNIT(LENGTH_MEASURE(0.01),#731,
'DISTANCE_ACCURACY_VALUE',
'Maximum model space distance between geometric entities at asserted c
onnectivities');
#728=UNCERTAINTY_MEASURE_WITH_UNIT(LENGTH_MEASURE(0.01),#731,
'DISTANCE_ACCURACY_VALUE',
'Maximum model space distance between geometric entities at asserted c
onnectivities');
#729=(
GEOMETRIC_REPRESENTATION_CONTEXT(3)
GLOBAL_UNCERTAINTY_ASSIGNED_CONTEXT((#727))
GLOBAL_UNIT_ASSIGNED_CONTEXT((#731,#733,#734))
REPRESENTATION_CONTEXT('','3D')
);
#730=(
GEOMETRIC_REPRESENTATION_CONTEXT(3)
GLOBAL_UNCERTAINTY_ASSIGNED_CONTEXT((#728))
GLOBAL_UNIT_ASSIGNED_CONTEXT((#731,#733,#734))
REPRESENTATION_CONTEXT('','3D')
);
#731=(
LENGTH_UNIT()
NAMED_UNIT(*)
SI_UNIT(.MILLI.,.METRE.)
);
#732=(
LENGTH_UNIT()
NAMED_UNIT(*)
SI_UNIT($,.METRE.)
);
#733=(
NAMED_UNIT(*)
PLANE_ANGLE_UNIT()
SI_UNIT($,.RADIAN.)
);
#734=(
NAMED_UNIT(*)
SI_UNIT($,.STERADIAN.)
SOLID_ANGLE_UNIT()
);
#735=SHAPE_DEFINITION_REPRESENTATION(#736,#737);
#736=PRODUCT_DEFINITION_SHAPE('',$,#739);
#737=SHAPE_REPRESENTATION('',(#317),#729);
#738=PRODUCT_DEFINITION_CONTEXT('part definition',#743,'design');
#739=PRODUCT_DEFINITION('2026-09-01-22-14-33-523','Extender - 60AIM',#740,
#738);
#740=PRODUCT_DEFINITION_FORMATION('',$,#745);
#741=PRODUCT_RELATED_PRODUCT_CATEGORY('Extender - 60AIM',
'Extender - 60AIM',(#745));
#742=APPLICATION_PROTOCOL_DEFINITION('international standard',
'automotive_design',2009,#743);
#743=APPLICATION_CONTEXT(
'Core Data for Automotive Mechanical Design Process');
#744=PRODUCT_CONTEXT('part definition',#743,'mechanical');
#745=PRODUCT('2026-09-01-22-14-33-523','Extender - 60AIM',$,(#744));
#746=PRESENTATION_STYLE_ASSIGNMENT((#748));
#747=PRESENTATION_STYLE_ASSIGNMENT((#749));
#748=SURFACE_STYLE_USAGE(.BOTH.,#750);
#749=SURFACE_STYLE_USAGE(.BOTH.,#751);
#750=SURFACE_SIDE_STYLE('',(#752));
#751=SURFACE_SIDE_STYLE('',(#753));
#752=SURFACE_STYLE_FILL_AREA(#754);
#753=SURFACE_STYLE_FILL_AREA(#755);
#754=FILL_AREA_STYLE('Steel - Satin',(#756));
#755=FILL_AREA_STYLE('Plastic - Matte (White)',(#757));
#756=FILL_AREA_STYLE_COLOUR('Steel - Satin',#758);
#757=FILL_AREA_STYLE_COLOUR('Plastic - Matte (White)',#759);
#758=COLOUR_RGB('Steel - Satin',0.627450980392157,0.627450980392157,0.627450980392157);
#759=COLOUR_RGB('Plastic - Matte (White)',0.964705882352941,0.964705882352941,
0.952941176470588);
ENDSEC;
END-ISO-10303-21;
