ISO-10303-21;
HEADER;
/* Generated by software containing ST-Developer
 * from STEP Tools, Inc. (www.steptools.com) 
 */

FILE_DESCRIPTION(
/* description */ (''),
/* implementation_level */ '2;1');

FILE_NAME(
/* name */ '3030 Foot.step',
/* time_stamp */ '2026-09-06T09:26:38+02:00',
/* author */ (''),
/* organization */ (''),
/* preprocessor_version */ 'ST-DEVELOPER v20.2',
/* originating_system */ 'Autodesk Translation Framework v15.15.0.0',
/* authorisation */ '');

FILE_SCHEMA (('AUTOMOTIVE_DESIGN { 1 0 10303 214 3 1 1 }'));
ENDSEC;

DATA;
#10=MECHANICAL_DESIGN_GEOMETRIC_PRESENTATION_REPRESENTATION('',(#13),#1669);
#11=SHAPE_REPRESENTATION_RELATIONSHIP('SRR','None',#1676,#12);
#12=ADVANCED_BREP_SHAPE_REPRESENTATION('',(#14),#1668);
#13=STYLED_ITEM('',(#1686),#14);
#14=MANIFOLD_SOLID_BREP('Body1',#999);
#15=FACE_BOUND('',#134,.T.);
#16=FACE_BOUND('',#148,.T.);
#17=CONICAL_SURFACE('',#1036,3.25,0.785398163397448);
#18=CONICAL_SURFACE('',#1053,6.25,0.785398163397451);
#19=CONICAL_SURFACE('',#1064,1.49999999999999,0.785398163397447);
#20=CONICAL_SURFACE('',#1067,1.49999999999999,0.785398163397447);
#21=CONICAL_SURFACE('',#1070,1.49999999999999,0.785398163397447);
#22=CONICAL_SURFACE('',#1073,1.49999999999999,0.785398163397447);
#23=CONICAL_SURFACE('',#1081,1.49999999999999,0.785398163397447);
#24=CONICAL_SURFACE('',#1084,1.49999999999999,0.785398163397447);
#25=CONICAL_SURFACE('',#1091,1.49999999999999,0.785398163397447);
#26=CONICAL_SURFACE('',#1093,1.49999999999999,0.785398163397447);
#27=CYLINDRICAL_SURFACE('',#1034,3.);
#28=CYLINDRICAL_SURFACE('',#1057,6.);
#29=CYLINDRICAL_SURFACE('',#1075,1.99999999999999);
#30=CYLINDRICAL_SURFACE('',#1078,1.99999999999999);
#31=CYLINDRICAL_SURFACE('',#1087,1.99999999999999);
#32=CYLINDRICAL_SURFACE('',#1089,1.99999999999999);
#33=CIRCLE('',#1015,3.);
#34=CIRCLE('',#1017,3.);
#35=CIRCLE('',#1019,3.);
#36=CIRCLE('',#1021,3.);
#37=CIRCLE('',#1024,6.);
#38=CIRCLE('',#1026,6.);
#39=CIRCLE('',#1030,6.);
#40=CIRCLE('',#1032,6.);
#41=CIRCLE('',#1033,6.);
#42=CIRCLE('',#1035,3.);
#43=CIRCLE('',#1037,3.5);
#44=CIRCLE('',#1039,0.999999999999992);
#45=CIRCLE('',#1040,0.999999999999992);
#46=CIRCLE('',#1041,0.999999999999992);
#47=CIRCLE('',#1042,0.999999999999991);
#48=CIRCLE('',#1054,6.5);
#49=CIRCLE('',#1055,6.);
#50=CIRCLE('',#1056,6.);
#51=CIRCLE('',#1059,0.999999999999992);
#52=CIRCLE('',#1060,0.999999999999992);
#53=CIRCLE('',#1061,0.999999999999991);
#54=CIRCLE('',#1062,0.999999999999992);
#55=CIRCLE('',#1065,1.99999999999999);
#56=CIRCLE('',#1068,1.99999999999999);
#57=CIRCLE('',#1071,1.99999999999999);
#58=CIRCLE('',#1074,1.99999999999999);
#59=CIRCLE('',#1076,1.99999999999999);
#60=CIRCLE('',#1079,1.99999999999999);
#61=CIRCLE('',#1082,1.99999999999999);
#62=CIRCLE('',#1085,1.99999999999999);
#63=FACE_OUTER_BOUND('',#119,.T.);
#64=FACE_OUTER_BOUND('',#120,.T.);
#65=FACE_OUTER_BOUND('',#121,.T.);
#66=FACE_OUTER_BOUND('',#122,.T.);
#67=FACE_OUTER_BOUND('',#123,.T.);
#68=FACE_OUTER_BOUND('',#124,.T.);
#69=FACE_OUTER_BOUND('',#125,.T.);
#70=FACE_OUTER_BOUND('',#126,.T.);
#71=FACE_OUTER_BOUND('',#127,.T.);
#72=FACE_OUTER_BOUND('',#128,.T.);
#73=FACE_OUTER_BOUND('',#129,.T.);
#74=FACE_OUTER_BOUND('',#130,.T.);
#75=FACE_OUTER_BOUND('',#131,.T.);
#76=FACE_OUTER_BOUND('',#132,.T.);
#77=FACE_OUTER_BOUND('',#133,.T.);
#78=FACE_OUTER_BOUND('',#135,.T.);
#79=FACE_OUTER_BOUND('',#136,.T.);
#80=FACE_OUTER_BOUND('',#137,.T.);
#81=FACE_OUTER_BOUND('',#138,.T.);
#82=FACE_OUTER_BOUND('',#139,.T.);
#83=FACE_OUTER_BOUND('',#140,.T.);
#84=FACE_OUTER_BOUND('',#141,.T.);
#85=FACE_OUTER_BOUND('',#142,.T.);
#86=FACE_OUTER_BOUND('',#143,.T.);
#87=FACE_OUTER_BOUND('',#144,.T.);
#88=FACE_OUTER_BOUND('',#145,.T.);
#89=FACE_OUTER_BOUND('',#146,.T.);
#90=FACE_OUTER_BOUND('',#147,.T.);
#91=FACE_OUTER_BOUND('',#149,.T.);
#92=FACE_OUTER_BOUND('',#150,.T.);
#93=FACE_OUTER_BOUND('',#151,.T.);
#94=FACE_OUTER_BOUND('',#152,.T.);
#95=FACE_OUTER_BOUND('',#153,.T.);
#96=FACE_OUTER_BOUND('',#154,.T.);
#97=FACE_OUTER_BOUND('',#155,.T.);
#98=FACE_OUTER_BOUND('',#156,.T.);
#99=FACE_OUTER_BOUND('',#157,.T.);
#100=FACE_OUTER_BOUND('',#158,.T.);
#101=FACE_OUTER_BOUND('',#159,.T.);
#102=FACE_OUTER_BOUND('',#160,.T.);
#103=FACE_OUTER_BOUND('',#161,.T.);
#104=FACE_OUTER_BOUND('',#162,.T.);
#105=FACE_OUTER_BOUND('',#163,.T.);
#106=FACE_OUTER_BOUND('',#164,.T.);
#107=FACE_OUTER_BOUND('',#165,.T.);
#108=FACE_OUTER_BOUND('',#166,.T.);
#109=FACE_OUTER_BOUND('',#167,.T.);
#110=FACE_OUTER_BOUND('',#168,.T.);
#111=FACE_OUTER_BOUND('',#169,.T.);
#112=FACE_OUTER_BOUND('',#170,.T.);
#113=FACE_OUTER_BOUND('',#171,.T.);
#114=FACE_OUTER_BOUND('',#172,.T.);
#115=FACE_OUTER_BOUND('',#173,.T.);
#116=FACE_OUTER_BOUND('',#174,.T.);
#117=FACE_OUTER_BOUND('',#175,.T.);
#118=FACE_OUTER_BOUND('',#176,.T.);
#119=EDGE_LOOP('',(#623,#624,#625,#626,#627));
#120=EDGE_LOOP('',(#628,#629,#630));
#121=EDGE_LOOP('',(#631,#632,#633));
#122=EDGE_LOOP('',(#634,#635,#636));
#123=EDGE_LOOP('',(#637,#638,#639));
#124=EDGE_LOOP('',(#640,#641,#642,#643,#644));
#125=EDGE_LOOP('',(#645,#646,#647,#648));
#126=EDGE_LOOP('',(#649,#650,#651,#652));
#127=EDGE_LOOP('',(#653,#654,#655,#656,#657,#658,#659,#660,#661));
#128=EDGE_LOOP('',(#662,#663,#664,#665,#666,#667,#668,#669,#670));
#129=EDGE_LOOP('',(#671,#672));
#130=EDGE_LOOP('',(#673,#674,#675));
#131=EDGE_LOOP('',(#676,#677,#678,#679,#680,#681,#682));
#132=EDGE_LOOP('',(#683,#684,#685,#686));
#133=EDGE_LOOP('',(#687,#688,#689,#690,#691,#692,#693,#694,#695,#696,#697,
#698,#699,#700,#701,#702));
#134=EDGE_LOOP('',(#703));
#135=EDGE_LOOP('',(#704,#705,#706,#707));
#136=EDGE_LOOP('',(#708,#709,#710,#711,#712));
#137=EDGE_LOOP('',(#713,#714,#715,#716,#717,#718,#719,#720,#721,#722));
#138=EDGE_LOOP('',(#723,#724,#725,#726));
#139=EDGE_LOOP('',(#727,#728,#729,#730,#731));
#140=EDGE_LOOP('',(#732,#733,#734,#735,#736,#737));
#141=EDGE_LOOP('',(#738,#739,#740,#741));
#142=EDGE_LOOP('',(#742,#743,#744,#745,#746,#747,#748,#749,#750,#751));
#143=EDGE_LOOP('',(#752,#753,#754,#755));
#144=EDGE_LOOP('',(#756,#757,#758,#759));
#145=EDGE_LOOP('',(#760,#761,#762,#763,#764));
#146=EDGE_LOOP('',(#765,#766,#767,#768,#769,#770,#771,#772,#773,#774,#775,
#776,#777));
#147=EDGE_LOOP('',(#778,#779,#780,#781,#782,#783,#784,#785));
#148=EDGE_LOOP('',(#786));
#149=EDGE_LOOP('',(#787,#788,#789,#790));
#150=EDGE_LOOP('',(#791,#792,#793,#794));
#151=EDGE_LOOP('',(#795,#796,#797,#798));
#152=EDGE_LOOP('',(#799,#800,#801,#802));
#153=EDGE_LOOP('',(#803,#804,#805,#806));
#154=EDGE_LOOP('',(#807,#808,#809,#810));
#155=EDGE_LOOP('',(#811,#812,#813,#814));
#156=EDGE_LOOP('',(#815,#816,#817,#818));
#157=EDGE_LOOP('',(#819,#820,#821,#822));
#158=EDGE_LOOP('',(#823,#824,#825,#826));
#159=EDGE_LOOP('',(#827,#828,#829,#830));
#160=EDGE_LOOP('',(#831,#832,#833,#834));
#161=EDGE_LOOP('',(#835,#836,#837,#838));
#162=EDGE_LOOP('',(#839,#840,#841,#842));
#163=EDGE_LOOP('',(#843,#844,#845,#846));
#164=EDGE_LOOP('',(#847,#848,#849,#850));
#165=EDGE_LOOP('',(#851,#852,#853,#854));
#166=EDGE_LOOP('',(#855,#856,#857,#858));
#167=EDGE_LOOP('',(#859,#860,#861,#862));
#168=EDGE_LOOP('',(#863,#864,#865,#866));
#169=EDGE_LOOP('',(#867,#868,#869,#870));
#170=EDGE_LOOP('',(#871,#872,#873,#874));
#171=EDGE_LOOP('',(#875,#876,#877,#878));
#172=EDGE_LOOP('',(#879,#880,#881,#882));
#173=EDGE_LOOP('',(#883,#884,#885,#886,#887));
#174=EDGE_LOOP('',(#888,#889,#890,#891));
#175=EDGE_LOOP('',(#892,#893,#894,#895,#896));
#176=EDGE_LOOP('',(#897,#898,#899,#900,#901,#902));
#177=LINE('',#1387,#287);
#178=LINE('',#1389,#288);
#179=LINE('',#1391,#289);
#180=LINE('',#1393,#290);
#181=LINE('',#1394,#291);
#182=LINE('',#1398,#292);
#183=LINE('',#1402,#293);
#184=LINE('',#1407,#294);
#185=LINE('',#1408,#295);
#186=LINE('',#1412,#296);
#187=LINE('',#1413,#297);
#188=LINE('',#1416,#298);
#189=LINE('',#1418,#299);
#190=LINE('',#1419,#300);
#191=LINE('',#1422,#301);
#192=LINE('',#1425,#302);
#193=LINE('',#1428,#303);
#194=LINE('',#1431,#304);
#195=LINE('',#1434,#305);
#196=LINE('',#1436,#306);
#197=LINE('',#1437,#307);
#198=LINE('',#1440,#308);
#199=LINE('',#1442,#309);
#200=LINE('',#1443,#310);
#201=LINE('',#1452,#311);
#202=LINE('',#1456,#312);
#203=LINE('',#1461,#313);
#204=LINE('',#1463,#314);
#205=LINE('',#1465,#315);
#206=LINE('',#1467,#316);
#207=LINE('',#1469,#317);
#208=LINE('',#1473,#318);
#209=LINE('',#1477,#319);
#210=LINE('',#1479,#320);
#211=LINE('',#1481,#321);
#212=LINE('',#1483,#322);
#213=LINE('',#1485,#323);
#214=LINE('',#1489,#324);
#215=LINE('',#1494,#325);
#216=LINE('',#1496,#326);
#217=LINE('',#1498,#327);
#218=LINE('',#1499,#328);
#219=LINE('',#1502,#329);
#220=LINE('',#1503,#330);
#221=LINE('',#1504,#331);
#222=LINE('',#1507,#332);
#223=LINE('',#1509,#333);
#224=LINE('',#1511,#334);
#225=LINE('',#1513,#335);
#226=LINE('',#1515,#336);
#227=LINE('',#1517,#337);
#228=LINE('',#1519,#338);
#229=LINE('',#1520,#339);
#230=LINE('',#1523,#340);
#231=LINE('',#1525,#341);
#232=LINE('',#1526,#342);
#233=LINE('',#1528,#343);
#234=LINE('',#1529,#344);
#235=LINE('',#1531,#345);
#236=LINE('',#1535,#346);
#237=LINE('',#1537,#347);
#238=LINE('',#1539,#348);
#239=LINE('',#1540,#349);
#240=LINE('',#1543,#350);
#241=LINE('',#1545,#351);
#242=LINE('',#1547,#352);
#243=LINE('',#1549,#353);
#244=LINE('',#1551,#354);
#245=LINE('',#1553,#355);
#246=LINE('',#1555,#356);
#247=LINE('',#1557,#357);
#248=LINE('',#1558,#358);
#249=LINE('',#1561,#359);
#250=LINE('',#1562,#360);
#251=LINE('',#1565,#361);
#252=LINE('',#1566,#362);
#253=LINE('',#1571,#363);
#254=LINE('',#1576,#364);
#255=LINE('',#1580,#365);
#256=LINE('',#1584,#366);
#257=LINE('',#1588,#367);
#258=LINE('',#1592,#368);
#259=LINE('',#1595,#369);
#260=LINE('',#1596,#370);
#261=LINE('',#1600,#371);
#262=LINE('',#1603,#372);
#263=LINE('',#1604,#373);
#264=LINE('',#1607,#374);
#265=LINE('',#1609,#375);
#266=LINE('',#1613,#376);
#267=LINE('',#1616,#377);
#268=LINE('',#1617,#378);
#269=LINE('',#1622,#379);
#270=LINE('',#1626,#380);
#271=LINE('',#1627,#381);
#272=LINE('',#1631,#382);
#273=LINE('',#1635,#383);
#274=LINE('',#1638,#384);
#275=LINE('',#1639,#385);
#276=LINE('',#1642,#386);
#277=LINE('',#1644,#387);
#278=LINE('',#1646,#388);
#279=LINE('',#1648,#389);
#280=LINE('',#1651,#390);
#281=LINE('',#1652,#391);
#282=LINE('',#1654,#392);
#283=LINE('',#1656,#393);
#284=LINE('',#1658,#394);
#285=LINE('',#1661,#395);
#286=LINE('',#1664,#396);
#287=VECTOR('',#1103,10.);
#288=VECTOR('',#1104,10.);
#289=VECTOR('',#1105,10.);
#290=VECTOR('',#1106,10.);
#291=VECTOR('',#1107,10.);
#292=VECTOR('',#1112,10.);
#293=VECTOR('',#1117,10.);
#294=VECTOR('',#1122,10.);
#295=VECTOR('',#1123,10.);
#296=VECTOR('',#1128,10.);
#297=VECTOR('',#1129,10.);
#298=VECTOR('',#1132,10.);
#299=VECTOR('',#1133,10.);
#300=VECTOR('',#1134,10.);
#301=VECTOR('',#1137,10.);
#302=VECTOR('',#1140,10.);
#303=VECTOR('',#1143,10.);
#304=VECTOR('',#1146,10.);
#305=VECTOR('',#1149,10.);
#306=VECTOR('',#1150,10.);
#307=VECTOR('',#1151,10.);
#308=VECTOR('',#1154,10.);
#309=VECTOR('',#1155,10.);
#310=VECTOR('',#1156,10.);
#311=VECTOR('',#1169,4.);
#312=VECTOR('',#1174,3.25);
#313=VECTOR('',#1179,10.);
#314=VECTOR('',#1180,10.);
#315=VECTOR('',#1181,10.);
#316=VECTOR('',#1182,10.);
#317=VECTOR('',#1183,10.);
#318=VECTOR('',#1186,10.);
#319=VECTOR('',#1189,10.);
#320=VECTOR('',#1190,10.);
#321=VECTOR('',#1191,10.);
#322=VECTOR('',#1192,10.);
#323=VECTOR('',#1193,10.);
#324=VECTOR('',#1196,10.);
#325=VECTOR('',#1201,10.);
#326=VECTOR('',#1202,10.);
#327=VECTOR('',#1203,10.);
#328=VECTOR('',#1204,10.);
#329=VECTOR('',#1207,10.);
#330=VECTOR('',#1208,10.);
#331=VECTOR('',#1209,10.);
#332=VECTOR('',#1212,1000.);
#333=VECTOR('',#1213,10.);
#334=VECTOR('',#1214,10.);
#335=VECTOR('',#1215,10.);
#336=VECTOR('',#1216,10.);
#337=VECTOR('',#1217,10.);
#338=VECTOR('',#1218,10.);
#339=VECTOR('',#1219,10.);
#340=VECTOR('',#1222,10.);
#341=VECTOR('',#1223,10.);
#342=VECTOR('',#1224,10.);
#343=VECTOR('',#1227,10.);
#344=VECTOR('',#1228,10.);
#345=VECTOR('',#1231,10.);
#346=VECTOR('',#1234,10.);
#347=VECTOR('',#1235,10.);
#348=VECTOR('',#1236,10.);
#349=VECTOR('',#1237,10.);
#350=VECTOR('',#1240,10.);
#351=VECTOR('',#1241,10.);
#352=VECTOR('',#1242,10.);
#353=VECTOR('',#1243,10.);
#354=VECTOR('',#1244,10.);
#355=VECTOR('',#1245,10.);
#356=VECTOR('',#1246,10.);
#357=VECTOR('',#1247,10.);
#358=VECTOR('',#1248,10.);
#359=VECTOR('',#1251,10.);
#360=VECTOR('',#1252,10.);
#361=VECTOR('',#1255,10.);
#362=VECTOR('',#1256,10.);
#363=VECTOR('',#1261,6.25);
#364=VECTOR('',#1268,6.);
#365=VECTOR('',#1271,10.);
#366=VECTOR('',#1274,10.);
#367=VECTOR('',#1277,10.);
#368=VECTOR('',#1280,10.);
#369=VECTOR('',#1285,10.);
#370=VECTOR('',#1286,10.);
#371=VECTOR('',#1291,10.);
#372=VECTOR('',#1294,10.);
#373=VECTOR('',#1295,10.);
#374=VECTOR('',#1300,10.);
#375=VECTOR('',#1303,10.);
#376=VECTOR('',#1308,10.);
#377=VECTOR('',#1311,10.);
#378=VECTOR('',#1312,10.);
#379=VECTOR('',#1319,10.);
#380=VECTOR('',#1324,10.);
#381=VECTOR('',#1325,10.);
#382=VECTOR('',#1332,10.);
#383=VECTOR('',#1337,10.);
#384=VECTOR('',#1340,10.);
#385=VECTOR('',#1341,10.);
#386=VECTOR('',#1346,10.);
#387=VECTOR('',#1349,10.);
#388=VECTOR('',#1352,10.);
#389=VECTOR('',#1355,10.);
#390=VECTOR('',#1360,10.);
#391=VECTOR('',#1361,10.);
#392=VECTOR('',#1364,10.);
#393=VECTOR('',#1367,10.);
#394=VECTOR('',#1370,10.);
#395=VECTOR('',#1375,10.);
#396=VECTOR('',#1380,10.);
#397=VERTEX_POINT('',#1385);
#398=VERTEX_POINT('',#1386);
#399=VERTEX_POINT('',#1388);
#400=VERTEX_POINT('',#1390);
#401=VERTEX_POINT('',#1392);
#402=VERTEX_POINT('',#1396);
#403=VERTEX_POINT('',#1400);
#404=VERTEX_POINT('',#1404);
#405=VERTEX_POINT('',#1406);
#406=VERTEX_POINT('',#1411);
#407=VERTEX_POINT('',#1415);
#408=VERTEX_POINT('',#1417);
#409=VERTEX_POINT('',#1421);
#410=VERTEX_POINT('',#1423);
#411=VERTEX_POINT('',#1427);
#412=VERTEX_POINT('',#1429);
#413=VERTEX_POINT('',#1433);
#414=VERTEX_POINT('',#1435);
#415=VERTEX_POINT('',#1439);
#416=VERTEX_POINT('',#1441);
#417=VERTEX_POINT('',#1447);
#418=VERTEX_POINT('',#1451);
#419=VERTEX_POINT('',#1455);
#420=VERTEX_POINT('',#1459);
#421=VERTEX_POINT('',#1460);
#422=VERTEX_POINT('',#1462);
#423=VERTEX_POINT('',#1464);
#424=VERTEX_POINT('',#1466);
#425=VERTEX_POINT('',#1468);
#426=VERTEX_POINT('',#1470);
#427=VERTEX_POINT('',#1472);
#428=VERTEX_POINT('',#1474);
#429=VERTEX_POINT('',#1476);
#430=VERTEX_POINT('',#1478);
#431=VERTEX_POINT('',#1480);
#432=VERTEX_POINT('',#1482);
#433=VERTEX_POINT('',#1484);
#434=VERTEX_POINT('',#1486);
#435=VERTEX_POINT('',#1488);
#436=VERTEX_POINT('',#1492);
#437=VERTEX_POINT('',#1493);
#438=VERTEX_POINT('',#1495);
#439=VERTEX_POINT('',#1497);
#440=VERTEX_POINT('',#1501);
#441=VERTEX_POINT('',#1506);
#442=VERTEX_POINT('',#1508);
#443=VERTEX_POINT('',#1510);
#444=VERTEX_POINT('',#1512);
#445=VERTEX_POINT('',#1514);
#446=VERTEX_POINT('',#1516);
#447=VERTEX_POINT('',#1518);
#448=VERTEX_POINT('',#1522);
#449=VERTEX_POINT('',#1524);
#450=VERTEX_POINT('',#1533);
#451=VERTEX_POINT('',#1534);
#452=VERTEX_POINT('',#1536);
#453=VERTEX_POINT('',#1538);
#454=VERTEX_POINT('',#1542);
#455=VERTEX_POINT('',#1544);
#456=VERTEX_POINT('',#1546);
#457=VERTEX_POINT('',#1548);
#458=VERTEX_POINT('',#1550);
#459=VERTEX_POINT('',#1552);
#460=VERTEX_POINT('',#1554);
#461=VERTEX_POINT('',#1556);
#462=VERTEX_POINT('',#1560);
#463=VERTEX_POINT('',#1564);
#464=VERTEX_POINT('',#1568);
#465=VERTEX_POINT('',#1570);
#466=VERTEX_POINT('',#1572);
#467=VERTEX_POINT('',#1578);
#468=VERTEX_POINT('',#1579);
#469=VERTEX_POINT('',#1581);
#470=VERTEX_POINT('',#1583);
#471=VERTEX_POINT('',#1585);
#472=VERTEX_POINT('',#1587);
#473=VERTEX_POINT('',#1589);
#474=VERTEX_POINT('',#1591);
#475=VERTEX_POINT('',#1598);
#476=VERTEX_POINT('',#1602);
#477=VERTEX_POINT('',#1611);
#478=VERTEX_POINT('',#1615);
#479=VERTEX_POINT('',#1621);
#480=VERTEX_POINT('',#1625);
#481=VERTEX_POINT('',#1633);
#482=VERTEX_POINT('',#1637);
#483=EDGE_CURVE('',#397,#398,#177,.T.);
#484=EDGE_CURVE('',#399,#398,#178,.T.);
#485=EDGE_CURVE('',#400,#399,#179,.T.);
#486=EDGE_CURVE('',#400,#401,#180,.T.);
#487=EDGE_CURVE('',#401,#397,#181,.T.);
#488=EDGE_CURVE('',#402,#397,#33,.T.);
#489=EDGE_CURVE('',#398,#402,#182,.T.);
#490=EDGE_CURVE('',#397,#403,#34,.T.);
#491=EDGE_CURVE('',#403,#401,#183,.T.);
#492=EDGE_CURVE('',#403,#404,#35,.T.);
#493=EDGE_CURVE('',#405,#403,#184,.T.);
#494=EDGE_CURVE('',#404,#405,#185,.T.);
#495=EDGE_CURVE('',#404,#402,#36,.T.);
#496=EDGE_CURVE('',#406,#404,#186,.T.);
#497=EDGE_CURVE('',#402,#406,#187,.T.);
#498=EDGE_CURVE('',#407,#405,#188,.T.);
#499=EDGE_CURVE('',#408,#407,#189,.T.);
#500=EDGE_CURVE('',#408,#406,#190,.T.);
#501=EDGE_CURVE('',#409,#399,#191,.T.);
#502=EDGE_CURVE('',#410,#409,#37,.T.);
#503=EDGE_CURVE('',#400,#410,#192,.T.);
#504=EDGE_CURVE('',#411,#407,#193,.T.);
#505=EDGE_CURVE('',#412,#411,#38,.T.);
#506=EDGE_CURVE('',#408,#412,#194,.T.);
#507=EDGE_CURVE('',#413,#410,#195,.T.);
#508=EDGE_CURVE('',#414,#413,#196,.T.);
#509=EDGE_CURVE('',#414,#411,#197,.T.);
#510=EDGE_CURVE('',#415,#412,#198,.T.);
#511=EDGE_CURVE('',#416,#415,#199,.T.);
#512=EDGE_CURVE('',#416,#409,#200,.T.);
#513=EDGE_CURVE('',#416,#415,#39,.T.);
#514=EDGE_CURVE('',#417,#413,#40,.T.);
#515=EDGE_CURVE('',#414,#417,#41,.T.);
#516=EDGE_CURVE('',#403,#418,#201,.T.);
#517=EDGE_CURVE('',#418,#418,#42,.T.);
#518=EDGE_CURVE('',#418,#419,#202,.T.);
#519=EDGE_CURVE('',#419,#419,#43,.T.);
#520=EDGE_CURVE('',#420,#421,#203,.T.);
#521=EDGE_CURVE('',#420,#422,#204,.F.);
#522=EDGE_CURVE('',#422,#423,#205,.F.);
#523=EDGE_CURVE('',#423,#424,#206,.F.);
#524=EDGE_CURVE('',#425,#424,#207,.T.);
#525=EDGE_CURVE('',#426,#425,#44,.T.);
#526=EDGE_CURVE('',#427,#426,#208,.T.);
#527=EDGE_CURVE('',#428,#427,#45,.T.);
#528=EDGE_CURVE('',#429,#428,#209,.T.);
#529=EDGE_CURVE('',#429,#430,#210,.F.);
#530=EDGE_CURVE('',#430,#431,#211,.F.);
#531=EDGE_CURVE('',#431,#432,#212,.F.);
#532=EDGE_CURVE('',#433,#432,#213,.T.);
#533=EDGE_CURVE('',#434,#433,#46,.T.);
#534=EDGE_CURVE('',#435,#434,#214,.T.);
#535=EDGE_CURVE('',#421,#435,#47,.T.);
#536=EDGE_CURVE('',#436,#437,#215,.T.);
#537=EDGE_CURVE('',#437,#438,#216,.T.);
#538=EDGE_CURVE('',#438,#439,#217,.T.);
#539=EDGE_CURVE('',#439,#436,#218,.T.);
#540=EDGE_CURVE('',#440,#439,#219,.F.);
#541=EDGE_CURVE('',#432,#440,#220,.T.);
#542=EDGE_CURVE('',#431,#436,#221,.T.);
#543=EDGE_CURVE('',#441,#438,#222,.T.);
#544=EDGE_CURVE('',#442,#441,#223,.T.);
#545=EDGE_CURVE('',#443,#442,#224,.T.);
#546=EDGE_CURVE('',#444,#443,#225,.T.);
#547=EDGE_CURVE('',#445,#444,#226,.T.);
#548=EDGE_CURVE('',#446,#445,#227,.T.);
#549=EDGE_CURVE('',#447,#446,#228,.T.);
#550=EDGE_CURVE('',#440,#447,#229,.T.);
#551=EDGE_CURVE('',#441,#448,#230,.T.);
#552=EDGE_CURVE('',#448,#449,#231,.T.);
#553=EDGE_CURVE('',#449,#442,#232,.T.);
#554=EDGE_CURVE('',#430,#449,#233,.F.);
#555=EDGE_CURVE('',#443,#429,#234,.T.);
#556=EDGE_CURVE('',#437,#448,#235,.T.);
#557=EDGE_CURVE('',#450,#451,#236,.T.);
#558=EDGE_CURVE('',#451,#452,#237,.T.);
#559=EDGE_CURVE('',#452,#453,#238,.T.);
#560=EDGE_CURVE('',#453,#450,#239,.T.);
#561=EDGE_CURVE('',#454,#452,#240,.F.);
#562=EDGE_CURVE('',#455,#454,#241,.T.);
#563=EDGE_CURVE('',#455,#456,#242,.T.);
#564=EDGE_CURVE('',#457,#456,#243,.T.);
#565=EDGE_CURVE('',#458,#457,#244,.T.);
#566=EDGE_CURVE('',#459,#458,#245,.T.);
#567=EDGE_CURVE('',#460,#459,#246,.T.);
#568=EDGE_CURVE('',#461,#460,#247,.T.);
#569=EDGE_CURVE('',#461,#453,#248,.F.);
#570=EDGE_CURVE('',#462,#451,#249,.T.);
#571=EDGE_CURVE('',#454,#462,#250,.T.);
#572=EDGE_CURVE('',#462,#463,#251,.T.);
#573=EDGE_CURVE('',#463,#455,#252,.T.);
#574=EDGE_CURVE('',#464,#464,#48,.T.);
#575=EDGE_CURVE('',#464,#465,#253,.T.);
#576=EDGE_CURVE('',#465,#466,#49,.T.);
#577=EDGE_CURVE('',#466,#465,#50,.T.);
#578=EDGE_CURVE('',#466,#417,#254,.T.);
#579=EDGE_CURVE('',#467,#468,#255,.T.);
#580=EDGE_CURVE('',#469,#467,#51,.T.);
#581=EDGE_CURVE('',#470,#469,#256,.T.);
#582=EDGE_CURVE('',#471,#470,#52,.T.);
#583=EDGE_CURVE('',#472,#471,#257,.T.);
#584=EDGE_CURVE('',#473,#472,#53,.T.);
#585=EDGE_CURVE('',#474,#473,#258,.T.);
#586=EDGE_CURVE('',#468,#474,#54,.T.);
#587=EDGE_CURVE('',#445,#467,#259,.T.);
#588=EDGE_CURVE('',#468,#446,#260,.T.);
#589=EDGE_CURVE('',#445,#475,#55,.T.);
#590=EDGE_CURVE('',#475,#469,#261,.T.);
#591=EDGE_CURVE('',#476,#470,#262,.T.);
#592=EDGE_CURVE('',#475,#476,#263,.T.);
#593=EDGE_CURVE('',#476,#459,#56,.T.);
#594=EDGE_CURVE('',#459,#471,#264,.T.);
#595=EDGE_CURVE('',#458,#472,#265,.T.);
#596=EDGE_CURVE('',#458,#477,#57,.T.);
#597=EDGE_CURVE('',#477,#473,#266,.T.);
#598=EDGE_CURVE('',#478,#474,#267,.T.);
#599=EDGE_CURVE('',#477,#478,#268,.T.);
#600=EDGE_CURVE('',#478,#446,#58,.T.);
#601=EDGE_CURVE('',#476,#479,#269,.T.);
#602=EDGE_CURVE('',#460,#479,#59,.T.);
#603=EDGE_CURVE('',#480,#475,#270,.T.);
#604=EDGE_CURVE('',#479,#480,#271,.T.);
#605=EDGE_CURVE('',#480,#444,#60,.T.);
#606=EDGE_CURVE('',#447,#433,#272,.T.);
#607=EDGE_CURVE('',#447,#481,#61,.T.);
#608=EDGE_CURVE('',#481,#434,#273,.T.);
#609=EDGE_CURVE('',#482,#435,#274,.T.);
#610=EDGE_CURVE('',#481,#482,#275,.T.);
#611=EDGE_CURVE('',#482,#457,#62,.T.);
#612=EDGE_CURVE('',#457,#421,#276,.T.);
#613=EDGE_CURVE('',#456,#420,#277,.T.);
#614=EDGE_CURVE('',#482,#477,#278,.T.);
#615=EDGE_CURVE('',#478,#481,#279,.T.);
#616=EDGE_CURVE('',#424,#461,#280,.T.);
#617=EDGE_CURVE('',#460,#425,#281,.T.);
#618=EDGE_CURVE('',#479,#426,#282,.T.);
#619=EDGE_CURVE('',#480,#427,#283,.T.);
#620=EDGE_CURVE('',#444,#428,#284,.T.);
#621=EDGE_CURVE('',#450,#423,#285,.T.);
#622=EDGE_CURVE('',#422,#463,#286,.F.);
#623=ORIENTED_EDGE('',*,*,#483,.T.);
#624=ORIENTED_EDGE('',*,*,#484,.F.);
#625=ORIENTED_EDGE('',*,*,#485,.F.);
#626=ORIENTED_EDGE('',*,*,#486,.T.);
#627=ORIENTED_EDGE('',*,*,#487,.T.);
#628=ORIENTED_EDGE('',*,*,#488,.F.);
#629=ORIENTED_EDGE('',*,*,#489,.F.);
#630=ORIENTED_EDGE('',*,*,#483,.F.);
#631=ORIENTED_EDGE('',*,*,#490,.F.);
#632=ORIENTED_EDGE('',*,*,#487,.F.);
#633=ORIENTED_EDGE('',*,*,#491,.F.);
#634=ORIENTED_EDGE('',*,*,#492,.F.);
#635=ORIENTED_EDGE('',*,*,#493,.F.);
#636=ORIENTED_EDGE('',*,*,#494,.F.);
#637=ORIENTED_EDGE('',*,*,#495,.F.);
#638=ORIENTED_EDGE('',*,*,#496,.F.);
#639=ORIENTED_EDGE('',*,*,#497,.F.);
#640=ORIENTED_EDGE('',*,*,#494,.T.);
#641=ORIENTED_EDGE('',*,*,#498,.F.);
#642=ORIENTED_EDGE('',*,*,#499,.F.);
#643=ORIENTED_EDGE('',*,*,#500,.T.);
#644=ORIENTED_EDGE('',*,*,#496,.T.);
#645=ORIENTED_EDGE('',*,*,#485,.T.);
#646=ORIENTED_EDGE('',*,*,#501,.F.);
#647=ORIENTED_EDGE('',*,*,#502,.F.);
#648=ORIENTED_EDGE('',*,*,#503,.F.);
#649=ORIENTED_EDGE('',*,*,#499,.T.);
#650=ORIENTED_EDGE('',*,*,#504,.F.);
#651=ORIENTED_EDGE('',*,*,#505,.F.);
#652=ORIENTED_EDGE('',*,*,#506,.F.);
#653=ORIENTED_EDGE('',*,*,#503,.T.);
#654=ORIENTED_EDGE('',*,*,#507,.F.);
#655=ORIENTED_EDGE('',*,*,#508,.F.);
#656=ORIENTED_EDGE('',*,*,#509,.T.);
#657=ORIENTED_EDGE('',*,*,#504,.T.);
#658=ORIENTED_EDGE('',*,*,#498,.T.);
#659=ORIENTED_EDGE('',*,*,#493,.T.);
#660=ORIENTED_EDGE('',*,*,#491,.T.);
#661=ORIENTED_EDGE('',*,*,#486,.F.);
#662=ORIENTED_EDGE('',*,*,#506,.T.);
#663=ORIENTED_EDGE('',*,*,#510,.F.);
#664=ORIENTED_EDGE('',*,*,#511,.F.);
#665=ORIENTED_EDGE('',*,*,#512,.T.);
#666=ORIENTED_EDGE('',*,*,#501,.T.);
#667=ORIENTED_EDGE('',*,*,#484,.T.);
#668=ORIENTED_EDGE('',*,*,#489,.T.);
#669=ORIENTED_EDGE('',*,*,#497,.T.);
#670=ORIENTED_EDGE('',*,*,#500,.F.);
#671=ORIENTED_EDGE('',*,*,#511,.T.);
#672=ORIENTED_EDGE('',*,*,#513,.F.);
#673=ORIENTED_EDGE('',*,*,#508,.T.);
#674=ORIENTED_EDGE('',*,*,#514,.F.);
#675=ORIENTED_EDGE('',*,*,#515,.F.);
#676=ORIENTED_EDGE('',*,*,#495,.T.);
#677=ORIENTED_EDGE('',*,*,#488,.T.);
#678=ORIENTED_EDGE('',*,*,#490,.T.);
#679=ORIENTED_EDGE('',*,*,#516,.T.);
#680=ORIENTED_EDGE('',*,*,#517,.F.);
#681=ORIENTED_EDGE('',*,*,#516,.F.);
#682=ORIENTED_EDGE('',*,*,#492,.T.);
#683=ORIENTED_EDGE('',*,*,#517,.T.);
#684=ORIENTED_EDGE('',*,*,#518,.T.);
#685=ORIENTED_EDGE('',*,*,#519,.T.);
#686=ORIENTED_EDGE('',*,*,#518,.F.);
#687=ORIENTED_EDGE('',*,*,#520,.F.);
#688=ORIENTED_EDGE('',*,*,#521,.T.);
#689=ORIENTED_EDGE('',*,*,#522,.T.);
#690=ORIENTED_EDGE('',*,*,#523,.T.);
#691=ORIENTED_EDGE('',*,*,#524,.F.);
#692=ORIENTED_EDGE('',*,*,#525,.F.);
#693=ORIENTED_EDGE('',*,*,#526,.F.);
#694=ORIENTED_EDGE('',*,*,#527,.F.);
#695=ORIENTED_EDGE('',*,*,#528,.F.);
#696=ORIENTED_EDGE('',*,*,#529,.T.);
#697=ORIENTED_EDGE('',*,*,#530,.T.);
#698=ORIENTED_EDGE('',*,*,#531,.T.);
#699=ORIENTED_EDGE('',*,*,#532,.F.);
#700=ORIENTED_EDGE('',*,*,#533,.F.);
#701=ORIENTED_EDGE('',*,*,#534,.F.);
#702=ORIENTED_EDGE('',*,*,#535,.F.);
#703=ORIENTED_EDGE('',*,*,#519,.F.);
#704=ORIENTED_EDGE('',*,*,#536,.T.);
#705=ORIENTED_EDGE('',*,*,#537,.T.);
#706=ORIENTED_EDGE('',*,*,#538,.T.);
#707=ORIENTED_EDGE('',*,*,#539,.T.);
#708=ORIENTED_EDGE('',*,*,#539,.F.);
#709=ORIENTED_EDGE('',*,*,#540,.F.);
#710=ORIENTED_EDGE('',*,*,#541,.F.);
#711=ORIENTED_EDGE('',*,*,#531,.F.);
#712=ORIENTED_EDGE('',*,*,#542,.T.);
#713=ORIENTED_EDGE('',*,*,#538,.F.);
#714=ORIENTED_EDGE('',*,*,#543,.F.);
#715=ORIENTED_EDGE('',*,*,#544,.F.);
#716=ORIENTED_EDGE('',*,*,#545,.F.);
#717=ORIENTED_EDGE('',*,*,#546,.F.);
#718=ORIENTED_EDGE('',*,*,#547,.F.);
#719=ORIENTED_EDGE('',*,*,#548,.F.);
#720=ORIENTED_EDGE('',*,*,#549,.F.);
#721=ORIENTED_EDGE('',*,*,#550,.F.);
#722=ORIENTED_EDGE('',*,*,#540,.T.);
#723=ORIENTED_EDGE('',*,*,#544,.T.);
#724=ORIENTED_EDGE('',*,*,#551,.T.);
#725=ORIENTED_EDGE('',*,*,#552,.T.);
#726=ORIENTED_EDGE('',*,*,#553,.T.);
#727=ORIENTED_EDGE('',*,*,#553,.F.);
#728=ORIENTED_EDGE('',*,*,#554,.F.);
#729=ORIENTED_EDGE('',*,*,#529,.F.);
#730=ORIENTED_EDGE('',*,*,#555,.F.);
#731=ORIENTED_EDGE('',*,*,#545,.T.);
#732=ORIENTED_EDGE('',*,*,#536,.F.);
#733=ORIENTED_EDGE('',*,*,#542,.F.);
#734=ORIENTED_EDGE('',*,*,#530,.F.);
#735=ORIENTED_EDGE('',*,*,#554,.T.);
#736=ORIENTED_EDGE('',*,*,#552,.F.);
#737=ORIENTED_EDGE('',*,*,#556,.F.);
#738=ORIENTED_EDGE('',*,*,#557,.T.);
#739=ORIENTED_EDGE('',*,*,#558,.T.);
#740=ORIENTED_EDGE('',*,*,#559,.T.);
#741=ORIENTED_EDGE('',*,*,#560,.T.);
#742=ORIENTED_EDGE('',*,*,#559,.F.);
#743=ORIENTED_EDGE('',*,*,#561,.F.);
#744=ORIENTED_EDGE('',*,*,#562,.F.);
#745=ORIENTED_EDGE('',*,*,#563,.T.);
#746=ORIENTED_EDGE('',*,*,#564,.F.);
#747=ORIENTED_EDGE('',*,*,#565,.F.);
#748=ORIENTED_EDGE('',*,*,#566,.F.);
#749=ORIENTED_EDGE('',*,*,#567,.F.);
#750=ORIENTED_EDGE('',*,*,#568,.F.);
#751=ORIENTED_EDGE('',*,*,#569,.T.);
#752=ORIENTED_EDGE('',*,*,#558,.F.);
#753=ORIENTED_EDGE('',*,*,#570,.F.);
#754=ORIENTED_EDGE('',*,*,#571,.F.);
#755=ORIENTED_EDGE('',*,*,#561,.T.);
#756=ORIENTED_EDGE('',*,*,#562,.T.);
#757=ORIENTED_EDGE('',*,*,#571,.T.);
#758=ORIENTED_EDGE('',*,*,#572,.T.);
#759=ORIENTED_EDGE('',*,*,#573,.T.);
#760=ORIENTED_EDGE('',*,*,#574,.T.);
#761=ORIENTED_EDGE('',*,*,#575,.T.);
#762=ORIENTED_EDGE('',*,*,#576,.T.);
#763=ORIENTED_EDGE('',*,*,#577,.T.);
#764=ORIENTED_EDGE('',*,*,#575,.F.);
#765=ORIENTED_EDGE('',*,*,#576,.F.);
#766=ORIENTED_EDGE('',*,*,#577,.F.);
#767=ORIENTED_EDGE('',*,*,#578,.T.);
#768=ORIENTED_EDGE('',*,*,#514,.T.);
#769=ORIENTED_EDGE('',*,*,#507,.T.);
#770=ORIENTED_EDGE('',*,*,#502,.T.);
#771=ORIENTED_EDGE('',*,*,#512,.F.);
#772=ORIENTED_EDGE('',*,*,#513,.T.);
#773=ORIENTED_EDGE('',*,*,#510,.T.);
#774=ORIENTED_EDGE('',*,*,#505,.T.);
#775=ORIENTED_EDGE('',*,*,#509,.F.);
#776=ORIENTED_EDGE('',*,*,#515,.T.);
#777=ORIENTED_EDGE('',*,*,#578,.F.);
#778=ORIENTED_EDGE('',*,*,#579,.F.);
#779=ORIENTED_EDGE('',*,*,#580,.F.);
#780=ORIENTED_EDGE('',*,*,#581,.F.);
#781=ORIENTED_EDGE('',*,*,#582,.F.);
#782=ORIENTED_EDGE('',*,*,#583,.F.);
#783=ORIENTED_EDGE('',*,*,#584,.F.);
#784=ORIENTED_EDGE('',*,*,#585,.F.);
#785=ORIENTED_EDGE('',*,*,#586,.F.);
#786=ORIENTED_EDGE('',*,*,#574,.F.);
#787=ORIENTED_EDGE('',*,*,#587,.T.);
#788=ORIENTED_EDGE('',*,*,#579,.T.);
#789=ORIENTED_EDGE('',*,*,#588,.T.);
#790=ORIENTED_EDGE('',*,*,#548,.T.);
#791=ORIENTED_EDGE('',*,*,#587,.F.);
#792=ORIENTED_EDGE('',*,*,#589,.T.);
#793=ORIENTED_EDGE('',*,*,#590,.T.);
#794=ORIENTED_EDGE('',*,*,#580,.T.);
#795=ORIENTED_EDGE('',*,*,#591,.T.);
#796=ORIENTED_EDGE('',*,*,#581,.T.);
#797=ORIENTED_EDGE('',*,*,#590,.F.);
#798=ORIENTED_EDGE('',*,*,#592,.T.);
#799=ORIENTED_EDGE('',*,*,#591,.F.);
#800=ORIENTED_EDGE('',*,*,#593,.T.);
#801=ORIENTED_EDGE('',*,*,#594,.T.);
#802=ORIENTED_EDGE('',*,*,#582,.T.);
#803=ORIENTED_EDGE('',*,*,#595,.T.);
#804=ORIENTED_EDGE('',*,*,#583,.T.);
#805=ORIENTED_EDGE('',*,*,#594,.F.);
#806=ORIENTED_EDGE('',*,*,#566,.T.);
#807=ORIENTED_EDGE('',*,*,#595,.F.);
#808=ORIENTED_EDGE('',*,*,#596,.T.);
#809=ORIENTED_EDGE('',*,*,#597,.T.);
#810=ORIENTED_EDGE('',*,*,#584,.T.);
#811=ORIENTED_EDGE('',*,*,#598,.T.);
#812=ORIENTED_EDGE('',*,*,#585,.T.);
#813=ORIENTED_EDGE('',*,*,#597,.F.);
#814=ORIENTED_EDGE('',*,*,#599,.T.);
#815=ORIENTED_EDGE('',*,*,#598,.F.);
#816=ORIENTED_EDGE('',*,*,#600,.T.);
#817=ORIENTED_EDGE('',*,*,#588,.F.);
#818=ORIENTED_EDGE('',*,*,#586,.T.);
#819=ORIENTED_EDGE('',*,*,#593,.F.);
#820=ORIENTED_EDGE('',*,*,#601,.T.);
#821=ORIENTED_EDGE('',*,*,#602,.F.);
#822=ORIENTED_EDGE('',*,*,#567,.T.);
#823=ORIENTED_EDGE('',*,*,#592,.F.);
#824=ORIENTED_EDGE('',*,*,#603,.F.);
#825=ORIENTED_EDGE('',*,*,#604,.F.);
#826=ORIENTED_EDGE('',*,*,#601,.F.);
#827=ORIENTED_EDGE('',*,*,#589,.F.);
#828=ORIENTED_EDGE('',*,*,#547,.T.);
#829=ORIENTED_EDGE('',*,*,#605,.F.);
#830=ORIENTED_EDGE('',*,*,#603,.T.);
#831=ORIENTED_EDGE('',*,*,#541,.T.);
#832=ORIENTED_EDGE('',*,*,#550,.T.);
#833=ORIENTED_EDGE('',*,*,#606,.T.);
#834=ORIENTED_EDGE('',*,*,#532,.T.);
#835=ORIENTED_EDGE('',*,*,#606,.F.);
#836=ORIENTED_EDGE('',*,*,#607,.T.);
#837=ORIENTED_EDGE('',*,*,#608,.T.);
#838=ORIENTED_EDGE('',*,*,#533,.T.);
#839=ORIENTED_EDGE('',*,*,#609,.T.);
#840=ORIENTED_EDGE('',*,*,#534,.T.);
#841=ORIENTED_EDGE('',*,*,#608,.F.);
#842=ORIENTED_EDGE('',*,*,#610,.T.);
#843=ORIENTED_EDGE('',*,*,#609,.F.);
#844=ORIENTED_EDGE('',*,*,#611,.T.);
#845=ORIENTED_EDGE('',*,*,#612,.T.);
#846=ORIENTED_EDGE('',*,*,#535,.T.);
#847=ORIENTED_EDGE('',*,*,#613,.T.);
#848=ORIENTED_EDGE('',*,*,#520,.T.);
#849=ORIENTED_EDGE('',*,*,#612,.F.);
#850=ORIENTED_EDGE('',*,*,#564,.T.);
#851=ORIENTED_EDGE('',*,*,#596,.F.);
#852=ORIENTED_EDGE('',*,*,#565,.T.);
#853=ORIENTED_EDGE('',*,*,#611,.F.);
#854=ORIENTED_EDGE('',*,*,#614,.T.);
#855=ORIENTED_EDGE('',*,*,#599,.F.);
#856=ORIENTED_EDGE('',*,*,#614,.F.);
#857=ORIENTED_EDGE('',*,*,#610,.F.);
#858=ORIENTED_EDGE('',*,*,#615,.F.);
#859=ORIENTED_EDGE('',*,*,#600,.F.);
#860=ORIENTED_EDGE('',*,*,#615,.T.);
#861=ORIENTED_EDGE('',*,*,#607,.F.);
#862=ORIENTED_EDGE('',*,*,#549,.T.);
#863=ORIENTED_EDGE('',*,*,#616,.T.);
#864=ORIENTED_EDGE('',*,*,#568,.T.);
#865=ORIENTED_EDGE('',*,*,#617,.T.);
#866=ORIENTED_EDGE('',*,*,#524,.T.);
#867=ORIENTED_EDGE('',*,*,#617,.F.);
#868=ORIENTED_EDGE('',*,*,#602,.T.);
#869=ORIENTED_EDGE('',*,*,#618,.T.);
#870=ORIENTED_EDGE('',*,*,#525,.T.);
#871=ORIENTED_EDGE('',*,*,#619,.T.);
#872=ORIENTED_EDGE('',*,*,#526,.T.);
#873=ORIENTED_EDGE('',*,*,#618,.F.);
#874=ORIENTED_EDGE('',*,*,#604,.T.);
#875=ORIENTED_EDGE('',*,*,#619,.F.);
#876=ORIENTED_EDGE('',*,*,#605,.T.);
#877=ORIENTED_EDGE('',*,*,#620,.T.);
#878=ORIENTED_EDGE('',*,*,#527,.T.);
#879=ORIENTED_EDGE('',*,*,#555,.T.);
#880=ORIENTED_EDGE('',*,*,#528,.T.);
#881=ORIENTED_EDGE('',*,*,#620,.F.);
#882=ORIENTED_EDGE('',*,*,#546,.T.);
#883=ORIENTED_EDGE('',*,*,#560,.F.);
#884=ORIENTED_EDGE('',*,*,#569,.F.);
#885=ORIENTED_EDGE('',*,*,#616,.F.);
#886=ORIENTED_EDGE('',*,*,#523,.F.);
#887=ORIENTED_EDGE('',*,*,#621,.F.);
#888=ORIENTED_EDGE('',*,*,#537,.F.);
#889=ORIENTED_EDGE('',*,*,#556,.T.);
#890=ORIENTED_EDGE('',*,*,#551,.F.);
#891=ORIENTED_EDGE('',*,*,#543,.T.);
#892=ORIENTED_EDGE('',*,*,#573,.F.);
#893=ORIENTED_EDGE('',*,*,#622,.F.);
#894=ORIENTED_EDGE('',*,*,#521,.F.);
#895=ORIENTED_EDGE('',*,*,#613,.F.);
#896=ORIENTED_EDGE('',*,*,#563,.F.);
#897=ORIENTED_EDGE('',*,*,#557,.F.);
#898=ORIENTED_EDGE('',*,*,#621,.T.);
#899=ORIENTED_EDGE('',*,*,#522,.F.);
#900=ORIENTED_EDGE('',*,*,#622,.T.);
#901=ORIENTED_EDGE('',*,*,#572,.F.);
#902=ORIENTED_EDGE('',*,*,#570,.T.);
#903=PLANE('',#1013);
#904=PLANE('',#1014);
#905=PLANE('',#1016);
#906=PLANE('',#1018);
#907=PLANE('',#1020);
#908=PLANE('',#1022);
#909=PLANE('',#1023);
#910=PLANE('',#1025);
#911=PLANE('',#1027);
#912=PLANE('',#1028);
#913=PLANE('',#1029);
#914=PLANE('',#1031);
#915=PLANE('',#1038);
#916=PLANE('',#1043);
#917=PLANE('',#1044);
#918=PLANE('',#1045);
#919=PLANE('',#1046);
#920=PLANE('',#1047);
#921=PLANE('',#1048);
#922=PLANE('',#1049);
#923=PLANE('',#1050);
#924=PLANE('',#1051);
#925=PLANE('',#1052);
#926=PLANE('',#1058);
#927=PLANE('',#1063);
#928=PLANE('',#1066);
#929=PLANE('',#1069);
#930=PLANE('',#1072);
#931=PLANE('',#1077);
#932=PLANE('',#1080);
#933=PLANE('',#1083);
#934=PLANE('',#1086);
#935=PLANE('',#1088);
#936=PLANE('',#1090);
#937=PLANE('',#1092);
#938=PLANE('',#1094);
#939=PLANE('',#1095);
#940=PLANE('',#1096);
#941=PLANE('',#1097);
#942=PLANE('',#1098);
#943=ADVANCED_FACE('',(#63),#903,.F.);
#944=ADVANCED_FACE('',(#64),#904,.F.);
#945=ADVANCED_FACE('',(#65),#905,.F.);
#946=ADVANCED_FACE('',(#66),#906,.F.);
#947=ADVANCED_FACE('',(#67),#907,.F.);
#948=ADVANCED_FACE('',(#68),#908,.F.);
#949=ADVANCED_FACE('',(#69),#909,.T.);
#950=ADVANCED_FACE('',(#70),#910,.T.);
#951=ADVANCED_FACE('',(#71),#911,.F.);
#952=ADVANCED_FACE('',(#72),#912,.F.);
#953=ADVANCED_FACE('',(#73),#913,.F.);
#954=ADVANCED_FACE('',(#74),#914,.F.);
#955=ADVANCED_FACE('',(#75),#27,.F.);
#956=ADVANCED_FACE('',(#76),#17,.F.);
#957=ADVANCED_FACE('',(#77,#15),#915,.F.);
#958=ADVANCED_FACE('',(#78),#916,.T.);
#959=ADVANCED_FACE('',(#79),#917,.T.);
#960=ADVANCED_FACE('',(#80),#918,.T.);
#961=ADVANCED_FACE('',(#81),#919,.T.);
#962=ADVANCED_FACE('',(#82),#920,.T.);
#963=ADVANCED_FACE('',(#83),#921,.T.);
#964=ADVANCED_FACE('',(#84),#922,.T.);
#965=ADVANCED_FACE('',(#85),#923,.T.);
#966=ADVANCED_FACE('',(#86),#924,.T.);
#967=ADVANCED_FACE('',(#87),#925,.T.);
#968=ADVANCED_FACE('',(#88),#18,.F.);
#969=ADVANCED_FACE('',(#89),#28,.F.);
#970=ADVANCED_FACE('',(#90,#16),#926,.T.);
#971=ADVANCED_FACE('',(#91),#927,.T.);
#972=ADVANCED_FACE('',(#92),#19,.T.);
#973=ADVANCED_FACE('',(#93),#928,.T.);
#974=ADVANCED_FACE('',(#94),#20,.T.);
#975=ADVANCED_FACE('',(#95),#929,.T.);
#976=ADVANCED_FACE('',(#96),#21,.T.);
#977=ADVANCED_FACE('',(#97),#930,.T.);
#978=ADVANCED_FACE('',(#98),#22,.T.);
#979=ADVANCED_FACE('',(#99),#29,.T.);
#980=ADVANCED_FACE('',(#100),#931,.T.);
#981=ADVANCED_FACE('',(#101),#30,.T.);
#982=ADVANCED_FACE('',(#102),#932,.T.);
#983=ADVANCED_FACE('',(#103),#23,.T.);
#984=ADVANCED_FACE('',(#104),#933,.T.);
#985=ADVANCED_FACE('',(#105),#24,.T.);
#986=ADVANCED_FACE('',(#106),#934,.T.);
#987=ADVANCED_FACE('',(#107),#31,.T.);
#988=ADVANCED_FACE('',(#108),#935,.T.);
#989=ADVANCED_FACE('',(#109),#32,.T.);
#990=ADVANCED_FACE('',(#110),#936,.T.);
#991=ADVANCED_FACE('',(#111),#25,.T.);
#992=ADVANCED_FACE('',(#112),#937,.T.);
#993=ADVANCED_FACE('',(#113),#26,.T.);
#994=ADVANCED_FACE('',(#114),#938,.T.);
#995=ADVANCED_FACE('',(#115),#939,.T.);
#996=ADVANCED_FACE('',(#116),#940,.T.);
#997=ADVANCED_FACE('',(#117),#941,.T.);
#998=ADVANCED_FACE('',(#118),#942,.T.);
#999=CLOSED_SHELL('',(#943,#944,#945,#946,#947,#948,#949,#950,#951,#952,
#953,#954,#955,#956,#957,#958,#959,#960,#961,#962,#963,#964,#965,#966,#967,
#968,#969,#970,#971,#972,#973,#974,#975,#976,#977,#978,#979,#980,#981,#982,
#983,#984,#985,#986,#987,#988,#989,#990,#991,#992,#993,#994,#995,#996,#997,
#998));
#1000=DERIVED_UNIT_ELEMENT(#1002,1.);
#1001=DERIVED_UNIT_ELEMENT(#1671,-3.);
#1002=(
MASS_UNIT()
NAMED_UNIT(*)
SI_UNIT(.KILO.,.GRAM.)
);
#1003=DERIVED_UNIT((#1000,#1001));
#1004=MEASURE_REPRESENTATION_ITEM('density measure',
POSITIVE_RATIO_MEASURE(7850.),#1003);
#1005=PROPERTY_DEFINITION_REPRESENTATION(#1010,#1007);
#1006=PROPERTY_DEFINITION_REPRESENTATION(#1011,#1008);
#1007=REPRESENTATION('material name',(#1009),#1668);
#1008=REPRESENTATION('density',(#1004),#1668);
#1009=DESCRIPTIVE_REPRESENTATION_ITEM('Steel','Steel');
#1010=PROPERTY_DEFINITION('material property','material name',#1678);
#1011=PROPERTY_DEFINITION('material property','density of part',#1678);
#1012=AXIS2_PLACEMENT_3D('',#1383,#1099,#1100);
#1013=AXIS2_PLACEMENT_3D('',#1384,#1101,#1102);
#1014=AXIS2_PLACEMENT_3D('',#1395,#1108,#1109);
#1015=AXIS2_PLACEMENT_3D('',#1397,#1110,#1111);
#1016=AXIS2_PLACEMENT_3D('',#1399,#1113,#1114);
#1017=AXIS2_PLACEMENT_3D('',#1401,#1115,#1116);
#1018=AXIS2_PLACEMENT_3D('',#1403,#1118,#1119);
#1019=AXIS2_PLACEMENT_3D('',#1405,#1120,#1121);
#1020=AXIS2_PLACEMENT_3D('',#1409,#1124,#1125);
#1021=AXIS2_PLACEMENT_3D('',#1410,#1126,#1127);
#1022=AXIS2_PLACEMENT_3D('',#1414,#1130,#1131);
#1023=AXIS2_PLACEMENT_3D('',#1420,#1135,#1136);
#1024=AXIS2_PLACEMENT_3D('',#1424,#1138,#1139);
#1025=AXIS2_PLACEMENT_3D('',#1426,#1141,#1142);
#1026=AXIS2_PLACEMENT_3D('',#1430,#1144,#1145);
#1027=AXIS2_PLACEMENT_3D('',#1432,#1147,#1148);
#1028=AXIS2_PLACEMENT_3D('',#1438,#1152,#1153);
#1029=AXIS2_PLACEMENT_3D('',#1444,#1157,#1158);
#1030=AXIS2_PLACEMENT_3D('',#1445,#1159,#1160);
#1031=AXIS2_PLACEMENT_3D('',#1446,#1161,#1162);
#1032=AXIS2_PLACEMENT_3D('',#1448,#1163,#1164);
#1033=AXIS2_PLACEMENT_3D('',#1449,#1165,#1166);
#1034=AXIS2_PLACEMENT_3D('',#1450,#1167,#1168);
#1035=AXIS2_PLACEMENT_3D('',#1453,#1170,#1171);
#1036=AXIS2_PLACEMENT_3D('',#1454,#1172,#1173);
#1037=AXIS2_PLACEMENT_3D('',#1457,#1175,#1176);
#1038=AXIS2_PLACEMENT_3D('',#1458,#1177,#1178);
#1039=AXIS2_PLACEMENT_3D('',#1471,#1184,#1185);
#1040=AXIS2_PLACEMENT_3D('',#1475,#1187,#1188);
#1041=AXIS2_PLACEMENT_3D('',#1487,#1194,#1195);
#1042=AXIS2_PLACEMENT_3D('',#1490,#1197,#1198);
#1043=AXIS2_PLACEMENT_3D('',#1491,#1199,#1200);
#1044=AXIS2_PLACEMENT_3D('',#1500,#1205,#1206);
#1045=AXIS2_PLACEMENT_3D('',#1505,#1210,#1211);
#1046=AXIS2_PLACEMENT_3D('',#1521,#1220,#1221);
#1047=AXIS2_PLACEMENT_3D('',#1527,#1225,#1226);
#1048=AXIS2_PLACEMENT_3D('',#1530,#1229,#1230);
#1049=AXIS2_PLACEMENT_3D('',#1532,#1232,#1233);
#1050=AXIS2_PLACEMENT_3D('',#1541,#1238,#1239);
#1051=AXIS2_PLACEMENT_3D('',#1559,#1249,#1250);
#1052=AXIS2_PLACEMENT_3D('',#1563,#1253,#1254);
#1053=AXIS2_PLACEMENT_3D('',#1567,#1257,#1258);
#1054=AXIS2_PLACEMENT_3D('',#1569,#1259,#1260);
#1055=AXIS2_PLACEMENT_3D('',#1573,#1262,#1263);
#1056=AXIS2_PLACEMENT_3D('',#1574,#1264,#1265);
#1057=AXIS2_PLACEMENT_3D('',#1575,#1266,#1267);
#1058=AXIS2_PLACEMENT_3D('',#1577,#1269,#1270);
#1059=AXIS2_PLACEMENT_3D('',#1582,#1272,#1273);
#1060=AXIS2_PLACEMENT_3D('',#1586,#1275,#1276);
#1061=AXIS2_PLACEMENT_3D('',#1590,#1278,#1279);
#1062=AXIS2_PLACEMENT_3D('',#1593,#1281,#1282);
#1063=AXIS2_PLACEMENT_3D('',#1594,#1283,#1284);
#1064=AXIS2_PLACEMENT_3D('',#1597,#1287,#1288);
#1065=AXIS2_PLACEMENT_3D('',#1599,#1289,#1290);
#1066=AXIS2_PLACEMENT_3D('',#1601,#1292,#1293);
#1067=AXIS2_PLACEMENT_3D('',#1605,#1296,#1297);
#1068=AXIS2_PLACEMENT_3D('',#1606,#1298,#1299);
#1069=AXIS2_PLACEMENT_3D('',#1608,#1301,#1302);
#1070=AXIS2_PLACEMENT_3D('',#1610,#1304,#1305);
#1071=AXIS2_PLACEMENT_3D('',#1612,#1306,#1307);
#1072=AXIS2_PLACEMENT_3D('',#1614,#1309,#1310);
#1073=AXIS2_PLACEMENT_3D('',#1618,#1313,#1314);
#1074=AXIS2_PLACEMENT_3D('',#1619,#1315,#1316);
#1075=AXIS2_PLACEMENT_3D('',#1620,#1317,#1318);
#1076=AXIS2_PLACEMENT_3D('',#1623,#1320,#1321);
#1077=AXIS2_PLACEMENT_3D('',#1624,#1322,#1323);
#1078=AXIS2_PLACEMENT_3D('',#1628,#1326,#1327);
#1079=AXIS2_PLACEMENT_3D('',#1629,#1328,#1329);
#1080=AXIS2_PLACEMENT_3D('',#1630,#1330,#1331);
#1081=AXIS2_PLACEMENT_3D('',#1632,#1333,#1334);
#1082=AXIS2_PLACEMENT_3D('',#1634,#1335,#1336);
#1083=AXIS2_PLACEMENT_3D('',#1636,#1338,#1339);
#1084=AXIS2_PLACEMENT_3D('',#1640,#1342,#1343);
#1085=AXIS2_PLACEMENT_3D('',#1641,#1344,#1345);
#1086=AXIS2_PLACEMENT_3D('',#1643,#1347,#1348);
#1087=AXIS2_PLACEMENT_3D('',#1645,#1350,#1351);
#1088=AXIS2_PLACEMENT_3D('',#1647,#1353,#1354);
#1089=AXIS2_PLACEMENT_3D('',#1649,#1356,#1357);
#1090=AXIS2_PLACEMENT_3D('',#1650,#1358,#1359);
#1091=AXIS2_PLACEMENT_3D('',#1653,#1362,#1363);
#1092=AXIS2_PLACEMENT_3D('',#1655,#1365,#1366);
#1093=AXIS2_PLACEMENT_3D('',#1657,#1368,#1369);
#1094=AXIS2_PLACEMENT_3D('',#1659,#1371,#1372);
#1095=AXIS2_PLACEMENT_3D('',#1660,#1373,#1374);
#1096=AXIS2_PLACEMENT_3D('',#1662,#1376,#1377);
#1097=AXIS2_PLACEMENT_3D('',#1663,#1378,#1379);
#1098=AXIS2_PLACEMENT_3D('',#1665,#1381,#1382);
#1099=DIRECTION('axis',(0.,0.,1.));
#1100=DIRECTION('refdir',(1.,0.,0.));
#1101=DIRECTION('center_axis',(-1.,-1.85037170770859E-16,0.));
#1102=DIRECTION('ref_axis',(1.85037170770859E-16,-1.,3.37169217085303E-28));
#1103=DIRECTION('',(1.85037170770859E-16,-1.,3.37169217085303E-28));
#1104=DIRECTION('',(0.,0.,1.));
#1105=DIRECTION('',(1.85037170770859E-16,-1.,3.37169217085303E-28));
#1106=DIRECTION('',(0.,0.,1.));
#1107=DIRECTION('',(1.85037170770859E-16,-1.,3.37169217085303E-28));
#1108=DIRECTION('center_axis',(0.,0.,1.));
#1109=DIRECTION('ref_axis',(1.,0.,0.));
#1110=DIRECTION('center_axis',(0.,0.,-1.));
#1111=DIRECTION('ref_axis',(-9.53404022396852E-15,-1.,-1.9197669685652E-29));
#1112=DIRECTION('',(1.,0.,3.66651153882457E-14));
#1113=DIRECTION('center_axis',(0.,0.,1.));
#1114=DIRECTION('ref_axis',(1.,0.,0.));
#1115=DIRECTION('center_axis',(0.,0.,-1.));
#1116=DIRECTION('ref_axis',(-9.53404022396852E-15,-1.,-1.9197669685652E-29));
#1117=DIRECTION('',(-1.,0.,-3.66651153882457E-14));
#1118=DIRECTION('center_axis',(0.,0.,1.));
#1119=DIRECTION('ref_axis',(1.,0.,0.));
#1120=DIRECTION('center_axis',(0.,0.,-1.));
#1121=DIRECTION('ref_axis',(-9.53404022396852E-15,-1.,-1.9197669685652E-29));
#1122=DIRECTION('',(-1.,0.,-3.66651153882457E-14));
#1123=DIRECTION('',(-1.85037170770859E-16,1.,-3.37169217085303E-28));
#1124=DIRECTION('center_axis',(0.,0.,1.));
#1125=DIRECTION('ref_axis',(1.,0.,0.));
#1126=DIRECTION('center_axis',(0.,0.,-1.));
#1127=DIRECTION('ref_axis',(-9.53404022396852E-15,-1.,-1.9197669685652E-29));
#1128=DIRECTION('',(-1.85037170770859E-16,1.,-3.37169217085303E-28));
#1129=DIRECTION('',(1.,0.,3.66651153882457E-14));
#1130=DIRECTION('center_axis',(1.,1.85037170770859E-16,0.));
#1131=DIRECTION('ref_axis',(-1.85037170770859E-16,1.,-3.37169217085303E-28));
#1132=DIRECTION('',(0.,0.,1.));
#1133=DIRECTION('',(-1.85037170770859E-16,1.,-3.37169217085303E-28));
#1134=DIRECTION('',(0.,0.,1.));
#1135=DIRECTION('center_axis',(3.66651153882457E-14,-3.30384807867875E-28,
-1.));
#1136=DIRECTION('ref_axis',(-1.,0.,-3.66651153882457E-14));
#1137=DIRECTION('',(1.,0.,3.66651153882457E-14));
#1138=DIRECTION('center_axis',(-3.66651153882457E-14,3.30384807867875E-28,
1.));
#1139=DIRECTION('ref_axis',(1.,0.,0.));
#1140=DIRECTION('',(-1.,0.,-3.66651153882457E-14));
#1141=DIRECTION('center_axis',(3.66651153882457E-14,-3.30384807867875E-28,
-1.));
#1142=DIRECTION('ref_axis',(-1.,0.,-3.66651153882457E-14));
#1143=DIRECTION('',(-1.,0.,-3.66651153882457E-14));
#1144=DIRECTION('center_axis',(-3.66651153882457E-14,3.30384807867875E-28,
1.));
#1145=DIRECTION('ref_axis',(1.,0.,0.));
#1146=DIRECTION('',(1.,0.,3.66651153882457E-14));
#1147=DIRECTION('center_axis',(0.,1.,0.));
#1148=DIRECTION('ref_axis',(-1.,0.,-3.66651153882457E-14));
#1149=DIRECTION('',(0.,0.,1.));
#1150=DIRECTION('',(-1.,0.,-3.66651153882457E-14));
#1151=DIRECTION('',(0.,0.,1.));
#1152=DIRECTION('center_axis',(0.,-1.,0.));
#1153=DIRECTION('ref_axis',(1.,0.,3.66651153882457E-14));
#1154=DIRECTION('',(0.,0.,1.));
#1155=DIRECTION('',(1.,0.,3.66651153882457E-14));
#1156=DIRECTION('',(0.,0.,1.));
#1157=DIRECTION('center_axis',(-3.66651153882457E-14,3.30384807867875E-28,
1.));
#1158=DIRECTION('ref_axis',(-9.53404022396852E-15,-1.,-1.9203832661474E-29));
#1159=DIRECTION('center_axis',(-3.66651153882457E-14,3.30384807867875E-28,
1.));
#1160=DIRECTION('ref_axis',(-9.53404022396852E-15,-1.,-1.92284845647622E-29));
#1161=DIRECTION('center_axis',(-3.66651153882457E-14,3.30384807867875E-28,
1.));
#1162=DIRECTION('ref_axis',(-9.53404022396852E-15,-1.,-1.9203832661474E-29));
#1163=DIRECTION('center_axis',(-3.66651153882457E-14,3.30384807867875E-28,
1.));
#1164=DIRECTION('ref_axis',(-9.53404022396852E-15,-1.,-1.92284845647622E-29));
#1165=DIRECTION('center_axis',(-3.66651153882457E-14,3.30384807867875E-28,
1.));
#1166=DIRECTION('ref_axis',(-9.53404022396852E-15,-1.,-1.92284845647622E-29));
#1167=DIRECTION('center_axis',(-3.66651153882457E-14,3.30384807867875E-28,
1.));
#1168=DIRECTION('ref_axis',(-9.53404022396852E-15,-1.,-1.9197669685652E-29));
#1169=DIRECTION('',(-3.66651153882457E-14,3.30384807867875E-28,1.));
#1170=DIRECTION('center_axis',(3.66651153882457E-14,-3.30384807867875E-28,
-1.));
#1171=DIRECTION('ref_axis',(-9.53404022396852E-15,-1.,-1.9197669685652E-29));
#1172=DIRECTION('center_axis',(-3.66651153882457E-14,3.30335504061298E-28,
1.));
#1173=DIRECTION('ref_axis',(-9.53404022396852E-15,-1.,-1.91891659642046E-29));
#1174=DIRECTION('',(-1.90979716239188E-14,0.707106781186547,0.707106781186548));
#1175=DIRECTION('center_axis',(-3.66651153882457E-14,3.30384807867875E-28,
1.));
#1176=DIRECTION('ref_axis',(-9.53404022396852E-15,-1.,-1.91818770601068E-29));
#1177=DIRECTION('center_axis',(3.66651153882457E-14,-3.30384807867875E-28,
-1.));
#1178=DIRECTION('ref_axis',(9.53404022396852E-15,1.,1.9185097214975E-29));
#1179=DIRECTION('',(9.53404022396852E-15,1.,1.9203832661474E-29));
#1180=DIRECTION('',(-1.,3.41439839364913E-14,-3.66651153882457E-14));
#1181=DIRECTION('',(9.53404022396852E-15,1.,1.9203832661474E-29));
#1182=DIRECTION('',(1.,1.97635118147491E-14,3.66651153882457E-14));
#1183=DIRECTION('',(9.53404022396852E-15,1.,1.9203832661474E-29));
#1184=DIRECTION('center_axis',(3.66651153882457E-14,-3.30384807867875E-28,
-1.));
#1185=DIRECTION('ref_axis',(-0.707106781186549,-0.707106781186546,-2.59261517240156E-14));
#1186=DIRECTION('',(-1.,9.75608482889355E-15,-3.66651153882457E-14));
#1187=DIRECTION('center_axis',(3.66651153882457E-14,-3.30384807867875E-28,
-1.));
#1188=DIRECTION('ref_axis',(0.707106781186535,-0.70710678118656,2.59261517240156E-14));
#1189=DIRECTION('',(-9.53404022396852E-15,-1.,-1.9203832661474E-29));
#1190=DIRECTION('',(1.,1.97635118147491E-14,3.66651153882457E-14));
#1191=DIRECTION('',(-9.53404022396852E-15,-1.,-1.9203832661474E-29));
#1192=DIRECTION('',(-1.,3.41439839364913E-14,-3.66651153882457E-14));
#1193=DIRECTION('',(-9.53404022396852E-15,-1.,-1.9203832661474E-29));
#1194=DIRECTION('center_axis',(3.66651153882457E-14,-3.30384807867875E-28,
-1.));
#1195=DIRECTION('ref_axis',(0.707106781186561,0.707106781186534,2.5926151724016E-14));
#1196=DIRECTION('',(1.,-9.53404022396852E-15,3.66651153882457E-14));
#1197=DIRECTION('center_axis',(3.66651153882457E-14,-3.30384807867875E-28,
-1.));
#1198=DIRECTION('ref_axis',(-0.707106781186548,0.707106781186547,-2.5926151724016E-14));
#1199=DIRECTION('center_axis',(-1.78270914579823E-15,0.707106781186547,
0.707106781186548));
#1200=DIRECTION('ref_axis',(3.26677362184892E-14,0.707106781186548,-0.707106781186547));
#1201=DIRECTION('',(-3.26677362184892E-14,-0.707106781186548,0.707106781186547));
#1202=DIRECTION('',(1.,-3.41439839364913E-14,3.66651153882457E-14));
#1203=DIRECTION('',(3.26677362184892E-14,0.707106781186548,-0.707106781186547));
#1204=DIRECTION('',(-1.,3.41439839364913E-14,-3.66651153882457E-14));
#1205=DIRECTION('center_axis',(3.41439839364913E-14,1.,9.21537448717871E-28));
#1206=DIRECTION('ref_axis',(-1.,3.41439839364913E-14,-3.66651153882457E-14));
#1207=DIRECTION('',(3.66651153882457E-14,-3.30384807867875E-28,-1.));
#1208=DIRECTION('',(0.707106781186578,-2.4143442578218E-14,-0.707106781186517));
#1209=DIRECTION('',(-3.66651153882457E-14,3.30384807867875E-28,1.));
#1210=DIRECTION('center_axis',(1.,-9.53404022396852E-15,3.66651153882457E-14));
#1211=DIRECTION('ref_axis',(9.53404022396852E-15,1.,1.9185097214975E-29));
#1212=DIRECTION('',(9.53404022396852E-15,1.,1.9185097214975E-29));
#1213=DIRECTION('',(-1.91845672295423E-14,0.707106781186548,0.707106781186547));
#1214=DIRECTION('',(-3.66651153882457E-14,3.30384807867875E-28,1.));
#1215=DIRECTION('',(9.53404022396852E-15,1.,1.9203832661474E-29));
#1216=DIRECTION('',(-3.66651153882457E-14,3.30384807867875E-28,1.));
#1217=DIRECTION('',(-9.53404022396852E-15,-1.,-1.9203832661474E-29));
#1218=DIRECTION('',(3.66651153882457E-14,-3.30384807867875E-28,-1.));
#1219=DIRECTION('',(9.53404022396852E-15,1.,1.9203832661474E-29));
#1220=DIRECTION('center_axis',(-1.19512384997463E-14,-0.707106781186547,
0.707106781186548));
#1221=DIRECTION('ref_axis',(-1.91845672295423E-14,0.707106781186548,0.707106781186547));
#1222=DIRECTION('',(-1.,-1.97635118147491E-14,-3.66651153882457E-14));
#1223=DIRECTION('',(1.91845672295423E-14,-0.707106781186548,-0.707106781186547));
#1224=DIRECTION('',(1.,1.97635118147491E-14,3.66651153882457E-14));
#1225=DIRECTION('center_axis',(1.97635118147491E-14,-1.,1.05500285311995E-27));
#1226=DIRECTION('ref_axis',(1.,1.97635118147491E-14,3.66651153882457E-14));
#1227=DIRECTION('',(3.66651153882457E-14,-3.30384807867875E-28,-1.));
#1228=DIRECTION('',(-0.707106781186578,-1.39749132242694E-14,0.707106781186517));
#1229=DIRECTION('center_axis',(-1.,9.53404022396852E-15,-3.66651153882457E-14));
#1230=DIRECTION('ref_axis',(-9.53404022396852E-15,-1.,-1.9185097214975E-29));
#1231=DIRECTION('',(-9.53404022396852E-15,-1.,-1.9203832661474E-29));
#1232=DIRECTION('center_axis',(-1.19512384997463E-14,-0.707106781186547,
0.707106781186548));
#1233=DIRECTION('ref_axis',(-1.91845672295423E-14,0.707106781186548,0.707106781186547));
#1234=DIRECTION('',(-1.91845672295423E-14,0.707106781186548,0.707106781186547));
#1235=DIRECTION('',(-1.,-1.97635118147491E-14,-3.66651153882457E-14));
#1236=DIRECTION('',(1.91845672295423E-14,-0.707106781186548,-0.707106781186547));
#1237=DIRECTION('',(1.,1.97635118147491E-14,3.66651153882457E-14));
#1238=DIRECTION('center_axis',(-1.,9.53404022396852E-15,-3.66651153882457E-14));
#1239=DIRECTION('ref_axis',(9.53404022396852E-15,1.,1.9185097214975E-29));
#1240=DIRECTION('',(9.53404022396852E-15,1.,1.9203832661474E-29));
#1241=DIRECTION('',(-3.26677362184892E-14,-0.707106781186548,0.707106781186547));
#1242=DIRECTION('',(3.66651153882457E-14,-3.30384807867875E-28,-1.));
#1243=DIRECTION('',(-9.53404022396852E-15,-1.,-1.9203832661474E-29));
#1244=DIRECTION('',(-3.66651153882457E-14,3.30384807867875E-28,1.));
#1245=DIRECTION('',(9.53404022396852E-15,1.,1.9203832661474E-29));
#1246=DIRECTION('',(3.66651153882457E-14,-3.30384807867875E-28,-1.));
#1247=DIRECTION('',(-9.53404022396852E-15,-1.,-1.9203832661474E-29));
#1248=DIRECTION('',(3.66651153882457E-14,-3.30384807867875E-28,-1.));
#1249=DIRECTION('center_axis',(-3.66651153882457E-14,3.30384807867875E-28,
1.));
#1250=DIRECTION('ref_axis',(9.53404022396852E-15,1.,1.9185097214975E-29));
#1251=DIRECTION('',(-9.53404022396852E-15,-1.,-1.9203832661474E-29));
#1252=DIRECTION('',(1.,-3.41439839364913E-14,3.66651153882457E-14));
#1253=DIRECTION('center_axis',(-1.78270914579823E-15,0.707106781186547,
0.707106781186548));
#1254=DIRECTION('ref_axis',(3.26677362184892E-14,0.707106781186548,-0.707106781186547));
#1255=DIRECTION('',(3.26677362184892E-14,0.707106781186548,-0.707106781186547));
#1256=DIRECTION('',(-1.,3.41439839364913E-14,-3.66651153882457E-14));
#1257=DIRECTION('center_axis',(3.66651153882457E-14,-3.30384807867875E-28,
-1.));
#1258=DIRECTION('ref_axis',(9.53404022396852E-15,1.,1.92087630421316E-29));
#1259=DIRECTION('center_axis',(3.66651153882457E-14,-3.30384807867875E-28,
-1.));
#1260=DIRECTION('ref_axis',(9.53404022396852E-15,1.,1.92284845647622E-29));
#1261=DIRECTION('',(-1.90979716239187E-14,0.707106781186549,0.707106781186546));
#1262=DIRECTION('center_axis',(-3.66651153882457E-14,3.30384807867875E-28,
1.));
#1263=DIRECTION('ref_axis',(9.53404022396852E-15,1.,1.92284845647622E-29));
#1264=DIRECTION('center_axis',(-3.66651153882457E-14,3.30384807867875E-28,
1.));
#1265=DIRECTION('ref_axis',(9.53404022396852E-15,1.,1.92284845647622E-29));
#1266=DIRECTION('center_axis',(-3.66651153882457E-14,3.30384807867875E-28,
1.));
#1267=DIRECTION('ref_axis',(-9.53404022396852E-15,-1.,-1.92284845647622E-29));
#1268=DIRECTION('',(-3.66651153882457E-14,3.30384807867875E-28,1.));
#1269=DIRECTION('center_axis',(3.66651153882457E-14,-3.30384807867875E-28,
-1.));
#1270=DIRECTION('ref_axis',(-9.53404022396852E-15,-1.,-1.9185097214975E-29));
#1271=DIRECTION('',(9.53404022396852E-15,1.,1.9203832661474E-29));
#1272=DIRECTION('center_axis',(-3.66651153882457E-14,3.30384807867875E-28,
1.));
#1273=DIRECTION('ref_axis',(0.707106781186535,-0.70710678118656,2.59261517240156E-14));
#1274=DIRECTION('',(1.,-9.75608482889355E-15,3.66651153882457E-14));
#1275=DIRECTION('center_axis',(-3.66651153882457E-14,3.30384807867875E-28,
1.));
#1276=DIRECTION('ref_axis',(-0.707106781186549,-0.707106781186546,-2.59261517240156E-14));
#1277=DIRECTION('',(-9.53404022396852E-15,-1.,-1.9203832661474E-29));
#1278=DIRECTION('center_axis',(-3.66651153882457E-14,3.30384807867875E-28,
1.));
#1279=DIRECTION('ref_axis',(-0.707106781186548,0.707106781186547,-2.5926151724016E-14));
#1280=DIRECTION('',(-1.,9.53404022396852E-15,-3.66651153882457E-14));
#1281=DIRECTION('center_axis',(-3.66651153882457E-14,3.30384807867875E-28,
1.));
#1282=DIRECTION('ref_axis',(0.707106781186561,0.707106781186534,2.5926151724016E-14));
#1283=DIRECTION('center_axis',(0.707106781186569,-6.74158449447364E-15,
-0.707106781186526));
#1284=DIRECTION('ref_axis',(-9.53404022396852E-15,-1.,-1.9203832661474E-29));
#1285=DIRECTION('',(-0.707106781186526,6.74158449447326E-15,-0.707106781186569));
#1286=DIRECTION('',(0.707106781186526,-6.74158449447326E-15,0.707106781186569));
#1287=DIRECTION('center_axis',(-3.66651153882457E-14,3.30384807867875E-28,
1.));
#1288=DIRECTION('ref_axis',(0.707106781186535,-0.70710678118656,2.59261517240156E-14));
#1289=DIRECTION('center_axis',(3.66651153882457E-14,-3.30384807867875E-28,
-1.));
#1290=DIRECTION('ref_axis',(0.707106781186535,-0.70710678118656,2.59261517240156E-14));
#1291=DIRECTION('',(3.26677362184893E-14,0.707106781186547,-0.707106781186548));
#1292=DIRECTION('center_axis',(1.90275579836739E-14,-0.707106781186548,
-0.707106781186548));
#1293=DIRECTION('ref_axis',(-3.26677362184892E-14,-0.707106781186548,0.707106781186548));
#1294=DIRECTION('',(3.26677362184893E-14,0.707106781186547,-0.707106781186548));
#1295=DIRECTION('',(-1.,9.75608482889355E-15,-3.66651153882457E-14));
#1296=DIRECTION('center_axis',(-3.66651153882457E-14,3.30384807867875E-28,
1.));
#1297=DIRECTION('ref_axis',(-0.707106781186549,-0.707106781186546,-2.59261517240156E-14));
#1298=DIRECTION('center_axis',(3.66651153882457E-14,-3.30384807867875E-28,
-1.));
#1299=DIRECTION('ref_axis',(-0.707106781186549,-0.707106781186546,-2.59261517240156E-14));
#1300=DIRECTION('',(0.707106781186578,-6.74158449447373E-15,-0.707106781186517));
#1301=DIRECTION('center_axis',(-0.707106781186517,6.74158449447317E-15,
-0.707106781186578));
#1302=DIRECTION('ref_axis',(-9.53404022396852E-15,-1.,-1.9203832661474E-29));
#1303=DIRECTION('',(0.707106781186578,-6.74158449447373E-15,-0.707106781186517));
#1304=DIRECTION('center_axis',(-3.66651153882457E-14,3.30384807867875E-28,
1.));
#1305=DIRECTION('ref_axis',(-0.707106781186548,0.707106781186547,-2.5926151724016E-14));
#1306=DIRECTION('center_axis',(3.66651153882457E-14,-3.30384807867875E-28,
-1.));
#1307=DIRECTION('ref_axis',(-0.707106781186548,0.707106781186547,-2.5926151724016E-14));
#1308=DIRECTION('',(1.91845672295424E-14,-0.707106781186547,-0.707106781186548));
#1309=DIRECTION('center_axis',(3.26677362184892E-14,0.707106781186548,-0.707106781186548));
#1310=DIRECTION('ref_axis',(1.91845672295423E-14,-0.707106781186548,-0.707106781186548));
#1311=DIRECTION('',(1.91845672295423E-14,-0.707106781186547,-0.707106781186547));
#1312=DIRECTION('',(1.,-9.53404022396852E-15,3.66651153882457E-14));
#1313=DIRECTION('center_axis',(-3.66651153882457E-14,3.30384807867875E-28,
1.));
#1314=DIRECTION('ref_axis',(0.70710678118656,0.707106781186534,2.5926151724016E-14));
#1315=DIRECTION('center_axis',(3.66651153882457E-14,-3.30384807867875E-28,
-1.));
#1316=DIRECTION('ref_axis',(0.707106781186561,0.707106781186535,2.5926151724016E-14));
#1317=DIRECTION('center_axis',(3.66651153882457E-14,-3.30384807867875E-28,
-1.));
#1318=DIRECTION('ref_axis',(-0.707106781186549,-0.707106781186546,-2.59261517240156E-14));
#1319=DIRECTION('',(-3.66651153882457E-14,3.30384807867875E-28,1.));
#1320=DIRECTION('center_axis',(-3.66651153882457E-14,3.30384807867875E-28,
1.));
#1321=DIRECTION('ref_axis',(-0.707106781186549,-0.707106781186546,-2.59261517240156E-14));
#1322=DIRECTION('center_axis',(-9.75608482889355E-15,-1.,-2.73389607465657E-29));
#1323=DIRECTION('ref_axis',(1.,-9.75608482889355E-15,3.66651153882457E-14));
#1324=DIRECTION('',(3.66651153882457E-14,-3.30384807867875E-28,-1.));
#1325=DIRECTION('',(1.,-9.75608482889355E-15,3.66651153882457E-14));
#1326=DIRECTION('center_axis',(-3.66651153882457E-14,3.30384807867875E-28,
1.));
#1327=DIRECTION('ref_axis',(0.707106781186535,-0.70710678118656,2.59261517240156E-14));
#1328=DIRECTION('center_axis',(-3.66651153882457E-14,3.30384807867875E-28,
1.));
#1329=DIRECTION('ref_axis',(0.707106781186535,-0.70710678118656,2.59261517240156E-14));
#1330=DIRECTION('center_axis',(0.707106781186517,-6.74158449447317E-15,
0.707106781186578));
#1331=DIRECTION('ref_axis',(9.53404022396852E-15,1.,1.9203832661474E-29));
#1332=DIRECTION('',(-0.707106781186578,6.74158449447373E-15,0.707106781186517));
#1333=DIRECTION('center_axis',(3.66651153882457E-14,-3.30384807867875E-28,
-1.));
#1334=DIRECTION('ref_axis',(0.70710678118656,0.707106781186534,2.5926151724016E-14));
#1335=DIRECTION('center_axis',(-3.66651153882457E-14,3.30384807867875E-28,
1.));
#1336=DIRECTION('ref_axis',(0.707106781186561,0.707106781186535,2.5926151724016E-14));
#1337=DIRECTION('',(-3.26677362184892E-14,-0.707106781186547,0.707106781186547));
#1338=DIRECTION('center_axis',(-1.91845672295423E-14,0.707106781186548,
0.707106781186548));
#1339=DIRECTION('ref_axis',(3.26677362184892E-14,0.707106781186548,-0.707106781186548));
#1340=DIRECTION('',(-3.26677362184892E-14,-0.707106781186547,0.707106781186547));
#1341=DIRECTION('',(-1.,9.53404022396852E-15,-3.66651153882457E-14));
#1342=DIRECTION('center_axis',(3.66651153882457E-14,-3.30384807867875E-28,
-1.));
#1343=DIRECTION('ref_axis',(-0.707106781186548,0.707106781186547,-2.5926151724016E-14));
#1344=DIRECTION('center_axis',(-3.66651153882457E-14,3.30384807867875E-28,
1.));
#1345=DIRECTION('ref_axis',(-0.707106781186548,0.707106781186547,-2.5926151724016E-14));
#1346=DIRECTION('',(0.707106781186539,-6.74158449447338E-15,0.707106781186556));
#1347=DIRECTION('center_axis',(-0.707106781186569,6.74158449447364E-15,
0.707106781186526));
#1348=DIRECTION('ref_axis',(9.53404022396852E-15,1.,1.9203832661474E-29));
#1349=DIRECTION('',(0.707106781186526,-2.41434425782175E-14,0.707106781186569));
#1350=DIRECTION('center_axis',(3.66651153882457E-14,-3.30384807867875E-28,
-1.));
#1351=DIRECTION('ref_axis',(-0.707106781186548,0.707106781186547,-2.5926151724016E-14));
#1352=DIRECTION('',(3.66651153882457E-14,-3.30384807867875E-28,-1.));
#1353=DIRECTION('center_axis',(9.53404022396852E-15,1.,1.9203832661474E-29));
#1354=DIRECTION('ref_axis',(-1.,9.53404022396852E-15,-3.66651153882457E-14));
#1355=DIRECTION('',(-3.66651153882457E-14,3.30384807867875E-28,1.));
#1356=DIRECTION('center_axis',(-3.66651153882457E-14,3.30384807867875E-28,
1.));
#1357=DIRECTION('ref_axis',(0.707106781186561,0.707106781186534,2.5926151724016E-14));
#1358=DIRECTION('center_axis',(-0.707106781186569,6.74158449447364E-15,
0.707106781186526));
#1359=DIRECTION('ref_axis',(9.53404022396852E-15,1.,1.9203832661474E-29));
#1360=DIRECTION('',(-0.707106781186526,-1.39749132242699E-14,-0.707106781186569));
#1361=DIRECTION('',(0.707106781186526,-6.74158449447326E-15,0.707106781186569));
#1362=DIRECTION('center_axis',(3.66651153882457E-14,-3.30384807867875E-28,
-1.));
#1363=DIRECTION('ref_axis',(-0.707106781186549,-0.707106781186546,-2.59261517240156E-14));
#1364=DIRECTION('',(-1.91845672295424E-14,0.707106781186547,0.707106781186548));
#1365=DIRECTION('center_axis',(-3.28247454643576E-14,-0.707106781186548,
0.707106781186548));
#1366=DIRECTION('ref_axis',(-1.91845672295423E-14,0.707106781186548,0.707106781186548));
#1367=DIRECTION('',(-1.91845672295423E-14,0.707106781186547,0.707106781186547));
#1368=DIRECTION('center_axis',(3.66651153882457E-14,-3.30384807867875E-28,
-1.));
#1369=DIRECTION('ref_axis',(0.707106781186535,-0.70710678118656,2.59261517240156E-14));
#1370=DIRECTION('',(-0.707106781186578,6.74158449447373E-15,0.707106781186517));
#1371=DIRECTION('center_axis',(0.707106781186517,-6.74158449447317E-15,
0.707106781186578));
#1372=DIRECTION('ref_axis',(9.53404022396852E-15,1.,1.9203832661474E-29));
#1373=DIRECTION('center_axis',(1.97635118147491E-14,-1.,1.05500285311995E-27));
#1374=DIRECTION('ref_axis',(1.,1.97635118147491E-14,3.66651153882457E-14));
#1375=DIRECTION('',(3.66651153882457E-14,-3.30384807867875E-28,-1.));
#1376=DIRECTION('center_axis',(-3.66651153882457E-14,3.30384807867875E-28,
1.));
#1377=DIRECTION('ref_axis',(9.53404022396852E-15,1.,1.9185097214975E-29));
#1378=DIRECTION('center_axis',(3.41439839364913E-14,1.,9.21537448717871E-28));
#1379=DIRECTION('ref_axis',(-1.,3.41439839364913E-14,-3.66651153882457E-14));
#1380=DIRECTION('',(3.66651153882457E-14,-3.30384807867875E-28,-1.));
#1381=DIRECTION('center_axis',(1.,-9.53404022396852E-15,3.66651153882457E-14));
#1382=DIRECTION('ref_axis',(9.53404022396852E-15,1.,1.9185097214975E-29));
#1383=CARTESIAN_POINT('',(0.,0.,0.));
#1384=CARTESIAN_POINT('Origin',(-3.00000000000018,3.,5.19999999999989));
#1385=CARTESIAN_POINT('',(-3.00000000000018,-1.88737914186296E-15,5.39999999999989));
#1386=CARTESIAN_POINT('',(-3.00000000000018,-3.,5.39999999999989));
#1387=CARTESIAN_POINT('',(-3.00000000000018,1.5,5.39999999999989));
#1388=CARTESIAN_POINT('',(-3.00000000000018,-3.,5.19999999999989));
#1389=CARTESIAN_POINT('',(-3.00000000000018,-3.,5.19999999999989));
#1390=CARTESIAN_POINT('',(-3.00000000000018,3.,5.19999999999989));
#1391=CARTESIAN_POINT('',(-3.00000000000018,1.5,5.19999999999989));
#1392=CARTESIAN_POINT('',(-3.00000000000018,3.,5.39999999999989));
#1393=CARTESIAN_POINT('',(-3.00000000000018,3.,5.19999999999989));
#1394=CARTESIAN_POINT('',(-3.00000000000018,1.5,5.39999999999989));
#1395=CARTESIAN_POINT('Origin',(-1.77080572427712E-13,-1.11022302462516E-15,
5.39999999999989));
#1396=CARTESIAN_POINT('',(-1.91163751495083E-13,-3.,5.4));
#1397=CARTESIAN_POINT('Origin',(-1.91163751495079E-13,-1.33226762955039E-15,
5.39999999999989));
#1398=CARTESIAN_POINT('',(-1.50000000000027,-3.,5.39999999999995));
#1399=CARTESIAN_POINT('Origin',(-1.77080572427712E-13,-1.11022302462516E-15,
5.39999999999989));
#1400=CARTESIAN_POINT('',(-1.91163751495083E-13,3.,5.4));
#1401=CARTESIAN_POINT('Origin',(-1.91163751495079E-13,-1.33226762955039E-15,
5.39999999999989));
#1402=CARTESIAN_POINT('',(1.49999999999973,3.,5.40000000000006));
#1403=CARTESIAN_POINT('Origin',(-1.77080572427712E-13,-1.11022302462516E-15,
5.39999999999989));
#1404=CARTESIAN_POINT('',(2.99999999999983,-7.77156117237808E-16,5.40000000000011));
#1405=CARTESIAN_POINT('Origin',(-1.91163751495079E-13,-1.33226762955039E-15,
5.39999999999989));
#1406=CARTESIAN_POINT('',(2.99999999999982,3.,5.40000000000011));
#1407=CARTESIAN_POINT('',(1.49999999999973,3.,5.40000000000006));
#1408=CARTESIAN_POINT('',(2.99999999999983,-1.5,5.40000000000011));
#1409=CARTESIAN_POINT('Origin',(-1.77080572427712E-13,-1.11022302462516E-15,
5.39999999999989));
#1410=CARTESIAN_POINT('Origin',(-1.91163751495079E-13,-1.33226762955039E-15,
5.39999999999989));
#1411=CARTESIAN_POINT('',(2.99999999999983,-3.,5.40000000000011));
#1412=CARTESIAN_POINT('',(2.99999999999983,-1.5,5.40000000000011));
#1413=CARTESIAN_POINT('',(-1.50000000000027,-3.,5.39999999999995));
#1414=CARTESIAN_POINT('Origin',(2.99999999999983,-3.,5.20000000000011));
#1415=CARTESIAN_POINT('',(2.99999999999982,3.,5.20000000000011));
#1416=CARTESIAN_POINT('',(2.99999999999982,3.,5.20000000000011));
#1417=CARTESIAN_POINT('',(2.99999999999983,-3.,5.20000000000011));
#1418=CARTESIAN_POINT('',(2.99999999999983,-1.5,5.20000000000011));
#1419=CARTESIAN_POINT('',(2.99999999999983,-3.,5.20000000000011));
#1420=CARTESIAN_POINT('Origin',(-1.77635683940025E-13,-1.11022302462516E-15,
5.2));
#1421=CARTESIAN_POINT('',(-5.19615242270681,-3.,5.19999999999981));
#1422=CARTESIAN_POINT('',(-2.59807621135359,-3.,5.19999999999991));
#1423=CARTESIAN_POINT('',(-5.19615242270681,3.,5.19999999999981));
#1424=CARTESIAN_POINT('Origin',(-1.77635683940025E-13,-1.11022302462516E-15,
5.2));
#1425=CARTESIAN_POINT('',(2.59807621135305,3.,5.2000000000001));
#1426=CARTESIAN_POINT('Origin',(-1.77635683940025E-13,-1.11022302462516E-15,
5.2));
#1427=CARTESIAN_POINT('',(5.19615242270645,3.,5.20000000000019));
#1428=CARTESIAN_POINT('',(2.59807621135305,3.,5.2000000000001));
#1429=CARTESIAN_POINT('',(5.19615242270645,-3.,5.20000000000019));
#1430=CARTESIAN_POINT('Origin',(-1.77635683940025E-13,-1.11022302462516E-15,
5.2));
#1431=CARTESIAN_POINT('',(-2.59807621135359,-3.,5.19999999999991));
#1432=CARTESIAN_POINT('Origin',(5.19615242270645,3.,5.00000000000019));
#1433=CARTESIAN_POINT('',(-5.19615242270681,3.,4.99999999999981));
#1434=CARTESIAN_POINT('',(-5.19615242270681,3.,4.99999999999981));
#1435=CARTESIAN_POINT('',(5.19615242270645,3.,5.00000000000019));
#1436=CARTESIAN_POINT('',(2.59807621135314,3.,5.0000000000001));
#1437=CARTESIAN_POINT('',(5.19615242270645,3.,5.00000000000019));
#1438=CARTESIAN_POINT('Origin',(-5.19615242270681,-3.,4.99999999999981));
#1439=CARTESIAN_POINT('',(5.19615242270645,-3.,5.00000000000019));
#1440=CARTESIAN_POINT('',(5.19615242270645,-3.,5.00000000000019));
#1441=CARTESIAN_POINT('',(-5.19615242270681,-3.,4.99999999999981));
#1442=CARTESIAN_POINT('',(-2.59807621135349,-3.,4.9999999999999));
#1443=CARTESIAN_POINT('',(-5.19615242270681,-3.,4.99999999999981));
#1444=CARTESIAN_POINT('Origin',(-1.77635683940025E-13,-1.11022302462516E-15,
5.));
#1445=CARTESIAN_POINT('Origin',(-1.77635683940025E-13,-1.11022302462516E-15,
5.));
#1446=CARTESIAN_POINT('Origin',(-1.77635683940025E-13,-1.11022302462516E-15,
5.));
#1447=CARTESIAN_POINT('',(-1.41774745570307E-13,6.,5.));
#1448=CARTESIAN_POINT('Origin',(-1.77635683940025E-13,-1.11022302462516E-15,
5.));
#1449=CARTESIAN_POINT('Origin',(-1.77635683940025E-13,-1.11022302462516E-15,
5.));
#1450=CARTESIAN_POINT('Origin',(-2.1316282072803E-13,-1.33226762955019E-15,
6.));
#1451=CARTESIAN_POINT('',(-3.1252120987524E-13,3.,9.5));
#1452=CARTESIAN_POINT('',(-1.84928094095869E-13,3.,6.));
#1453=CARTESIAN_POINT('Origin',(-3.4149072458689E-13,-1.33226762954903E-15,
9.5));
#1454=CARTESIAN_POINT('Origin',(-3.50657003433951E-13,-1.33226762954895E-15,
9.75));
#1455=CARTESIAN_POINT('',(-3.26882767876825E-13,3.5,10.));
#1456=CARTESIAN_POINT('',(-3.19273362496331E-13,3.25,9.75));
#1457=CARTESIAN_POINT('Origin',(-3.59823282281013E-13,-1.33226762954887E-15,
10.));
#1458=CARTESIAN_POINT('Origin',(12.4999999999996,-7.32747196252604E-14,
10.0000000000005));
#1459=CARTESIAN_POINT('',(-19.0000000000003,4.00000000000112,9.9999999999993));
#1460=CARTESIAN_POINT('',(-19.0000000000002,18.0000000000002,9.9999999999993));
#1461=CARTESIAN_POINT('',(-19.0000000000004,-7.49999999999979,9.9999999999993));
#1462=CARTESIAN_POINT('',(-10.0000000000003,4.00000000000084,9.99999999999963));
#1463=CARTESIAN_POINT('',(16.2499999999997,3.99999999999998,10.0000000000006));
#1464=CARTESIAN_POINT('',(-10.0000000000004,-4.00000000000077,9.99999999999963));
#1465=CARTESIAN_POINT('',(-10.0000000000004,-1.87499999999986,9.99999999999963));
#1466=CARTESIAN_POINT('',(-19.0000000000004,-4.00000000000091,9.9999999999993));
#1467=CARTESIAN_POINT('',(11.7499999999996,-4.00000000000034,10.0000000000004));
#1468=CARTESIAN_POINT('',(-19.0000000000006,-17.9999999999998,9.9999999999993));
#1469=CARTESIAN_POINT('',(-19.0000000000004,-7.49999999999979,9.9999999999993));
#1470=CARTESIAN_POINT('',(-18.0000000000006,-18.9999999999998,9.99999999999934));
#1471=CARTESIAN_POINT('Origin',(-18.0000000000006,-17.9999999999998,9.99999999999934));
#1472=CARTESIAN_POINT('',(17.9999999999994,-19.0000000000002,10.0000000000007));
#1473=CARTESIAN_POINT('',(-3.75000000000057,-19.,9.99999999999986));
#1474=CARTESIAN_POINT('',(18.9999999999994,-18.0000000000002,10.0000000000007));
#1475=CARTESIAN_POINT('Origin',(17.9999999999994,-18.0000000000002,10.0000000000007));
#1476=CARTESIAN_POINT('',(18.9999999999996,-4.0000000000002,10.0000000000007));
#1477=CARTESIAN_POINT('',(18.9999999999995,-10.0000000000001,10.0000000000007));
#1478=CARTESIAN_POINT('',(9.99999999999957,-4.00000000000034,10.0000000000004));
#1479=CARTESIAN_POINT('',(11.7499999999996,-4.00000000000034,10.0000000000004));
#1480=CARTESIAN_POINT('',(9.99999999999964,4.0000000000002,10.0000000000004));
#1481=CARTESIAN_POINT('',(9.99999999999964,1.87500000000007,10.0000000000004));
#1482=CARTESIAN_POINT('',(18.9999999999996,3.99999999999984,10.0000000000007));
#1483=CARTESIAN_POINT('',(16.2499999999997,3.99999999999998,10.0000000000006));
#1484=CARTESIAN_POINT('',(18.9999999999998,17.9999999999998,10.0000000000007));
#1485=CARTESIAN_POINT('',(18.9999999999995,-10.0000000000001,10.0000000000007));
#1486=CARTESIAN_POINT('',(17.9999999999998,18.9999999999998,10.0000000000007));
#1487=CARTESIAN_POINT('Origin',(17.9999999999998,17.9999999999998,10.0000000000007));
#1488=CARTESIAN_POINT('',(-18.0000000000002,19.0000000000002,9.99999999999934));
#1489=CARTESIAN_POINT('',(16.2499999999998,18.9999999999998,10.0000000000006));
#1490=CARTESIAN_POINT('Origin',(-18.0000000000002,18.0000000000002,9.99999999999934));
#1491=CARTESIAN_POINT('Origin',(30.2499999999996,2.99999999999947,13.0000000000011));
#1492=CARTESIAN_POINT('',(9.99999999999957,4.0000000000002,12.0000000000004));
#1493=CARTESIAN_POINT('',(9.9999999999995,2.00000000000017,14.0000000000004));
#1494=CARTESIAN_POINT('',(9.99999999999957,3.93750000000004,12.0625000000005));
#1495=CARTESIAN_POINT('',(19.9999999999995,1.99999999999981,14.0000000000007));
#1496=CARTESIAN_POINT('',(30.2499999999995,1.99999999999946,14.0000000000011));
#1497=CARTESIAN_POINT('',(19.9999999999996,3.99999999999984,12.0000000000007));
#1498=CARTESIAN_POINT('',(19.9999999999994,0.249999999999769,15.7500000000008));
#1499=CARTESIAN_POINT('',(30.2499999999996,3.99999999999949,12.0000000000011));
#1500=CARTESIAN_POINT('Origin',(19.9999999999996,3.99999999999984,10.0000000000007));
#1501=CARTESIAN_POINT('',(19.9999999999997,3.99999999999984,9.00000000000073));
#1502=CARTESIAN_POINT('',(19.9999999999998,3.99999999999984,5.50000000000073));
#1503=CARTESIAN_POINT('',(19.4999999999998,3.99999999999984,9.50000000000062));
#1504=CARTESIAN_POINT('',(9.99999999999964,4.0000000000002,10.0000000000004));
#1505=CARTESIAN_POINT('Origin',(19.9999999999998,-20.0000000000001,1.00000000000073));
#1506=CARTESIAN_POINT('',(19.9999999999994,-2.00000000000017,14.0000000000007));
#1507=CARTESIAN_POINT('',(19.9999999999995,3.74999999999985,14.0000000000007));
#1508=CARTESIAN_POINT('',(19.9999999999995,-4.00000000000013,12.0000000000007));
#1509=CARTESIAN_POINT('',(19.9999999999997,-10.2500000000001,5.75000000000077));
#1510=CARTESIAN_POINT('',(19.9999999999996,-4.00000000000013,9.00000000000073));
#1511=CARTESIAN_POINT('',(19.9999999999998,-4.00000000000013,5.50000000000073));
#1512=CARTESIAN_POINT('',(19.9999999999995,-18.0000000000002,9.00000000000073));
#1513=CARTESIAN_POINT('',(19.9999999999996,-10.0000000000001,9.00000000000073));
#1514=CARTESIAN_POINT('',(19.9999999999998,-18.0000000000002,1.00000000000073));
#1515=CARTESIAN_POINT('',(19.9999999999998,-18.0000000000002,1.00000000000073));
#1516=CARTESIAN_POINT('',(20.0000000000001,17.9999999999998,1.00000000000073));
#1517=CARTESIAN_POINT('',(19.9999999999999,-10.0000000000002,1.00000000000074));
#1518=CARTESIAN_POINT('',(19.9999999999999,17.9999999999998,9.00000000000073));
#1519=CARTESIAN_POINT('',(20.0000000000001,17.9999999999998,1.00000000000073));
#1520=CARTESIAN_POINT('',(19.9999999999996,-10.0000000000001,9.00000000000073));
#1521=CARTESIAN_POINT('Origin',(25.7499999999995,-3.00000000000005,13.0000000000009));
#1522=CARTESIAN_POINT('',(9.99999999999943,-2.00000000000032,14.0000000000004));
#1523=CARTESIAN_POINT('',(25.7499999999994,-2.00000000000003,14.0000000000009));
#1524=CARTESIAN_POINT('',(9.9999999999995,-4.00000000000034,12.0000000000004));
#1525=CARTESIAN_POINT('',(9.99999999999943,-2.06250000000012,13.9375000000006));
#1526=CARTESIAN_POINT('',(25.7499999999996,-4.00000000000006,12.0000000000009));
#1527=CARTESIAN_POINT('Origin',(10.9999999999996,-4.00000000000034,10.0000000000004));
#1528=CARTESIAN_POINT('',(9.99999999999957,-4.00000000000034,10.0000000000004));
#1529=CARTESIAN_POINT('',(17.2499999999995,-4.0000000000002,11.7500000000007));
#1530=CARTESIAN_POINT('Origin',(9.99999999999964,3.75000000000021,10.0000000000004));
#1531=CARTESIAN_POINT('',(9.9999999999995,1.87500000000007,14.0000000000004));
#1532=CARTESIAN_POINT('Origin',(25.7499999999995,-3.00000000000005,13.0000000000009));
#1533=CARTESIAN_POINT('',(-10.0000000000004,-4.00000000000077,11.9999999999996));
#1534=CARTESIAN_POINT('',(-10.0000000000005,-2.00000000000074,13.9999999999996));
#1535=CARTESIAN_POINT('',(-10.0000000000005,-3.93750000000026,12.0625000000001));
#1536=CARTESIAN_POINT('',(-20.0000076293951,-2.00000000000096,13.9999999999993));
#1537=CARTESIAN_POINT('',(25.7499999999994,-2.00000000000003,14.0000000000009));
#1538=CARTESIAN_POINT('',(-20.0000000000005,-4.00000000000091,11.9999999999993));
#1539=CARTESIAN_POINT('',(-20.0000000000004,-6.75000000000033,9.24999999999989));
#1540=CARTESIAN_POINT('',(25.7499999999996,-4.00000000000006,12.0000000000009));
#1541=CARTESIAN_POINT('Origin',(-20.0000000000005,-14.9999999999998,9.99999999999927));
#1542=CARTESIAN_POINT('',(-20.000007629395,2.00000000000116,13.9999999999993));
#1543=CARTESIAN_POINT('',(-20.000007629395,1.87500000000021,13.9999999999993));
#1544=CARTESIAN_POINT('',(-20.0000000000004,4.00000000000119,11.9999999999993));
#1545=CARTESIAN_POINT('',(-20.0000000000006,-0.749999999999393,16.7499999999998));
#1546=CARTESIAN_POINT('',(-20.0000000000003,4.00000000000119,8.99999999999926));
#1547=CARTESIAN_POINT('',(-20.0000000000004,4.00000000000119,9.99999999999927));
#1548=CARTESIAN_POINT('',(-20.0000000000001,18.0000000000002,8.99999999999927));
#1549=CARTESIAN_POINT('',(-20.0000000000004,-7.49999999999979,8.99999999999926));
#1550=CARTESIAN_POINT('',(-19.9999999999999,18.0000000000002,0.999999999999268));
#1551=CARTESIAN_POINT('',(-20.,18.0000000000002,5.49999999999927));
#1552=CARTESIAN_POINT('',(-20.0000000000002,-17.9999999999998,0.999999999999269));
#1553=CARTESIAN_POINT('',(-20.0000000000001,-7.49999999999979,0.999999999999266));
#1554=CARTESIAN_POINT('',(-20.0000000000005,-17.9999999999998,8.99999999999926));
#1555=CARTESIAN_POINT('',(-20.0000000000004,-17.9999999999998,5.49999999999927));
#1556=CARTESIAN_POINT('',(-20.0000000000004,-4.00000000000091,8.99999999999926));
#1557=CARTESIAN_POINT('',(-20.0000000000004,-7.49999999999979,8.99999999999926));
#1558=CARTESIAN_POINT('',(-20.0000000000004,-4.00000000000091,9.99999999999927));
#1559=CARTESIAN_POINT('Origin',(40.4999999999995,-3.58379992349001E-13,
14.0000000000015));
#1560=CARTESIAN_POINT('',(-10.0000000000005,2.00000000000088,13.9999999999996));
#1561=CARTESIAN_POINT('',(-10.0000000000005,-1.87499999999986,13.9999999999996));
#1562=CARTESIAN_POINT('',(30.2499999999995,1.99999999999946,14.0000000000011));
#1563=CARTESIAN_POINT('Origin',(30.2499999999996,2.99999999999947,13.0000000000011));
#1564=CARTESIAN_POINT('',(-10.0000000000004,4.00000000000084,11.9999999999996));
#1565=CARTESIAN_POINT('',(-10.0000000000005,2.06250000000039,13.9375000000001));
#1566=CARTESIAN_POINT('',(30.2499999999996,3.99999999999949,12.0000000000011));
#1567=CARTESIAN_POINT('Origin',(0.,-5.55111512312576E-17,0.249999999999999));
#1568=CARTESIAN_POINT('',(-7.105427357601E-14,-6.49999999999999,-1.4432899320127E-15));
#1569=CARTESIAN_POINT('Origin',(0.,0.,0.));
#1570=CARTESIAN_POINT('',(-1.06581410364015E-13,-6.00000000000001,0.499999999999997));
#1571=CARTESIAN_POINT('',(-6.03531556492704E-14,-6.25,0.249999999999999));
#1572=CARTESIAN_POINT('',(2.32182736767992E-14,6.,0.499999999999998));
#1573=CARTESIAN_POINT('Origin',(-3.5527136788005E-14,-1.11022302462515E-16,
0.499999999999998));
#1574=CARTESIAN_POINT('Origin',(-3.5527136788005E-14,-1.11022302462515E-16,
0.499999999999998));
#1575=CARTESIAN_POINT('Origin',(-1.06581410364015E-13,-5.55111512312578E-16,
2.5));
#1576=CARTESIAN_POINT('',(-5.01119570996923E-14,6.,2.5));
#1577=CARTESIAN_POINT('Origin',(12.5,-1.4210854715202E-13,4.57411886145564E-13));
#1578=CARTESIAN_POINT('',(18.9999999999998,-18.0000000000002,6.97664148674448E-13));
#1579=CARTESIAN_POINT('',(19.0000000000002,17.9999999999998,6.96775970254748E-13));
#1580=CARTESIAN_POINT('',(18.9999999999999,-10.0000000000001,6.94999613415348E-13));
#1581=CARTESIAN_POINT('',(17.9999999999998,-19.0000000000002,6.61914967281518E-13));
#1582=CARTESIAN_POINT('Origin',(17.9999999999998,-18.0000000000002,6.57696119787943E-13));
#1583=CARTESIAN_POINT('',(-18.0000000000002,-18.9999999999998,-6.61470878071668E-13));
#1584=CARTESIAN_POINT('',(-3.75000000000018,-19.,-1.37445610448594E-13));
#1585=CARTESIAN_POINT('',(-19.0000000000002,-17.9999999999998,-6.96775970254748E-13));
#1586=CARTESIAN_POINT('Origin',(-18.0000000000002,-17.9999999999998,-6.61248833466743E-13));
#1587=CARTESIAN_POINT('',(-18.9999999999998,18.0000000000002,-6.97664148674448E-13));
#1588=CARTESIAN_POINT('',(-19.0000000000001,-7.49999999999979,-6.98885394001536E-13));
#1589=CARTESIAN_POINT('',(-17.9999999999998,19.0000000000002,-6.61914967281518E-13));
#1590=CARTESIAN_POINT('Origin',(-17.9999999999998,18.0000000000002,-6.62137011886443E-13));
#1591=CARTESIAN_POINT('',(18.0000000000001,18.9999999999998,6.61470878071668E-13));
#1592=CARTESIAN_POINT('',(16.2500000000002,18.9999999999998,5.94857496594159E-13));
#1593=CARTESIAN_POINT('Origin',(18.0000000000001,17.9999999999998,6.61248833466743E-13));
#1594=CARTESIAN_POINT('Origin',(19.4999999999999,-10.0000000000001,0.500000000000715));
#1595=CARTESIAN_POINT('',(19.9999999999998,-18.0000000000002,1.00000000000073));
#1596=CARTESIAN_POINT('',(19.0000000000002,17.9999999999998,6.96775970254748E-13));
#1597=CARTESIAN_POINT('Origin',(17.9999999999998,-18.0000000000002,0.50000000000066));
#1598=CARTESIAN_POINT('',(17.9999999999998,-20.0000000000001,1.00000000000066));
#1599=CARTESIAN_POINT('Origin',(17.9999999999998,-18.0000000000002,1.00000000000066));
#1600=CARTESIAN_POINT('',(17.9999999999998,-20.0000000000001,1.00000000000066));
#1601=CARTESIAN_POINT('Origin',(-3.75000000000021,-19.5,0.499999999999865));
#1602=CARTESIAN_POINT('',(-18.0000000000002,-19.9999999999998,0.999999999999339));
#1603=CARTESIAN_POINT('',(-18.0000000000002,-19.9999999999998,0.999999999999339));
#1604=CARTESIAN_POINT('',(-3.75000000000021,-19.9999999999999,0.999999999999863));
#1605=CARTESIAN_POINT('Origin',(-18.0000000000002,-17.9999999999998,0.499999999999341));
#1606=CARTESIAN_POINT('Origin',(-18.0000000000002,-17.9999999999998,0.99999999999934));
#1607=CARTESIAN_POINT('',(-20.0000000000002,-17.9999999999998,0.999999999999269));
#1608=CARTESIAN_POINT('Origin',(-19.5000000000001,-7.49999999999979,0.499999999999286));
#1609=CARTESIAN_POINT('',(-19.9999999999999,18.0000000000002,0.999999999999268));
#1610=CARTESIAN_POINT('Origin',(-17.9999999999998,18.0000000000002,0.499999999999341));
#1611=CARTESIAN_POINT('',(-17.9999999999998,20.0000000000002,0.999999999999339));
#1612=CARTESIAN_POINT('Origin',(-17.9999999999998,18.0000000000002,0.999999999999339));
#1613=CARTESIAN_POINT('',(-17.9999999999998,20.0000000000002,0.999999999999339));
#1614=CARTESIAN_POINT('Origin',(16.2500000000001,19.4999999999999,0.500000000000598));
#1615=CARTESIAN_POINT('',(18.0000000000001,19.9999999999999,1.00000000000066));
#1616=CARTESIAN_POINT('',(18.0000000000001,19.9999999999999,1.00000000000066));
#1617=CARTESIAN_POINT('',(16.2500000000001,19.9999999999999,1.0000000000006));
#1618=CARTESIAN_POINT('Origin',(18.0000000000001,17.9999999999998,0.500000000000664));
#1619=CARTESIAN_POINT('Origin',(18.0000000000001,17.9999999999998,1.00000000000066));
#1620=CARTESIAN_POINT('Origin',(-18.0000000000004,-17.9999999999998,5.49999999999934));
#1621=CARTESIAN_POINT('',(-18.0000000000005,-19.9999999999998,8.99999999999934));
#1622=CARTESIAN_POINT('',(-18.0000000000004,-19.9999999999998,5.49999999999934));
#1623=CARTESIAN_POINT('Origin',(-18.0000000000005,-17.9999999999998,8.99999999999934));
#1624=CARTESIAN_POINT('Origin',(-20.0000000000002,-19.9999999999998,0.999999999999268));
#1625=CARTESIAN_POINT('',(17.9999999999995,-20.0000000000001,9.00000000000066));
#1626=CARTESIAN_POINT('',(17.9999999999998,-20.0000000000001,1.00000000000066));
#1627=CARTESIAN_POINT('',(-3.7500000000005,-19.9999999999999,8.99999999999986));
#1628=CARTESIAN_POINT('Origin',(17.9999999999998,-18.0000000000002,1.00000000000066));
#1629=CARTESIAN_POINT('Origin',(17.9999999999995,-18.0000000000002,9.00000000000066));
#1630=CARTESIAN_POINT('Origin',(19.4999999999995,-10.0000000000001,9.50000000000071));
#1631=CARTESIAN_POINT('',(19.9999999999999,17.9999999999998,9.00000000000073));
#1632=CARTESIAN_POINT('Origin',(17.9999999999998,17.9999999999998,9.50000000000066));
#1633=CARTESIAN_POINT('',(17.9999999999998,19.9999999999999,9.00000000000066));
#1634=CARTESIAN_POINT('Origin',(17.9999999999998,17.9999999999998,9.00000000000066));
#1635=CARTESIAN_POINT('',(17.9999999999998,19.9999999999999,9.00000000000066));
#1636=CARTESIAN_POINT('Origin',(16.2499999999998,19.4999999999999,9.5000000000006));
#1637=CARTESIAN_POINT('',(-18.0000000000001,20.0000000000002,8.99999999999934));
#1638=CARTESIAN_POINT('',(-18.0000000000001,20.0000000000002,8.99999999999934));
#1639=CARTESIAN_POINT('',(16.2499999999999,19.9999999999999,9.00000000000059));
#1640=CARTESIAN_POINT('Origin',(-18.0000000000001,18.0000000000002,9.49999999999934));
#1641=CARTESIAN_POINT('Origin',(-18.0000000000001,18.0000000000002,8.99999999999934));
#1642=CARTESIAN_POINT('',(-20.0000000000001,18.0000000000002,8.99999999999927));
#1643=CARTESIAN_POINT('Origin',(-19.5000000000004,-7.49999999999979,9.49999999999929));
#1644=CARTESIAN_POINT('',(-9.50000000000049,4.00000000000083,19.4999999999997));
#1645=CARTESIAN_POINT('Origin',(-18.,18.0000000000002,5.49999999999934));
#1646=CARTESIAN_POINT('',(-18.,20.0000000000002,5.49999999999934));
#1647=CARTESIAN_POINT('Origin',(20.0000000000001,19.9999999999999,1.00000000000073));
#1648=CARTESIAN_POINT('',(18.0000000000001,19.9999999999999,1.00000000000066));
#1649=CARTESIAN_POINT('Origin',(18.0000000000001,17.9999999999998,1.00000000000066));
#1650=CARTESIAN_POINT('Origin',(-19.5000000000004,-7.49999999999979,9.49999999999929));
#1651=CARTESIAN_POINT('',(-11.7500000000006,-4.00000000000077,17.2499999999996));
#1652=CARTESIAN_POINT('',(-20.0000000000005,-17.9999999999998,8.99999999999926));
#1653=CARTESIAN_POINT('Origin',(-18.0000000000005,-17.9999999999998,9.49999999999934));
#1654=CARTESIAN_POINT('',(-18.0000000000005,-19.9999999999998,8.99999999999934));
#1655=CARTESIAN_POINT('Origin',(-3.75000000000053,-19.5,9.49999999999986));
#1656=CARTESIAN_POINT('',(17.9999999999995,-20.0000000000001,9.00000000000066));
#1657=CARTESIAN_POINT('Origin',(17.9999999999995,-18.0000000000002,9.50000000000066));
#1658=CARTESIAN_POINT('',(19.9999999999995,-18.0000000000002,9.00000000000073));
#1659=CARTESIAN_POINT('Origin',(19.4999999999995,-10.0000000000001,9.50000000000071));
#1660=CARTESIAN_POINT('Origin',(10.9999999999996,-4.00000000000034,10.0000000000004));
#1661=CARTESIAN_POINT('',(-10.0000000000004,-4.00000000000077,9.99999999999963));
#1662=CARTESIAN_POINT('Origin',(40.4999999999995,-3.58379992349001E-13,
14.0000000000015));
#1663=CARTESIAN_POINT('Origin',(19.9999999999996,3.99999999999984,10.0000000000007));
#1664=CARTESIAN_POINT('',(-10.0000000000003,4.00000000000084,9.99999999999963));
#1665=CARTESIAN_POINT('Origin',(-10.0000000000004,-3.74999999999986,9.99999999999963));
#1666=UNCERTAINTY_MEASURE_WITH_UNIT(LENGTH_MEASURE(0.01),#1670,
'DISTANCE_ACCURACY_VALUE',
'Maximum model space distance between geometric entities at asserted c
onnectivities');
#1667=UNCERTAINTY_MEASURE_WITH_UNIT(LENGTH_MEASURE(0.01),#1670,
'DISTANCE_ACCURACY_VALUE',
'Maximum model space distance between geometric entities at asserted c
onnectivities');
#1668=(
GEOMETRIC_REPRESENTATION_CONTEXT(3)
GLOBAL_UNCERTAINTY_ASSIGNED_CONTEXT((#1666))
GLOBAL_UNIT_ASSIGNED_CONTEXT((#1670,#1672,#1673))
REPRESENTATION_CONTEXT('','3D')
);
#1669=(
GEOMETRIC_REPRESENTATION_CONTEXT(3)
GLOBAL_UNCERTAINTY_ASSIGNED_CONTEXT((#1667))
GLOBAL_UNIT_ASSIGNED_CONTEXT((#1670,#1672,#1673))
REPRESENTATION_CONTEXT('','3D')
);
#1670=(
LENGTH_UNIT()
NAMED_UNIT(*)
SI_UNIT(.MILLI.,.METRE.)
);
#1671=(
LENGTH_UNIT()
NAMED_UNIT(*)
SI_UNIT($,.METRE.)
);
#1672=(
NAMED_UNIT(*)
PLANE_ANGLE_UNIT()
SI_UNIT($,.RADIAN.)
);
#1673=(
NAMED_UNIT(*)
SI_UNIT($,.STERADIAN.)
SOLID_ANGLE_UNIT()
);
#1674=SHAPE_DEFINITION_REPRESENTATION(#1675,#1676);
#1675=PRODUCT_DEFINITION_SHAPE('',$,#1678);
#1676=SHAPE_REPRESENTATION('',(#1012),#1668);
#1677=PRODUCT_DEFINITION_CONTEXT('part definition',#1682,'design');
#1678=PRODUCT_DEFINITION('2026-09-06-09-26-38-787','3030 Foot',#1679,#1677);
#1679=PRODUCT_DEFINITION_FORMATION('',$,#1684);
#1680=PRODUCT_RELATED_PRODUCT_CATEGORY('3030 Foot','3030 Foot',(#1684));
#1681=APPLICATION_PROTOCOL_DEFINITION('international standard',
'automotive_design',2009,#1682);
#1682=APPLICATION_CONTEXT(
'Core Data for Automotive Mechanical Design Process');
#1683=PRODUCT_CONTEXT('part definition',#1682,'mechanical');
#1684=PRODUCT('2026-09-06-09-26-38-787','3030 Foot',$,(#1683));
#1685=PRESENTATION_STYLE_ASSIGNMENT((#1687));
#1686=PRESENTATION_STYLE_ASSIGNMENT((#1688));
#1687=SURFACE_STYLE_USAGE(.BOTH.,#1689);
#1688=SURFACE_STYLE_USAGE(.BOTH.,#1690);
#1689=SURFACE_SIDE_STYLE('',(#1691));
#1690=SURFACE_SIDE_STYLE('',(#1692));
#1691=SURFACE_STYLE_FILL_AREA(#1693);
#1692=SURFACE_STYLE_FILL_AREA(#1694);
#1693=FILL_AREA_STYLE('Steel - Satin',(#1695));
#1694=FILL_AREA_STYLE('PETG Black',(#1696));
#1695=FILL_AREA_STYLE_COLOUR('Steel - Satin',#1697);
#1696=FILL_AREA_STYLE_COLOUR('PETG Black',#1698);
#1697=COLOUR_RGB('Steel - Satin',0.627450980392157,0.627450980392157,0.627450980392157);
#1698=COLOUR_RGB('PETG Black',0.247058823529412,0.247058823529412,0.247058823529412);
ENDSEC;
END-ISO-10303-21;
