ISO-10303-21;
HEADER;
/* Generated by software containing ST-Developer
 * from STEP Tools, Inc. (www.steptools.com) 
 */

FILE_DESCRIPTION(
/* description */ (''),
/* implementation_level */ '2;1');

FILE_NAME(
/* name */ '3030 Bumper.step',
/* time_stamp */ '2026-09-06T09:26:30+02:00',
/* author */ (''),
/* organization */ (''),
/* preprocessor_version */ 'ST-DEVELOPER v20.2',
/* originating_system */ 'Autodesk Translation Framework v15.15.0.0',
/* authorisation */ '');

FILE_SCHEMA (('AUTOMOTIVE_DESIGN { 1 0 10303 214 3 1 1 }'));
ENDSEC;

DATA;
#10=MECHANICAL_DESIGN_GEOMETRIC_PRESENTATION_REPRESENTATION('',(#13),#1541);
#11=SHAPE_REPRESENTATION_RELATIONSHIP('SRR','None',#1548,#12);
#12=ADVANCED_BREP_SHAPE_REPRESENTATION('',(#14),#1540);
#13=STYLED_ITEM('',(#1557),#14);
#14=MANIFOLD_SOLID_BREP('Body1',#916);
#15=CONICAL_SURFACE('',#958,3.25,0.785398163397448);
#16=CONICAL_SURFACE('',#965,6.25,0.785398163397449);
#17=CONICAL_SURFACE('',#987,2.,0.785398163397449);
#18=CONICAL_SURFACE('',#988,2.,0.785398163397448);
#19=CONICAL_SURFACE('',#990,2.,0.785398163397448);
#20=CONICAL_SURFACE('',#992,2.,0.785398163397448);
#21=FACE_BOUND('',#134,.T.);
#22=FACE_BOUND('',#135,.T.);
#23=FACE_BOUND('',#136,.T.);
#24=FACE_BOUND('',#141,.T.);
#25=PLANE('',#952);
#26=PLANE('',#955);
#27=PLANE('',#956);
#28=PLANE('',#968);
#29=PLANE('',#975);
#30=PLANE('',#976);
#31=PLANE('',#977);
#32=PLANE('',#978);
#33=PLANE('',#979);
#34=PLANE('',#980);
#35=PLANE('',#981);
#36=PLANE('',#982);
#37=PLANE('',#983);
#38=PLANE('',#984);
#39=PLANE('',#985);
#40=PLANE('',#986);
#41=PLANE('',#994);
#42=PLANE('',#995);
#43=PLANE('',#996);
#44=PLANE('',#997);
#45=PLANE('',#998);
#46=PLANE('',#999);
#47=PLANE('',#1000);
#48=PLANE('',#1001);
#49=PLANE('',#1002);
#50=PLANE('',#1003);
#51=PLANE('',#1004);
#52=PLANE('',#1005);
#53=PLANE('',#1006);
#54=PLANE('',#1007);
#55=PLANE('',#1008);
#56=PLANE('',#1009);
#57=PLANE('',#1010);
#58=PLANE('',#1011);
#59=PLANE('',#1012);
#60=PLANE('',#1013);
#61=SPHERICAL_SURFACE('',#936,2.);
#62=SPHERICAL_SURFACE('',#941,2.);
#63=SPHERICAL_SURFACE('',#946,2.);
#64=SPHERICAL_SURFACE('',#948,2.);
#65=FACE_OUTER_BOUND('',#121,.T.);
#66=FACE_OUTER_BOUND('',#122,.T.);
#67=FACE_OUTER_BOUND('',#123,.T.);
#68=FACE_OUTER_BOUND('',#124,.T.);
#69=FACE_OUTER_BOUND('',#125,.T.);
#70=FACE_OUTER_BOUND('',#126,.T.);
#71=FACE_OUTER_BOUND('',#127,.T.);
#72=FACE_OUTER_BOUND('',#128,.T.);
#73=FACE_OUTER_BOUND('',#129,.T.);
#74=FACE_OUTER_BOUND('',#130,.T.);
#75=FACE_OUTER_BOUND('',#131,.T.);
#76=FACE_OUTER_BOUND('',#132,.T.);
#77=FACE_OUTER_BOUND('',#133,.T.);
#78=FACE_OUTER_BOUND('',#137,.T.);
#79=FACE_OUTER_BOUND('',#138,.T.);
#80=FACE_OUTER_BOUND('',#139,.T.);
#81=FACE_OUTER_BOUND('',#140,.T.);
#82=FACE_OUTER_BOUND('',#142,.T.);
#83=FACE_OUTER_BOUND('',#143,.T.);
#84=FACE_OUTER_BOUND('',#144,.T.);
#85=FACE_OUTER_BOUND('',#145,.T.);
#86=FACE_OUTER_BOUND('',#146,.T.);
#87=FACE_OUTER_BOUND('',#147,.T.);
#88=FACE_OUTER_BOUND('',#148,.T.);
#89=FACE_OUTER_BOUND('',#149,.T.);
#90=FACE_OUTER_BOUND('',#150,.T.);
#91=FACE_OUTER_BOUND('',#151,.T.);
#92=FACE_OUTER_BOUND('',#152,.T.);
#93=FACE_OUTER_BOUND('',#153,.T.);
#94=FACE_OUTER_BOUND('',#154,.T.);
#95=FACE_OUTER_BOUND('',#155,.T.);
#96=FACE_OUTER_BOUND('',#156,.T.);
#97=FACE_OUTER_BOUND('',#157,.T.);
#98=FACE_OUTER_BOUND('',#158,.T.);
#99=FACE_OUTER_BOUND('',#159,.T.);
#100=FACE_OUTER_BOUND('',#160,.T.);
#101=FACE_OUTER_BOUND('',#161,.T.);
#102=FACE_OUTER_BOUND('',#162,.T.);
#103=FACE_OUTER_BOUND('',#163,.T.);
#104=FACE_OUTER_BOUND('',#164,.T.);
#105=FACE_OUTER_BOUND('',#165,.T.);
#106=FACE_OUTER_BOUND('',#166,.T.);
#107=FACE_OUTER_BOUND('',#167,.T.);
#108=FACE_OUTER_BOUND('',#168,.T.);
#109=FACE_OUTER_BOUND('',#169,.T.);
#110=FACE_OUTER_BOUND('',#170,.T.);
#111=FACE_OUTER_BOUND('',#171,.T.);
#112=FACE_OUTER_BOUND('',#172,.T.);
#113=FACE_OUTER_BOUND('',#173,.T.);
#114=FACE_OUTER_BOUND('',#174,.T.);
#115=FACE_OUTER_BOUND('',#175,.T.);
#116=FACE_OUTER_BOUND('',#176,.T.);
#117=FACE_OUTER_BOUND('',#177,.T.);
#118=FACE_OUTER_BOUND('',#178,.T.);
#119=FACE_OUTER_BOUND('',#179,.T.);
#120=FACE_OUTER_BOUND('',#180,.T.);
#121=EDGE_LOOP('',(#600,#601,#602,#603));
#122=EDGE_LOOP('',(#604,#605,#606,#607));
#123=EDGE_LOOP('',(#608,#609,#610));
#124=EDGE_LOOP('',(#611,#612,#613,#614));
#125=EDGE_LOOP('',(#615,#616,#617));
#126=EDGE_LOOP('',(#618,#619,#620,#621));
#127=EDGE_LOOP('',(#622,#623,#624));
#128=EDGE_LOOP('',(#625,#626,#627));
#129=EDGE_LOOP('',(#628,#629,#630,#631));
#130=EDGE_LOOP('',(#632,#633,#634,#635));
#131=EDGE_LOOP('',(#636,#637,#638,#639));
#132=EDGE_LOOP('',(#640,#641,#642,#643));
#133=EDGE_LOOP('',(#644,#645,#646,#647));
#134=EDGE_LOOP('',(#648));
#135=EDGE_LOOP('',(#649,#650,#651,#652));
#136=EDGE_LOOP('',(#653,#654,#655,#656));
#137=EDGE_LOOP('',(#657,#658,#659,#660));
#138=EDGE_LOOP('',(#661,#662,#663,#664,#665,#666,#667));
#139=EDGE_LOOP('',(#668,#669,#670,#671));
#140=EDGE_LOOP('',(#672,#673,#674,#675));
#141=EDGE_LOOP('',(#676));
#142=EDGE_LOOP('',(#677,#678,#679,#680,#681,#682,#683,#684,#685,#686,#687,
#688));
#143=EDGE_LOOP('',(#689,#690,#691,#692));
#144=EDGE_LOOP('',(#693,#694,#695,#696,#697,#698));
#145=EDGE_LOOP('',(#699,#700,#701,#702));
#146=EDGE_LOOP('',(#703,#704,#705,#706));
#147=EDGE_LOOP('',(#707,#708,#709,#710,#711,#712));
#148=EDGE_LOOP('',(#713,#714,#715,#716));
#149=EDGE_LOOP('',(#717,#718,#719,#720));
#150=EDGE_LOOP('',(#721,#722,#723,#724));
#151=EDGE_LOOP('',(#725,#726,#727,#728));
#152=EDGE_LOOP('',(#729,#730,#731,#732));
#153=EDGE_LOOP('',(#733,#734,#735,#736));
#154=EDGE_LOOP('',(#737,#738,#739,#740));
#155=EDGE_LOOP('',(#741,#742,#743));
#156=EDGE_LOOP('',(#744,#745,#746));
#157=EDGE_LOOP('',(#747,#748,#749));
#158=EDGE_LOOP('',(#750,#751,#752));
#159=EDGE_LOOP('',(#753,#754,#755,#756));
#160=EDGE_LOOP('',(#757,#758,#759));
#161=EDGE_LOOP('',(#760,#761,#762));
#162=EDGE_LOOP('',(#763,#764,#765));
#163=EDGE_LOOP('',(#766,#767,#768));
#164=EDGE_LOOP('',(#769,#770,#771,#772,#773));
#165=EDGE_LOOP('',(#774,#775,#776,#777,#778));
#166=EDGE_LOOP('',(#779,#780,#781,#782));
#167=EDGE_LOOP('',(#783,#784,#785,#786));
#168=EDGE_LOOP('',(#787,#788,#789,#790,#791,#792,#793,#794,#795));
#169=EDGE_LOOP('',(#796,#797,#798,#799,#800,#801,#802,#803,#804));
#170=EDGE_LOOP('',(#805,#806));
#171=EDGE_LOOP('',(#807,#808,#809));
#172=EDGE_LOOP('',(#810,#811,#812,#813));
#173=EDGE_LOOP('',(#814,#815,#816,#817));
#174=EDGE_LOOP('',(#818,#819,#820,#821,#822,#823));
#175=EDGE_LOOP('',(#824,#825,#826,#827));
#176=EDGE_LOOP('',(#828,#829,#830,#831));
#177=EDGE_LOOP('',(#832,#833,#834,#835,#836,#837));
#178=EDGE_LOOP('',(#838,#839,#840,#841));
#179=EDGE_LOOP('',(#842,#843,#844,#845));
#180=EDGE_LOOP('',(#846,#847,#848,#849));
#181=LINE('',#1289,#277);
#182=LINE('',#1292,#278);
#183=LINE('',#1297,#279);
#184=LINE('',#1300,#280);
#185=LINE('',#1307,#281);
#186=LINE('',#1310,#282);
#187=LINE('',#1317,#283);
#188=LINE('',#1319,#284);
#189=LINE('',#1326,#285);
#190=LINE('',#1329,#286);
#191=LINE('',#1332,#287);
#192=LINE('',#1333,#288);
#193=LINE('',#1336,#289);
#194=LINE('',#1340,#290);
#195=LINE('',#1341,#291);
#196=LINE('',#1347,#292);
#197=LINE('',#1349,#293);
#198=LINE('',#1351,#294);
#199=LINE('',#1352,#295);
#200=LINE('',#1355,#296);
#201=LINE('',#1357,#297);
#202=LINE('',#1359,#298);
#203=LINE('',#1360,#299);
#204=LINE('',#1363,#300);
#205=LINE('',#1367,#301);
#206=LINE('',#1379,#302);
#207=LINE('',#1384,#303);
#208=LINE('',#1386,#304);
#209=LINE('',#1388,#305);
#210=LINE('',#1389,#306);
#211=LINE('',#1392,#307);
#212=LINE('',#1396,#308);
#213=LINE('',#1400,#309);
#214=LINE('',#1404,#310);
#215=LINE('',#1408,#311);
#216=LINE('',#1413,#312);
#217=LINE('',#1415,#313);
#218=LINE('',#1417,#314);
#219=LINE('',#1418,#315);
#220=LINE('',#1421,#316);
#221=LINE('',#1423,#317);
#222=LINE('',#1424,#318);
#223=LINE('',#1425,#319);
#224=LINE('',#1428,#320);
#225=LINE('',#1429,#321);
#226=LINE('',#1433,#322);
#227=LINE('',#1435,#323);
#228=LINE('',#1437,#324);
#229=LINE('',#1438,#325);
#230=LINE('',#1441,#326);
#231=LINE('',#1443,#327);
#232=LINE('',#1444,#328);
#233=LINE('',#1445,#329);
#234=LINE('',#1448,#330);
#235=LINE('',#1449,#331);
#236=LINE('',#1452,#332);
#237=LINE('',#1453,#333);
#238=LINE('',#1456,#334);
#239=LINE('',#1457,#335);
#240=LINE('',#1459,#336);
#241=LINE('',#1461,#337);
#242=LINE('',#1462,#338);
#243=LINE('',#1465,#339);
#244=LINE('',#1467,#340);
#245=LINE('',#1468,#341);
#246=LINE('',#1470,#342);
#247=LINE('',#1471,#343);
#248=LINE('',#1473,#344);
#249=LINE('',#1474,#345);
#250=LINE('',#1482,#346);
#251=LINE('',#1485,#347);
#252=LINE('',#1486,#348);
#253=LINE('',#1489,#349);
#254=LINE('',#1490,#350);
#255=LINE('',#1493,#351);
#256=LINE('',#1494,#352);
#257=LINE('',#1497,#353);
#258=LINE('',#1498,#354);
#259=LINE('',#1501,#355);
#260=LINE('',#1503,#356);
#261=LINE('',#1504,#357);
#262=LINE('',#1507,#358);
#263=LINE('',#1509,#359);
#264=LINE('',#1510,#360);
#265=LINE('',#1512,#361);
#266=LINE('',#1513,#362);
#267=LINE('',#1515,#363);
#268=LINE('',#1516,#364);
#269=LINE('',#1518,#365);
#270=LINE('',#1520,#366);
#271=LINE('',#1524,#367);
#272=LINE('',#1526,#368);
#273=LINE('',#1529,#369);
#274=LINE('',#1531,#370);
#275=LINE('',#1534,#371);
#276=LINE('',#1536,#372);
#277=VECTOR('',#1021,10.);
#278=VECTOR('',#1024,10.);
#279=VECTOR('',#1029,10.);
#280=VECTOR('',#1032,10.);
#281=VECTOR('',#1041,10.);
#282=VECTOR('',#1044,10.);
#283=VECTOR('',#1053,10.);
#284=VECTOR('',#1056,10.);
#285=VECTOR('',#1067,10.);
#286=VECTOR('',#1070,10.);
#287=VECTOR('',#1073,10.);
#288=VECTOR('',#1074,10.);
#289=VECTOR('',#1077,10.);
#290=VECTOR('',#1082,10.);
#291=VECTOR('',#1083,10.);
#292=VECTOR('',#1088,10.);
#293=VECTOR('',#1089,10.);
#294=VECTOR('',#1090,10.);
#295=VECTOR('',#1091,10.);
#296=VECTOR('',#1092,10.);
#297=VECTOR('',#1093,10.);
#298=VECTOR('',#1094,10.);
#299=VECTOR('',#1095,10.);
#300=VECTOR('',#1098,3.25);
#301=VECTOR('',#1103,3.);
#302=VECTOR('',#1116,6.25);
#303=VECTOR('',#1121,10.);
#304=VECTOR('',#1122,10.);
#305=VECTOR('',#1123,10.);
#306=VECTOR('',#1124,10.);
#307=VECTOR('',#1127,6.);
#308=VECTOR('',#1130,10.);
#309=VECTOR('',#1133,10.);
#310=VECTOR('',#1136,10.);
#311=VECTOR('',#1139,10.);
#312=VECTOR('',#1144,10.);
#313=VECTOR('',#1145,10.);
#314=VECTOR('',#1146,10.);
#315=VECTOR('',#1147,10.);
#316=VECTOR('',#1150,10.);
#317=VECTOR('',#1151,10.);
#318=VECTOR('',#1152,10.);
#319=VECTOR('',#1153,10.);
#320=VECTOR('',#1156,10.);
#321=VECTOR('',#1157,10.);
#322=VECTOR('',#1160,10.);
#323=VECTOR('',#1161,10.);
#324=VECTOR('',#1162,10.);
#325=VECTOR('',#1163,10.);
#326=VECTOR('',#1166,10.);
#327=VECTOR('',#1167,10.);
#328=VECTOR('',#1168,10.);
#329=VECTOR('',#1169,10.);
#330=VECTOR('',#1172,10.);
#331=VECTOR('',#1173,10.);
#332=VECTOR('',#1176,10.);
#333=VECTOR('',#1177,10.);
#334=VECTOR('',#1180,10.);
#335=VECTOR('',#1181,10.);
#336=VECTOR('',#1184,10.);
#337=VECTOR('',#1185,10.);
#338=VECTOR('',#1186,10.);
#339=VECTOR('',#1189,10.);
#340=VECTOR('',#1190,10.);
#341=VECTOR('',#1191,10.);
#342=VECTOR('',#1194,10.);
#343=VECTOR('',#1195,10.);
#344=VECTOR('',#1198,10.);
#345=VECTOR('',#1199,10.);
#346=VECTOR('',#1214,10.);
#347=VECTOR('',#1217,10.);
#348=VECTOR('',#1218,10.);
#349=VECTOR('',#1221,10.);
#350=VECTOR('',#1222,10.);
#351=VECTOR('',#1225,10.);
#352=VECTOR('',#1226,10.);
#353=VECTOR('',#1229,10.);
#354=VECTOR('',#1230,10.);
#355=VECTOR('',#1233,10.);
#356=VECTOR('',#1234,10.);
#357=VECTOR('',#1235,10.);
#358=VECTOR('',#1238,10.);
#359=VECTOR('',#1239,10.);
#360=VECTOR('',#1240,10.);
#361=VECTOR('',#1243,10.);
#362=VECTOR('',#1244,10.);
#363=VECTOR('',#1247,10.);
#364=VECTOR('',#1248,10.);
#365=VECTOR('',#1251,10.);
#366=VECTOR('',#1254,10.);
#367=VECTOR('',#1261,10.);
#368=VECTOR('',#1264,10.);
#369=VECTOR('',#1269,10.);
#370=VECTOR('',#1272,10.);
#371=VECTOR('',#1277,10.);
#372=VECTOR('',#1280,10.);
#373=CIRCLE('',#931,2.);
#374=CIRCLE('',#932,2.);
#375=CIRCLE('',#934,2.);
#376=CIRCLE('',#935,2.);
#377=CIRCLE('',#937,2.);
#378=CIRCLE('',#939,2.);
#379=CIRCLE('',#940,2.);
#380=CIRCLE('',#942,2.);
#381=CIRCLE('',#944,2.);
#382=CIRCLE('',#945,2.);
#383=CIRCLE('',#947,2.);
#384=CIRCLE('',#949,2.);
#385=CIRCLE('',#951,2.);
#386=CIRCLE('',#954,2.);
#387=CIRCLE('',#957,3.5);
#388=CIRCLE('',#959,3.);
#389=CIRCLE('',#961,3.);
#390=CIRCLE('',#962,3.);
#391=CIRCLE('',#963,3.);
#392=CIRCLE('',#964,3.);
#393=CIRCLE('',#966,6.5);
#394=CIRCLE('',#967,6.);
#395=CIRCLE('',#970,6.);
#396=CIRCLE('',#971,6.);
#397=CIRCLE('',#972,6.);
#398=CIRCLE('',#973,6.);
#399=CIRCLE('',#974,6.);
#400=CIRCLE('',#989,2.);
#401=CIRCLE('',#991,2.);
#402=VERTEX_POINT('',#1285);
#403=VERTEX_POINT('',#1286);
#404=VERTEX_POINT('',#1288);
#405=VERTEX_POINT('',#1290);
#406=VERTEX_POINT('',#1294);
#407=VERTEX_POINT('',#1296);
#408=VERTEX_POINT('',#1298);
#409=VERTEX_POINT('',#1304);
#410=VERTEX_POINT('',#1306);
#411=VERTEX_POINT('',#1308);
#412=VERTEX_POINT('',#1314);
#413=VERTEX_POINT('',#1316);
#414=VERTEX_POINT('',#1325);
#415=VERTEX_POINT('',#1327);
#416=VERTEX_POINT('',#1331);
#417=VERTEX_POINT('',#1335);
#418=VERTEX_POINT('',#1339);
#419=VERTEX_POINT('',#1343);
#420=VERTEX_POINT('',#1345);
#421=VERTEX_POINT('',#1346);
#422=VERTEX_POINT('',#1348);
#423=VERTEX_POINT('',#1350);
#424=VERTEX_POINT('',#1353);
#425=VERTEX_POINT('',#1354);
#426=VERTEX_POINT('',#1356);
#427=VERTEX_POINT('',#1358);
#428=VERTEX_POINT('',#1362);
#429=VERTEX_POINT('',#1366);
#430=VERTEX_POINT('',#1368);
#431=VERTEX_POINT('',#1370);
#432=VERTEX_POINT('',#1372);
#433=VERTEX_POINT('',#1376);
#434=VERTEX_POINT('',#1378);
#435=VERTEX_POINT('',#1382);
#436=VERTEX_POINT('',#1383);
#437=VERTEX_POINT('',#1385);
#438=VERTEX_POINT('',#1387);
#439=VERTEX_POINT('',#1391);
#440=VERTEX_POINT('',#1393);
#441=VERTEX_POINT('',#1395);
#442=VERTEX_POINT('',#1397);
#443=VERTEX_POINT('',#1399);
#444=VERTEX_POINT('',#1401);
#445=VERTEX_POINT('',#1403);
#446=VERTEX_POINT('',#1405);
#447=VERTEX_POINT('',#1407);
#448=VERTEX_POINT('',#1411);
#449=VERTEX_POINT('',#1412);
#450=VERTEX_POINT('',#1414);
#451=VERTEX_POINT('',#1416);
#452=VERTEX_POINT('',#1420);
#453=VERTEX_POINT('',#1422);
#454=VERTEX_POINT('',#1427);
#455=VERTEX_POINT('',#1431);
#456=VERTEX_POINT('',#1432);
#457=VERTEX_POINT('',#1434);
#458=VERTEX_POINT('',#1436);
#459=VERTEX_POINT('',#1440);
#460=VERTEX_POINT('',#1442);
#461=VERTEX_POINT('',#1447);
#462=VERTEX_POINT('',#1451);
#463=VERTEX_POINT('',#1455);
#464=VERTEX_POINT('',#1460);
#465=VERTEX_POINT('',#1464);
#466=VERTEX_POINT('',#1466);
#467=VERTEX_POINT('',#1484);
#468=VERTEX_POINT('',#1488);
#469=VERTEX_POINT('',#1492);
#470=VERTEX_POINT('',#1496);
#471=VERTEX_POINT('',#1500);
#472=VERTEX_POINT('',#1502);
#473=VERTEX_POINT('',#1506);
#474=VERTEX_POINT('',#1508);
#475=EDGE_CURVE('',#402,#403,#373,.T.);
#476=EDGE_CURVE('',#403,#404,#181,.T.);
#477=EDGE_CURVE('',#404,#405,#374,.T.);
#478=EDGE_CURVE('',#405,#402,#182,.T.);
#479=EDGE_CURVE('',#405,#406,#375,.T.);
#480=EDGE_CURVE('',#406,#407,#183,.T.);
#481=EDGE_CURVE('',#407,#408,#376,.T.);
#482=EDGE_CURVE('',#408,#405,#184,.T.);
#483=EDGE_CURVE('',#404,#406,#377,.T.);
#484=EDGE_CURVE('',#408,#409,#378,.T.);
#485=EDGE_CURVE('',#409,#410,#185,.T.);
#486=EDGE_CURVE('',#410,#411,#379,.T.);
#487=EDGE_CURVE('',#411,#408,#186,.T.);
#488=EDGE_CURVE('',#407,#409,#380,.T.);
#489=EDGE_CURVE('',#411,#412,#381,.T.);
#490=EDGE_CURVE('',#412,#413,#187,.T.);
#491=EDGE_CURVE('',#413,#402,#382,.T.);
#492=EDGE_CURVE('',#402,#411,#188,.T.);
#493=EDGE_CURVE('',#410,#412,#383,.T.);
#494=EDGE_CURVE('',#413,#403,#384,.T.);
#495=EDGE_CURVE('',#414,#404,#189,.T.);
#496=EDGE_CURVE('',#415,#414,#385,.T.);
#497=EDGE_CURVE('',#415,#406,#190,.T.);
#498=EDGE_CURVE('',#416,#403,#191,.T.);
#499=EDGE_CURVE('',#414,#416,#192,.T.);
#500=EDGE_CURVE('',#417,#413,#193,.T.);
#501=EDGE_CURVE('',#416,#417,#386,.T.);
#502=EDGE_CURVE('',#418,#412,#194,.T.);
#503=EDGE_CURVE('',#417,#418,#195,.T.);
#504=EDGE_CURVE('',#419,#419,#387,.T.);
#505=EDGE_CURVE('',#420,#421,#196,.T.);
#506=EDGE_CURVE('',#421,#422,#197,.T.);
#507=EDGE_CURVE('',#422,#423,#198,.T.);
#508=EDGE_CURVE('',#423,#420,#199,.T.);
#509=EDGE_CURVE('',#424,#425,#200,.T.);
#510=EDGE_CURVE('',#425,#426,#201,.T.);
#511=EDGE_CURVE('',#426,#427,#202,.T.);
#512=EDGE_CURVE('',#427,#424,#203,.T.);
#513=EDGE_CURVE('',#419,#428,#204,.T.);
#514=EDGE_CURVE('',#428,#428,#388,.T.);
#515=EDGE_CURVE('',#428,#429,#205,.T.);
#516=EDGE_CURVE('',#429,#430,#389,.T.);
#517=EDGE_CURVE('',#430,#431,#390,.T.);
#518=EDGE_CURVE('',#431,#432,#391,.T.);
#519=EDGE_CURVE('',#432,#429,#392,.T.);
#520=EDGE_CURVE('',#433,#433,#393,.T.);
#521=EDGE_CURVE('',#433,#434,#206,.T.);
#522=EDGE_CURVE('',#434,#434,#394,.T.);
#523=EDGE_CURVE('',#435,#436,#207,.T.);
#524=EDGE_CURVE('',#437,#435,#208,.T.);
#525=EDGE_CURVE('',#438,#437,#209,.T.);
#526=EDGE_CURVE('',#436,#438,#210,.T.);
#527=EDGE_CURVE('',#434,#439,#211,.T.);
#528=EDGE_CURVE('',#439,#440,#395,.T.);
#529=EDGE_CURVE('',#440,#441,#212,.T.);
#530=EDGE_CURVE('',#441,#442,#396,.T.);
#531=EDGE_CURVE('',#443,#442,#213,.T.);
#532=EDGE_CURVE('',#443,#444,#397,.T.);
#533=EDGE_CURVE('',#444,#445,#214,.T.);
#534=EDGE_CURVE('',#445,#446,#398,.T.);
#535=EDGE_CURVE('',#447,#446,#215,.T.);
#536=EDGE_CURVE('',#447,#439,#399,.T.);
#537=EDGE_CURVE('',#448,#449,#216,.T.);
#538=EDGE_CURVE('',#449,#450,#217,.T.);
#539=EDGE_CURVE('',#450,#451,#218,.T.);
#540=EDGE_CURVE('',#451,#448,#219,.T.);
#541=EDGE_CURVE('',#452,#450,#220,.T.);
#542=EDGE_CURVE('',#453,#452,#221,.T.);
#543=EDGE_CURVE('',#422,#453,#222,.T.);
#544=EDGE_CURVE('',#421,#451,#223,.T.);
#545=EDGE_CURVE('',#449,#454,#224,.T.);
#546=EDGE_CURVE('',#452,#454,#225,.T.);
#547=EDGE_CURVE('',#455,#456,#226,.T.);
#548=EDGE_CURVE('',#456,#457,#227,.T.);
#549=EDGE_CURVE('',#457,#458,#228,.T.);
#550=EDGE_CURVE('',#458,#455,#229,.T.);
#551=EDGE_CURVE('',#459,#457,#230,.T.);
#552=EDGE_CURVE('',#460,#459,#231,.T.);
#553=EDGE_CURVE('',#426,#460,#232,.T.);
#554=EDGE_CURVE('',#425,#458,#233,.T.);
#555=EDGE_CURVE('',#456,#461,#234,.T.);
#556=EDGE_CURVE('',#459,#461,#235,.T.);
#557=EDGE_CURVE('',#454,#462,#236,.T.);
#558=EDGE_CURVE('',#462,#453,#237,.T.);
#559=EDGE_CURVE('',#461,#463,#238,.T.);
#560=EDGE_CURVE('',#463,#460,#239,.T.);
#561=EDGE_CURVE('',#415,#435,#240,.T.);
#562=EDGE_CURVE('',#436,#464,#241,.T.);
#563=EDGE_CURVE('',#464,#415,#242,.T.);
#564=EDGE_CURVE('',#465,#436,#243,.T.);
#565=EDGE_CURVE('',#438,#466,#244,.T.);
#566=EDGE_CURVE('',#466,#465,#245,.T.);
#567=EDGE_CURVE('',#418,#438,#246,.T.);
#568=EDGE_CURVE('',#437,#417,#247,.T.);
#569=EDGE_CURVE('',#416,#437,#248,.T.);
#570=EDGE_CURVE('',#435,#414,#249,.T.);
#571=EDGE_CURVE('',#418,#466,#400,.T.);
#572=EDGE_CURVE('',#465,#464,#401,.T.);
#573=EDGE_CURVE('',#466,#410,#250,.T.);
#574=EDGE_CURVE('',#467,#432,#251,.T.);
#575=EDGE_CURVE('',#429,#467,#252,.T.);
#576=EDGE_CURVE('',#468,#429,#253,.T.);
#577=EDGE_CURVE('',#430,#468,#254,.T.);
#578=EDGE_CURVE('',#469,#430,#255,.T.);
#579=EDGE_CURVE('',#431,#469,#256,.T.);
#580=EDGE_CURVE('',#470,#431,#257,.T.);
#581=EDGE_CURVE('',#432,#470,#258,.T.);
#582=EDGE_CURVE('',#471,#468,#259,.T.);
#583=EDGE_CURVE('',#472,#471,#260,.T.);
#584=EDGE_CURVE('',#472,#469,#261,.T.);
#585=EDGE_CURVE('',#473,#470,#262,.T.);
#586=EDGE_CURVE('',#474,#473,#263,.T.);
#587=EDGE_CURVE('',#474,#467,#264,.T.);
#588=EDGE_CURVE('',#442,#473,#265,.T.);
#589=EDGE_CURVE('',#474,#441,#266,.T.);
#590=EDGE_CURVE('',#446,#471,#267,.T.);
#591=EDGE_CURVE('',#472,#445,#268,.T.);
#592=EDGE_CURVE('',#447,#440,#269,.T.);
#593=EDGE_CURVE('',#443,#444,#270,.T.);
#594=EDGE_CURVE('',#420,#448,#271,.T.);
#595=EDGE_CURVE('',#423,#462,#272,.T.);
#596=EDGE_CURVE('',#424,#455,#273,.T.);
#597=EDGE_CURVE('',#427,#463,#274,.T.);
#598=EDGE_CURVE('',#464,#407,#275,.T.);
#599=EDGE_CURVE('',#465,#409,#276,.T.);
#600=ORIENTED_EDGE('',*,*,#475,.T.);
#601=ORIENTED_EDGE('',*,*,#476,.T.);
#602=ORIENTED_EDGE('',*,*,#477,.T.);
#603=ORIENTED_EDGE('',*,*,#478,.T.);
#604=ORIENTED_EDGE('',*,*,#479,.T.);
#605=ORIENTED_EDGE('',*,*,#480,.T.);
#606=ORIENTED_EDGE('',*,*,#481,.T.);
#607=ORIENTED_EDGE('',*,*,#482,.T.);
#608=ORIENTED_EDGE('',*,*,#479,.F.);
#609=ORIENTED_EDGE('',*,*,#477,.F.);
#610=ORIENTED_EDGE('',*,*,#483,.T.);
#611=ORIENTED_EDGE('',*,*,#484,.T.);
#612=ORIENTED_EDGE('',*,*,#485,.T.);
#613=ORIENTED_EDGE('',*,*,#486,.T.);
#614=ORIENTED_EDGE('',*,*,#487,.T.);
#615=ORIENTED_EDGE('',*,*,#484,.F.);
#616=ORIENTED_EDGE('',*,*,#481,.F.);
#617=ORIENTED_EDGE('',*,*,#488,.T.);
#618=ORIENTED_EDGE('',*,*,#489,.T.);
#619=ORIENTED_EDGE('',*,*,#490,.T.);
#620=ORIENTED_EDGE('',*,*,#491,.T.);
#621=ORIENTED_EDGE('',*,*,#492,.T.);
#622=ORIENTED_EDGE('',*,*,#489,.F.);
#623=ORIENTED_EDGE('',*,*,#486,.F.);
#624=ORIENTED_EDGE('',*,*,#493,.T.);
#625=ORIENTED_EDGE('',*,*,#475,.F.);
#626=ORIENTED_EDGE('',*,*,#491,.F.);
#627=ORIENTED_EDGE('',*,*,#494,.T.);
#628=ORIENTED_EDGE('',*,*,#483,.F.);
#629=ORIENTED_EDGE('',*,*,#495,.F.);
#630=ORIENTED_EDGE('',*,*,#496,.F.);
#631=ORIENTED_EDGE('',*,*,#497,.T.);
#632=ORIENTED_EDGE('',*,*,#476,.F.);
#633=ORIENTED_EDGE('',*,*,#498,.F.);
#634=ORIENTED_EDGE('',*,*,#499,.F.);
#635=ORIENTED_EDGE('',*,*,#495,.T.);
#636=ORIENTED_EDGE('',*,*,#494,.F.);
#637=ORIENTED_EDGE('',*,*,#500,.F.);
#638=ORIENTED_EDGE('',*,*,#501,.F.);
#639=ORIENTED_EDGE('',*,*,#498,.T.);
#640=ORIENTED_EDGE('',*,*,#490,.F.);
#641=ORIENTED_EDGE('',*,*,#502,.F.);
#642=ORIENTED_EDGE('',*,*,#503,.F.);
#643=ORIENTED_EDGE('',*,*,#500,.T.);
#644=ORIENTED_EDGE('',*,*,#478,.F.);
#645=ORIENTED_EDGE('',*,*,#482,.F.);
#646=ORIENTED_EDGE('',*,*,#487,.F.);
#647=ORIENTED_EDGE('',*,*,#492,.F.);
#648=ORIENTED_EDGE('',*,*,#504,.F.);
#649=ORIENTED_EDGE('',*,*,#505,.T.);
#650=ORIENTED_EDGE('',*,*,#506,.T.);
#651=ORIENTED_EDGE('',*,*,#507,.T.);
#652=ORIENTED_EDGE('',*,*,#508,.T.);
#653=ORIENTED_EDGE('',*,*,#509,.T.);
#654=ORIENTED_EDGE('',*,*,#510,.T.);
#655=ORIENTED_EDGE('',*,*,#511,.T.);
#656=ORIENTED_EDGE('',*,*,#512,.T.);
#657=ORIENTED_EDGE('',*,*,#504,.T.);
#658=ORIENTED_EDGE('',*,*,#513,.T.);
#659=ORIENTED_EDGE('',*,*,#514,.T.);
#660=ORIENTED_EDGE('',*,*,#513,.F.);
#661=ORIENTED_EDGE('',*,*,#514,.F.);
#662=ORIENTED_EDGE('',*,*,#515,.T.);
#663=ORIENTED_EDGE('',*,*,#516,.T.);
#664=ORIENTED_EDGE('',*,*,#517,.T.);
#665=ORIENTED_EDGE('',*,*,#518,.T.);
#666=ORIENTED_EDGE('',*,*,#519,.T.);
#667=ORIENTED_EDGE('',*,*,#515,.F.);
#668=ORIENTED_EDGE('',*,*,#520,.T.);
#669=ORIENTED_EDGE('',*,*,#521,.T.);
#670=ORIENTED_EDGE('',*,*,#522,.T.);
#671=ORIENTED_EDGE('',*,*,#521,.F.);
#672=ORIENTED_EDGE('',*,*,#523,.F.);
#673=ORIENTED_EDGE('',*,*,#524,.F.);
#674=ORIENTED_EDGE('',*,*,#525,.F.);
#675=ORIENTED_EDGE('',*,*,#526,.F.);
#676=ORIENTED_EDGE('',*,*,#520,.F.);
#677=ORIENTED_EDGE('',*,*,#522,.F.);
#678=ORIENTED_EDGE('',*,*,#527,.T.);
#679=ORIENTED_EDGE('',*,*,#528,.T.);
#680=ORIENTED_EDGE('',*,*,#529,.T.);
#681=ORIENTED_EDGE('',*,*,#530,.T.);
#682=ORIENTED_EDGE('',*,*,#531,.F.);
#683=ORIENTED_EDGE('',*,*,#532,.T.);
#684=ORIENTED_EDGE('',*,*,#533,.T.);
#685=ORIENTED_EDGE('',*,*,#534,.T.);
#686=ORIENTED_EDGE('',*,*,#535,.F.);
#687=ORIENTED_EDGE('',*,*,#536,.T.);
#688=ORIENTED_EDGE('',*,*,#527,.F.);
#689=ORIENTED_EDGE('',*,*,#537,.T.);
#690=ORIENTED_EDGE('',*,*,#538,.T.);
#691=ORIENTED_EDGE('',*,*,#539,.T.);
#692=ORIENTED_EDGE('',*,*,#540,.T.);
#693=ORIENTED_EDGE('',*,*,#539,.F.);
#694=ORIENTED_EDGE('',*,*,#541,.F.);
#695=ORIENTED_EDGE('',*,*,#542,.F.);
#696=ORIENTED_EDGE('',*,*,#543,.F.);
#697=ORIENTED_EDGE('',*,*,#506,.F.);
#698=ORIENTED_EDGE('',*,*,#544,.T.);
#699=ORIENTED_EDGE('',*,*,#538,.F.);
#700=ORIENTED_EDGE('',*,*,#545,.T.);
#701=ORIENTED_EDGE('',*,*,#546,.F.);
#702=ORIENTED_EDGE('',*,*,#541,.T.);
#703=ORIENTED_EDGE('',*,*,#547,.T.);
#704=ORIENTED_EDGE('',*,*,#548,.T.);
#705=ORIENTED_EDGE('',*,*,#549,.T.);
#706=ORIENTED_EDGE('',*,*,#550,.T.);
#707=ORIENTED_EDGE('',*,*,#549,.F.);
#708=ORIENTED_EDGE('',*,*,#551,.F.);
#709=ORIENTED_EDGE('',*,*,#552,.F.);
#710=ORIENTED_EDGE('',*,*,#553,.F.);
#711=ORIENTED_EDGE('',*,*,#510,.F.);
#712=ORIENTED_EDGE('',*,*,#554,.T.);
#713=ORIENTED_EDGE('',*,*,#548,.F.);
#714=ORIENTED_EDGE('',*,*,#555,.T.);
#715=ORIENTED_EDGE('',*,*,#556,.F.);
#716=ORIENTED_EDGE('',*,*,#551,.T.);
#717=ORIENTED_EDGE('',*,*,#542,.T.);
#718=ORIENTED_EDGE('',*,*,#546,.T.);
#719=ORIENTED_EDGE('',*,*,#557,.T.);
#720=ORIENTED_EDGE('',*,*,#558,.T.);
#721=ORIENTED_EDGE('',*,*,#552,.T.);
#722=ORIENTED_EDGE('',*,*,#556,.T.);
#723=ORIENTED_EDGE('',*,*,#559,.T.);
#724=ORIENTED_EDGE('',*,*,#560,.T.);
#725=ORIENTED_EDGE('',*,*,#561,.T.);
#726=ORIENTED_EDGE('',*,*,#523,.T.);
#727=ORIENTED_EDGE('',*,*,#562,.T.);
#728=ORIENTED_EDGE('',*,*,#563,.T.);
#729=ORIENTED_EDGE('',*,*,#564,.T.);
#730=ORIENTED_EDGE('',*,*,#526,.T.);
#731=ORIENTED_EDGE('',*,*,#565,.T.);
#732=ORIENTED_EDGE('',*,*,#566,.T.);
#733=ORIENTED_EDGE('',*,*,#567,.T.);
#734=ORIENTED_EDGE('',*,*,#525,.T.);
#735=ORIENTED_EDGE('',*,*,#568,.T.);
#736=ORIENTED_EDGE('',*,*,#503,.T.);
#737=ORIENTED_EDGE('',*,*,#569,.T.);
#738=ORIENTED_EDGE('',*,*,#524,.T.);
#739=ORIENTED_EDGE('',*,*,#570,.T.);
#740=ORIENTED_EDGE('',*,*,#499,.T.);
#741=ORIENTED_EDGE('',*,*,#569,.F.);
#742=ORIENTED_EDGE('',*,*,#501,.T.);
#743=ORIENTED_EDGE('',*,*,#568,.F.);
#744=ORIENTED_EDGE('',*,*,#567,.F.);
#745=ORIENTED_EDGE('',*,*,#571,.T.);
#746=ORIENTED_EDGE('',*,*,#565,.F.);
#747=ORIENTED_EDGE('',*,*,#564,.F.);
#748=ORIENTED_EDGE('',*,*,#572,.T.);
#749=ORIENTED_EDGE('',*,*,#562,.F.);
#750=ORIENTED_EDGE('',*,*,#561,.F.);
#751=ORIENTED_EDGE('',*,*,#496,.T.);
#752=ORIENTED_EDGE('',*,*,#570,.F.);
#753=ORIENTED_EDGE('',*,*,#493,.F.);
#754=ORIENTED_EDGE('',*,*,#573,.F.);
#755=ORIENTED_EDGE('',*,*,#571,.F.);
#756=ORIENTED_EDGE('',*,*,#502,.T.);
#757=ORIENTED_EDGE('',*,*,#519,.F.);
#758=ORIENTED_EDGE('',*,*,#574,.F.);
#759=ORIENTED_EDGE('',*,*,#575,.F.);
#760=ORIENTED_EDGE('',*,*,#516,.F.);
#761=ORIENTED_EDGE('',*,*,#576,.F.);
#762=ORIENTED_EDGE('',*,*,#577,.F.);
#763=ORIENTED_EDGE('',*,*,#517,.F.);
#764=ORIENTED_EDGE('',*,*,#578,.F.);
#765=ORIENTED_EDGE('',*,*,#579,.F.);
#766=ORIENTED_EDGE('',*,*,#518,.F.);
#767=ORIENTED_EDGE('',*,*,#580,.F.);
#768=ORIENTED_EDGE('',*,*,#581,.F.);
#769=ORIENTED_EDGE('',*,*,#577,.T.);
#770=ORIENTED_EDGE('',*,*,#582,.F.);
#771=ORIENTED_EDGE('',*,*,#583,.F.);
#772=ORIENTED_EDGE('',*,*,#584,.T.);
#773=ORIENTED_EDGE('',*,*,#578,.T.);
#774=ORIENTED_EDGE('',*,*,#581,.T.);
#775=ORIENTED_EDGE('',*,*,#585,.F.);
#776=ORIENTED_EDGE('',*,*,#586,.F.);
#777=ORIENTED_EDGE('',*,*,#587,.T.);
#778=ORIENTED_EDGE('',*,*,#574,.T.);
#779=ORIENTED_EDGE('',*,*,#586,.T.);
#780=ORIENTED_EDGE('',*,*,#588,.F.);
#781=ORIENTED_EDGE('',*,*,#530,.F.);
#782=ORIENTED_EDGE('',*,*,#589,.F.);
#783=ORIENTED_EDGE('',*,*,#583,.T.);
#784=ORIENTED_EDGE('',*,*,#590,.F.);
#785=ORIENTED_EDGE('',*,*,#534,.F.);
#786=ORIENTED_EDGE('',*,*,#591,.F.);
#787=ORIENTED_EDGE('',*,*,#589,.T.);
#788=ORIENTED_EDGE('',*,*,#529,.F.);
#789=ORIENTED_EDGE('',*,*,#592,.F.);
#790=ORIENTED_EDGE('',*,*,#535,.T.);
#791=ORIENTED_EDGE('',*,*,#590,.T.);
#792=ORIENTED_EDGE('',*,*,#582,.T.);
#793=ORIENTED_EDGE('',*,*,#576,.T.);
#794=ORIENTED_EDGE('',*,*,#575,.T.);
#795=ORIENTED_EDGE('',*,*,#587,.F.);
#796=ORIENTED_EDGE('',*,*,#591,.T.);
#797=ORIENTED_EDGE('',*,*,#533,.F.);
#798=ORIENTED_EDGE('',*,*,#593,.F.);
#799=ORIENTED_EDGE('',*,*,#531,.T.);
#800=ORIENTED_EDGE('',*,*,#588,.T.);
#801=ORIENTED_EDGE('',*,*,#585,.T.);
#802=ORIENTED_EDGE('',*,*,#580,.T.);
#803=ORIENTED_EDGE('',*,*,#579,.T.);
#804=ORIENTED_EDGE('',*,*,#584,.F.);
#805=ORIENTED_EDGE('',*,*,#593,.T.);
#806=ORIENTED_EDGE('',*,*,#532,.F.);
#807=ORIENTED_EDGE('',*,*,#592,.T.);
#808=ORIENTED_EDGE('',*,*,#528,.F.);
#809=ORIENTED_EDGE('',*,*,#536,.F.);
#810=ORIENTED_EDGE('',*,*,#540,.F.);
#811=ORIENTED_EDGE('',*,*,#544,.F.);
#812=ORIENTED_EDGE('',*,*,#505,.F.);
#813=ORIENTED_EDGE('',*,*,#594,.T.);
#814=ORIENTED_EDGE('',*,*,#558,.F.);
#815=ORIENTED_EDGE('',*,*,#595,.F.);
#816=ORIENTED_EDGE('',*,*,#507,.F.);
#817=ORIENTED_EDGE('',*,*,#543,.T.);
#818=ORIENTED_EDGE('',*,*,#537,.F.);
#819=ORIENTED_EDGE('',*,*,#594,.F.);
#820=ORIENTED_EDGE('',*,*,#508,.F.);
#821=ORIENTED_EDGE('',*,*,#595,.T.);
#822=ORIENTED_EDGE('',*,*,#557,.F.);
#823=ORIENTED_EDGE('',*,*,#545,.F.);
#824=ORIENTED_EDGE('',*,*,#550,.F.);
#825=ORIENTED_EDGE('',*,*,#554,.F.);
#826=ORIENTED_EDGE('',*,*,#509,.F.);
#827=ORIENTED_EDGE('',*,*,#596,.T.);
#828=ORIENTED_EDGE('',*,*,#560,.F.);
#829=ORIENTED_EDGE('',*,*,#597,.F.);
#830=ORIENTED_EDGE('',*,*,#511,.F.);
#831=ORIENTED_EDGE('',*,*,#553,.T.);
#832=ORIENTED_EDGE('',*,*,#547,.F.);
#833=ORIENTED_EDGE('',*,*,#596,.F.);
#834=ORIENTED_EDGE('',*,*,#512,.F.);
#835=ORIENTED_EDGE('',*,*,#597,.T.);
#836=ORIENTED_EDGE('',*,*,#559,.F.);
#837=ORIENTED_EDGE('',*,*,#555,.F.);
#838=ORIENTED_EDGE('',*,*,#480,.F.);
#839=ORIENTED_EDGE('',*,*,#497,.F.);
#840=ORIENTED_EDGE('',*,*,#563,.F.);
#841=ORIENTED_EDGE('',*,*,#598,.T.);
#842=ORIENTED_EDGE('',*,*,#485,.F.);
#843=ORIENTED_EDGE('',*,*,#599,.F.);
#844=ORIENTED_EDGE('',*,*,#566,.F.);
#845=ORIENTED_EDGE('',*,*,#573,.T.);
#846=ORIENTED_EDGE('',*,*,#488,.F.);
#847=ORIENTED_EDGE('',*,*,#598,.F.);
#848=ORIENTED_EDGE('',*,*,#572,.F.);
#849=ORIENTED_EDGE('',*,*,#599,.T.);
#850=CYLINDRICAL_SURFACE('',#930,2.);
#851=CYLINDRICAL_SURFACE('',#933,2.);
#852=CYLINDRICAL_SURFACE('',#938,2.);
#853=CYLINDRICAL_SURFACE('',#943,2.);
#854=CYLINDRICAL_SURFACE('',#950,2.);
#855=CYLINDRICAL_SURFACE('',#953,2.);
#856=CYLINDRICAL_SURFACE('',#960,3.);
#857=CYLINDRICAL_SURFACE('',#969,6.);
#858=CYLINDRICAL_SURFACE('',#993,2.);
#859=CYLINDRICAL_SURFACE('',#1014,2.);
#860=ADVANCED_FACE('',(#65),#850,.T.);
#861=ADVANCED_FACE('',(#66),#851,.T.);
#862=ADVANCED_FACE('',(#67),#61,.T.);
#863=ADVANCED_FACE('',(#68),#852,.T.);
#864=ADVANCED_FACE('',(#69),#62,.T.);
#865=ADVANCED_FACE('',(#70),#853,.T.);
#866=ADVANCED_FACE('',(#71),#63,.T.);
#867=ADVANCED_FACE('',(#72),#64,.T.);
#868=ADVANCED_FACE('',(#73),#854,.T.);
#869=ADVANCED_FACE('',(#74),#25,.T.);
#870=ADVANCED_FACE('',(#75),#855,.T.);
#871=ADVANCED_FACE('',(#76),#26,.T.);
#872=ADVANCED_FACE('',(#77,#21,#22,#23),#27,.T.);
#873=ADVANCED_FACE('',(#78),#15,.F.);
#874=ADVANCED_FACE('',(#79),#856,.F.);
#875=ADVANCED_FACE('',(#80),#16,.F.);
#876=ADVANCED_FACE('',(#81,#24),#28,.F.);
#877=ADVANCED_FACE('',(#82),#857,.F.);
#878=ADVANCED_FACE('',(#83),#29,.T.);
#879=ADVANCED_FACE('',(#84),#30,.T.);
#880=ADVANCED_FACE('',(#85),#31,.T.);
#881=ADVANCED_FACE('',(#86),#32,.T.);
#882=ADVANCED_FACE('',(#87),#33,.T.);
#883=ADVANCED_FACE('',(#88),#34,.T.);
#884=ADVANCED_FACE('',(#89),#35,.T.);
#885=ADVANCED_FACE('',(#90),#36,.T.);
#886=ADVANCED_FACE('',(#91),#37,.T.);
#887=ADVANCED_FACE('',(#92),#38,.T.);
#888=ADVANCED_FACE('',(#93),#39,.T.);
#889=ADVANCED_FACE('',(#94),#40,.T.);
#890=ADVANCED_FACE('',(#95),#17,.T.);
#891=ADVANCED_FACE('',(#96),#18,.T.);
#892=ADVANCED_FACE('',(#97),#19,.T.);
#893=ADVANCED_FACE('',(#98),#20,.T.);
#894=ADVANCED_FACE('',(#99),#858,.T.);
#895=ADVANCED_FACE('',(#100),#41,.F.);
#896=ADVANCED_FACE('',(#101),#42,.F.);
#897=ADVANCED_FACE('',(#102),#43,.F.);
#898=ADVANCED_FACE('',(#103),#44,.F.);
#899=ADVANCED_FACE('',(#104),#45,.F.);
#900=ADVANCED_FACE('',(#105),#46,.F.);
#901=ADVANCED_FACE('',(#106),#47,.T.);
#902=ADVANCED_FACE('',(#107),#48,.T.);
#903=ADVANCED_FACE('',(#108),#49,.F.);
#904=ADVANCED_FACE('',(#109),#50,.F.);
#905=ADVANCED_FACE('',(#110),#51,.F.);
#906=ADVANCED_FACE('',(#111),#52,.F.);
#907=ADVANCED_FACE('',(#112),#53,.T.);
#908=ADVANCED_FACE('',(#113),#54,.T.);
#909=ADVANCED_FACE('',(#114),#55,.T.);
#910=ADVANCED_FACE('',(#115),#56,.T.);
#911=ADVANCED_FACE('',(#116),#57,.T.);
#912=ADVANCED_FACE('',(#117),#58,.T.);
#913=ADVANCED_FACE('',(#118),#59,.T.);
#914=ADVANCED_FACE('',(#119),#60,.T.);
#915=ADVANCED_FACE('',(#120),#859,.T.);
#916=CLOSED_SHELL('',(#860,#861,#862,#863,#864,#865,#866,#867,#868,#869,
#870,#871,#872,#873,#874,#875,#876,#877,#878,#879,#880,#881,#882,#883,#884,
#885,#886,#887,#888,#889,#890,#891,#892,#893,#894,#895,#896,#897,#898,#899,
#900,#901,#902,#903,#904,#905,#906,#907,#908,#909,#910,#911,#912,#913,#914,
#915));
#917=DERIVED_UNIT_ELEMENT(#919,1.);
#918=DERIVED_UNIT_ELEMENT(#1543,-3.);
#919=(
MASS_UNIT()
NAMED_UNIT(*)
SI_UNIT(.KILO.,.GRAM.)
);
#920=DERIVED_UNIT((#917,#918));
#921=MEASURE_REPRESENTATION_ITEM('density measure',
POSITIVE_RATIO_MEASURE(952.),#920);
#922=PROPERTY_DEFINITION_REPRESENTATION(#927,#924);
#923=PROPERTY_DEFINITION_REPRESENTATION(#928,#925);
#924=REPRESENTATION('material name',(#926),#1540);
#925=REPRESENTATION('density',(#921),#1540);
#926=DESCRIPTIVE_REPRESENTATION_ITEM('Plastic, Opaque Black',
'Plastic, Opaque Black');
#927=PROPERTY_DEFINITION('material property','material name',#1550);
#928=PROPERTY_DEFINITION('material property','density of part',#1550);
#929=AXIS2_PLACEMENT_3D('',#1283,#1015,#1016);
#930=AXIS2_PLACEMENT_3D('',#1284,#1017,#1018);
#931=AXIS2_PLACEMENT_3D('',#1287,#1019,#1020);
#932=AXIS2_PLACEMENT_3D('',#1291,#1022,#1023);
#933=AXIS2_PLACEMENT_3D('',#1293,#1025,#1026);
#934=AXIS2_PLACEMENT_3D('',#1295,#1027,#1028);
#935=AXIS2_PLACEMENT_3D('',#1299,#1030,#1031);
#936=AXIS2_PLACEMENT_3D('',#1301,#1033,#1034);
#937=AXIS2_PLACEMENT_3D('',#1302,#1035,#1036);
#938=AXIS2_PLACEMENT_3D('',#1303,#1037,#1038);
#939=AXIS2_PLACEMENT_3D('',#1305,#1039,#1040);
#940=AXIS2_PLACEMENT_3D('',#1309,#1042,#1043);
#941=AXIS2_PLACEMENT_3D('',#1311,#1045,#1046);
#942=AXIS2_PLACEMENT_3D('',#1312,#1047,#1048);
#943=AXIS2_PLACEMENT_3D('',#1313,#1049,#1050);
#944=AXIS2_PLACEMENT_3D('',#1315,#1051,#1052);
#945=AXIS2_PLACEMENT_3D('',#1318,#1054,#1055);
#946=AXIS2_PLACEMENT_3D('',#1320,#1057,#1058);
#947=AXIS2_PLACEMENT_3D('',#1321,#1059,#1060);
#948=AXIS2_PLACEMENT_3D('',#1322,#1061,#1062);
#949=AXIS2_PLACEMENT_3D('',#1323,#1063,#1064);
#950=AXIS2_PLACEMENT_3D('',#1324,#1065,#1066);
#951=AXIS2_PLACEMENT_3D('',#1328,#1068,#1069);
#952=AXIS2_PLACEMENT_3D('',#1330,#1071,#1072);
#953=AXIS2_PLACEMENT_3D('',#1334,#1075,#1076);
#954=AXIS2_PLACEMENT_3D('',#1337,#1078,#1079);
#955=AXIS2_PLACEMENT_3D('',#1338,#1080,#1081);
#956=AXIS2_PLACEMENT_3D('',#1342,#1084,#1085);
#957=AXIS2_PLACEMENT_3D('',#1344,#1086,#1087);
#958=AXIS2_PLACEMENT_3D('',#1361,#1096,#1097);
#959=AXIS2_PLACEMENT_3D('',#1364,#1099,#1100);
#960=AXIS2_PLACEMENT_3D('',#1365,#1101,#1102);
#961=AXIS2_PLACEMENT_3D('',#1369,#1104,#1105);
#962=AXIS2_PLACEMENT_3D('',#1371,#1106,#1107);
#963=AXIS2_PLACEMENT_3D('',#1373,#1108,#1109);
#964=AXIS2_PLACEMENT_3D('',#1374,#1110,#1111);
#965=AXIS2_PLACEMENT_3D('',#1375,#1112,#1113);
#966=AXIS2_PLACEMENT_3D('',#1377,#1114,#1115);
#967=AXIS2_PLACEMENT_3D('',#1380,#1117,#1118);
#968=AXIS2_PLACEMENT_3D('',#1381,#1119,#1120);
#969=AXIS2_PLACEMENT_3D('',#1390,#1125,#1126);
#970=AXIS2_PLACEMENT_3D('',#1394,#1128,#1129);
#971=AXIS2_PLACEMENT_3D('',#1398,#1131,#1132);
#972=AXIS2_PLACEMENT_3D('',#1402,#1134,#1135);
#973=AXIS2_PLACEMENT_3D('',#1406,#1137,#1138);
#974=AXIS2_PLACEMENT_3D('',#1409,#1140,#1141);
#975=AXIS2_PLACEMENT_3D('',#1410,#1142,#1143);
#976=AXIS2_PLACEMENT_3D('',#1419,#1148,#1149);
#977=AXIS2_PLACEMENT_3D('',#1426,#1154,#1155);
#978=AXIS2_PLACEMENT_3D('',#1430,#1158,#1159);
#979=AXIS2_PLACEMENT_3D('',#1439,#1164,#1165);
#980=AXIS2_PLACEMENT_3D('',#1446,#1170,#1171);
#981=AXIS2_PLACEMENT_3D('',#1450,#1174,#1175);
#982=AXIS2_PLACEMENT_3D('',#1454,#1178,#1179);
#983=AXIS2_PLACEMENT_3D('',#1458,#1182,#1183);
#984=AXIS2_PLACEMENT_3D('',#1463,#1187,#1188);
#985=AXIS2_PLACEMENT_3D('',#1469,#1192,#1193);
#986=AXIS2_PLACEMENT_3D('',#1472,#1196,#1197);
#987=AXIS2_PLACEMENT_3D('',#1475,#1200,#1201);
#988=AXIS2_PLACEMENT_3D('',#1476,#1202,#1203);
#989=AXIS2_PLACEMENT_3D('',#1477,#1204,#1205);
#990=AXIS2_PLACEMENT_3D('',#1478,#1206,#1207);
#991=AXIS2_PLACEMENT_3D('',#1479,#1208,#1209);
#992=AXIS2_PLACEMENT_3D('',#1480,#1210,#1211);
#993=AXIS2_PLACEMENT_3D('',#1481,#1212,#1213);
#994=AXIS2_PLACEMENT_3D('',#1483,#1215,#1216);
#995=AXIS2_PLACEMENT_3D('',#1487,#1219,#1220);
#996=AXIS2_PLACEMENT_3D('',#1491,#1223,#1224);
#997=AXIS2_PLACEMENT_3D('',#1495,#1227,#1228);
#998=AXIS2_PLACEMENT_3D('',#1499,#1231,#1232);
#999=AXIS2_PLACEMENT_3D('',#1505,#1236,#1237);
#1000=AXIS2_PLACEMENT_3D('',#1511,#1241,#1242);
#1001=AXIS2_PLACEMENT_3D('',#1514,#1245,#1246);
#1002=AXIS2_PLACEMENT_3D('',#1517,#1249,#1250);
#1003=AXIS2_PLACEMENT_3D('',#1519,#1252,#1253);
#1004=AXIS2_PLACEMENT_3D('',#1521,#1255,#1256);
#1005=AXIS2_PLACEMENT_3D('',#1522,#1257,#1258);
#1006=AXIS2_PLACEMENT_3D('',#1523,#1259,#1260);
#1007=AXIS2_PLACEMENT_3D('',#1525,#1262,#1263);
#1008=AXIS2_PLACEMENT_3D('',#1527,#1265,#1266);
#1009=AXIS2_PLACEMENT_3D('',#1528,#1267,#1268);
#1010=AXIS2_PLACEMENT_3D('',#1530,#1270,#1271);
#1011=AXIS2_PLACEMENT_3D('',#1532,#1273,#1274);
#1012=AXIS2_PLACEMENT_3D('',#1533,#1275,#1276);
#1013=AXIS2_PLACEMENT_3D('',#1535,#1278,#1279);
#1014=AXIS2_PLACEMENT_3D('',#1537,#1281,#1282);
#1015=DIRECTION('axis',(0.,0.,1.));
#1016=DIRECTION('refdir',(1.,0.,0.));
#1017=DIRECTION('center_axis',(0.,1.,0.));
#1018=DIRECTION('ref_axis',(0.707106781186547,0.,0.707106781186548));
#1019=DIRECTION('center_axis',(0.,1.,0.));
#1020=DIRECTION('ref_axis',(0.,0.,1.));
#1021=DIRECTION('',(0.,1.,0.));
#1022=DIRECTION('center_axis',(0.,-1.,0.));
#1023=DIRECTION('ref_axis',(1.,0.,0.));
#1024=DIRECTION('',(0.,-1.,0.));
#1025=DIRECTION('center_axis',(-1.,0.,0.));
#1026=DIRECTION('ref_axis',(0.,0.707106781186547,0.707106781186548));
#1027=DIRECTION('center_axis',(-1.,0.,0.));
#1028=DIRECTION('ref_axis',(0.,0.,1.));
#1029=DIRECTION('',(-1.,0.,0.));
#1030=DIRECTION('center_axis',(1.,0.,0.));
#1031=DIRECTION('ref_axis',(0.,1.,0.));
#1032=DIRECTION('',(1.,0.,0.));
#1033=DIRECTION('center_axis',(0.408248290463863,-0.816496580927726,0.408248290463863));
#1034=DIRECTION('ref_axis',(0.577350269189626,0.577350269189626,0.577350269189626));
#1035=DIRECTION('center_axis',(0.,0.,1.));
#1036=DIRECTION('ref_axis',(1.,0.,0.));
#1037=DIRECTION('center_axis',(0.,-1.,0.));
#1038=DIRECTION('ref_axis',(-0.707106781186547,0.,0.707106781186548));
#1039=DIRECTION('center_axis',(0.,-1.,0.));
#1040=DIRECTION('ref_axis',(0.,0.,1.));
#1041=DIRECTION('',(0.,-1.,0.));
#1042=DIRECTION('center_axis',(0.,1.,0.));
#1043=DIRECTION('ref_axis',(-1.,0.,0.));
#1044=DIRECTION('',(0.,1.,0.));
#1045=DIRECTION('center_axis',(-0.408248290463863,-0.816496580927726,0.408248290463863));
#1046=DIRECTION('ref_axis',(-0.577350269189626,0.577350269189626,0.577350269189626));
#1047=DIRECTION('center_axis',(0.,0.,1.));
#1048=DIRECTION('ref_axis',(0.,1.,0.));
#1049=DIRECTION('center_axis',(1.,-1.70803542250024E-16,0.));
#1050=DIRECTION('ref_axis',(0.,-0.707106781186547,0.707106781186548));
#1051=DIRECTION('center_axis',(1.,0.,0.));
#1052=DIRECTION('ref_axis',(0.,0.,1.));
#1053=DIRECTION('',(1.,-1.70803542250024E-16,0.));
#1054=DIRECTION('center_axis',(-1.,0.,0.));
#1055=DIRECTION('ref_axis',(0.,-1.,0.));
#1056=DIRECTION('',(-1.,1.70803542250024E-16,0.));
#1057=DIRECTION('center_axis',(0.408248290463863,-0.816496580927726,-0.408248290463863));
#1058=DIRECTION('ref_axis',(-0.577350269189626,-0.577350269189626,0.577350269189626));
#1059=DIRECTION('center_axis',(0.,0.,1.));
#1060=DIRECTION('ref_axis',(-1.,0.,0.));
#1061=DIRECTION('center_axis',(-0.816496580927725,-0.408248290463865,0.408248290463862));
#1062=DIRECTION('ref_axis',(0.577350269189626,-0.577350269189627,0.577350269189624));
#1063=DIRECTION('center_axis',(0.,0.,1.));
#1064=DIRECTION('ref_axis',(1.11022302462515E-15,-1.,0.));
#1065=DIRECTION('center_axis',(0.,0.,1.));
#1066=DIRECTION('ref_axis',(1.,0.,0.));
#1067=DIRECTION('',(0.,0.,1.));
#1068=DIRECTION('center_axis',(0.,0.,-1.));
#1069=DIRECTION('ref_axis',(1.,0.,0.));
#1070=DIRECTION('',(0.,0.,1.));
#1071=DIRECTION('center_axis',(1.,0.,0.));
#1072=DIRECTION('ref_axis',(0.,1.,0.));
#1073=DIRECTION('',(0.,0.,1.));
#1074=DIRECTION('',(0.,-1.,0.));
#1075=DIRECTION('center_axis',(0.,0.,1.));
#1076=DIRECTION('ref_axis',(1.11022302462515E-15,-1.,0.));
#1077=DIRECTION('',(0.,0.,1.));
#1078=DIRECTION('center_axis',(0.,0.,-1.));
#1079=DIRECTION('ref_axis',(1.11022302462515E-15,-1.,0.));
#1080=DIRECTION('center_axis',(-1.70803542250024E-16,-1.,0.));
#1081=DIRECTION('ref_axis',(1.,-1.70803542250024E-16,0.));
#1082=DIRECTION('',(0.,0.,1.));
#1083=DIRECTION('',(-1.,1.70803542250024E-16,0.));
#1084=DIRECTION('center_axis',(0.,0.,1.));
#1085=DIRECTION('ref_axis',(1.,0.,0.));
#1086=DIRECTION('center_axis',(0.,0.,1.));
#1087=DIRECTION('ref_axis',(1.,0.,0.));
#1088=DIRECTION('',(0.,1.,0.));
#1089=DIRECTION('',(1.,0.,0.));
#1090=DIRECTION('',(0.,-1.,0.));
#1091=DIRECTION('',(-1.,0.,0.));
#1092=DIRECTION('',(0.,1.,0.));
#1093=DIRECTION('',(1.,0.,0.));
#1094=DIRECTION('',(0.,-1.,0.));
#1095=DIRECTION('',(-1.,0.,0.));
#1096=DIRECTION('center_axis',(0.,0.,1.));
#1097=DIRECTION('ref_axis',(1.,0.,0.));
#1098=DIRECTION('',(0.707106781186548,8.65956056235494E-17,-0.707106781186548));
#1099=DIRECTION('center_axis',(0.,0.,-1.));
#1100=DIRECTION('ref_axis',(1.,0.,0.));
#1101=DIRECTION('center_axis',(0.,0.,1.));
#1102=DIRECTION('ref_axis',(1.,0.,0.));
#1103=DIRECTION('',(0.,0.,-1.));
#1104=DIRECTION('center_axis',(0.,0.,-1.));
#1105=DIRECTION('ref_axis',(1.,0.,0.));
#1106=DIRECTION('center_axis',(0.,0.,-1.));
#1107=DIRECTION('ref_axis',(1.,0.,0.));
#1108=DIRECTION('center_axis',(0.,0.,-1.));
#1109=DIRECTION('ref_axis',(1.,0.,0.));
#1110=DIRECTION('center_axis',(0.,0.,-1.));
#1111=DIRECTION('ref_axis',(1.,0.,0.));
#1112=DIRECTION('center_axis',(0.,0.,-1.));
#1113=DIRECTION('ref_axis',(1.,0.,0.));
#1114=DIRECTION('center_axis',(0.,0.,-1.));
#1115=DIRECTION('ref_axis',(1.,0.,0.));
#1116=DIRECTION('',(0.707106781186548,-8.65956056235494E-17,0.707106781186547));
#1117=DIRECTION('center_axis',(0.,0.,1.));
#1118=DIRECTION('ref_axis',(1.,0.,0.));
#1119=DIRECTION('center_axis',(0.,0.,1.));
#1120=DIRECTION('ref_axis',(1.,0.,0.));
#1121=DIRECTION('',(-1.,0.,0.));
#1122=DIRECTION('',(0.,1.,0.));
#1123=DIRECTION('',(1.,-1.70803542250024E-16,0.));
#1124=DIRECTION('',(0.,-1.,0.));
#1125=DIRECTION('center_axis',(0.,0.,1.));
#1126=DIRECTION('ref_axis',(1.,0.,0.));
#1127=DIRECTION('',(0.,0.,1.));
#1128=DIRECTION('center_axis',(0.,0.,1.));
#1129=DIRECTION('ref_axis',(1.,0.,0.));
#1130=DIRECTION('',(0.,0.,1.));
#1131=DIRECTION('center_axis',(0.,0.,1.));
#1132=DIRECTION('ref_axis',(1.,0.,0.));
#1133=DIRECTION('',(0.,0.,1.));
#1134=DIRECTION('center_axis',(0.,0.,1.));
#1135=DIRECTION('ref_axis',(1.,0.,0.));
#1136=DIRECTION('',(0.,0.,1.));
#1137=DIRECTION('center_axis',(0.,0.,1.));
#1138=DIRECTION('ref_axis',(1.,0.,0.));
#1139=DIRECTION('',(0.,0.,1.));
#1140=DIRECTION('center_axis',(0.,0.,1.));
#1141=DIRECTION('ref_axis',(1.,0.,0.));
#1142=DIRECTION('center_axis',(-0.707106781186548,0.,0.707106781186547));
#1143=DIRECTION('ref_axis',(0.707106781186547,0.,0.707106781186548));
#1144=DIRECTION('',(0.707106781186547,0.,0.707106781186548));
#1145=DIRECTION('',(0.,1.,0.));
#1146=DIRECTION('',(-0.707106781186547,0.,-0.707106781186548));
#1147=DIRECTION('',(0.,-1.,0.));
#1148=DIRECTION('center_axis',(0.,1.,0.));
#1149=DIRECTION('ref_axis',(-1.,0.,0.));
#1150=DIRECTION('',(-1.,0.,0.));
#1151=DIRECTION('',(-0.707106781186547,0.,0.707106781186548));
#1152=DIRECTION('',(0.,0.,1.));
#1153=DIRECTION('',(0.,0.,1.));
#1154=DIRECTION('center_axis',(0.,0.,1.));
#1155=DIRECTION('ref_axis',(1.,0.,0.));
#1156=DIRECTION('',(1.,0.,0.));
#1157=DIRECTION('',(0.,-1.,0.));
#1158=DIRECTION('center_axis',(-0.707106781186548,0.,0.707106781186547));
#1159=DIRECTION('ref_axis',(0.707106781186547,0.,0.707106781186548));
#1160=DIRECTION('',(0.707106781186547,0.,0.707106781186548));
#1161=DIRECTION('',(0.,1.,0.));
#1162=DIRECTION('',(-0.707106781186547,0.,-0.707106781186548));
#1163=DIRECTION('',(0.,-1.,0.));
#1164=DIRECTION('center_axis',(0.,1.,0.));
#1165=DIRECTION('ref_axis',(-1.,0.,0.));
#1166=DIRECTION('',(-1.,0.,0.));
#1167=DIRECTION('',(-0.707106781186547,0.,0.707106781186548));
#1168=DIRECTION('',(0.,0.,1.));
#1169=DIRECTION('',(0.,0.,1.));
#1170=DIRECTION('center_axis',(0.,0.,1.));
#1171=DIRECTION('ref_axis',(1.,0.,0.));
#1172=DIRECTION('',(1.,0.,0.));
#1173=DIRECTION('',(0.,-1.,0.));
#1174=DIRECTION('center_axis',(0.707106781186548,0.,0.707106781186547));
#1175=DIRECTION('ref_axis',(0.707106781186547,0.,-0.707106781186548));
#1176=DIRECTION('',(0.707106781186547,0.,-0.707106781186548));
#1177=DIRECTION('',(0.,1.,0.));
#1178=DIRECTION('center_axis',(0.707106781186548,0.,0.707106781186547));
#1179=DIRECTION('ref_axis',(0.707106781186547,0.,-0.707106781186548));
#1180=DIRECTION('',(0.707106781186547,0.,-0.707106781186548));
#1181=DIRECTION('',(0.,1.,0.));
#1182=DIRECTION('center_axis',(0.,0.707106781186548,-0.707106781186547));
#1183=DIRECTION('ref_axis',(-1.,0.,0.));
#1184=DIRECTION('',(0.,-0.707106781186547,-0.707106781186548));
#1185=DIRECTION('',(0.,0.707106781186547,0.707106781186548));
#1186=DIRECTION('',(1.,0.,0.));
#1187=DIRECTION('center_axis',(-0.707106781186548,0.,-0.707106781186547));
#1188=DIRECTION('ref_axis',(-0.707106781186547,0.,0.707106781186548));
#1189=DIRECTION('',(0.707106781186547,0.,-0.707106781186548));
#1190=DIRECTION('',(-0.707106781186547,0.,0.707106781186548));
#1191=DIRECTION('',(0.,1.,0.));
#1192=DIRECTION('center_axis',(-1.20776342975675E-16,-0.707106781186548,
-0.707106781186547));
#1193=DIRECTION('ref_axis',(-1.,0.,1.70803542250024E-16));
#1194=DIRECTION('',(0.,0.707106781186547,-0.707106781186548));
#1195=DIRECTION('',(0.,-0.707106781186547,0.707106781186548));
#1196=DIRECTION('center_axis',(0.707106781186548,0.,-0.707106781186547));
#1197=DIRECTION('ref_axis',(-0.707106781186547,0.,-0.707106781186548));
#1198=DIRECTION('',(-0.707106781186548,0.,-0.707106781186547));
#1199=DIRECTION('',(0.707106781186547,0.,0.707106781186548));
#1200=DIRECTION('center_axis',(0.,0.,1.));
#1201=DIRECTION('ref_axis',(1.11022302462515E-15,-1.,0.));
#1202=DIRECTION('center_axis',(0.,0.,1.));
#1203=DIRECTION('ref_axis',(-1.,0.,0.));
#1204=DIRECTION('center_axis',(0.,0.,-1.));
#1205=DIRECTION('ref_axis',(-1.,0.,0.));
#1206=DIRECTION('center_axis',(0.,0.,1.));
#1207=DIRECTION('ref_axis',(0.,1.,0.));
#1208=DIRECTION('center_axis',(0.,0.,-1.));
#1209=DIRECTION('ref_axis',(0.,1.,0.));
#1210=DIRECTION('center_axis',(0.,0.,1.));
#1211=DIRECTION('ref_axis',(1.,0.,0.));
#1212=DIRECTION('center_axis',(0.,0.,1.));
#1213=DIRECTION('ref_axis',(-1.,0.,0.));
#1214=DIRECTION('',(0.,0.,1.));
#1215=DIRECTION('center_axis',(0.,0.,1.));
#1216=DIRECTION('ref_axis',(1.,0.,0.));
#1217=DIRECTION('',(1.,-1.85037170770859E-16,0.));
#1218=DIRECTION('',(0.,-1.,0.));
#1219=DIRECTION('center_axis',(0.,0.,1.));
#1220=DIRECTION('ref_axis',(1.,0.,0.));
#1221=DIRECTION('',(0.,-1.,0.));
#1222=DIRECTION('',(-1.,0.,0.));
#1223=DIRECTION('center_axis',(0.,0.,1.));
#1224=DIRECTION('ref_axis',(1.,0.,0.));
#1225=DIRECTION('',(-1.,0.,0.));
#1226=DIRECTION('',(0.,1.,0.));
#1227=DIRECTION('center_axis',(0.,0.,1.));
#1228=DIRECTION('ref_axis',(1.,0.,0.));
#1229=DIRECTION('',(0.,1.,0.));
#1230=DIRECTION('',(1.,-1.85037170770859E-16,0.));
#1231=DIRECTION('center_axis',(0.,1.,0.));
#1232=DIRECTION('ref_axis',(-1.,0.,0.));
#1233=DIRECTION('',(0.,0.,1.));
#1234=DIRECTION('',(-1.,0.,0.));
#1235=DIRECTION('',(0.,0.,1.));
#1236=DIRECTION('center_axis',(-1.85037170770859E-16,-1.,0.));
#1237=DIRECTION('ref_axis',(1.,-1.85037170770859E-16,0.));
#1238=DIRECTION('',(0.,0.,1.));
#1239=DIRECTION('',(1.,-1.85037170770859E-16,0.));
#1240=DIRECTION('',(0.,0.,1.));
#1241=DIRECTION('center_axis',(0.,0.,-1.));
#1242=DIRECTION('ref_axis',(-1.,0.,0.));
#1243=DIRECTION('',(0.,1.,0.));
#1244=DIRECTION('',(0.,-1.,0.));
#1245=DIRECTION('center_axis',(0.,0.,-1.));
#1246=DIRECTION('ref_axis',(-1.,0.,0.));
#1247=DIRECTION('',(0.,-1.,0.));
#1248=DIRECTION('',(0.,1.,0.));
#1249=DIRECTION('center_axis',(-1.,0.,0.));
#1250=DIRECTION('ref_axis',(0.,-1.,0.));
#1251=DIRECTION('',(0.,-1.,0.));
#1252=DIRECTION('center_axis',(1.,0.,0.));
#1253=DIRECTION('ref_axis',(0.,1.,0.));
#1254=DIRECTION('',(0.,1.,0.));
#1255=DIRECTION('center_axis',(0.,0.,1.));
#1256=DIRECTION('ref_axis',(1.,0.,0.));
#1257=DIRECTION('center_axis',(0.,0.,1.));
#1258=DIRECTION('ref_axis',(1.,0.,0.));
#1259=DIRECTION('center_axis',(-1.,0.,0.));
#1260=DIRECTION('ref_axis',(0.,-1.,0.));
#1261=DIRECTION('',(0.,0.,1.));
#1262=DIRECTION('center_axis',(1.,0.,0.));
#1263=DIRECTION('ref_axis',(0.,1.,0.));
#1264=DIRECTION('',(0.,0.,1.));
#1265=DIRECTION('center_axis',(0.,-1.,0.));
#1266=DIRECTION('ref_axis',(1.,0.,0.));
#1267=DIRECTION('center_axis',(-1.,0.,0.));
#1268=DIRECTION('ref_axis',(0.,-1.,0.));
#1269=DIRECTION('',(0.,0.,1.));
#1270=DIRECTION('center_axis',(1.,0.,0.));
#1271=DIRECTION('ref_axis',(0.,1.,0.));
#1272=DIRECTION('',(0.,0.,1.));
#1273=DIRECTION('center_axis',(0.,-1.,0.));
#1274=DIRECTION('ref_axis',(1.,0.,0.));
#1275=DIRECTION('center_axis',(0.,1.,0.));
#1276=DIRECTION('ref_axis',(-1.,0.,0.));
#1277=DIRECTION('',(0.,0.,1.));
#1278=DIRECTION('center_axis',(-1.,0.,0.));
#1279=DIRECTION('ref_axis',(0.,-1.,0.));
#1280=DIRECTION('',(0.,0.,1.));
#1281=DIRECTION('center_axis',(0.,0.,1.));
#1282=DIRECTION('ref_axis',(0.,1.,0.));
#1283=CARTESIAN_POINT('',(0.,0.,0.));
#1284=CARTESIAN_POINT('Origin',(13.,-6.5,3.));
#1285=CARTESIAN_POINT('',(13.,-13.,5.));
#1286=CARTESIAN_POINT('',(15.,-13.,3.));
#1287=CARTESIAN_POINT('Origin',(13.,-13.,3.));
#1288=CARTESIAN_POINT('',(15.,13.,3.));
#1289=CARTESIAN_POINT('',(15.,-6.5,3.));
#1290=CARTESIAN_POINT('',(13.,13.,5.));
#1291=CARTESIAN_POINT('Origin',(13.,13.,3.));
#1292=CARTESIAN_POINT('',(13.,-6.5,5.));
#1293=CARTESIAN_POINT('Origin',(6.5,13.,3.));
#1294=CARTESIAN_POINT('',(13.,15.,3.));
#1295=CARTESIAN_POINT('Origin',(13.,13.,3.));
#1296=CARTESIAN_POINT('',(-13.,15.,3.));
#1297=CARTESIAN_POINT('',(6.5,15.,3.));
#1298=CARTESIAN_POINT('',(-13.,13.,5.));
#1299=CARTESIAN_POINT('Origin',(-13.,13.,3.));
#1300=CARTESIAN_POINT('',(6.5,13.,5.));
#1301=CARTESIAN_POINT('Origin',(13.,13.,3.));
#1302=CARTESIAN_POINT('Origin',(13.,13.,3.));
#1303=CARTESIAN_POINT('Origin',(-13.,6.5,3.));
#1304=CARTESIAN_POINT('',(-15.,13.,3.));
#1305=CARTESIAN_POINT('Origin',(-13.,13.,3.));
#1306=CARTESIAN_POINT('',(-15.,-13.,3.));
#1307=CARTESIAN_POINT('',(-15.,6.5,3.));
#1308=CARTESIAN_POINT('',(-13.,-13.,5.));
#1309=CARTESIAN_POINT('Origin',(-13.,-13.,3.));
#1310=CARTESIAN_POINT('',(-13.,6.5,5.));
#1311=CARTESIAN_POINT('Origin',(-13.,13.,3.));
#1312=CARTESIAN_POINT('Origin',(-13.,13.,3.));
#1313=CARTESIAN_POINT('Origin',(-6.5,-13.,3.));
#1314=CARTESIAN_POINT('',(-13.,-15.,3.));
#1315=CARTESIAN_POINT('Origin',(-13.,-13.,3.));
#1316=CARTESIAN_POINT('',(13.,-15.,3.));
#1317=CARTESIAN_POINT('',(-6.5,-15.,3.));
#1318=CARTESIAN_POINT('Origin',(13.,-13.,3.));
#1319=CARTESIAN_POINT('',(-6.5,-13.,5.));
#1320=CARTESIAN_POINT('Origin',(-13.,-13.,3.));
#1321=CARTESIAN_POINT('Origin',(-13.,-13.,3.));
#1322=CARTESIAN_POINT('Origin',(13.,-13.,3.));
#1323=CARTESIAN_POINT('Origin',(13.,-13.,3.));
#1324=CARTESIAN_POINT('Origin',(13.,13.,0.));
#1325=CARTESIAN_POINT('',(15.,13.,2.));
#1326=CARTESIAN_POINT('',(15.,13.,0.));
#1327=CARTESIAN_POINT('',(13.,15.,2.));
#1328=CARTESIAN_POINT('Origin',(13.,13.,2.));
#1329=CARTESIAN_POINT('',(13.,15.,0.));
#1330=CARTESIAN_POINT('Origin',(15.,-13.,0.));
#1331=CARTESIAN_POINT('',(15.,-13.,2.));
#1332=CARTESIAN_POINT('',(15.,-13.,0.));
#1333=CARTESIAN_POINT('',(15.,-6.5,2.));
#1334=CARTESIAN_POINT('Origin',(13.,-13.,0.));
#1335=CARTESIAN_POINT('',(13.,-15.,2.));
#1336=CARTESIAN_POINT('',(13.,-15.,0.));
#1337=CARTESIAN_POINT('Origin',(13.,-13.,2.));
#1338=CARTESIAN_POINT('Origin',(-13.,-15.,0.));
#1339=CARTESIAN_POINT('',(-13.,-15.,2.));
#1340=CARTESIAN_POINT('',(-13.,-15.,0.));
#1341=CARTESIAN_POINT('',(-6.5,-15.,2.));
#1342=CARTESIAN_POINT('Origin',(2.22044604925031E-15,-2.22044604925031E-15,
5.));
#1343=CARTESIAN_POINT('',(-3.5,-4.28626379701574E-16,5.));
#1344=CARTESIAN_POINT('Origin',(0.,0.,5.));
#1345=CARTESIAN_POINT('',(-4.,8.,5.));
#1346=CARTESIAN_POINT('',(-4.,11.,5.));
#1347=CARTESIAN_POINT('',(-4.,5.5,5.));
#1348=CARTESIAN_POINT('',(4.,11.,5.));
#1349=CARTESIAN_POINT('',(2.,11.,5.));
#1350=CARTESIAN_POINT('',(4.,8.,5.));
#1351=CARTESIAN_POINT('',(4.,4.,5.));
#1352=CARTESIAN_POINT('',(-2.,8.,5.));
#1353=CARTESIAN_POINT('',(-4.,-11.,5.));
#1354=CARTESIAN_POINT('',(-4.,-8.00000000000001,5.));
#1355=CARTESIAN_POINT('',(-4.,-4.,5.));
#1356=CARTESIAN_POINT('',(4.,-8.00000000000001,5.));
#1357=CARTESIAN_POINT('',(2.,-8.00000000000001,5.));
#1358=CARTESIAN_POINT('',(4.,-11.,5.));
#1359=CARTESIAN_POINT('',(4.,-5.5,5.));
#1360=CARTESIAN_POINT('',(-2.,-11.,5.));
#1361=CARTESIAN_POINT('Origin',(0.,0.,4.75));
#1362=CARTESIAN_POINT('',(-3.,3.67394039744206E-16,4.5));
#1363=CARTESIAN_POINT('',(-3.25,-3.9801020972289E-16,4.75));
#1364=CARTESIAN_POINT('Origin',(0.,0.,4.5));
#1365=CARTESIAN_POINT('Origin',(0.,0.,0.));
#1366=CARTESIAN_POINT('',(-3.,0.,3.4));
#1367=CARTESIAN_POINT('',(-3.,-3.67394039744206E-16,0.));
#1368=CARTESIAN_POINT('',(0.,3.,3.4));
#1369=CARTESIAN_POINT('Origin',(0.,0.,3.4));
#1370=CARTESIAN_POINT('',(3.,0.,3.4));
#1371=CARTESIAN_POINT('Origin',(0.,0.,3.4));
#1372=CARTESIAN_POINT('',(-5.55111512312578E-16,-3.,3.4));
#1373=CARTESIAN_POINT('Origin',(0.,0.,3.4));
#1374=CARTESIAN_POINT('Origin',(0.,0.,3.4));
#1375=CARTESIAN_POINT('Origin',(0.,0.,0.25));
#1376=CARTESIAN_POINT('',(-6.5,7.9602041944578E-16,0.));
#1377=CARTESIAN_POINT('Origin',(0.,0.,0.));
#1378=CARTESIAN_POINT('',(-6.,-7.34788079488412E-16,0.5));
#1379=CARTESIAN_POINT('',(-6.25,7.65404249467096E-16,0.25));
#1380=CARTESIAN_POINT('Origin',(0.,0.,0.5));
#1381=CARTESIAN_POINT('Origin',(2.22044604925031E-15,-2.22044604925031E-15,
0.));
#1382=CARTESIAN_POINT('',(13.,13.,0.));
#1383=CARTESIAN_POINT('',(-13.,13.,0.));
#1384=CARTESIAN_POINT('',(6.5,13.,0.));
#1385=CARTESIAN_POINT('',(13.,-13.,0.));
#1386=CARTESIAN_POINT('',(13.,-6.5,0.));
#1387=CARTESIAN_POINT('',(-13.,-13.,0.));
#1388=CARTESIAN_POINT('',(-6.5,-13.,0.));
#1389=CARTESIAN_POINT('',(-13.,6.5,0.));
#1390=CARTESIAN_POINT('Origin',(0.,0.,0.));
#1391=CARTESIAN_POINT('',(-6.,-7.34788079488412E-16,3.));
#1392=CARTESIAN_POINT('',(-6.,-7.34788079488412E-16,0.));
#1393=CARTESIAN_POINT('',(-3.,-5.19615242270663,3.));
#1394=CARTESIAN_POINT('Origin',(0.,0.,3.));
#1395=CARTESIAN_POINT('',(-3.,-5.19615242270663,3.2));
#1396=CARTESIAN_POINT('',(-3.,-5.19615242270663,3.));
#1397=CARTESIAN_POINT('',(3.,-5.19615242270663,3.2));
#1398=CARTESIAN_POINT('Origin',(0.,0.,3.2));
#1399=CARTESIAN_POINT('',(3.,-5.19615242270663,3.));
#1400=CARTESIAN_POINT('',(3.,-5.19615242270663,3.));
#1401=CARTESIAN_POINT('',(3.,5.19615242270663,3.));
#1402=CARTESIAN_POINT('Origin',(0.,0.,3.));
#1403=CARTESIAN_POINT('',(3.,5.19615242270663,3.2));
#1404=CARTESIAN_POINT('',(3.,5.19615242270663,3.));
#1405=CARTESIAN_POINT('',(-3.,5.19615242270663,3.2));
#1406=CARTESIAN_POINT('Origin',(0.,0.,3.2));
#1407=CARTESIAN_POINT('',(-3.,5.19615242270663,3.));
#1408=CARTESIAN_POINT('',(-3.,5.19615242270663,3.));
#1409=CARTESIAN_POINT('Origin',(0.,0.,3.));
#1410=CARTESIAN_POINT('Origin',(-3.,10.25,8.));
#1411=CARTESIAN_POINT('',(-4.,8.,7.));
#1412=CARTESIAN_POINT('',(-2.,8.,9.));
#1413=CARTESIAN_POINT('',(-4.,8.,7.));
#1414=CARTESIAN_POINT('',(-2.,11.,9.));
#1415=CARTESIAN_POINT('',(-2.,10.25,9.));
#1416=CARTESIAN_POINT('',(-4.,11.,7.));
#1417=CARTESIAN_POINT('',(-2.,11.,9.));
#1418=CARTESIAN_POINT('',(-4.,10.25,7.));
#1419=CARTESIAN_POINT('Origin',(4.,11.,5.));
#1420=CARTESIAN_POINT('',(2.,11.,9.));
#1421=CARTESIAN_POINT('',(-4.,11.,9.));
#1422=CARTESIAN_POINT('',(4.,11.,7.));
#1423=CARTESIAN_POINT('',(4.,11.,7.));
#1424=CARTESIAN_POINT('',(4.,11.,5.));
#1425=CARTESIAN_POINT('',(-4.,11.,5.));
#1426=CARTESIAN_POINT('Origin',(0.,9.5,9.));
#1427=CARTESIAN_POINT('',(2.,8.,9.));
#1428=CARTESIAN_POINT('',(4.,8.,9.));
#1429=CARTESIAN_POINT('',(2.,8.75,9.));
#1430=CARTESIAN_POINT('Origin',(-3.,-8.75000000000001,8.));
#1431=CARTESIAN_POINT('',(-4.,-11.,7.));
#1432=CARTESIAN_POINT('',(-2.,-11.,9.));
#1433=CARTESIAN_POINT('',(-4.,-11.,7.));
#1434=CARTESIAN_POINT('',(-2.,-8.00000000000001,9.));
#1435=CARTESIAN_POINT('',(-2.,-8.75000000000001,9.));
#1436=CARTESIAN_POINT('',(-4.,-8.00000000000001,7.));
#1437=CARTESIAN_POINT('',(-2.,-8.00000000000001,9.));
#1438=CARTESIAN_POINT('',(-4.,-8.75000000000001,7.));
#1439=CARTESIAN_POINT('Origin',(4.,-8.00000000000001,5.));
#1440=CARTESIAN_POINT('',(2.,-8.00000000000001,9.));
#1441=CARTESIAN_POINT('',(-4.,-8.00000000000001,9.));
#1442=CARTESIAN_POINT('',(4.,-8.00000000000001,7.));
#1443=CARTESIAN_POINT('',(4.,-8.00000000000001,7.));
#1444=CARTESIAN_POINT('',(4.,-8.00000000000001,5.));
#1445=CARTESIAN_POINT('',(-4.,-8.00000000000001,5.));
#1446=CARTESIAN_POINT('Origin',(0.,-9.50000000000001,9.));
#1447=CARTESIAN_POINT('',(2.,-11.,9.));
#1448=CARTESIAN_POINT('',(4.,-11.,9.));
#1449=CARTESIAN_POINT('',(2.,-10.25,9.));
#1450=CARTESIAN_POINT('Origin',(3.,8.75,8.));
#1451=CARTESIAN_POINT('',(4.,8.,7.));
#1452=CARTESIAN_POINT('',(2.,8.,9.));
#1453=CARTESIAN_POINT('',(4.,8.75,7.));
#1454=CARTESIAN_POINT('Origin',(3.,-10.25,8.));
#1455=CARTESIAN_POINT('',(4.,-11.,7.));
#1456=CARTESIAN_POINT('',(2.,-11.,9.));
#1457=CARTESIAN_POINT('',(4.,-10.25,7.));
#1458=CARTESIAN_POINT('Origin',(6.5,14.,1.));
#1459=CARTESIAN_POINT('',(13.,15.,2.));
#1460=CARTESIAN_POINT('',(-13.,15.,2.));
#1461=CARTESIAN_POINT('',(-13.,13.,0.));
#1462=CARTESIAN_POINT('',(6.5,15.,2.));
#1463=CARTESIAN_POINT('Origin',(-14.,6.5,1.));
#1464=CARTESIAN_POINT('',(-15.,13.,2.));
#1465=CARTESIAN_POINT('',(-15.,13.,2.));
#1466=CARTESIAN_POINT('',(-15.,-13.,2.));
#1467=CARTESIAN_POINT('',(-13.,-13.,0.));
#1468=CARTESIAN_POINT('',(-15.,6.5,2.));
#1469=CARTESIAN_POINT('Origin',(-6.5,-14.,1.));
#1470=CARTESIAN_POINT('',(-13.,-15.,2.));
#1471=CARTESIAN_POINT('',(13.,-13.,0.));
#1472=CARTESIAN_POINT('Origin',(14.,-6.5,1.));
#1473=CARTESIAN_POINT('',(15.,-13.,2.));
#1474=CARTESIAN_POINT('',(13.,13.,0.));
#1475=CARTESIAN_POINT('Origin',(13.,-13.,2.));
#1476=CARTESIAN_POINT('Origin',(-13.,-13.,2.));
#1477=CARTESIAN_POINT('Origin',(-13.,-13.,2.));
#1478=CARTESIAN_POINT('Origin',(-13.,13.,2.));
#1479=CARTESIAN_POINT('Origin',(-13.,13.,2.));
#1480=CARTESIAN_POINT('Origin',(13.,13.,2.));
#1481=CARTESIAN_POINT('Origin',(-13.,-13.,0.));
#1482=CARTESIAN_POINT('',(-15.,-13.,0.));
#1483=CARTESIAN_POINT('Origin',(0.,-5.55111512312578E-16,3.4));
#1484=CARTESIAN_POINT('',(-3.,-3.,3.4));
#1485=CARTESIAN_POINT('',(-1.5,-3.,3.4));
#1486=CARTESIAN_POINT('',(-3.,1.5,3.4));
#1487=CARTESIAN_POINT('Origin',(0.,-5.55111512312578E-16,3.4));
#1488=CARTESIAN_POINT('',(-3.,3.,3.4));
#1489=CARTESIAN_POINT('',(-3.,1.5,3.4));
#1490=CARTESIAN_POINT('',(1.5,3.,3.4));
#1491=CARTESIAN_POINT('Origin',(0.,-5.55111512312578E-16,3.4));
#1492=CARTESIAN_POINT('',(3.,3.,3.4));
#1493=CARTESIAN_POINT('',(1.5,3.,3.4));
#1494=CARTESIAN_POINT('',(3.,-1.5,3.4));
#1495=CARTESIAN_POINT('Origin',(0.,-5.55111512312578E-16,3.4));
#1496=CARTESIAN_POINT('',(3.,-3.,3.4));
#1497=CARTESIAN_POINT('',(3.,-1.5,3.4));
#1498=CARTESIAN_POINT('',(-1.5,-3.,3.4));
#1499=CARTESIAN_POINT('Origin',(3.,3.,3.2));
#1500=CARTESIAN_POINT('',(-3.,3.,3.2));
#1501=CARTESIAN_POINT('',(-3.,3.,3.2));
#1502=CARTESIAN_POINT('',(3.,3.,3.2));
#1503=CARTESIAN_POINT('',(1.5,3.,3.2));
#1504=CARTESIAN_POINT('',(3.,3.,3.2));
#1505=CARTESIAN_POINT('Origin',(-3.,-3.,3.2));
#1506=CARTESIAN_POINT('',(3.,-3.,3.2));
#1507=CARTESIAN_POINT('',(3.,-3.,3.2));
#1508=CARTESIAN_POINT('',(-3.,-3.,3.2));
#1509=CARTESIAN_POINT('',(-1.5,-3.,3.2));
#1510=CARTESIAN_POINT('',(-3.,-3.,3.2));
#1511=CARTESIAN_POINT('Origin',(-2.77555756156289E-16,0.,3.2));
#1512=CARTESIAN_POINT('',(3.,-2.59807621135332,3.2));
#1513=CARTESIAN_POINT('',(-3.,2.59807621135332,3.2));
#1514=CARTESIAN_POINT('Origin',(-2.77555756156289E-16,0.,3.2));
#1515=CARTESIAN_POINT('',(-3.,2.59807621135332,3.2));
#1516=CARTESIAN_POINT('',(3.,-2.59807621135332,3.2));
#1517=CARTESIAN_POINT('Origin',(-3.,5.19615242270663,3.));
#1518=CARTESIAN_POINT('',(-3.,2.59807621135332,3.));
#1519=CARTESIAN_POINT('Origin',(3.,-5.19615242270663,3.));
#1520=CARTESIAN_POINT('',(3.,-2.59807621135332,3.));
#1521=CARTESIAN_POINT('Origin',(0.,0.,3.));
#1522=CARTESIAN_POINT('Origin',(0.,0.,3.));
#1523=CARTESIAN_POINT('Origin',(-4.,11.,5.));
#1524=CARTESIAN_POINT('',(-4.,8.,5.));
#1525=CARTESIAN_POINT('Origin',(4.,8.,5.));
#1526=CARTESIAN_POINT('',(4.,8.,5.));
#1527=CARTESIAN_POINT('Origin',(-4.,8.,5.));
#1528=CARTESIAN_POINT('Origin',(-4.,-8.00000000000001,5.));
#1529=CARTESIAN_POINT('',(-4.,-11.,5.));
#1530=CARTESIAN_POINT('Origin',(4.,-11.,5.));
#1531=CARTESIAN_POINT('',(4.,-11.,5.));
#1532=CARTESIAN_POINT('Origin',(-4.,-11.,5.));
#1533=CARTESIAN_POINT('Origin',(13.,15.,0.));
#1534=CARTESIAN_POINT('',(-13.,15.,0.));
#1535=CARTESIAN_POINT('Origin',(-15.,13.,0.));
#1536=CARTESIAN_POINT('',(-15.,13.,0.));
#1537=CARTESIAN_POINT('Origin',(-13.,13.,0.));
#1538=UNCERTAINTY_MEASURE_WITH_UNIT(LENGTH_MEASURE(0.01),#1542,
'DISTANCE_ACCURACY_VALUE',
'Maximum model space distance between geometric entities at asserted c
onnectivities');
#1539=UNCERTAINTY_MEASURE_WITH_UNIT(LENGTH_MEASURE(0.01),#1542,
'DISTANCE_ACCURACY_VALUE',
'Maximum model space distance between geometric entities at asserted c
onnectivities');
#1540=(
GEOMETRIC_REPRESENTATION_CONTEXT(3)
GLOBAL_UNCERTAINTY_ASSIGNED_CONTEXT((#1538))
GLOBAL_UNIT_ASSIGNED_CONTEXT((#1542,#1544,#1545))
REPRESENTATION_CONTEXT('','3D')
);
#1541=(
GEOMETRIC_REPRESENTATION_CONTEXT(3)
GLOBAL_UNCERTAINTY_ASSIGNED_CONTEXT((#1539))
GLOBAL_UNIT_ASSIGNED_CONTEXT((#1542,#1544,#1545))
REPRESENTATION_CONTEXT('','3D')
);
#1542=(
LENGTH_UNIT()
NAMED_UNIT(*)
SI_UNIT(.MILLI.,.METRE.)
);
#1543=(
LENGTH_UNIT()
NAMED_UNIT(*)
SI_UNIT($,.METRE.)
);
#1544=(
NAMED_UNIT(*)
PLANE_ANGLE_UNIT()
SI_UNIT($,.RADIAN.)
);
#1545=(
NAMED_UNIT(*)
SI_UNIT($,.STERADIAN.)
SOLID_ANGLE_UNIT()
);
#1546=SHAPE_DEFINITION_REPRESENTATION(#1547,#1548);
#1547=PRODUCT_DEFINITION_SHAPE('',$,#1550);
#1548=SHAPE_REPRESENTATION('',(#929),#1540);
#1549=PRODUCT_DEFINITION_CONTEXT('part definition',#1554,'design');
#1550=PRODUCT_DEFINITION('2026-09-06-09-26-30-614','Bumper',#1551,#1549);
#1551=PRODUCT_DEFINITION_FORMATION('',$,#1556);
#1552=PRODUCT_RELATED_PRODUCT_CATEGORY('Bumper','Bumper',(#1556));
#1553=APPLICATION_PROTOCOL_DEFINITION('international standard',
'automotive_design',2009,#1554);
#1554=APPLICATION_CONTEXT(
'Core Data for Automotive Mechanical Design Process');
#1555=PRODUCT_CONTEXT('part definition',#1554,'mechanical');
#1556=PRODUCT('2026-09-06-09-26-30-614','Bumper',$,(#1555));
#1557=PRESENTATION_STYLE_ASSIGNMENT((#1558));
#1558=SURFACE_STYLE_USAGE(.BOTH.,#1559);
#1559=SURFACE_SIDE_STYLE('',(#1560));
#1560=SURFACE_STYLE_FILL_AREA(#1561);
#1561=FILL_AREA_STYLE('PETG Black',(#1562));
#1562=FILL_AREA_STYLE_COLOUR('PETG Black',#1563);
#1563=COLOUR_RGB('PETG Black',0.247058823529412,0.247058823529412,0.247058823529412);
ENDSEC;
END-ISO-10303-21;
