ISO-10303-21;
HEADER;
/* Generated by software containing ST-Developer
 * from STEP Tools, Inc. (www.steptools.com) 
 */

FILE_DESCRIPTION(
/* description */ (''),
/* implementation_level */ '2;1');

FILE_NAME(
/* name */ 'Dogbone (Nut).step',
/* time_stamp */ '2026-09-05T19:20:36+02:00',
/* author */ (''),
/* organization */ (''),
/* preprocessor_version */ 'ST-DEVELOPER v20.2',
/* originating_system */ 'Autodesk Translation Framework v15.15.0.0',
/* authorisation */ '');

FILE_SCHEMA (('AUTOMOTIVE_DESIGN { 1 0 10303 214 3 1 1 }'));
ENDSEC;

DATA;
#10=MECHANICAL_DESIGN_GEOMETRIC_PRESENTATION_REPRESENTATION('',(#13),#2081);
#11=SHAPE_REPRESENTATION_RELATIONSHIP('SRR','None',#2088,#12);
#12=ADVANCED_BREP_SHAPE_REPRESENTATION('',(#14),#2080);
#13=STYLED_ITEM('',(#2097),#14);
#14=MANIFOLD_SOLID_BREP('Body1',#1249);
#15=CYLINDRICAL_SURFACE('',#1274,2.1);
#16=CYLINDRICAL_SURFACE('',#1282,2.1);
#17=CYLINDRICAL_SURFACE('',#1325,5.99999999999999);
#18=CYLINDRICAL_SURFACE('',#1328,5.99999999999998);
#19=CYLINDRICAL_SURFACE('',#1330,7.49999999999999);
#20=CYLINDRICAL_SURFACE('',#1343,7.49999999999757);
#21=CYLINDRICAL_SURFACE('',#1344,6.);
#22=CYLINDRICAL_SURFACE('',#1370,6.00000000000002);
#23=FACE_BOUND('',#151,.T.);
#24=FACE_BOUND('',#152,.T.);
#25=FACE_BOUND('',#166,.T.);
#26=FACE_BOUND('',#167,.T.);
#27=PLANE('',#1266);
#28=PLANE('',#1286);
#29=PLANE('',#1287);
#30=PLANE('',#1288);
#31=PLANE('',#1289);
#32=PLANE('',#1290);
#33=PLANE('',#1291);
#34=PLANE('',#1292);
#35=PLANE('',#1293);
#36=PLANE('',#1294);
#37=PLANE('',#1295);
#38=PLANE('',#1302);
#39=PLANE('',#1303);
#40=PLANE('',#1304);
#41=PLANE('',#1305);
#42=PLANE('',#1306);
#43=PLANE('',#1307);
#44=PLANE('',#1308);
#45=PLANE('',#1309);
#46=PLANE('',#1310);
#47=PLANE('',#1315);
#48=PLANE('',#1322);
#49=PLANE('',#1327);
#50=PLANE('',#1332);
#51=PLANE('',#1338);
#52=PLANE('',#1345);
#53=PLANE('',#1346);
#54=PLANE('',#1347);
#55=PLANE('',#1348);
#56=PLANE('',#1349);
#57=PLANE('',#1350);
#58=PLANE('',#1351);
#59=PLANE('',#1352);
#60=PLANE('',#1353);
#61=PLANE('',#1354);
#62=PLANE('',#1355);
#63=PLANE('',#1356);
#64=PLANE('',#1357);
#65=PLANE('',#1358);
#66=PLANE('',#1359);
#67=PLANE('',#1360);
#68=PLANE('',#1361);
#69=PLANE('',#1362);
#70=PLANE('',#1363);
#71=PLANE('',#1364);
#72=PLANE('',#1365);
#73=PLANE('',#1366);
#74=PLANE('',#1367);
#75=PLANE('',#1368);
#76=PLANE('',#1369);
#77=FACE_OUTER_BOUND('',#149,.T.);
#78=FACE_OUTER_BOUND('',#150,.T.);
#79=FACE_OUTER_BOUND('',#153,.T.);
#80=FACE_OUTER_BOUND('',#154,.T.);
#81=FACE_OUTER_BOUND('',#155,.T.);
#82=FACE_OUTER_BOUND('',#156,.T.);
#83=FACE_OUTER_BOUND('',#157,.T.);
#84=FACE_OUTER_BOUND('',#158,.T.);
#85=FACE_OUTER_BOUND('',#159,.T.);
#86=FACE_OUTER_BOUND('',#160,.T.);
#87=FACE_OUTER_BOUND('',#161,.T.);
#88=FACE_OUTER_BOUND('',#162,.T.);
#89=FACE_OUTER_BOUND('',#163,.T.);
#90=FACE_OUTER_BOUND('',#164,.T.);
#91=FACE_OUTER_BOUND('',#165,.T.);
#92=FACE_OUTER_BOUND('',#168,.T.);
#93=FACE_OUTER_BOUND('',#169,.T.);
#94=FACE_OUTER_BOUND('',#170,.T.);
#95=FACE_OUTER_BOUND('',#171,.T.);
#96=FACE_OUTER_BOUND('',#172,.T.);
#97=FACE_OUTER_BOUND('',#173,.T.);
#98=FACE_OUTER_BOUND('',#174,.T.);
#99=FACE_OUTER_BOUND('',#175,.T.);
#100=FACE_OUTER_BOUND('',#176,.T.);
#101=FACE_OUTER_BOUND('',#177,.T.);
#102=FACE_OUTER_BOUND('',#178,.T.);
#103=FACE_OUTER_BOUND('',#179,.T.);
#104=FACE_OUTER_BOUND('',#180,.T.);
#105=FACE_OUTER_BOUND('',#181,.T.);
#106=FACE_OUTER_BOUND('',#182,.T.);
#107=FACE_OUTER_BOUND('',#183,.T.);
#108=FACE_OUTER_BOUND('',#184,.T.);
#109=FACE_OUTER_BOUND('',#185,.T.);
#110=FACE_OUTER_BOUND('',#186,.T.);
#111=FACE_OUTER_BOUND('',#187,.T.);
#112=FACE_OUTER_BOUND('',#188,.T.);
#113=FACE_OUTER_BOUND('',#189,.T.);
#114=FACE_OUTER_BOUND('',#190,.T.);
#115=FACE_OUTER_BOUND('',#191,.T.);
#116=FACE_OUTER_BOUND('',#192,.T.);
#117=FACE_OUTER_BOUND('',#193,.T.);
#118=FACE_OUTER_BOUND('',#194,.T.);
#119=FACE_OUTER_BOUND('',#195,.T.);
#120=FACE_OUTER_BOUND('',#196,.T.);
#121=FACE_OUTER_BOUND('',#197,.T.);
#122=FACE_OUTER_BOUND('',#198,.T.);
#123=FACE_OUTER_BOUND('',#199,.T.);
#124=FACE_OUTER_BOUND('',#200,.T.);
#125=FACE_OUTER_BOUND('',#201,.T.);
#126=FACE_OUTER_BOUND('',#202,.T.);
#127=FACE_OUTER_BOUND('',#203,.T.);
#128=FACE_OUTER_BOUND('',#204,.T.);
#129=FACE_OUTER_BOUND('',#205,.T.);
#130=FACE_OUTER_BOUND('',#206,.T.);
#131=FACE_OUTER_BOUND('',#207,.T.);
#132=FACE_OUTER_BOUND('',#208,.T.);
#133=FACE_OUTER_BOUND('',#209,.T.);
#134=FACE_OUTER_BOUND('',#210,.T.);
#135=FACE_OUTER_BOUND('',#211,.T.);
#136=FACE_OUTER_BOUND('',#212,.T.);
#137=FACE_OUTER_BOUND('',#213,.T.);
#138=FACE_OUTER_BOUND('',#214,.T.);
#139=FACE_OUTER_BOUND('',#215,.T.);
#140=FACE_OUTER_BOUND('',#216,.T.);
#141=FACE_OUTER_BOUND('',#217,.T.);
#142=FACE_OUTER_BOUND('',#218,.T.);
#143=FACE_OUTER_BOUND('',#219,.T.);
#144=FACE_OUTER_BOUND('',#220,.T.);
#145=FACE_OUTER_BOUND('',#221,.T.);
#146=FACE_OUTER_BOUND('',#222,.T.);
#147=FACE_OUTER_BOUND('',#223,.T.);
#148=FACE_OUTER_BOUND('',#224,.T.);
#149=EDGE_LOOP('',(#815,#816,#817,#818));
#150=EDGE_LOOP('',(#819,#820,#821,#822,#823,#824,#825,#826));
#151=EDGE_LOOP('',(#827));
#152=EDGE_LOOP('',(#828));
#153=EDGE_LOOP('',(#829,#830,#831,#832,#833,#834,#835,#836));
#154=EDGE_LOOP('',(#837,#838,#839,#840));
#155=EDGE_LOOP('',(#841,#842,#843,#844,#845,#846));
#156=EDGE_LOOP('',(#847,#848,#849,#850));
#157=EDGE_LOOP('',(#851,#852,#853,#854));
#158=EDGE_LOOP('',(#855,#856,#857,#858));
#159=EDGE_LOOP('',(#859,#860,#861,#862));
#160=EDGE_LOOP('',(#863,#864,#865,#866));
#161=EDGE_LOOP('',(#867,#868,#869,#870));
#162=EDGE_LOOP('',(#871,#872,#873,#874));
#163=EDGE_LOOP('',(#875,#876,#877,#878,#879,#880));
#164=EDGE_LOOP('',(#881,#882,#883,#884,#885,#886));
#165=EDGE_LOOP('',(#887,#888,#889,#890,#891,#892,#893,#894));
#166=EDGE_LOOP('',(#895,#896,#897,#898,#899,#900));
#167=EDGE_LOOP('',(#901,#902,#903,#904,#905,#906));
#168=EDGE_LOOP('',(#907,#908,#909,#910));
#169=EDGE_LOOP('',(#911,#912,#913,#914));
#170=EDGE_LOOP('',(#915,#916,#917,#918));
#171=EDGE_LOOP('',(#919,#920,#921,#922));
#172=EDGE_LOOP('',(#923,#924,#925,#926));
#173=EDGE_LOOP('',(#927,#928,#929,#930));
#174=EDGE_LOOP('',(#931,#932,#933,#934,#935,#936));
#175=EDGE_LOOP('',(#937,#938,#939,#940));
#176=EDGE_LOOP('',(#941,#942,#943,#944,#945,#946));
#177=EDGE_LOOP('',(#947,#948,#949,#950));
#178=EDGE_LOOP('',(#951,#952,#953,#954));
#179=EDGE_LOOP('',(#955,#956,#957,#958));
#180=EDGE_LOOP('',(#959,#960,#961,#962));
#181=EDGE_LOOP('',(#963,#964,#965,#966));
#182=EDGE_LOOP('',(#967,#968,#969,#970));
#183=EDGE_LOOP('',(#971,#972,#973,#974));
#184=EDGE_LOOP('',(#975,#976,#977,#978));
#185=EDGE_LOOP('',(#979,#980,#981,#982));
#186=EDGE_LOOP('',(#983,#984,#985,#986));
#187=EDGE_LOOP('',(#987,#988,#989,#990));
#188=EDGE_LOOP('',(#991,#992,#993,#994));
#189=EDGE_LOOP('',(#995,#996,#997,#998));
#190=EDGE_LOOP('',(#999,#1000,#1001,#1002));
#191=EDGE_LOOP('',(#1003,#1004,#1005,#1006));
#192=EDGE_LOOP('',(#1007,#1008,#1009,#1010));
#193=EDGE_LOOP('',(#1011,#1012,#1013,#1014));
#194=EDGE_LOOP('',(#1015,#1016,#1017,#1018));
#195=EDGE_LOOP('',(#1019,#1020,#1021,#1022));
#196=EDGE_LOOP('',(#1023,#1024,#1025,#1026));
#197=EDGE_LOOP('',(#1027,#1028,#1029,#1030));
#198=EDGE_LOOP('',(#1031,#1032,#1033,#1034));
#199=EDGE_LOOP('',(#1035,#1036,#1037,#1038));
#200=EDGE_LOOP('',(#1039,#1040,#1041));
#201=EDGE_LOOP('',(#1042,#1043,#1044));
#202=EDGE_LOOP('',(#1045,#1046,#1047));
#203=EDGE_LOOP('',(#1048,#1049,#1050,#1051));
#204=EDGE_LOOP('',(#1052,#1053,#1054,#1055,#1056));
#205=EDGE_LOOP('',(#1057,#1058,#1059,#1060,#1061));
#206=EDGE_LOOP('',(#1062,#1063,#1064,#1065,#1066,#1067));
#207=EDGE_LOOP('',(#1068,#1069,#1070,#1071,#1072,#1073));
#208=EDGE_LOOP('',(#1074,#1075,#1076,#1077,#1078,#1079,#1080,#1081,#1082));
#209=EDGE_LOOP('',(#1083,#1084,#1085,#1086,#1087,#1088,#1089,#1090,#1091));
#210=EDGE_LOOP('',(#1092,#1093,#1094,#1095,#1096,#1097));
#211=EDGE_LOOP('',(#1098,#1099,#1100,#1101,#1102,#1103,#1104));
#212=EDGE_LOOP('',(#1105,#1106,#1107,#1108,#1109));
#213=EDGE_LOOP('',(#1110,#1111,#1112,#1113,#1114));
#214=EDGE_LOOP('',(#1115,#1116,#1117));
#215=EDGE_LOOP('',(#1118,#1119,#1120));
#216=EDGE_LOOP('',(#1121,#1122,#1123));
#217=EDGE_LOOP('',(#1124,#1125,#1126));
#218=EDGE_LOOP('',(#1127,#1128,#1129,#1130,#1131,#1132));
#219=EDGE_LOOP('',(#1133,#1134,#1135,#1136));
#220=EDGE_LOOP('',(#1137,#1138,#1139,#1140,#1141,#1142));
#221=EDGE_LOOP('',(#1143,#1144,#1145,#1146));
#222=EDGE_LOOP('',(#1147,#1148,#1149,#1150,#1151,#1152));
#223=EDGE_LOOP('',(#1153,#1154,#1155,#1156,#1157,#1158));
#224=EDGE_LOOP('',(#1159,#1160,#1161,#1162));
#225=LINE('',#1732,#363);
#226=LINE('',#1741,#364);
#227=LINE('',#1749,#365);
#228=LINE('',#1761,#366);
#229=LINE('',#1767,#367);
#230=LINE('',#1775,#368);
#231=LINE('',#1780,#369);
#232=LINE('',#1782,#370);
#233=LINE('',#1784,#371);
#234=LINE('',#1785,#372);
#235=LINE('',#1788,#373);
#236=LINE('',#1790,#374);
#237=LINE('',#1791,#375);
#238=LINE('',#1794,#376);
#239=LINE('',#1796,#377);
#240=LINE('',#1797,#378);
#241=LINE('',#1800,#379);
#242=LINE('',#1802,#380);
#243=LINE('',#1803,#381);
#244=LINE('',#1806,#382);
#245=LINE('',#1808,#383);
#246=LINE('',#1809,#384);
#247=LINE('',#1811,#385);
#248=LINE('',#1812,#386);
#249=LINE('',#1815,#387);
#250=LINE('',#1817,#388);
#251=LINE('',#1818,#389);
#252=LINE('',#1821,#390);
#253=LINE('',#1823,#391);
#254=LINE('',#1825,#392);
#255=LINE('',#1826,#393);
#256=LINE('',#1829,#394);
#257=LINE('',#1831,#395);
#258=LINE('',#1833,#396);
#259=LINE('',#1834,#397);
#260=LINE('',#1838,#398);
#261=LINE('',#1846,#399);
#262=LINE('',#1854,#400);
#263=LINE('',#1856,#401);
#264=LINE('',#1858,#402);
#265=LINE('',#1860,#403);
#266=LINE('',#1862,#404);
#267=LINE('',#1863,#405);
#268=LINE('',#1866,#406);
#269=LINE('',#1868,#407);
#270=LINE('',#1869,#408);
#271=LINE('',#1872,#409);
#272=LINE('',#1873,#410);
#273=LINE('',#1876,#411);
#274=LINE('',#1877,#412);
#275=LINE('',#1880,#413);
#276=LINE('',#1881,#414);
#277=LINE('',#1884,#415);
#278=LINE('',#1885,#416);
#279=LINE('',#1887,#417);
#280=LINE('',#1890,#418);
#281=LINE('',#1892,#419);
#282=LINE('',#1894,#420);
#283=LINE('',#1896,#421);
#284=LINE('',#1897,#422);
#285=LINE('',#1900,#423);
#286=LINE('',#1901,#424);
#287=LINE('',#1904,#425);
#288=LINE('',#1906,#426);
#289=LINE('',#1908,#427);
#290=LINE('',#1909,#428);
#291=LINE('',#1912,#429);
#292=LINE('',#1914,#430);
#293=LINE('',#1919,#431);
#294=LINE('',#1922,#432);
#295=LINE('',#1923,#433);
#296=LINE('',#1927,#434);
#297=LINE('',#1930,#435);
#298=LINE('',#1935,#436);
#299=LINE('',#1938,#437);
#300=LINE('',#1939,#438);
#301=LINE('',#1944,#439);
#302=LINE('',#1947,#440);
#303=LINE('',#1950,#441);
#304=LINE('',#1951,#442);
#305=LINE('',#1954,#443);
#306=LINE('',#1958,#444);
#307=LINE('',#1962,#445);
#308=LINE('',#1964,#446);
#309=LINE('',#1965,#447);
#310=LINE('',#1968,#448);
#311=LINE('',#1971,#449);
#312=LINE('',#1974,#450);
#313=LINE('',#1976,#451);
#314=LINE('',#1978,#452);
#315=LINE('',#1980,#453);
#316=LINE('',#1984,#454);
#317=LINE('',#1986,#455);
#318=LINE('',#1988,#456);
#319=LINE('',#1991,#457);
#320=LINE('',#1992,#458);
#321=LINE('',#1995,#459);
#322=LINE('',#1996,#460);
#323=LINE('',#1999,#461);
#324=LINE('',#2000,#462);
#325=LINE('',#2003,#463);
#326=LINE('',#2004,#464);
#327=LINE('',#2008,#465);
#328=LINE('',#2009,#466);
#329=LINE('',#2010,#467);
#330=LINE('',#2014,#468);
#331=LINE('',#2015,#469);
#332=LINE('',#2016,#470);
#333=LINE('',#2019,#471);
#334=LINE('',#2021,#472);
#335=LINE('',#2023,#473);
#336=LINE('',#2025,#474);
#337=LINE('',#2026,#475);
#338=LINE('',#2028,#476);
#339=LINE('',#2029,#477);
#340=LINE('',#2032,#478);
#341=LINE('',#2033,#479);
#342=LINE('',#2036,#480);
#343=LINE('',#2037,#481);
#344=LINE('',#2039,#482);
#345=LINE('',#2041,#483);
#346=LINE('',#2043,#484);
#347=LINE('',#2044,#485);
#348=LINE('',#2047,#486);
#349=LINE('',#2048,#487);
#350=LINE('',#2049,#488);
#351=LINE('',#2053,#489);
#352=LINE('',#2054,#490);
#353=LINE('',#2055,#491);
#354=LINE('',#2057,#492);
#355=LINE('',#2059,#493);
#356=LINE('',#2061,#494);
#357=LINE('',#2065,#495);
#358=LINE('',#2066,#496);
#359=LINE('',#2068,#497);
#360=LINE('',#2070,#498);
#361=LINE('',#2073,#499);
#362=LINE('',#2075,#500);
#363=VECTOR('',#1377,2.35);
#364=VECTOR('',#1386,10.);
#365=VECTOR('',#1393,10.);
#366=VECTOR('',#1406,2.1);
#367=VECTOR('',#1413,2.35);
#368=VECTOR('',#1422,2.1);
#369=VECTOR('',#1427,10.);
#370=VECTOR('',#1428,10.);
#371=VECTOR('',#1429,10.);
#372=VECTOR('',#1430,10.);
#373=VECTOR('',#1433,10.);
#374=VECTOR('',#1434,10.);
#375=VECTOR('',#1435,10.);
#376=VECTOR('',#1438,10.);
#377=VECTOR('',#1439,10.);
#378=VECTOR('',#1440,10.);
#379=VECTOR('',#1443,10.);
#380=VECTOR('',#1444,10.);
#381=VECTOR('',#1445,10.);
#382=VECTOR('',#1448,10.);
#383=VECTOR('',#1449,10.);
#384=VECTOR('',#1450,10.);
#385=VECTOR('',#1453,10.);
#386=VECTOR('',#1454,10.);
#387=VECTOR('',#1457,10.);
#388=VECTOR('',#1458,10.);
#389=VECTOR('',#1459,10.);
#390=VECTOR('',#1462,10.);
#391=VECTOR('',#1463,10.);
#392=VECTOR('',#1464,10.);
#393=VECTOR('',#1465,10.);
#394=VECTOR('',#1468,10.);
#395=VECTOR('',#1469,10.);
#396=VECTOR('',#1470,10.);
#397=VECTOR('',#1471,10.);
#398=VECTOR('',#1474,10.);
#399=VECTOR('',#1481,10.);
#400=VECTOR('',#1488,10.);
#401=VECTOR('',#1489,10.);
#402=VECTOR('',#1490,10.);
#403=VECTOR('',#1491,10.);
#404=VECTOR('',#1492,10.);
#405=VECTOR('',#1493,10.);
#406=VECTOR('',#1496,10.);
#407=VECTOR('',#1497,10.);
#408=VECTOR('',#1498,10.);
#409=VECTOR('',#1501,10.);
#410=VECTOR('',#1502,10.);
#411=VECTOR('',#1505,10.);
#412=VECTOR('',#1506,10.);
#413=VECTOR('',#1509,10.);
#414=VECTOR('',#1510,10.);
#415=VECTOR('',#1513,10.);
#416=VECTOR('',#1514,10.);
#417=VECTOR('',#1517,10.);
#418=VECTOR('',#1520,10.);
#419=VECTOR('',#1521,10.);
#420=VECTOR('',#1522,10.);
#421=VECTOR('',#1523,10.);
#422=VECTOR('',#1524,10.);
#423=VECTOR('',#1527,10.);
#424=VECTOR('',#1528,10.);
#425=VECTOR('',#1531,10.);
#426=VECTOR('',#1532,10.);
#427=VECTOR('',#1533,10.);
#428=VECTOR('',#1534,10.);
#429=VECTOR('',#1537,10.);
#430=VECTOR('',#1538,10.);
#431=VECTOR('',#1545,10.);
#432=VECTOR('',#1548,10.);
#433=VECTOR('',#1549,10.);
#434=VECTOR('',#1554,10.);
#435=VECTOR('',#1557,10.);
#436=VECTOR('',#1564,10.);
#437=VECTOR('',#1567,10.);
#438=VECTOR('',#1568,10.);
#439=VECTOR('',#1575,10.);
#440=VECTOR('',#1578,10.);
#441=VECTOR('',#1581,10.);
#442=VECTOR('',#1582,10.);
#443=VECTOR('',#1585,10.);
#444=VECTOR('',#1590,10.);
#445=VECTOR('',#1595,10.);
#446=VECTOR('',#1596,10.);
#447=VECTOR('',#1597,10.);
#448=VECTOR('',#1600,10.);
#449=VECTOR('',#1605,10.);
#450=VECTOR('',#1610,10.);
#451=VECTOR('',#1613,10.);
#452=VECTOR('',#1616,10.);
#453=VECTOR('',#1619,10.);
#454=VECTOR('',#1626,10.);
#455=VECTOR('',#1629,10.);
#456=VECTOR('',#1632,10.);
#457=VECTOR('',#1635,10.);
#458=VECTOR('',#1636,10.);
#459=VECTOR('',#1639,10.);
#460=VECTOR('',#1640,10.);
#461=VECTOR('',#1643,10.);
#462=VECTOR('',#1644,10.);
#463=VECTOR('',#1647,10.);
#464=VECTOR('',#1648,10.);
#465=VECTOR('',#1651,10.);
#466=VECTOR('',#1652,10.);
#467=VECTOR('',#1653,10.);
#468=VECTOR('',#1656,10.);
#469=VECTOR('',#1657,10.);
#470=VECTOR('',#1658,10.);
#471=VECTOR('',#1661,10.);
#472=VECTOR('',#1662,10.);
#473=VECTOR('',#1663,10.);
#474=VECTOR('',#1664,10.);
#475=VECTOR('',#1665,10.);
#476=VECTOR('',#1668,10.);
#477=VECTOR('',#1669,10.);
#478=VECTOR('',#1672,10.);
#479=VECTOR('',#1673,10.);
#480=VECTOR('',#1676,10.);
#481=VECTOR('',#1677,10.);
#482=VECTOR('',#1680,10.);
#483=VECTOR('',#1681,10.);
#484=VECTOR('',#1682,10.);
#485=VECTOR('',#1683,10.);
#486=VECTOR('',#1686,10.);
#487=VECTOR('',#1687,10.);
#488=VECTOR('',#1688,10.);
#489=VECTOR('',#1691,10.);
#490=VECTOR('',#1692,10.);
#491=VECTOR('',#1693,10.);
#492=VECTOR('',#1696,10.);
#493=VECTOR('',#1699,10.);
#494=VECTOR('',#1702,10.);
#495=VECTOR('',#1707,10.);
#496=VECTOR('',#1708,10.);
#497=VECTOR('',#1711,10.);
#498=VECTOR('',#1714,10.);
#499=VECTOR('',#1719,10.);
#500=VECTOR('',#1722,10.);
#501=CIRCLE('',#1264,2.6);
#502=CIRCLE('',#1265,2.1);
#503=CIRCLE('',#1267,6.49999999999999);
#504=CIRCLE('',#1268,6.99999999999999);
#505=CIRCLE('',#1269,6.99999999999998);
#506=CIRCLE('',#1270,6.49999999999757);
#507=CIRCLE('',#1271,7.);
#508=CIRCLE('',#1272,7.00000000000002);
#509=CIRCLE('',#1273,2.6);
#510=CIRCLE('',#1275,2.1);
#511=CIRCLE('',#1276,2.1);
#512=CIRCLE('',#1277,2.1);
#513=CIRCLE('',#1278,2.1);
#514=CIRCLE('',#1279,2.1);
#515=CIRCLE('',#1281,2.1);
#516=CIRCLE('',#1283,2.1);
#517=CIRCLE('',#1284,2.1);
#518=CIRCLE('',#1285,2.1);
#519=CIRCLE('',#1296,7.);
#520=CIRCLE('',#1297,6.49999999999757);
#521=CIRCLE('',#1298,6.99999999999998);
#522=CIRCLE('',#1299,6.99999999999999);
#523=CIRCLE('',#1300,6.49999999999999);
#524=CIRCLE('',#1301,7.00000000000002);
#525=CIRCLE('',#1312,7.49999999999999);
#526=CIRCLE('',#1314,5.99999999999998);
#527=CIRCLE('',#1317,5.99999999999999);
#528=CIRCLE('',#1319,7.49999999999757);
#529=CIRCLE('',#1321,6.);
#530=CIRCLE('',#1324,6.00000000000002);
#531=CIRCLE('',#1326,5.99999999999999);
#532=CIRCLE('',#1329,5.99999999999998);
#533=CIRCLE('',#1331,7.49999999999999);
#534=CIRCLE('',#1334,6.);
#535=CIRCLE('',#1336,7.49999999999757);
#536=CIRCLE('',#1342,6.00000000000002);
#537=VERTEX_POINT('',#1729);
#538=VERTEX_POINT('',#1731);
#539=VERTEX_POINT('',#1735);
#540=VERTEX_POINT('',#1736);
#541=VERTEX_POINT('',#1738);
#542=VERTEX_POINT('',#1740);
#543=VERTEX_POINT('',#1742);
#544=VERTEX_POINT('',#1744);
#545=VERTEX_POINT('',#1746);
#546=VERTEX_POINT('',#1748);
#547=VERTEX_POINT('',#1751);
#548=VERTEX_POINT('',#1754);
#549=VERTEX_POINT('',#1755);
#550=VERTEX_POINT('',#1757);
#551=VERTEX_POINT('',#1759);
#552=VERTEX_POINT('',#1762);
#553=VERTEX_POINT('',#1766);
#554=VERTEX_POINT('',#1770);
#555=VERTEX_POINT('',#1771);
#556=VERTEX_POINT('',#1773);
#557=VERTEX_POINT('',#1778);
#558=VERTEX_POINT('',#1779);
#559=VERTEX_POINT('',#1781);
#560=VERTEX_POINT('',#1783);
#561=VERTEX_POINT('',#1787);
#562=VERTEX_POINT('',#1789);
#563=VERTEX_POINT('',#1793);
#564=VERTEX_POINT('',#1795);
#565=VERTEX_POINT('',#1799);
#566=VERTEX_POINT('',#1801);
#567=VERTEX_POINT('',#1805);
#568=VERTEX_POINT('',#1807);
#569=VERTEX_POINT('',#1814);
#570=VERTEX_POINT('',#1816);
#571=VERTEX_POINT('',#1820);
#572=VERTEX_POINT('',#1822);
#573=VERTEX_POINT('',#1824);
#574=VERTEX_POINT('',#1828);
#575=VERTEX_POINT('',#1830);
#576=VERTEX_POINT('',#1832);
#577=VERTEX_POINT('',#1836);
#578=VERTEX_POINT('',#1837);
#579=VERTEX_POINT('',#1839);
#580=VERTEX_POINT('',#1841);
#581=VERTEX_POINT('',#1843);
#582=VERTEX_POINT('',#1845);
#583=VERTEX_POINT('',#1847);
#584=VERTEX_POINT('',#1849);
#585=VERTEX_POINT('',#1852);
#586=VERTEX_POINT('',#1853);
#587=VERTEX_POINT('',#1855);
#588=VERTEX_POINT('',#1857);
#589=VERTEX_POINT('',#1859);
#590=VERTEX_POINT('',#1861);
#591=VERTEX_POINT('',#1865);
#592=VERTEX_POINT('',#1867);
#593=VERTEX_POINT('',#1871);
#594=VERTEX_POINT('',#1875);
#595=VERTEX_POINT('',#1879);
#596=VERTEX_POINT('',#1883);
#597=VERTEX_POINT('',#1889);
#598=VERTEX_POINT('',#1891);
#599=VERTEX_POINT('',#1893);
#600=VERTEX_POINT('',#1895);
#601=VERTEX_POINT('',#1899);
#602=VERTEX_POINT('',#1903);
#603=VERTEX_POINT('',#1905);
#604=VERTEX_POINT('',#1907);
#605=VERTEX_POINT('',#1911);
#606=VERTEX_POINT('',#1913);
#607=VERTEX_POINT('',#1917);
#608=VERTEX_POINT('',#1921);
#609=VERTEX_POINT('',#1925);
#610=VERTEX_POINT('',#1929);
#611=VERTEX_POINT('',#1933);
#612=VERTEX_POINT('',#1937);
#613=VERTEX_POINT('',#1943);
#614=VERTEX_POINT('',#1945);
#615=VERTEX_POINT('',#1949);
#616=VERTEX_POINT('',#1953);
#617=VERTEX_POINT('',#1957);
#618=VERTEX_POINT('',#1961);
#619=VERTEX_POINT('',#1963);
#620=VERTEX_POINT('',#1967);
#621=VERTEX_POINT('',#1990);
#622=VERTEX_POINT('',#1994);
#623=VERTEX_POINT('',#1998);
#624=VERTEX_POINT('',#2002);
#625=VERTEX_POINT('',#2006);
#626=VERTEX_POINT('',#2007);
#627=VERTEX_POINT('',#2012);
#628=VERTEX_POINT('',#2013);
#629=VERTEX_POINT('',#2018);
#630=VERTEX_POINT('',#2020);
#631=VERTEX_POINT('',#2022);
#632=VERTEX_POINT('',#2024);
#633=VERTEX_POINT('',#2031);
#634=VERTEX_POINT('',#2035);
#635=VERTEX_POINT('',#2040);
#636=VERTEX_POINT('',#2042);
#637=VERTEX_POINT('',#2046);
#638=VERTEX_POINT('',#2051);
#639=VERTEX_POINT('',#2052);
#640=VERTEX_POINT('',#2064);
#641=EDGE_CURVE('',#537,#537,#501,.T.);
#642=EDGE_CURVE('',#537,#538,#225,.T.);
#643=EDGE_CURVE('',#538,#538,#502,.T.);
#644=EDGE_CURVE('',#539,#540,#503,.T.);
#645=EDGE_CURVE('',#541,#539,#504,.T.);
#646=EDGE_CURVE('',#542,#541,#226,.T.);
#647=EDGE_CURVE('',#543,#542,#505,.T.);
#648=EDGE_CURVE('',#544,#543,#506,.T.);
#649=EDGE_CURVE('',#545,#544,#507,.T.);
#650=EDGE_CURVE('',#546,#545,#227,.T.);
#651=EDGE_CURVE('',#540,#546,#508,.T.);
#652=EDGE_CURVE('',#547,#547,#509,.T.);
#653=EDGE_CURVE('',#548,#549,#510,.T.);
#654=EDGE_CURVE('',#549,#550,#511,.T.);
#655=EDGE_CURVE('',#550,#551,#512,.T.);
#656=EDGE_CURVE('',#551,#538,#228,.T.);
#657=EDGE_CURVE('',#551,#552,#513,.T.);
#658=EDGE_CURVE('',#552,#548,#514,.T.);
#659=EDGE_CURVE('',#547,#553,#229,.T.);
#660=EDGE_CURVE('',#553,#553,#515,.T.);
#661=EDGE_CURVE('',#554,#555,#516,.T.);
#662=EDGE_CURVE('',#555,#556,#517,.T.);
#663=EDGE_CURVE('',#556,#553,#230,.T.);
#664=EDGE_CURVE('',#556,#554,#518,.T.);
#665=EDGE_CURVE('',#557,#558,#231,.T.);
#666=EDGE_CURVE('',#558,#559,#232,.T.);
#667=EDGE_CURVE('',#559,#560,#233,.T.);
#668=EDGE_CURVE('',#560,#557,#234,.T.);
#669=EDGE_CURVE('',#558,#561,#235,.T.);
#670=EDGE_CURVE('',#561,#562,#236,.T.);
#671=EDGE_CURVE('',#562,#559,#237,.T.);
#672=EDGE_CURVE('',#561,#563,#238,.T.);
#673=EDGE_CURVE('',#563,#564,#239,.T.);
#674=EDGE_CURVE('',#564,#562,#240,.T.);
#675=EDGE_CURVE('',#565,#564,#241,.T.);
#676=EDGE_CURVE('',#563,#566,#242,.T.);
#677=EDGE_CURVE('',#566,#565,#243,.T.);
#678=EDGE_CURVE('',#567,#565,#244,.T.);
#679=EDGE_CURVE('',#566,#568,#245,.T.);
#680=EDGE_CURVE('',#568,#567,#246,.T.);
#681=EDGE_CURVE('',#568,#557,#247,.T.);
#682=EDGE_CURVE('',#560,#567,#248,.T.);
#683=EDGE_CURVE('',#567,#569,#249,.T.);
#684=EDGE_CURVE('',#569,#570,#250,.T.);
#685=EDGE_CURVE('',#565,#570,#251,.T.);
#686=EDGE_CURVE('',#560,#571,#252,.T.);
#687=EDGE_CURVE('',#571,#572,#253,.T.);
#688=EDGE_CURVE('',#572,#573,#254,.T.);
#689=EDGE_CURVE('',#573,#569,#255,.T.);
#690=EDGE_CURVE('',#559,#574,#256,.T.);
#691=EDGE_CURVE('',#574,#575,#257,.T.);
#692=EDGE_CURVE('',#576,#575,#258,.T.);
#693=EDGE_CURVE('',#576,#571,#259,.T.);
#694=EDGE_CURVE('',#577,#578,#260,.T.);
#695=EDGE_CURVE('',#579,#577,#519,.T.);
#696=EDGE_CURVE('',#580,#579,#520,.T.);
#697=EDGE_CURVE('',#581,#580,#521,.T.);
#698=EDGE_CURVE('',#582,#581,#261,.T.);
#699=EDGE_CURVE('',#583,#582,#522,.T.);
#700=EDGE_CURVE('',#584,#583,#523,.T.);
#701=EDGE_CURVE('',#578,#584,#524,.T.);
#702=EDGE_CURVE('',#585,#586,#262,.T.);
#703=EDGE_CURVE('',#587,#585,#263,.T.);
#704=EDGE_CURVE('',#588,#587,#264,.T.);
#705=EDGE_CURVE('',#589,#588,#265,.T.);
#706=EDGE_CURVE('',#590,#589,#266,.T.);
#707=EDGE_CURVE('',#586,#590,#267,.T.);
#708=EDGE_CURVE('',#586,#591,#268,.T.);
#709=EDGE_CURVE('',#591,#592,#269,.T.);
#710=EDGE_CURVE('',#585,#592,#270,.T.);
#711=EDGE_CURVE('',#590,#593,#271,.T.);
#712=EDGE_CURVE('',#593,#591,#272,.T.);
#713=EDGE_CURVE('',#592,#594,#273,.T.);
#714=EDGE_CURVE('',#594,#587,#274,.T.);
#715=EDGE_CURVE('',#589,#595,#275,.T.);
#716=EDGE_CURVE('',#595,#593,#276,.T.);
#717=EDGE_CURVE('',#588,#596,#277,.T.);
#718=EDGE_CURVE('',#596,#595,#278,.T.);
#719=EDGE_CURVE('',#594,#596,#279,.T.);
#720=EDGE_CURVE('',#594,#597,#280,.T.);
#721=EDGE_CURVE('',#597,#598,#281,.T.);
#722=EDGE_CURVE('',#599,#598,#282,.T.);
#723=EDGE_CURVE('',#599,#600,#283,.T.);
#724=EDGE_CURVE('',#596,#600,#284,.T.);
#725=EDGE_CURVE('',#592,#601,#285,.T.);
#726=EDGE_CURVE('',#601,#597,#286,.T.);
#727=EDGE_CURVE('',#591,#602,#287,.T.);
#728=EDGE_CURVE('',#602,#603,#288,.T.);
#729=EDGE_CURVE('',#603,#604,#289,.T.);
#730=EDGE_CURVE('',#604,#601,#290,.T.);
#731=EDGE_CURVE('',#605,#539,#291,.T.);
#732=EDGE_CURVE('',#540,#606,#292,.T.);
#733=EDGE_CURVE('',#606,#605,#525,.T.);
#734=EDGE_CURVE('',#605,#607,#526,.T.);
#735=EDGE_CURVE('',#607,#541,#293,.T.);
#736=EDGE_CURVE('',#608,#542,#294,.T.);
#737=EDGE_CURVE('',#607,#608,#295,.T.);
#738=EDGE_CURVE('',#608,#609,#527,.T.);
#739=EDGE_CURVE('',#609,#543,#296,.T.);
#740=EDGE_CURVE('',#610,#544,#297,.T.);
#741=EDGE_CURVE('',#609,#610,#528,.T.);
#742=EDGE_CURVE('',#610,#611,#529,.T.);
#743=EDGE_CURVE('',#611,#545,#298,.T.);
#744=EDGE_CURVE('',#612,#546,#299,.T.);
#745=EDGE_CURVE('',#611,#612,#300,.T.);
#746=EDGE_CURVE('',#612,#606,#530,.T.);
#747=EDGE_CURVE('',#608,#613,#301,.T.);
#748=EDGE_CURVE('',#614,#613,#531,.T.);
#749=EDGE_CURVE('',#609,#614,#302,.T.);
#750=EDGE_CURVE('',#607,#615,#303,.T.);
#751=EDGE_CURVE('',#613,#615,#304,.T.);
#752=EDGE_CURVE('',#605,#616,#305,.T.);
#753=EDGE_CURVE('',#615,#616,#532,.T.);
#754=EDGE_CURVE('',#606,#617,#306,.T.);
#755=EDGE_CURVE('',#616,#617,#533,.T.);
#756=EDGE_CURVE('',#618,#577,#307,.T.);
#757=EDGE_CURVE('',#578,#619,#308,.T.);
#758=EDGE_CURVE('',#619,#618,#309,.T.);
#759=EDGE_CURVE('',#620,#579,#310,.T.);
#760=EDGE_CURVE('',#618,#620,#534,.T.);
#761=EDGE_CURVE('',#614,#580,#311,.T.);
#762=EDGE_CURVE('',#620,#614,#535,.T.);
#763=EDGE_CURVE('',#613,#581,#312,.T.);
#764=EDGE_CURVE('',#615,#582,#313,.T.);
#765=EDGE_CURVE('',#616,#583,#314,.T.);
#766=EDGE_CURVE('',#617,#584,#315,.T.);
#767=EDGE_CURVE('',#617,#619,#536,.T.);
#768=EDGE_CURVE('',#610,#620,#316,.T.);
#769=EDGE_CURVE('',#611,#618,#317,.T.);
#770=EDGE_CURVE('',#612,#619,#318,.T.);
#771=EDGE_CURVE('',#621,#552,#319,.T.);
#772=EDGE_CURVE('',#548,#621,#320,.T.);
#773=EDGE_CURVE('',#622,#548,#321,.T.);
#774=EDGE_CURVE('',#549,#622,#322,.T.);
#775=EDGE_CURVE('',#623,#549,#323,.T.);
#776=EDGE_CURVE('',#550,#623,#324,.T.);
#777=EDGE_CURVE('',#624,#550,#325,.T.);
#778=EDGE_CURVE('',#552,#624,#326,.T.);
#779=EDGE_CURVE('',#625,#626,#327,.T.);
#780=EDGE_CURVE('',#625,#622,#328,.T.);
#781=EDGE_CURVE('',#626,#621,#329,.T.);
#782=EDGE_CURVE('',#627,#628,#330,.T.);
#783=EDGE_CURVE('',#627,#624,#331,.T.);
#784=EDGE_CURVE('',#628,#623,#332,.T.);
#785=EDGE_CURVE('',#629,#628,#333,.T.);
#786=EDGE_CURVE('',#630,#629,#334,.T.);
#787=EDGE_CURVE('',#631,#630,#335,.T.);
#788=EDGE_CURVE('',#632,#631,#336,.T.);
#789=EDGE_CURVE('',#627,#632,#337,.T.);
#790=EDGE_CURVE('',#598,#626,#338,.T.);
#791=EDGE_CURVE('',#625,#604,#339,.T.);
#792=EDGE_CURVE('',#633,#603,#340,.T.);
#793=EDGE_CURVE('',#633,#629,#341,.T.);
#794=EDGE_CURVE('',#599,#634,#342,.T.);
#795=EDGE_CURVE('',#634,#632,#343,.T.);
#796=EDGE_CURVE('',#575,#554,#344,.T.);
#797=EDGE_CURVE('',#635,#574,#345,.T.);
#798=EDGE_CURVE('',#636,#635,#346,.T.);
#799=EDGE_CURVE('',#555,#636,#347,.T.);
#800=EDGE_CURVE('',#637,#555,#348,.T.);
#801=EDGE_CURVE('',#570,#637,#349,.T.);
#802=EDGE_CURVE('',#554,#573,#350,.T.);
#803=EDGE_CURVE('',#638,#639,#351,.T.);
#804=EDGE_CURVE('',#638,#637,#352,.T.);
#805=EDGE_CURVE('',#639,#636,#353,.T.);
#806=EDGE_CURVE('',#576,#572,#354,.T.);
#807=EDGE_CURVE('',#600,#634,#355,.T.);
#808=EDGE_CURVE('',#633,#602,#356,.T.);
#809=EDGE_CURVE('',#640,#639,#357,.T.);
#810=EDGE_CURVE('',#638,#640,#358,.T.);
#811=EDGE_CURVE('',#593,#630,#359,.T.);
#812=EDGE_CURVE('',#595,#631,#360,.T.);
#813=EDGE_CURVE('',#562,#635,#361,.T.);
#814=EDGE_CURVE('',#564,#640,#362,.T.);
#815=ORIENTED_EDGE('',*,*,#641,.T.);
#816=ORIENTED_EDGE('',*,*,#642,.T.);
#817=ORIENTED_EDGE('',*,*,#643,.T.);
#818=ORIENTED_EDGE('',*,*,#642,.F.);
#819=ORIENTED_EDGE('',*,*,#644,.F.);
#820=ORIENTED_EDGE('',*,*,#645,.F.);
#821=ORIENTED_EDGE('',*,*,#646,.F.);
#822=ORIENTED_EDGE('',*,*,#647,.F.);
#823=ORIENTED_EDGE('',*,*,#648,.F.);
#824=ORIENTED_EDGE('',*,*,#649,.F.);
#825=ORIENTED_EDGE('',*,*,#650,.F.);
#826=ORIENTED_EDGE('',*,*,#651,.F.);
#827=ORIENTED_EDGE('',*,*,#652,.F.);
#828=ORIENTED_EDGE('',*,*,#641,.F.);
#829=ORIENTED_EDGE('',*,*,#653,.T.);
#830=ORIENTED_EDGE('',*,*,#654,.T.);
#831=ORIENTED_EDGE('',*,*,#655,.T.);
#832=ORIENTED_EDGE('',*,*,#656,.T.);
#833=ORIENTED_EDGE('',*,*,#643,.F.);
#834=ORIENTED_EDGE('',*,*,#656,.F.);
#835=ORIENTED_EDGE('',*,*,#657,.T.);
#836=ORIENTED_EDGE('',*,*,#658,.T.);
#837=ORIENTED_EDGE('',*,*,#652,.T.);
#838=ORIENTED_EDGE('',*,*,#659,.T.);
#839=ORIENTED_EDGE('',*,*,#660,.T.);
#840=ORIENTED_EDGE('',*,*,#659,.F.);
#841=ORIENTED_EDGE('',*,*,#661,.T.);
#842=ORIENTED_EDGE('',*,*,#662,.T.);
#843=ORIENTED_EDGE('',*,*,#663,.T.);
#844=ORIENTED_EDGE('',*,*,#660,.F.);
#845=ORIENTED_EDGE('',*,*,#663,.F.);
#846=ORIENTED_EDGE('',*,*,#664,.T.);
#847=ORIENTED_EDGE('',*,*,#665,.T.);
#848=ORIENTED_EDGE('',*,*,#666,.T.);
#849=ORIENTED_EDGE('',*,*,#667,.T.);
#850=ORIENTED_EDGE('',*,*,#668,.T.);
#851=ORIENTED_EDGE('',*,*,#669,.T.);
#852=ORIENTED_EDGE('',*,*,#670,.T.);
#853=ORIENTED_EDGE('',*,*,#671,.T.);
#854=ORIENTED_EDGE('',*,*,#666,.F.);
#855=ORIENTED_EDGE('',*,*,#672,.T.);
#856=ORIENTED_EDGE('',*,*,#673,.T.);
#857=ORIENTED_EDGE('',*,*,#674,.T.);
#858=ORIENTED_EDGE('',*,*,#670,.F.);
#859=ORIENTED_EDGE('',*,*,#675,.T.);
#860=ORIENTED_EDGE('',*,*,#673,.F.);
#861=ORIENTED_EDGE('',*,*,#676,.T.);
#862=ORIENTED_EDGE('',*,*,#677,.T.);
#863=ORIENTED_EDGE('',*,*,#678,.T.);
#864=ORIENTED_EDGE('',*,*,#677,.F.);
#865=ORIENTED_EDGE('',*,*,#679,.T.);
#866=ORIENTED_EDGE('',*,*,#680,.T.);
#867=ORIENTED_EDGE('',*,*,#681,.T.);
#868=ORIENTED_EDGE('',*,*,#668,.F.);
#869=ORIENTED_EDGE('',*,*,#682,.T.);
#870=ORIENTED_EDGE('',*,*,#680,.F.);
#871=ORIENTED_EDGE('',*,*,#678,.F.);
#872=ORIENTED_EDGE('',*,*,#683,.T.);
#873=ORIENTED_EDGE('',*,*,#684,.T.);
#874=ORIENTED_EDGE('',*,*,#685,.F.);
#875=ORIENTED_EDGE('',*,*,#682,.F.);
#876=ORIENTED_EDGE('',*,*,#686,.T.);
#877=ORIENTED_EDGE('',*,*,#687,.T.);
#878=ORIENTED_EDGE('',*,*,#688,.T.);
#879=ORIENTED_EDGE('',*,*,#689,.T.);
#880=ORIENTED_EDGE('',*,*,#683,.F.);
#881=ORIENTED_EDGE('',*,*,#667,.F.);
#882=ORIENTED_EDGE('',*,*,#690,.T.);
#883=ORIENTED_EDGE('',*,*,#691,.T.);
#884=ORIENTED_EDGE('',*,*,#692,.F.);
#885=ORIENTED_EDGE('',*,*,#693,.T.);
#886=ORIENTED_EDGE('',*,*,#686,.F.);
#887=ORIENTED_EDGE('',*,*,#694,.F.);
#888=ORIENTED_EDGE('',*,*,#695,.F.);
#889=ORIENTED_EDGE('',*,*,#696,.F.);
#890=ORIENTED_EDGE('',*,*,#697,.F.);
#891=ORIENTED_EDGE('',*,*,#698,.F.);
#892=ORIENTED_EDGE('',*,*,#699,.F.);
#893=ORIENTED_EDGE('',*,*,#700,.F.);
#894=ORIENTED_EDGE('',*,*,#701,.F.);
#895=ORIENTED_EDGE('',*,*,#702,.F.);
#896=ORIENTED_EDGE('',*,*,#703,.F.);
#897=ORIENTED_EDGE('',*,*,#704,.F.);
#898=ORIENTED_EDGE('',*,*,#705,.F.);
#899=ORIENTED_EDGE('',*,*,#706,.F.);
#900=ORIENTED_EDGE('',*,*,#707,.F.);
#901=ORIENTED_EDGE('',*,*,#665,.F.);
#902=ORIENTED_EDGE('',*,*,#681,.F.);
#903=ORIENTED_EDGE('',*,*,#679,.F.);
#904=ORIENTED_EDGE('',*,*,#676,.F.);
#905=ORIENTED_EDGE('',*,*,#672,.F.);
#906=ORIENTED_EDGE('',*,*,#669,.F.);
#907=ORIENTED_EDGE('',*,*,#702,.T.);
#908=ORIENTED_EDGE('',*,*,#708,.T.);
#909=ORIENTED_EDGE('',*,*,#709,.T.);
#910=ORIENTED_EDGE('',*,*,#710,.F.);
#911=ORIENTED_EDGE('',*,*,#707,.T.);
#912=ORIENTED_EDGE('',*,*,#711,.T.);
#913=ORIENTED_EDGE('',*,*,#712,.T.);
#914=ORIENTED_EDGE('',*,*,#708,.F.);
#915=ORIENTED_EDGE('',*,*,#713,.T.);
#916=ORIENTED_EDGE('',*,*,#714,.T.);
#917=ORIENTED_EDGE('',*,*,#703,.T.);
#918=ORIENTED_EDGE('',*,*,#710,.T.);
#919=ORIENTED_EDGE('',*,*,#706,.T.);
#920=ORIENTED_EDGE('',*,*,#715,.T.);
#921=ORIENTED_EDGE('',*,*,#716,.T.);
#922=ORIENTED_EDGE('',*,*,#711,.F.);
#923=ORIENTED_EDGE('',*,*,#705,.T.);
#924=ORIENTED_EDGE('',*,*,#717,.T.);
#925=ORIENTED_EDGE('',*,*,#718,.T.);
#926=ORIENTED_EDGE('',*,*,#715,.F.);
#927=ORIENTED_EDGE('',*,*,#719,.T.);
#928=ORIENTED_EDGE('',*,*,#717,.F.);
#929=ORIENTED_EDGE('',*,*,#704,.T.);
#930=ORIENTED_EDGE('',*,*,#714,.F.);
#931=ORIENTED_EDGE('',*,*,#719,.F.);
#932=ORIENTED_EDGE('',*,*,#720,.T.);
#933=ORIENTED_EDGE('',*,*,#721,.T.);
#934=ORIENTED_EDGE('',*,*,#722,.F.);
#935=ORIENTED_EDGE('',*,*,#723,.T.);
#936=ORIENTED_EDGE('',*,*,#724,.F.);
#937=ORIENTED_EDGE('',*,*,#713,.F.);
#938=ORIENTED_EDGE('',*,*,#725,.T.);
#939=ORIENTED_EDGE('',*,*,#726,.T.);
#940=ORIENTED_EDGE('',*,*,#720,.F.);
#941=ORIENTED_EDGE('',*,*,#709,.F.);
#942=ORIENTED_EDGE('',*,*,#727,.T.);
#943=ORIENTED_EDGE('',*,*,#728,.T.);
#944=ORIENTED_EDGE('',*,*,#729,.T.);
#945=ORIENTED_EDGE('',*,*,#730,.T.);
#946=ORIENTED_EDGE('',*,*,#725,.F.);
#947=ORIENTED_EDGE('',*,*,#731,.T.);
#948=ORIENTED_EDGE('',*,*,#644,.T.);
#949=ORIENTED_EDGE('',*,*,#732,.T.);
#950=ORIENTED_EDGE('',*,*,#733,.T.);
#951=ORIENTED_EDGE('',*,*,#731,.F.);
#952=ORIENTED_EDGE('',*,*,#734,.T.);
#953=ORIENTED_EDGE('',*,*,#735,.T.);
#954=ORIENTED_EDGE('',*,*,#645,.T.);
#955=ORIENTED_EDGE('',*,*,#736,.T.);
#956=ORIENTED_EDGE('',*,*,#646,.T.);
#957=ORIENTED_EDGE('',*,*,#735,.F.);
#958=ORIENTED_EDGE('',*,*,#737,.T.);
#959=ORIENTED_EDGE('',*,*,#736,.F.);
#960=ORIENTED_EDGE('',*,*,#738,.T.);
#961=ORIENTED_EDGE('',*,*,#739,.T.);
#962=ORIENTED_EDGE('',*,*,#647,.T.);
#963=ORIENTED_EDGE('',*,*,#740,.T.);
#964=ORIENTED_EDGE('',*,*,#648,.T.);
#965=ORIENTED_EDGE('',*,*,#739,.F.);
#966=ORIENTED_EDGE('',*,*,#741,.T.);
#967=ORIENTED_EDGE('',*,*,#740,.F.);
#968=ORIENTED_EDGE('',*,*,#742,.T.);
#969=ORIENTED_EDGE('',*,*,#743,.T.);
#970=ORIENTED_EDGE('',*,*,#649,.T.);
#971=ORIENTED_EDGE('',*,*,#744,.T.);
#972=ORIENTED_EDGE('',*,*,#650,.T.);
#973=ORIENTED_EDGE('',*,*,#743,.F.);
#974=ORIENTED_EDGE('',*,*,#745,.T.);
#975=ORIENTED_EDGE('',*,*,#744,.F.);
#976=ORIENTED_EDGE('',*,*,#746,.T.);
#977=ORIENTED_EDGE('',*,*,#732,.F.);
#978=ORIENTED_EDGE('',*,*,#651,.T.);
#979=ORIENTED_EDGE('',*,*,#738,.F.);
#980=ORIENTED_EDGE('',*,*,#747,.T.);
#981=ORIENTED_EDGE('',*,*,#748,.F.);
#982=ORIENTED_EDGE('',*,*,#749,.F.);
#983=ORIENTED_EDGE('',*,*,#737,.F.);
#984=ORIENTED_EDGE('',*,*,#750,.T.);
#985=ORIENTED_EDGE('',*,*,#751,.F.);
#986=ORIENTED_EDGE('',*,*,#747,.F.);
#987=ORIENTED_EDGE('',*,*,#734,.F.);
#988=ORIENTED_EDGE('',*,*,#752,.T.);
#989=ORIENTED_EDGE('',*,*,#753,.F.);
#990=ORIENTED_EDGE('',*,*,#750,.F.);
#991=ORIENTED_EDGE('',*,*,#733,.F.);
#992=ORIENTED_EDGE('',*,*,#754,.T.);
#993=ORIENTED_EDGE('',*,*,#755,.F.);
#994=ORIENTED_EDGE('',*,*,#752,.F.);
#995=ORIENTED_EDGE('',*,*,#756,.T.);
#996=ORIENTED_EDGE('',*,*,#694,.T.);
#997=ORIENTED_EDGE('',*,*,#757,.T.);
#998=ORIENTED_EDGE('',*,*,#758,.T.);
#999=ORIENTED_EDGE('',*,*,#759,.T.);
#1000=ORIENTED_EDGE('',*,*,#695,.T.);
#1001=ORIENTED_EDGE('',*,*,#756,.F.);
#1002=ORIENTED_EDGE('',*,*,#760,.T.);
#1003=ORIENTED_EDGE('',*,*,#761,.T.);
#1004=ORIENTED_EDGE('',*,*,#696,.T.);
#1005=ORIENTED_EDGE('',*,*,#759,.F.);
#1006=ORIENTED_EDGE('',*,*,#762,.T.);
#1007=ORIENTED_EDGE('',*,*,#763,.T.);
#1008=ORIENTED_EDGE('',*,*,#697,.T.);
#1009=ORIENTED_EDGE('',*,*,#761,.F.);
#1010=ORIENTED_EDGE('',*,*,#748,.T.);
#1011=ORIENTED_EDGE('',*,*,#764,.T.);
#1012=ORIENTED_EDGE('',*,*,#698,.T.);
#1013=ORIENTED_EDGE('',*,*,#763,.F.);
#1014=ORIENTED_EDGE('',*,*,#751,.T.);
#1015=ORIENTED_EDGE('',*,*,#765,.T.);
#1016=ORIENTED_EDGE('',*,*,#699,.T.);
#1017=ORIENTED_EDGE('',*,*,#764,.F.);
#1018=ORIENTED_EDGE('',*,*,#753,.T.);
#1019=ORIENTED_EDGE('',*,*,#766,.T.);
#1020=ORIENTED_EDGE('',*,*,#700,.T.);
#1021=ORIENTED_EDGE('',*,*,#765,.F.);
#1022=ORIENTED_EDGE('',*,*,#755,.T.);
#1023=ORIENTED_EDGE('',*,*,#757,.F.);
#1024=ORIENTED_EDGE('',*,*,#701,.T.);
#1025=ORIENTED_EDGE('',*,*,#766,.F.);
#1026=ORIENTED_EDGE('',*,*,#767,.T.);
#1027=ORIENTED_EDGE('',*,*,#741,.F.);
#1028=ORIENTED_EDGE('',*,*,#749,.T.);
#1029=ORIENTED_EDGE('',*,*,#762,.F.);
#1030=ORIENTED_EDGE('',*,*,#768,.F.);
#1031=ORIENTED_EDGE('',*,*,#742,.F.);
#1032=ORIENTED_EDGE('',*,*,#768,.T.);
#1033=ORIENTED_EDGE('',*,*,#760,.F.);
#1034=ORIENTED_EDGE('',*,*,#769,.F.);
#1035=ORIENTED_EDGE('',*,*,#745,.F.);
#1036=ORIENTED_EDGE('',*,*,#769,.T.);
#1037=ORIENTED_EDGE('',*,*,#758,.F.);
#1038=ORIENTED_EDGE('',*,*,#770,.F.);
#1039=ORIENTED_EDGE('',*,*,#658,.F.);
#1040=ORIENTED_EDGE('',*,*,#771,.F.);
#1041=ORIENTED_EDGE('',*,*,#772,.F.);
#1042=ORIENTED_EDGE('',*,*,#653,.F.);
#1043=ORIENTED_EDGE('',*,*,#773,.F.);
#1044=ORIENTED_EDGE('',*,*,#774,.F.);
#1045=ORIENTED_EDGE('',*,*,#654,.F.);
#1046=ORIENTED_EDGE('',*,*,#775,.F.);
#1047=ORIENTED_EDGE('',*,*,#776,.F.);
#1048=ORIENTED_EDGE('',*,*,#655,.F.);
#1049=ORIENTED_EDGE('',*,*,#777,.F.);
#1050=ORIENTED_EDGE('',*,*,#778,.F.);
#1051=ORIENTED_EDGE('',*,*,#657,.F.);
#1052=ORIENTED_EDGE('',*,*,#779,.F.);
#1053=ORIENTED_EDGE('',*,*,#780,.T.);
#1054=ORIENTED_EDGE('',*,*,#773,.T.);
#1055=ORIENTED_EDGE('',*,*,#772,.T.);
#1056=ORIENTED_EDGE('',*,*,#781,.F.);
#1057=ORIENTED_EDGE('',*,*,#782,.F.);
#1058=ORIENTED_EDGE('',*,*,#783,.T.);
#1059=ORIENTED_EDGE('',*,*,#777,.T.);
#1060=ORIENTED_EDGE('',*,*,#776,.T.);
#1061=ORIENTED_EDGE('',*,*,#784,.F.);
#1062=ORIENTED_EDGE('',*,*,#782,.T.);
#1063=ORIENTED_EDGE('',*,*,#785,.F.);
#1064=ORIENTED_EDGE('',*,*,#786,.F.);
#1065=ORIENTED_EDGE('',*,*,#787,.F.);
#1066=ORIENTED_EDGE('',*,*,#788,.F.);
#1067=ORIENTED_EDGE('',*,*,#789,.F.);
#1068=ORIENTED_EDGE('',*,*,#779,.T.);
#1069=ORIENTED_EDGE('',*,*,#790,.F.);
#1070=ORIENTED_EDGE('',*,*,#721,.F.);
#1071=ORIENTED_EDGE('',*,*,#726,.F.);
#1072=ORIENTED_EDGE('',*,*,#730,.F.);
#1073=ORIENTED_EDGE('',*,*,#791,.F.);
#1074=ORIENTED_EDGE('',*,*,#792,.F.);
#1075=ORIENTED_EDGE('',*,*,#793,.T.);
#1076=ORIENTED_EDGE('',*,*,#785,.T.);
#1077=ORIENTED_EDGE('',*,*,#784,.T.);
#1078=ORIENTED_EDGE('',*,*,#775,.T.);
#1079=ORIENTED_EDGE('',*,*,#774,.T.);
#1080=ORIENTED_EDGE('',*,*,#780,.F.);
#1081=ORIENTED_EDGE('',*,*,#791,.T.);
#1082=ORIENTED_EDGE('',*,*,#729,.F.);
#1083=ORIENTED_EDGE('',*,*,#794,.F.);
#1084=ORIENTED_EDGE('',*,*,#722,.T.);
#1085=ORIENTED_EDGE('',*,*,#790,.T.);
#1086=ORIENTED_EDGE('',*,*,#781,.T.);
#1087=ORIENTED_EDGE('',*,*,#771,.T.);
#1088=ORIENTED_EDGE('',*,*,#778,.T.);
#1089=ORIENTED_EDGE('',*,*,#783,.F.);
#1090=ORIENTED_EDGE('',*,*,#789,.T.);
#1091=ORIENTED_EDGE('',*,*,#795,.F.);
#1092=ORIENTED_EDGE('',*,*,#661,.F.);
#1093=ORIENTED_EDGE('',*,*,#796,.F.);
#1094=ORIENTED_EDGE('',*,*,#691,.F.);
#1095=ORIENTED_EDGE('',*,*,#797,.F.);
#1096=ORIENTED_EDGE('',*,*,#798,.F.);
#1097=ORIENTED_EDGE('',*,*,#799,.F.);
#1098=ORIENTED_EDGE('',*,*,#662,.F.);
#1099=ORIENTED_EDGE('',*,*,#800,.F.);
#1100=ORIENTED_EDGE('',*,*,#801,.F.);
#1101=ORIENTED_EDGE('',*,*,#684,.F.);
#1102=ORIENTED_EDGE('',*,*,#689,.F.);
#1103=ORIENTED_EDGE('',*,*,#802,.F.);
#1104=ORIENTED_EDGE('',*,*,#664,.F.);
#1105=ORIENTED_EDGE('',*,*,#803,.F.);
#1106=ORIENTED_EDGE('',*,*,#804,.T.);
#1107=ORIENTED_EDGE('',*,*,#800,.T.);
#1108=ORIENTED_EDGE('',*,*,#799,.T.);
#1109=ORIENTED_EDGE('',*,*,#805,.F.);
#1110=ORIENTED_EDGE('',*,*,#806,.F.);
#1111=ORIENTED_EDGE('',*,*,#692,.T.);
#1112=ORIENTED_EDGE('',*,*,#796,.T.);
#1113=ORIENTED_EDGE('',*,*,#802,.T.);
#1114=ORIENTED_EDGE('',*,*,#688,.F.);
#1115=ORIENTED_EDGE('',*,*,#794,.T.);
#1116=ORIENTED_EDGE('',*,*,#807,.F.);
#1117=ORIENTED_EDGE('',*,*,#723,.F.);
#1118=ORIENTED_EDGE('',*,*,#792,.T.);
#1119=ORIENTED_EDGE('',*,*,#728,.F.);
#1120=ORIENTED_EDGE('',*,*,#808,.F.);
#1121=ORIENTED_EDGE('',*,*,#806,.T.);
#1122=ORIENTED_EDGE('',*,*,#687,.F.);
#1123=ORIENTED_EDGE('',*,*,#693,.F.);
#1124=ORIENTED_EDGE('',*,*,#803,.T.);
#1125=ORIENTED_EDGE('',*,*,#809,.F.);
#1126=ORIENTED_EDGE('',*,*,#810,.F.);
#1127=ORIENTED_EDGE('',*,*,#712,.F.);
#1128=ORIENTED_EDGE('',*,*,#811,.T.);
#1129=ORIENTED_EDGE('',*,*,#786,.T.);
#1130=ORIENTED_EDGE('',*,*,#793,.F.);
#1131=ORIENTED_EDGE('',*,*,#808,.T.);
#1132=ORIENTED_EDGE('',*,*,#727,.F.);
#1133=ORIENTED_EDGE('',*,*,#716,.F.);
#1134=ORIENTED_EDGE('',*,*,#812,.T.);
#1135=ORIENTED_EDGE('',*,*,#787,.T.);
#1136=ORIENTED_EDGE('',*,*,#811,.F.);
#1137=ORIENTED_EDGE('',*,*,#718,.F.);
#1138=ORIENTED_EDGE('',*,*,#724,.T.);
#1139=ORIENTED_EDGE('',*,*,#807,.T.);
#1140=ORIENTED_EDGE('',*,*,#795,.T.);
#1141=ORIENTED_EDGE('',*,*,#788,.T.);
#1142=ORIENTED_EDGE('',*,*,#812,.F.);
#1143=ORIENTED_EDGE('',*,*,#671,.F.);
#1144=ORIENTED_EDGE('',*,*,#813,.T.);
#1145=ORIENTED_EDGE('',*,*,#797,.T.);
#1146=ORIENTED_EDGE('',*,*,#690,.F.);
#1147=ORIENTED_EDGE('',*,*,#674,.F.);
#1148=ORIENTED_EDGE('',*,*,#814,.T.);
#1149=ORIENTED_EDGE('',*,*,#809,.T.);
#1150=ORIENTED_EDGE('',*,*,#805,.T.);
#1151=ORIENTED_EDGE('',*,*,#798,.T.);
#1152=ORIENTED_EDGE('',*,*,#813,.F.);
#1153=ORIENTED_EDGE('',*,*,#675,.F.);
#1154=ORIENTED_EDGE('',*,*,#685,.T.);
#1155=ORIENTED_EDGE('',*,*,#801,.T.);
#1156=ORIENTED_EDGE('',*,*,#804,.F.);
#1157=ORIENTED_EDGE('',*,*,#810,.T.);
#1158=ORIENTED_EDGE('',*,*,#814,.F.);
#1159=ORIENTED_EDGE('',*,*,#746,.F.);
#1160=ORIENTED_EDGE('',*,*,#770,.T.);
#1161=ORIENTED_EDGE('',*,*,#767,.F.);
#1162=ORIENTED_EDGE('',*,*,#754,.F.);
#1163=CONICAL_SURFACE('',#1263,2.35,0.785398163397448);
#1164=CONICAL_SURFACE('',#1280,2.35,0.785398163397446);
#1165=CONICAL_SURFACE('',#1311,6.99999999999999,0.785398163397447);
#1166=CONICAL_SURFACE('',#1313,6.49999999999998,0.785398163397451);
#1167=CONICAL_SURFACE('',#1316,6.49999999999999,0.785398163397447);
#1168=CONICAL_SURFACE('',#1318,6.99999999999757,0.785398163397451);
#1169=CONICAL_SURFACE('',#1320,6.5,0.785398163397447);
#1170=CONICAL_SURFACE('',#1323,6.50000000000002,0.785398163397449);
#1171=CONICAL_SURFACE('',#1333,6.5,0.785398163397446);
#1172=CONICAL_SURFACE('',#1335,6.99999999999757,0.78539816339745);
#1173=CONICAL_SURFACE('',#1337,6.49999999999999,0.785398163397447);
#1174=CONICAL_SURFACE('',#1339,6.49999999999998,0.78539816339745);
#1175=CONICAL_SURFACE('',#1340,6.99999999999999,0.785398163397446);
#1176=CONICAL_SURFACE('',#1341,6.50000000000002,0.785398163397448);
#1177=ADVANCED_FACE('',(#77),#1163,.F.);
#1178=ADVANCED_FACE('',(#78,#23,#24),#27,.T.);
#1179=ADVANCED_FACE('',(#79),#15,.F.);
#1180=ADVANCED_FACE('',(#80),#1164,.F.);
#1181=ADVANCED_FACE('',(#81),#16,.F.);
#1182=ADVANCED_FACE('',(#82),#28,.T.);
#1183=ADVANCED_FACE('',(#83),#29,.T.);
#1184=ADVANCED_FACE('',(#84),#30,.T.);
#1185=ADVANCED_FACE('',(#85),#31,.T.);
#1186=ADVANCED_FACE('',(#86),#32,.T.);
#1187=ADVANCED_FACE('',(#87),#33,.T.);
#1188=ADVANCED_FACE('',(#88),#34,.F.);
#1189=ADVANCED_FACE('',(#89),#35,.F.);
#1190=ADVANCED_FACE('',(#90),#36,.F.);
#1191=ADVANCED_FACE('',(#91,#25,#26),#37,.F.);
#1192=ADVANCED_FACE('',(#92),#38,.T.);
#1193=ADVANCED_FACE('',(#93),#39,.T.);
#1194=ADVANCED_FACE('',(#94),#40,.T.);
#1195=ADVANCED_FACE('',(#95),#41,.T.);
#1196=ADVANCED_FACE('',(#96),#42,.T.);
#1197=ADVANCED_FACE('',(#97),#43,.T.);
#1198=ADVANCED_FACE('',(#98),#44,.F.);
#1199=ADVANCED_FACE('',(#99),#45,.F.);
#1200=ADVANCED_FACE('',(#100),#46,.F.);
#1201=ADVANCED_FACE('',(#101),#1165,.T.);
#1202=ADVANCED_FACE('',(#102),#1166,.F.);
#1203=ADVANCED_FACE('',(#103),#47,.T.);
#1204=ADVANCED_FACE('',(#104),#1167,.F.);
#1205=ADVANCED_FACE('',(#105),#1168,.T.);
#1206=ADVANCED_FACE('',(#106),#1169,.F.);
#1207=ADVANCED_FACE('',(#107),#48,.T.);
#1208=ADVANCED_FACE('',(#108),#1170,.F.);
#1209=ADVANCED_FACE('',(#109),#17,.F.);
#1210=ADVANCED_FACE('',(#110),#49,.T.);
#1211=ADVANCED_FACE('',(#111),#18,.F.);
#1212=ADVANCED_FACE('',(#112),#19,.T.);
#1213=ADVANCED_FACE('',(#113),#50,.T.);
#1214=ADVANCED_FACE('',(#114),#1171,.F.);
#1215=ADVANCED_FACE('',(#115),#1172,.T.);
#1216=ADVANCED_FACE('',(#116),#1173,.F.);
#1217=ADVANCED_FACE('',(#117),#51,.T.);
#1218=ADVANCED_FACE('',(#118),#1174,.F.);
#1219=ADVANCED_FACE('',(#119),#1175,.T.);
#1220=ADVANCED_FACE('',(#120),#1176,.F.);
#1221=ADVANCED_FACE('',(#121),#20,.T.);
#1222=ADVANCED_FACE('',(#122),#21,.F.);
#1223=ADVANCED_FACE('',(#123),#52,.T.);
#1224=ADVANCED_FACE('',(#124),#53,.F.);
#1225=ADVANCED_FACE('',(#125),#54,.F.);
#1226=ADVANCED_FACE('',(#126),#55,.F.);
#1227=ADVANCED_FACE('',(#127),#56,.F.);
#1228=ADVANCED_FACE('',(#128),#57,.F.);
#1229=ADVANCED_FACE('',(#129),#58,.F.);
#1230=ADVANCED_FACE('',(#130),#59,.F.);
#1231=ADVANCED_FACE('',(#131),#60,.F.);
#1232=ADVANCED_FACE('',(#132),#61,.F.);
#1233=ADVANCED_FACE('',(#133),#62,.F.);
#1234=ADVANCED_FACE('',(#134),#63,.F.);
#1235=ADVANCED_FACE('',(#135),#64,.F.);
#1236=ADVANCED_FACE('',(#136),#65,.F.);
#1237=ADVANCED_FACE('',(#137),#66,.F.);
#1238=ADVANCED_FACE('',(#138),#67,.T.);
#1239=ADVANCED_FACE('',(#139),#68,.T.);
#1240=ADVANCED_FACE('',(#140),#69,.T.);
#1241=ADVANCED_FACE('',(#141),#70,.T.);
#1242=ADVANCED_FACE('',(#142),#71,.F.);
#1243=ADVANCED_FACE('',(#143),#72,.F.);
#1244=ADVANCED_FACE('',(#144),#73,.F.);
#1245=ADVANCED_FACE('',(#145),#74,.F.);
#1246=ADVANCED_FACE('',(#146),#75,.F.);
#1247=ADVANCED_FACE('',(#147),#76,.F.);
#1248=ADVANCED_FACE('',(#148),#22,.F.);
#1249=CLOSED_SHELL('',(#1177,#1178,#1179,#1180,#1181,#1182,#1183,#1184,
#1185,#1186,#1187,#1188,#1189,#1190,#1191,#1192,#1193,#1194,#1195,#1196,
#1197,#1198,#1199,#1200,#1201,#1202,#1203,#1204,#1205,#1206,#1207,#1208,
#1209,#1210,#1211,#1212,#1213,#1214,#1215,#1216,#1217,#1218,#1219,#1220,
#1221,#1222,#1223,#1224,#1225,#1226,#1227,#1228,#1229,#1230,#1231,#1232,
#1233,#1234,#1235,#1236,#1237,#1238,#1239,#1240,#1241,#1242,#1243,#1244,
#1245,#1246,#1247,#1248));
#1250=DERIVED_UNIT_ELEMENT(#1252,1.);
#1251=DERIVED_UNIT_ELEMENT(#2083,-3.);
#1252=(
MASS_UNIT()
NAMED_UNIT(*)
SI_UNIT(.KILO.,.GRAM.)
);
#1253=DERIVED_UNIT((#1250,#1251));
#1254=MEASURE_REPRESENTATION_ITEM('density measure',
POSITIVE_RATIO_MEASURE(1380.),#1253);
#1255=PROPERTY_DEFINITION_REPRESENTATION(#1260,#1257);
#1256=PROPERTY_DEFINITION_REPRESENTATION(#1261,#1258);
#1257=REPRESENTATION('material name',(#1259),#2080);
#1258=REPRESENTATION('density',(#1254),#2080);
#1259=DESCRIPTIVE_REPRESENTATION_ITEM('Laminate, White, Matte',
'Laminate, White, Matte');
#1260=PROPERTY_DEFINITION('material property','material name',#2090);
#1261=PROPERTY_DEFINITION('material property','density of part',#2090);
#1262=AXIS2_PLACEMENT_3D('',#1727,#1371,#1372);
#1263=AXIS2_PLACEMENT_3D('',#1728,#1373,#1374);
#1264=AXIS2_PLACEMENT_3D('',#1730,#1375,#1376);
#1265=AXIS2_PLACEMENT_3D('',#1733,#1378,#1379);
#1266=AXIS2_PLACEMENT_3D('',#1734,#1380,#1381);
#1267=AXIS2_PLACEMENT_3D('',#1737,#1382,#1383);
#1268=AXIS2_PLACEMENT_3D('',#1739,#1384,#1385);
#1269=AXIS2_PLACEMENT_3D('',#1743,#1387,#1388);
#1270=AXIS2_PLACEMENT_3D('',#1745,#1389,#1390);
#1271=AXIS2_PLACEMENT_3D('',#1747,#1391,#1392);
#1272=AXIS2_PLACEMENT_3D('',#1750,#1394,#1395);
#1273=AXIS2_PLACEMENT_3D('',#1752,#1396,#1397);
#1274=AXIS2_PLACEMENT_3D('',#1753,#1398,#1399);
#1275=AXIS2_PLACEMENT_3D('',#1756,#1400,#1401);
#1276=AXIS2_PLACEMENT_3D('',#1758,#1402,#1403);
#1277=AXIS2_PLACEMENT_3D('',#1760,#1404,#1405);
#1278=AXIS2_PLACEMENT_3D('',#1763,#1407,#1408);
#1279=AXIS2_PLACEMENT_3D('',#1764,#1409,#1410);
#1280=AXIS2_PLACEMENT_3D('',#1765,#1411,#1412);
#1281=AXIS2_PLACEMENT_3D('',#1768,#1414,#1415);
#1282=AXIS2_PLACEMENT_3D('',#1769,#1416,#1417);
#1283=AXIS2_PLACEMENT_3D('',#1772,#1418,#1419);
#1284=AXIS2_PLACEMENT_3D('',#1774,#1420,#1421);
#1285=AXIS2_PLACEMENT_3D('',#1776,#1423,#1424);
#1286=AXIS2_PLACEMENT_3D('',#1777,#1425,#1426);
#1287=AXIS2_PLACEMENT_3D('',#1786,#1431,#1432);
#1288=AXIS2_PLACEMENT_3D('',#1792,#1436,#1437);
#1289=AXIS2_PLACEMENT_3D('',#1798,#1441,#1442);
#1290=AXIS2_PLACEMENT_3D('',#1804,#1446,#1447);
#1291=AXIS2_PLACEMENT_3D('',#1810,#1451,#1452);
#1292=AXIS2_PLACEMENT_3D('',#1813,#1455,#1456);
#1293=AXIS2_PLACEMENT_3D('',#1819,#1460,#1461);
#1294=AXIS2_PLACEMENT_3D('',#1827,#1466,#1467);
#1295=AXIS2_PLACEMENT_3D('',#1835,#1472,#1473);
#1296=AXIS2_PLACEMENT_3D('',#1840,#1475,#1476);
#1297=AXIS2_PLACEMENT_3D('',#1842,#1477,#1478);
#1298=AXIS2_PLACEMENT_3D('',#1844,#1479,#1480);
#1299=AXIS2_PLACEMENT_3D('',#1848,#1482,#1483);
#1300=AXIS2_PLACEMENT_3D('',#1850,#1484,#1485);
#1301=AXIS2_PLACEMENT_3D('',#1851,#1486,#1487);
#1302=AXIS2_PLACEMENT_3D('',#1864,#1494,#1495);
#1303=AXIS2_PLACEMENT_3D('',#1870,#1499,#1500);
#1304=AXIS2_PLACEMENT_3D('',#1874,#1503,#1504);
#1305=AXIS2_PLACEMENT_3D('',#1878,#1507,#1508);
#1306=AXIS2_PLACEMENT_3D('',#1882,#1511,#1512);
#1307=AXIS2_PLACEMENT_3D('',#1886,#1515,#1516);
#1308=AXIS2_PLACEMENT_3D('',#1888,#1518,#1519);
#1309=AXIS2_PLACEMENT_3D('',#1898,#1525,#1526);
#1310=AXIS2_PLACEMENT_3D('',#1902,#1529,#1530);
#1311=AXIS2_PLACEMENT_3D('',#1910,#1535,#1536);
#1312=AXIS2_PLACEMENT_3D('',#1915,#1539,#1540);
#1313=AXIS2_PLACEMENT_3D('',#1916,#1541,#1542);
#1314=AXIS2_PLACEMENT_3D('',#1918,#1543,#1544);
#1315=AXIS2_PLACEMENT_3D('',#1920,#1546,#1547);
#1316=AXIS2_PLACEMENT_3D('',#1924,#1550,#1551);
#1317=AXIS2_PLACEMENT_3D('',#1926,#1552,#1553);
#1318=AXIS2_PLACEMENT_3D('',#1928,#1555,#1556);
#1319=AXIS2_PLACEMENT_3D('',#1931,#1558,#1559);
#1320=AXIS2_PLACEMENT_3D('',#1932,#1560,#1561);
#1321=AXIS2_PLACEMENT_3D('',#1934,#1562,#1563);
#1322=AXIS2_PLACEMENT_3D('',#1936,#1565,#1566);
#1323=AXIS2_PLACEMENT_3D('',#1940,#1569,#1570);
#1324=AXIS2_PLACEMENT_3D('',#1941,#1571,#1572);
#1325=AXIS2_PLACEMENT_3D('',#1942,#1573,#1574);
#1326=AXIS2_PLACEMENT_3D('',#1946,#1576,#1577);
#1327=AXIS2_PLACEMENT_3D('',#1948,#1579,#1580);
#1328=AXIS2_PLACEMENT_3D('',#1952,#1583,#1584);
#1329=AXIS2_PLACEMENT_3D('',#1955,#1586,#1587);
#1330=AXIS2_PLACEMENT_3D('',#1956,#1588,#1589);
#1331=AXIS2_PLACEMENT_3D('',#1959,#1591,#1592);
#1332=AXIS2_PLACEMENT_3D('',#1960,#1593,#1594);
#1333=AXIS2_PLACEMENT_3D('',#1966,#1598,#1599);
#1334=AXIS2_PLACEMENT_3D('',#1969,#1601,#1602);
#1335=AXIS2_PLACEMENT_3D('',#1970,#1603,#1604);
#1336=AXIS2_PLACEMENT_3D('',#1972,#1606,#1607);
#1337=AXIS2_PLACEMENT_3D('',#1973,#1608,#1609);
#1338=AXIS2_PLACEMENT_3D('',#1975,#1611,#1612);
#1339=AXIS2_PLACEMENT_3D('',#1977,#1614,#1615);
#1340=AXIS2_PLACEMENT_3D('',#1979,#1617,#1618);
#1341=AXIS2_PLACEMENT_3D('',#1981,#1620,#1621);
#1342=AXIS2_PLACEMENT_3D('',#1982,#1622,#1623);
#1343=AXIS2_PLACEMENT_3D('',#1983,#1624,#1625);
#1344=AXIS2_PLACEMENT_3D('',#1985,#1627,#1628);
#1345=AXIS2_PLACEMENT_3D('',#1987,#1630,#1631);
#1346=AXIS2_PLACEMENT_3D('',#1989,#1633,#1634);
#1347=AXIS2_PLACEMENT_3D('',#1993,#1637,#1638);
#1348=AXIS2_PLACEMENT_3D('',#1997,#1641,#1642);
#1349=AXIS2_PLACEMENT_3D('',#2001,#1645,#1646);
#1350=AXIS2_PLACEMENT_3D('',#2005,#1649,#1650);
#1351=AXIS2_PLACEMENT_3D('',#2011,#1654,#1655);
#1352=AXIS2_PLACEMENT_3D('',#2017,#1659,#1660);
#1353=AXIS2_PLACEMENT_3D('',#2027,#1666,#1667);
#1354=AXIS2_PLACEMENT_3D('',#2030,#1670,#1671);
#1355=AXIS2_PLACEMENT_3D('',#2034,#1674,#1675);
#1356=AXIS2_PLACEMENT_3D('',#2038,#1678,#1679);
#1357=AXIS2_PLACEMENT_3D('',#2045,#1684,#1685);
#1358=AXIS2_PLACEMENT_3D('',#2050,#1689,#1690);
#1359=AXIS2_PLACEMENT_3D('',#2056,#1694,#1695);
#1360=AXIS2_PLACEMENT_3D('',#2058,#1697,#1698);
#1361=AXIS2_PLACEMENT_3D('',#2060,#1700,#1701);
#1362=AXIS2_PLACEMENT_3D('',#2062,#1703,#1704);
#1363=AXIS2_PLACEMENT_3D('',#2063,#1705,#1706);
#1364=AXIS2_PLACEMENT_3D('',#2067,#1709,#1710);
#1365=AXIS2_PLACEMENT_3D('',#2069,#1712,#1713);
#1366=AXIS2_PLACEMENT_3D('',#2071,#1715,#1716);
#1367=AXIS2_PLACEMENT_3D('',#2072,#1717,#1718);
#1368=AXIS2_PLACEMENT_3D('',#2074,#1720,#1721);
#1369=AXIS2_PLACEMENT_3D('',#2076,#1723,#1724);
#1370=AXIS2_PLACEMENT_3D('',#2077,#1725,#1726);
#1371=DIRECTION('axis',(0.,0.,1.));
#1372=DIRECTION('refdir',(1.,0.,0.));
#1373=DIRECTION('center_axis',(1.,0.,0.));
#1374=DIRECTION('ref_axis',(0.,1.,0.));
#1375=DIRECTION('center_axis',(1.,0.,0.));
#1376=DIRECTION('ref_axis',(0.,1.,0.));
#1377=DIRECTION('',(-0.707106781186547,0.707106781186547,8.65956056235493E-17));
#1378=DIRECTION('center_axis',(-1.,0.,0.));
#1379=DIRECTION('ref_axis',(0.,1.,0.));
#1380=DIRECTION('center_axis',(1.,0.,0.));
#1381=DIRECTION('ref_axis',(0.,1.,0.));
#1382=DIRECTION('center_axis',(-1.,0.,0.));
#1383=DIRECTION('ref_axis',(0.,0.93401963109127,0.357221680103725));
#1384=DIRECTION('center_axis',(1.,0.,0.));
#1385=DIRECTION('ref_axis',(0.,-0.553964006139545,-0.832540617568793));
#1386=DIRECTION('',(0.,0.832540617568794,-0.553964006139543));
#1387=DIRECTION('center_axis',(1.,0.,0.));
#1388=DIRECTION('ref_axis',(0.,-0.934019631090993,-0.357221680104448));
#1389=DIRECTION('center_axis',(-1.,0.,0.));
#1390=DIRECTION('ref_axis',(0.,-0.934019631091326,-0.357221680103579));
#1391=DIRECTION('center_axis',(1.,0.,0.));
#1392=DIRECTION('ref_axis',(0.,0.553964006139544,0.832540617568793));
#1393=DIRECTION('',(0.,-0.832540617568794,0.553964006139543));
#1394=DIRECTION('center_axis',(1.,0.,0.));
#1395=DIRECTION('ref_axis',(0.,0.93401963109127,0.357221680103724));
#1396=DIRECTION('center_axis',(1.,0.,0.));
#1397=DIRECTION('ref_axis',(0.,1.,0.));
#1398=DIRECTION('center_axis',(-1.,0.,0.));
#1399=DIRECTION('ref_axis',(0.,1.,0.));
#1400=DIRECTION('center_axis',(-1.,0.,0.));
#1401=DIRECTION('ref_axis',(0.,1.,0.));
#1402=DIRECTION('center_axis',(-1.,0.,0.));
#1403=DIRECTION('ref_axis',(0.,1.,0.));
#1404=DIRECTION('center_axis',(-1.,0.,0.));
#1405=DIRECTION('ref_axis',(0.,1.,0.));
#1406=DIRECTION('',(1.,0.,0.));
#1407=DIRECTION('center_axis',(-1.,0.,0.));
#1408=DIRECTION('ref_axis',(0.,1.,0.));
#1409=DIRECTION('center_axis',(-1.,0.,0.));
#1410=DIRECTION('ref_axis',(0.,1.,0.));
#1411=DIRECTION('center_axis',(1.,0.,0.));
#1412=DIRECTION('ref_axis',(0.,1.,0.));
#1413=DIRECTION('',(-0.707106781186549,0.707106781186546,8.65956056235491E-17));
#1414=DIRECTION('center_axis',(-1.,0.,0.));
#1415=DIRECTION('ref_axis',(0.,1.,0.));
#1416=DIRECTION('center_axis',(-1.,0.,0.));
#1417=DIRECTION('ref_axis',(0.,1.,0.));
#1418=DIRECTION('center_axis',(-1.,0.,0.));
#1419=DIRECTION('ref_axis',(0.,1.,0.));
#1420=DIRECTION('center_axis',(-1.,0.,0.));
#1421=DIRECTION('ref_axis',(0.,1.,0.));
#1422=DIRECTION('',(1.,0.,0.));
#1423=DIRECTION('center_axis',(-1.,0.,0.));
#1424=DIRECTION('ref_axis',(0.,1.,0.));
#1425=DIRECTION('center_axis',(-0.70710678118655,0.313969073159013,-0.633579845875536));
#1426=DIRECTION('ref_axis',(-0.667324292961325,0.,0.744767271047585));
#1427=DIRECTION('',(0.,0.896017210883441,0.444019321427187));
#1428=DIRECTION('',(0.654653670707979,-0.0479837942811783,-0.754404484951508));
#1429=DIRECTION('',(0.,-0.896017210883441,-0.444019321427187));
#1430=DIRECTION('',(-0.654653670707972,-0.629341551556331,0.418757427293234));
#1431=DIRECTION('center_axis',(-0.707106781186546,-0.391711705274539,-0.588695116296131));
#1432=DIRECTION('ref_axis',(-0.639824790728513,0.,0.768520811149063));
#1433=DIRECTION('',(0.,0.832540617568793,-0.553964006139544));
#1434=DIRECTION('',(0.654653670707975,-0.677325345837518,-0.33564705765828));
#1435=DIRECTION('',(0.,-0.832540617568793,0.553964006139544));
#1436=DIRECTION('center_axis',(-0.707106781186548,-0.705680778433551,0.0448847295794066));
#1437=DIRECTION('ref_axis',(0.0633490960596707,0.,0.997991428835149));
#1438=DIRECTION('',(0.,-0.0634765933146457,-0.997983327566732));
#1439=DIRECTION('',(0.654653670707975,-0.629341551556327,0.418757427293235));
#1440=DIRECTION('',(0.,0.0634765933146457,0.997983327566732));
#1441=DIRECTION('center_axis',(-0.70710678118655,-0.313969073159014,0.633579845875535));
#1442=DIRECTION('ref_axis',(0.667324292961325,0.,0.744767271047586));
#1443=DIRECTION('',(0.,0.89601721088344,0.444019321427189));
#1444=DIRECTION('',(0.,-0.89601721088344,-0.444019321427189));
#1445=DIRECTION('',(0.654653670707976,0.0479837942811781,0.754404484951511));
#1446=DIRECTION('center_axis',(-0.707106781186546,0.391711705274538,0.588695116296131));
#1447=DIRECTION('ref_axis',(0.639824790728514,0.,0.768520811149063));
#1448=DIRECTION('',(0.,0.832540617568793,-0.553964006139543));
#1449=DIRECTION('',(0.,-0.832540617568793,0.553964006139543));
#1450=DIRECTION('',(0.654653670707975,0.677325345837518,0.33564705765828));
#1451=DIRECTION('center_axis',(-0.707106781186549,0.705680778433551,-0.0448847295794073));
#1452=DIRECTION('ref_axis',(-0.0633490960596718,0.,0.997991428835149));
#1453=DIRECTION('',(0.,0.0634765933146468,0.997983327566732));
#1454=DIRECTION('',(0.,-0.0634765933146468,-0.997983327566732));
#1455=DIRECTION('center_axis',(0.,-0.553964006139543,-0.832540617568793));
#1456=DIRECTION('ref_axis',(0.,0.832540617568793,-0.553964006139543));
#1457=DIRECTION('',(1.,0.,0.));
#1458=DIRECTION('',(0.,0.832540617568793,-0.553964006139543));
#1459=DIRECTION('',(1.,0.,0.));
#1460=DIRECTION('center_axis',(0.,-0.997983327566732,0.0634765933146468));
#1461=DIRECTION('ref_axis',(0.,-0.0634765933146468,-0.997983327566732));
#1462=DIRECTION('',(1.,0.,0.));
#1463=DIRECTION('',(0.,-0.0634765933146468,-0.997983327566732));
#1464=DIRECTION('',(1.,0.,0.));
#1465=DIRECTION('',(0.,-0.0634765933146468,-0.997983327566732));
#1466=DIRECTION('center_axis',(0.,-0.444019321427187,0.896017210883441));
#1467=DIRECTION('ref_axis',(0.,-0.896017210883441,-0.444019321427187));
#1468=DIRECTION('',(1.,0.,0.));
#1469=DIRECTION('',(0.,-0.896017210883441,-0.444019321427187));
#1470=DIRECTION('',(1.,0.,0.));
#1471=DIRECTION('',(0.,-0.896017210883441,-0.444019321427187));
#1472=DIRECTION('center_axis',(1.,0.,0.));
#1473=DIRECTION('ref_axis',(0.,1.,0.));
#1474=DIRECTION('',(0.,0.832540617568794,-0.553964006139543));
#1475=DIRECTION('center_axis',(-1.,0.,0.));
#1476=DIRECTION('ref_axis',(0.,0.553964006139544,0.832540617568793));
#1477=DIRECTION('center_axis',(1.,0.,0.));
#1478=DIRECTION('ref_axis',(0.,-0.934019631091326,-0.357221680103579));
#1479=DIRECTION('center_axis',(-1.,0.,0.));
#1480=DIRECTION('ref_axis',(0.,-0.934019631090993,-0.357221680104448));
#1481=DIRECTION('',(0.,-0.832540617568794,0.553964006139543));
#1482=DIRECTION('center_axis',(-1.,0.,0.));
#1483=DIRECTION('ref_axis',(0.,-0.553964006139545,-0.832540617568793));
#1484=DIRECTION('center_axis',(1.,0.,0.));
#1485=DIRECTION('ref_axis',(0.,0.93401963109127,0.357221680103725));
#1486=DIRECTION('center_axis',(-1.,0.,0.));
#1487=DIRECTION('ref_axis',(0.,0.93401963109127,0.357221680103724));
#1488=DIRECTION('',(0.,-0.0634765933146477,-0.997983327566732));
#1489=DIRECTION('',(0.,0.832540617568793,-0.553964006139544));
#1490=DIRECTION('',(0.,0.896017210883441,0.444019321427187));
#1491=DIRECTION('',(0.,0.0634765933146472,0.997983327566732));
#1492=DIRECTION('',(0.,-0.832540617568793,0.553964006139544));
#1493=DIRECTION('',(0.,-0.896017210883441,-0.444019321427187));
#1494=DIRECTION('center_axis',(-0.707106781186547,-0.705680778433552,0.0448847295794081));
#1495=DIRECTION('ref_axis',(0.0633490960596731,0.,0.997991428835149));
#1496=DIRECTION('',(0.654653670707975,-0.629341551556327,0.418757427293235));
#1497=DIRECTION('',(0.,0.0634765933146477,0.997983327566732));
#1498=DIRECTION('',(0.654653670707978,-0.677325345837515,-0.335647057658281));
#1499=DIRECTION('center_axis',(-0.70710678118655,-0.313969073159013,0.633579845875536));
#1500=DIRECTION('ref_axis',(0.667324292961325,0.,0.744767271047585));
#1501=DIRECTION('',(0.65465367070798,0.0479837942811522,0.754404484951509));
#1502=DIRECTION('',(0.,0.896017210883441,0.444019321427187));
#1503=DIRECTION('center_axis',(-0.707106781186546,-0.391711705274539,-0.588695116296131));
#1504=DIRECTION('ref_axis',(-0.639824790728513,0.,0.768520811149063));
#1505=DIRECTION('',(0.,-0.832540617568793,0.553964006139544));
#1506=DIRECTION('',(-0.654653670707973,0.0479837942811837,0.754404484951513));
#1507=DIRECTION('center_axis',(-0.707106781186545,0.391711705274539,0.588695116296131));
#1508=DIRECTION('ref_axis',(0.639824790728514,0.,0.768520811149063));
#1509=DIRECTION('',(0.654653670707983,0.67732534583752,0.335647057658261));
#1510=DIRECTION('',(0.,0.832540617568793,-0.553964006139544));
#1511=DIRECTION('center_axis',(-0.707106781186547,0.705680778433552,-0.0448847295794077));
#1512=DIRECTION('ref_axis',(-0.0633490960596725,0.,0.997991428835149));
#1513=DIRECTION('',(0.654653670707976,0.629341551556326,-0.418757427293236));
#1514=DIRECTION('',(0.,-0.0634765933146472,-0.997983327566732));
#1515=DIRECTION('center_axis',(-0.70710678118655,0.313969073159013,-0.633579845875536));
#1516=DIRECTION('ref_axis',(-0.667324292961325,0.,0.744767271047585));
#1517=DIRECTION('',(0.,-0.896017210883441,-0.444019321427187));
#1518=DIRECTION('center_axis',(0.,-0.444019321427187,0.896017210883441));
#1519=DIRECTION('ref_axis',(0.,-0.896017210883441,-0.444019321427187));
#1520=DIRECTION('',(1.,0.,0.));
#1521=DIRECTION('',(0.,-0.896017210883441,-0.444019321427187));
#1522=DIRECTION('',(1.,0.,0.));
#1523=DIRECTION('',(0.,-0.896017210883441,-0.444019321427187));
#1524=DIRECTION('',(1.,0.,0.));
#1525=DIRECTION('center_axis',(0.,0.553964006139544,0.832540617568793));
#1526=DIRECTION('ref_axis',(0.,-0.832540617568793,0.553964006139544));
#1527=DIRECTION('',(1.,0.,0.));
#1528=DIRECTION('',(0.,-0.832540617568793,0.553964006139544));
#1529=DIRECTION('center_axis',(0.,0.997983327566732,-0.0634765933146477));
#1530=DIRECTION('ref_axis',(0.,0.0634765933146477,0.997983327566732));
#1531=DIRECTION('',(1.,0.,0.));
#1532=DIRECTION('',(0.,0.0634765933146477,0.997983327566732));
#1533=DIRECTION('',(1.,0.,0.));
#1534=DIRECTION('',(0.,0.0634765933146477,0.997983327566732));
#1535=DIRECTION('center_axis',(-1.,0.,0.));
#1536=DIRECTION('ref_axis',(0.,0.93401963109127,0.357221680103725));
#1537=DIRECTION('',(0.707106781186551,0.0221066137178511,-0.706761131946236));
#1538=DIRECTION('',(-0.707106781186548,-0.660451614905993,-0.252593872388196));
#1539=DIRECTION('center_axis',(1.,0.,0.));
#1540=DIRECTION('ref_axis',(0.,0.93401963109127,0.357221680103725));
#1541=DIRECTION('center_axis',(1.,0.,0.));
#1542=DIRECTION('ref_axis',(0.,-0.553964006139545,-0.832540617568793));
#1543=DIRECTION('center_axis',(-1.,0.,0.));
#1544=DIRECTION('ref_axis',(0.,-0.553964006139545,-0.832540617568792));
#1545=DIRECTION('',(0.707106781186545,-0.39171170527454,-0.588695116296131));
#1546=DIRECTION('center_axis',(0.707106781186549,0.391711705274536,0.588695116296129));
#1547=DIRECTION('ref_axis',(0.639824790728511,0.,-0.768520811149065));
#1548=DIRECTION('',(0.707106781186539,-0.391711705274542,-0.588695116296138));
#1549=DIRECTION('',(0.,-0.832540617568794,0.553964006139543));
#1550=DIRECTION('center_axis',(1.,0.,0.));
#1551=DIRECTION('ref_axis',(0.,-0.934019631090993,-0.357221680104448));
#1552=DIRECTION('center_axis',(-1.,0.,0.));
#1553=DIRECTION('ref_axis',(0.,-0.934019631090993,-0.357221680104448));
#1554=DIRECTION('',(0.707106781186548,-0.660451614905799,-0.252593872388705));
#1555=DIRECTION('center_axis',(-1.,0.,0.));
#1556=DIRECTION('ref_axis',(0.,-0.934019631091326,-0.357221680103579));
#1557=DIRECTION('',(0.707106781186546,-0.0221066137183973,0.706761131946224));
#1558=DIRECTION('center_axis',(1.,0.,0.));
#1559=DIRECTION('ref_axis',(0.,-0.934019631091326,-0.357221680103579));
#1560=DIRECTION('center_axis',(1.,0.,0.));
#1561=DIRECTION('ref_axis',(0.,0.553964006139544,0.832540617568793));
#1562=DIRECTION('center_axis',(-1.,0.,0.));
#1563=DIRECTION('ref_axis',(0.,0.553964006139544,0.832540617568793));
#1564=DIRECTION('',(0.707106781186549,0.391711705274536,0.588695116296128));
#1565=DIRECTION('center_axis',(0.707106781186549,-0.391711705274536,-0.588695116296129));
#1566=DIRECTION('ref_axis',(-0.639824790728511,0.,-0.768520811149065));
#1567=DIRECTION('',(0.707106781186557,0.391711705274534,0.588695116296121));
#1568=DIRECTION('',(0.,0.832540617568794,-0.553964006139543));
#1569=DIRECTION('center_axis',(1.,0.,0.));
#1570=DIRECTION('ref_axis',(0.,0.93401963109127,0.357221680103724));
#1571=DIRECTION('center_axis',(-1.,0.,0.));
#1572=DIRECTION('ref_axis',(0.,0.93401963109127,0.357221680103724));
#1573=DIRECTION('center_axis',(-1.,0.,0.));
#1574=DIRECTION('ref_axis',(0.,-0.934019631090993,-0.357221680104448));
#1575=DIRECTION('',(-1.,0.,0.));
#1576=DIRECTION('center_axis',(1.,0.,0.));
#1577=DIRECTION('ref_axis',(0.,-0.934019631090993,-0.357221680104448));
#1578=DIRECTION('',(-1.,0.,0.));
#1579=DIRECTION('center_axis',(0.,0.553964006139543,0.832540617568794));
#1580=DIRECTION('ref_axis',(0.,0.832540617568794,-0.553964006139543));
#1581=DIRECTION('',(-1.,0.,0.));
#1582=DIRECTION('',(0.,0.832540617568794,-0.553964006139543));
#1583=DIRECTION('center_axis',(-1.,0.,0.));
#1584=DIRECTION('ref_axis',(0.,-0.553964006139545,-0.832540617568792));
#1585=DIRECTION('',(-1.,0.,0.));
#1586=DIRECTION('center_axis',(1.,0.,0.));
#1587=DIRECTION('ref_axis',(0.,-0.553964006139545,-0.832540617568792));
#1588=DIRECTION('center_axis',(-1.,0.,0.));
#1589=DIRECTION('ref_axis',(0.,0.832540617568792,-0.553964006139545));
#1590=DIRECTION('',(-1.,0.,0.));
#1591=DIRECTION('center_axis',(-1.,0.,0.));
#1592=DIRECTION('ref_axis',(0.,0.93401963109127,0.357221680103725));
#1593=DIRECTION('center_axis',(-0.707106781186549,-0.391711705274536,-0.588695116296129));
#1594=DIRECTION('ref_axis',(-0.639824790728511,0.,0.768520811149065));
#1595=DIRECTION('',(-0.707106781186546,0.391711705274537,0.588695116296131));
#1596=DIRECTION('',(0.707106781186557,-0.391711705274534,-0.588695116296121));
#1597=DIRECTION('',(0.,-0.832540617568794,0.553964006139543));
#1598=DIRECTION('center_axis',(-1.,0.,0.));
#1599=DIRECTION('ref_axis',(0.,0.553964006139544,0.832540617568793));
#1600=DIRECTION('',(-0.707106781190017,-0.0221066137182892,0.706761131942754));
#1601=DIRECTION('center_axis',(1.,0.,0.));
#1602=DIRECTION('ref_axis',(0.,0.553964006139544,0.832540617568793));
#1603=DIRECTION('center_axis',(1.,0.,0.));
#1604=DIRECTION('ref_axis',(0.,-0.934019631091326,-0.357221680103579));
#1605=DIRECTION('',(-0.707106781186546,-0.660451614906035,-0.252593872388095));
#1606=DIRECTION('center_axis',(-1.,0.,0.));
#1607=DIRECTION('ref_axis',(0.,-0.934019631091326,-0.357221680103579));
#1608=DIRECTION('center_axis',(-1.,0.,0.));
#1609=DIRECTION('ref_axis',(0.,-0.934019631090993,-0.357221680104448));
#1610=DIRECTION('',(-0.707106781186549,-0.391711705274539,-0.588695116296127));
#1611=DIRECTION('center_axis',(-0.707106781186549,0.391711705274536,0.588695116296129));
#1612=DIRECTION('ref_axis',(0.639824790728511,0.,0.768520811149065));
#1613=DIRECTION('',(-0.707106781186547,-0.391711705274535,-0.588695116296132));
#1614=DIRECTION('center_axis',(-1.,0.,0.));
#1615=DIRECTION('ref_axis',(0.,-0.553964006139545,-0.832540617568793));
#1616=DIRECTION('',(-0.707106781186551,0.0221066137178574,-0.706761131946235));
#1617=DIRECTION('center_axis',(1.,0.,0.));
#1618=DIRECTION('ref_axis',(0.,0.93401963109127,0.357221680103725));
#1619=DIRECTION('',(-0.707106781186549,0.660451614905993,0.252593872388196));
#1620=DIRECTION('center_axis',(-1.,0.,0.));
#1621=DIRECTION('ref_axis',(0.,0.93401963109127,0.357221680103724));
#1622=DIRECTION('center_axis',(1.,0.,0.));
#1623=DIRECTION('ref_axis',(0.,0.93401963109127,0.357221680103724));
#1624=DIRECTION('center_axis',(-1.,0.,0.));
#1625=DIRECTION('ref_axis',(0.,-0.832540617568961,0.553964006139291));
#1626=DIRECTION('',(-1.,0.,0.));
#1627=DIRECTION('center_axis',(-1.,0.,0.));
#1628=DIRECTION('ref_axis',(0.,0.553964006139544,0.832540617568793));
#1629=DIRECTION('',(-1.,0.,0.));
#1630=DIRECTION('center_axis',(0.,-0.553964006139543,-0.832540617568794));
#1631=DIRECTION('ref_axis',(0.,-0.832540617568794,0.553964006139543));
#1632=DIRECTION('',(-1.,0.,0.));
#1633=DIRECTION('center_axis',(1.,0.,0.));
#1634=DIRECTION('ref_axis',(0.,0.,-1.));
#1635=DIRECTION('',(0.,-0.553964006139543,-0.832540617568794));
#1636=DIRECTION('',(0.,-0.832540617568794,0.553964006139543));
#1637=DIRECTION('center_axis',(1.,0.,0.));
#1638=DIRECTION('ref_axis',(0.,0.,-1.));
#1639=DIRECTION('',(0.,-0.832540617568794,0.553964006139543));
#1640=DIRECTION('',(0.,0.553964006139543,0.832540617568794));
#1641=DIRECTION('center_axis',(1.,0.,0.));
#1642=DIRECTION('ref_axis',(0.,0.,-1.));
#1643=DIRECTION('',(0.,0.553964006139543,0.832540617568794));
#1644=DIRECTION('',(0.,0.832540617568794,-0.553964006139543));
#1645=DIRECTION('center_axis',(1.,0.,0.));
#1646=DIRECTION('ref_axis',(0.,0.,-1.));
#1647=DIRECTION('',(0.,0.832540617568794,-0.553964006139543));
#1648=DIRECTION('',(0.,-0.553964006139543,-0.832540617568794));
#1649=DIRECTION('center_axis',(0.,0.553964006139543,0.832540617568794));
#1650=DIRECTION('ref_axis',(0.,-0.832540617568794,0.553964006139543));
#1651=DIRECTION('',(0.,-0.832540617568794,0.553964006139543));
#1652=DIRECTION('',(1.,0.,0.));
#1653=DIRECTION('',(1.,0.,0.));
#1654=DIRECTION('center_axis',(0.,-0.553964006139543,-0.832540617568794));
#1655=DIRECTION('ref_axis',(0.,0.832540617568794,-0.553964006139543));
#1656=DIRECTION('',(0.,0.832540617568794,-0.553964006139543));
#1657=DIRECTION('',(1.,0.,0.));
#1658=DIRECTION('',(1.,0.,0.));
#1659=DIRECTION('center_axis',(1.,0.,0.));
#1660=DIRECTION('ref_axis',(0.,0.,-1.));
#1661=DIRECTION('',(0.,0.553964006139543,0.832540617568794));
#1662=DIRECTION('',(0.,0.896017210883441,0.444019321427187));
#1663=DIRECTION('',(0.,0.832540617568793,-0.553964006139544));
#1664=DIRECTION('',(0.,-0.0634765933146472,-0.997983327566732));
#1665=DIRECTION('',(0.,-0.553964006139543,-0.832540617568794));
#1666=DIRECTION('center_axis',(1.,0.,0.));
#1667=DIRECTION('ref_axis',(0.,0.,-1.));
#1668=DIRECTION('',(0.,-0.553964006139543,-0.832540617568794));
#1669=DIRECTION('',(0.,0.553964006139543,0.832540617568794));
#1670=DIRECTION('center_axis',(0.,0.832540617568794,-0.553964006139543));
#1671=DIRECTION('ref_axis',(0.,0.553964006139543,0.832540617568794));
#1672=DIRECTION('',(0.,0.553964006139543,0.832540617568794));
#1673=DIRECTION('',(1.,0.,0.));
#1674=DIRECTION('center_axis',(0.,-0.832540617568794,0.553964006139543));
#1675=DIRECTION('ref_axis',(0.,-0.553964006139543,-0.832540617568794));
#1676=DIRECTION('',(0.,-0.553964006139543,-0.832540617568794));
#1677=DIRECTION('',(1.,0.,0.));
#1678=DIRECTION('center_axis',(1.,0.,0.));
#1679=DIRECTION('ref_axis',(0.,0.,-1.));
#1680=DIRECTION('',(0.,-0.553964006139557,-0.832540617568784));
#1681=DIRECTION('',(0.,-0.832540617568793,0.553964006139544));
#1682=DIRECTION('',(0.,0.0634765933146457,0.997983327566732));
#1683=DIRECTION('',(0.,0.553964006139544,0.832540617568793));
#1684=DIRECTION('center_axis',(1.,0.,0.));
#1685=DIRECTION('ref_axis',(0.,0.,-1.));
#1686=DIRECTION('',(0.,0.553964006139544,0.832540617568793));
#1687=DIRECTION('',(0.,0.89601721088344,0.444019321427189));
#1688=DIRECTION('',(0.,-0.553964006139557,-0.832540617568784));
#1689=DIRECTION('center_axis',(0.,0.832540617568793,-0.553964006139544));
#1690=DIRECTION('ref_axis',(0.,0.553964006139544,0.832540617568793));
#1691=DIRECTION('',(0.,0.553964006139544,0.832540617568793));
#1692=DIRECTION('',(1.,0.,0.));
#1693=DIRECTION('',(1.,0.,0.));
#1694=DIRECTION('center_axis',(0.,-0.832540617568784,0.553964006139557));
#1695=DIRECTION('ref_axis',(0.,-0.553964006139557,-0.832540617568784));
#1696=DIRECTION('',(0.,-0.553964006139557,-0.832540617568784));
#1697=DIRECTION('center_axis',(-1.,0.,0.));
#1698=DIRECTION('ref_axis',(0.,0.,1.));
#1699=DIRECTION('',(0.,-0.0634765933146472,-0.997983327566732));
#1700=DIRECTION('center_axis',(-1.,0.,0.));
#1701=DIRECTION('ref_axis',(0.,0.,1.));
#1702=DIRECTION('',(0.,0.896017210883441,0.444019321427187));
#1703=DIRECTION('center_axis',(-1.,0.,0.));
#1704=DIRECTION('ref_axis',(0.,0.,1.));
#1705=DIRECTION('center_axis',(-1.,0.,0.));
#1706=DIRECTION('ref_axis',(0.,0.,1.));
#1707=DIRECTION('',(0.,0.0634765933146457,0.997983327566732));
#1708=DIRECTION('',(0.,0.89601721088344,0.444019321427189));
#1709=DIRECTION('center_axis',(0.,0.444019321427187,-0.896017210883441));
#1710=DIRECTION('ref_axis',(0.,0.896017210883441,0.444019321427187));
#1711=DIRECTION('',(1.,0.,0.));
#1712=DIRECTION('center_axis',(0.,-0.553964006139544,-0.832540617568793));
#1713=DIRECTION('ref_axis',(0.,0.832540617568793,-0.553964006139544));
#1714=DIRECTION('',(1.,0.,0.));
#1715=DIRECTION('center_axis',(0.,-0.997983327566732,0.0634765933146472));
#1716=DIRECTION('ref_axis',(0.,-0.0634765933146472,-0.997983327566732));
#1717=DIRECTION('center_axis',(0.,0.553964006139544,0.832540617568793));
#1718=DIRECTION('ref_axis',(0.,-0.832540617568793,0.553964006139544));
#1719=DIRECTION('',(1.,0.,0.));
#1720=DIRECTION('center_axis',(0.,0.997983327566732,-0.0634765933146457));
#1721=DIRECTION('ref_axis',(0.,0.0634765933146457,0.997983327566732));
#1722=DIRECTION('',(1.,0.,0.));
#1723=DIRECTION('center_axis',(0.,0.444019321427189,-0.89601721088344));
#1724=DIRECTION('ref_axis',(0.,0.89601721088344,0.444019321427189));
#1725=DIRECTION('center_axis',(-1.,0.,0.));
#1726=DIRECTION('ref_axis',(0.,0.93401963109127,0.357221680103724));
#1727=CARTESIAN_POINT('',(0.,0.,0.));
#1728=CARTESIAN_POINT('Origin',(-8.25,16.782584916685,60.2046081567077));
#1729=CARTESIAN_POINT('',(-8.,14.182584916685,60.2046081567077));
#1730=CARTESIAN_POINT('Origin',(-8.,16.782584916685,60.2046081567077));
#1731=CARTESIAN_POINT('',(-8.5,14.682584916685,60.2046081567077));
#1732=CARTESIAN_POINT('',(-8.25,14.432584916685,60.2046081567077));
#1733=CARTESIAN_POINT('Origin',(-8.5,16.782584916685,60.2046081567077));
#1734=CARTESIAN_POINT('Origin',(-8.,29.2706941802181,51.8951480646133));
#1735=CARTESIAN_POINT('',(-8.,41.5555908696522,50.0825106305388));
#1736=CARTESIAN_POINT('',(-8.,35.6876758416555,41.2637470518472));
#1737=CARTESIAN_POINT('Origin',(-8.,41.7588034437488,43.5856879725214));
#1738=CARTESIAN_POINT('',(-8.,37.4589985161098,51.251304554653));
#1739=CARTESIAN_POINT('Origin',(-8.,41.3367465590866,57.0790888776345));
#1740=CARTESIAN_POINT('',(-8.,25.5141018934368,59.1993165151288));
#1741=CARTESIAN_POINT('',(-8.,28.5003260491066,57.2123135250088));
#1742=CARTESIAN_POINT('',(-8.,22.8537125187767,62.5265490773792));
#1743=CARTESIAN_POINT('Origin',(-8.,29.3918499364136,65.0271008381103));
#1744=CARTESIAN_POINT('',(-8.,16.9857974907864,53.7077854986928));
#1745=CARTESIAN_POINT('Origin',(-8.,16.782584916685,60.2046081567077));
#1746=CARTESIAN_POINT('',(-8.,21.0823898443345,52.538991574569));
#1747=CARTESIAN_POINT('Origin',(-8.,17.2046418013577,46.7112072515874));
#1748=CARTESIAN_POINT('',(-8.,33.0272864669934,44.5909796141026));
#1749=CARTESIAN_POINT('',(-8.,30.0410623113267,46.5779826042205));
#1750=CARTESIAN_POINT('Origin',(-8.,29.1495384240166,38.7631952911211));
#1751=CARTESIAN_POINT('',(-8.,39.1588034437488,43.5856879725214));
#1752=CARTESIAN_POINT('Origin',(-8.,41.7588034437488,43.5856879725214));
#1753=CARTESIAN_POINT('Origin',(-8.,16.782584916685,60.2046081567077));
#1754=CARTESIAN_POINT('',(-9.6,17.945909329578,61.9529434536021));
#1755=CARTESIAN_POINT('',(-9.6,18.5309202135794,59.0412837438146));
#1756=CARTESIAN_POINT('Origin',(-9.6,16.782584916685,60.2046081567077));
#1757=CARTESIAN_POINT('',(-9.6,15.6192605037919,58.4562728598132));
#1758=CARTESIAN_POINT('Origin',(-9.6,16.782584916685,60.2046081567077));
#1759=CARTESIAN_POINT('',(-9.6,14.682584916685,60.2046081567077));
#1760=CARTESIAN_POINT('Origin',(-9.6,16.782584916685,60.2046081567077));
#1761=CARTESIAN_POINT('',(-8.,14.682584916685,60.2046081567077));
#1762=CARTESIAN_POINT('',(-9.6,15.0342496197905,61.3679325696007));
#1763=CARTESIAN_POINT('Origin',(-9.6,16.782584916685,60.2046081567077));
#1764=CARTESIAN_POINT('Origin',(-9.6,16.782584916685,60.2046081567077));
#1765=CARTESIAN_POINT('Origin',(-8.25,41.7588034437488,43.5856879725214));
#1766=CARTESIAN_POINT('',(-8.5,39.6588034437488,43.5856879725214));
#1767=CARTESIAN_POINT('',(-8.25,39.4088034437488,43.5856879725214));
#1768=CARTESIAN_POINT('Origin',(-8.5,41.7588034437488,43.5856879725214));
#1769=CARTESIAN_POINT('Origin',(-8.,41.7588034437488,43.5856879725214));
#1770=CARTESIAN_POINT('',(-9.8,40.0104681468543,44.7490123854144));
#1771=CARTESIAN_POINT('',(-9.8,43.5071387406432,42.4223635596283));
#1772=CARTESIAN_POINT('Origin',(-9.8,41.7588034437488,43.5856879725214));
#1773=CARTESIAN_POINT('',(-9.8,39.6588034437488,43.5856879725214));
#1774=CARTESIAN_POINT('Origin',(-9.8,41.7588034437488,43.5856879725214));
#1775=CARTESIAN_POINT('',(-8.,39.6588034437488,43.5856879725214));
#1776=CARTESIAN_POINT('Origin',(-9.8,41.7588034437488,43.5856879725214));
#1777=CARTESIAN_POINT('Origin',(-13.75,37.6389690589128,45.7293007387973));
#1778=CARTESIAN_POINT('',(-14.,37.9134630464317,46.1443381170496));
#1779=CARTESIAN_POINT('',(-14.,42.0519892696484,48.1951755150606));
#1780=CARTESIAN_POINT('',(-14.,37.527964228556,45.9533050415182));
#1781=CARTESIAN_POINT('',(-13.5,42.0153410414109,47.6189895722432));
#1782=CARTESIAN_POINT('',(-14.,42.0519892696484,48.1951755150606));
#1783=CARTESIAN_POINT('',(-13.5,38.3941305960963,45.8245068489835));
#1784=CARTESIAN_POINT('',(-13.5,37.7499738892696,45.5052964360764));
#1785=CARTESIAN_POINT('',(-13.5,38.3941305960963,45.8245068489835));
#1786=CARTESIAN_POINT('Origin',(-13.75,38.4332820469199,50.3027406153349));
#1787=CARTESIAN_POINT('',(-14.,45.8973296669655,45.6365253705324));
#1788=CARTESIAN_POINT('',(-14.,38.5717730484548,50.5108757697271));
#1789=CARTESIAN_POINT('',(-13.5,45.3800138890634,45.380170695781));
#1790=CARTESIAN_POINT('',(-14.,45.8973296669655,45.6365253705324));
#1791=CARTESIAN_POINT('',(-13.5,38.294791045385,50.0946054609427));
#1792=CARTESIAN_POINT('Origin',(-13.75,45.6751437476383,46.0817628260357));
#1793=CARTESIAN_POINT('',(-14.,45.6041438410658,41.0270378279932));
#1794=CARTESIAN_POINT('',(-14.,45.92463957953,46.065893677707));
#1795=CARTESIAN_POINT('',(-13.5,45.1234762914012,41.3468690960592));
#1796=CARTESIAN_POINT('',(-14.,45.6041438410658,41.0270378279932));
#1797=CARTESIAN_POINT('',(-13.5,45.4256479157466,46.0976319743643));
#1798=CARTESIAN_POINT('Origin',(-13.75,39.1585087469594,38.1119302955417));
#1799=CARTESIAN_POINT('',(-13.5,41.5022658460866,39.5523863727995));
#1800=CARTESIAN_POINT('',(-13.5,39.0475039166026,38.3359345982626));
#1801=CARTESIAN_POINT('',(-14.,41.4656176178492,38.9762004299821));
#1802=CARTESIAN_POINT('',(-14.,39.2695135773162,37.8879259928209));
#1803=CARTESIAN_POINT('',(-14.,41.4656176178492,38.9762004299821));
#1804=CARTESIAN_POINT('Origin',(-13.75,32.5962155770471,45.1780954218001));
#1805=CARTESIAN_POINT('',(-13.5,38.1375929984342,41.7912052492617));
#1806=CARTESIAN_POINT('',(-13.5,32.734706578582,45.3862305761923));
#1807=CARTESIAN_POINT('',(-14.,37.6202772205321,41.5348505745103));
#1808=CARTESIAN_POINT('',(-14.,32.4577245755122,44.9699602674079));
#1809=CARTESIAN_POINT('',(-14.,37.6202772205321,41.5348505745103));
#1810=CARTESIAN_POINT('Origin',(-13.75,38.318537589719,48.5744880757564));
#1811=CARTESIAN_POINT('',(-14.,38.0690417578273,48.5903572240851));
#1812=CARTESIAN_POINT('',(-13.5,38.5680334216107,48.5586189274278));
#1813=CARTESIAN_POINT('Origin',(-14.,38.1375929984342,41.7912052492617));
#1814=CARTESIAN_POINT('',(-9.8,38.1375929984342,41.7912052492617));
#1815=CARTESIAN_POINT('',(-14.,38.1375929984342,41.7912052492617));
#1816=CARTESIAN_POINT('',(-9.8,41.5022658460866,39.5523863727995));
#1817=CARTESIAN_POINT('',(-9.8,34.4170430024075,44.2668211379617));
#1818=CARTESIAN_POINT('',(-14.,41.5022658460866,39.5523863727995));
#1819=CARTESIAN_POINT('Origin',(-14.,38.3941305960963,45.8245068489835));
#1820=CARTESIAN_POINT('',(-10.,38.3941305960963,45.8245068489835));
#1821=CARTESIAN_POINT('',(-14.,38.3941305960963,45.8245068489835));
#1822=CARTESIAN_POINT('',(-10.,38.1476570926935,41.9494336253202));
#1823=CARTESIAN_POINT('',(-10.,38.4397646227796,46.5419681275674));
#1824=CARTESIAN_POINT('',(-9.8,38.1476570926935,41.9494336253202));
#1825=CARTESIAN_POINT('',(-10.,38.1476570926935,41.9494336253202));
#1826=CARTESIAN_POINT('',(-9.8,38.4397646227796,46.5419681275674));
#1827=CARTESIAN_POINT('Origin',(-14.,42.0153410414109,47.6189895722432));
#1828=CARTESIAN_POINT('',(-9.8,42.0153410414109,47.6189895722432));
#1829=CARTESIAN_POINT('',(-14.,42.0153410414109,47.6189895722432));
#1830=CARTESIAN_POINT('',(-9.8,41.8732792010152,47.5485911455087));
#1831=CARTESIAN_POINT('',(-9.8,37.6789429690715,45.4700972227091));
#1832=CARTESIAN_POINT('',(-10.,41.8732792010152,47.5485911455087));
#1833=CARTESIAN_POINT('',(-10.,41.8732792010152,47.5485911455087));
#1834=CARTESIAN_POINT('',(-10.,35.9393686666121,44.6080550744465));
#1835=CARTESIAN_POINT('Origin',(-14.,29.2706941802181,51.8951480646133));
#1836=CARTESIAN_POINT('',(-14.,21.0823898443345,52.538991574569));
#1837=CARTESIAN_POINT('',(-14.,33.0272864669934,44.5909796141026));
#1838=CARTESIAN_POINT('',(-14.,30.0410623113267,46.5779826042205));
#1839=CARTESIAN_POINT('',(-14.,16.9857974907868,53.707785498683));
#1840=CARTESIAN_POINT('Origin',(-14.,17.2046418013577,46.7112072515874));
#1841=CARTESIAN_POINT('',(-14.,22.8537125187763,62.5265490773801));
#1842=CARTESIAN_POINT('Origin',(-14.,16.782584916685,60.2046081567077));
#1843=CARTESIAN_POINT('',(-14.,25.5141018934368,59.1993165151288));
#1844=CARTESIAN_POINT('Origin',(-14.,29.3918499364136,65.0271008381103));
#1845=CARTESIAN_POINT('',(-14.,37.4589985161099,51.251304554653));
#1846=CARTESIAN_POINT('',(-14.,28.5003260491066,57.2123135250088));
#1847=CARTESIAN_POINT('',(-14.,41.5555908696522,50.0825106305388));
#1848=CARTESIAN_POINT('Origin',(-14.,41.3367465590866,57.0790888776345));
#1849=CARTESIAN_POINT('',(-14.,35.6876758416555,41.2637470518472));
#1850=CARTESIAN_POINT('Origin',(-14.,41.7588034437488,43.5856879725214));
#1851=CARTESIAN_POINT('Origin',(-14.,29.1495384240166,38.7631952911211));
#1852=CARTESIAN_POINT('',(-14.,20.9211111399017,62.2554455547187));
#1853=CARTESIAN_POINT('',(-14.,20.627925314002,57.6459580121795));
#1854=CARTESIAN_POINT('',(-14.,20.4723466026064,55.1999389051428));
#1855=CARTESIAN_POINT('',(-14.,17.0757707425846,64.8140956992469));
#1856=CARTESIAN_POINT('',(-14.,26.0836637849229,58.8203358618202));
#1857=CARTESIAN_POINT('',(-14.,12.9372445193679,62.7632583012359));
#1858=CARTESIAN_POINT('',(-14.,19.271874783118,65.9023701364084));
#1859=CARTESIAN_POINT('',(-14.,12.6440586934683,58.1537707586967));
#1860=CARTESIAN_POINT('',(-14.,12.6167487809037,57.7244024515209));
#1861=CARTESIAN_POINT('',(-14.,16.4893990907854,55.5951206141684));
#1862=CARTESIAN_POINT('',(-14.,19.9696153119803,53.2794203595011));
#1863=CARTESIAN_POINT('',(-14.,21.0134241318782,57.8369910877111));
#1864=CARTESIAN_POINT('Origin',(-13.75,20.2228507707147,55.2158080534715));
#1865=CARTESIAN_POINT('',(-13.5,20.1472577643374,57.9657892802455));
#1866=CARTESIAN_POINT('',(-14.,20.627925314002,57.6459580121795));
#1867=CARTESIAN_POINT('',(-13.5,20.4037953619996,61.9990908799673));
#1868=CARTESIAN_POINT('',(-13.5,19.973354938823,55.2316772018002));
#1869=CARTESIAN_POINT('',(-14.,20.9211111399017,62.2554455547187));
#1870=CARTESIAN_POINT('Origin',(-13.75,20.9024193015214,58.060995390432));
#1871=CARTESIAN_POINT('',(-13.5,16.5260473190228,56.1713065569858));
#1872=CARTESIAN_POINT('',(-14.,16.4893990907854,55.5951206141684));
#1873=CARTESIAN_POINT('',(-13.5,20.7914144711646,58.2849996931528));
#1874=CARTESIAN_POINT('Origin',(-13.75,25.945172783388,58.612200707428));
#1875=CARTESIAN_POINT('',(-13.5,17.0391225143471,64.2379097564295));
#1876=CARTESIAN_POINT('',(-13.5,25.8066817818531,58.4040655530358));
#1877=CARTESIAN_POINT('',(-13.5,17.0391225143471,64.2379097564295));
#1878=CARTESIAN_POINT('Origin',(-13.75,20.1081063135152,53.4875555138932));
#1879=CARTESIAN_POINT('',(-13.5,13.1613744713704,58.410125433448));
#1880=CARTESIAN_POINT('',(-14.,12.6440586934683,58.1537707586967));
#1881=CARTESIAN_POINT('',(-13.5,20.2465973150501,53.6956906682855));
#1882=CARTESIAN_POINT('Origin',(-13.75,12.8662446127953,57.7085333031923));
#1883=CARTESIAN_POINT('',(-13.5,13.4179120690325,62.4434270331699));
#1884=CARTESIAN_POINT('',(-14.,12.9372445193679,62.7632583012359));
#1885=CARTESIAN_POINT('',(-13.5,13.115740444687,57.6926641548636));
#1886=CARTESIAN_POINT('Origin',(-13.75,19.3828796134748,65.6783658336875));
#1887=CARTESIAN_POINT('',(-13.5,19.4938844438316,65.4543615309667));
#1888=CARTESIAN_POINT('Origin',(-14.,17.0391225143471,64.2379097564295));
#1889=CARTESIAN_POINT('',(-9.8,17.0391225143471,64.2379097564295));
#1890=CARTESIAN_POINT('',(-14.,17.0391225143471,64.2379097564295));
#1891=CARTESIAN_POINT('',(-9.8,16.8970606739513,64.167511329695));
#1892=CARTESIAN_POINT('',(-9.8,19.4228535236335,65.4191623175993));
#1893=CARTESIAN_POINT('',(-10.,16.8970606739513,64.167511329695));
#1894=CARTESIAN_POINT('',(-10.,16.8970606739513,64.167511329695));
#1895=CARTESIAN_POINT('',(-10.,13.4179120690325,62.4434270331699));
#1896=CARTESIAN_POINT('',(-10.,17.6832792211741,64.5571201693367));
#1897=CARTESIAN_POINT('',(-14.,13.4179120690325,62.4434270331699));
#1898=CARTESIAN_POINT('Origin',(-14.,20.4037953619996,61.9990908799673));
#1899=CARTESIAN_POINT('',(-9.8,20.4037953619996,61.9990908799673));
#1900=CARTESIAN_POINT('',(-14.,20.4037953619996,61.9990908799673));
#1901=CARTESIAN_POINT('',(-9.8,24.1243453580262,59.5234749912674));
#1902=CARTESIAN_POINT('Origin',(-14.,20.1472577643374,57.9657892802455));
#1903=CARTESIAN_POINT('',(-10.,20.1472577643374,57.9657892802455));
#1904=CARTESIAN_POINT('',(-14.,20.1472577643374,57.9657892802455));
#1905=CARTESIAN_POINT('',(-10.,20.3937312677402,61.8408625039089));
#1906=CARTESIAN_POINT('',(-10.,20.1016237376541,57.2483280016616));
#1907=CARTESIAN_POINT('',(-9.8,20.3937312677402,61.8408625039089));
#1908=CARTESIAN_POINT('',(-10.,20.3937312677402,61.8408625039089));
#1909=CARTESIAN_POINT('',(-9.8,20.1016237376541,57.2483280016616));
#1910=CARTESIAN_POINT('Origin',(-8.5,41.7588034437488,43.5856879725214));
#1911=CARTESIAN_POINT('',(-9.,41.5243273967143,51.0820218086953));
#1912=CARTESIAN_POINT('',(-9.,41.5243273967143,51.0820218086953));
#1913=CARTESIAN_POINT('',(-9.,34.7536562105643,40.9065253717434));
#1914=CARTESIAN_POINT('',(-8.,35.6876758416555,41.2637470518472));
#1915=CARTESIAN_POINT('Origin',(-9.,41.7588034437488,43.5856879725214));
#1916=CARTESIAN_POINT('Origin',(-8.5,41.3367465590866,57.0790888776345));
#1917=CARTESIAN_POINT('',(-9.,38.0129625222494,52.0838451722218));
#1918=CARTESIAN_POINT('Origin',(-9.,41.3367465590866,57.0790888776345));
#1919=CARTESIAN_POINT('',(-9.,38.0129625222494,52.0838451722218));
#1920=CARTESIAN_POINT('Origin',(-8.5,28.7773080521764,57.6285838337932));
#1921=CARTESIAN_POINT('',(-9.,26.0680658995763,60.0318571326976));
#1922=CARTESIAN_POINT('',(-9.,26.0680658995763,60.0318571326976));
#1923=CARTESIAN_POINT('',(-9.,29.0542900552462,58.0448541425776));
#1924=CARTESIAN_POINT('Origin',(-8.5,29.3918499364136,65.0271008381103));
#1925=CARTESIAN_POINT('',(-9.,23.7877321498676,62.8837707574837));
#1926=CARTESIAN_POINT('Origin',(-9.,29.3918499364136,65.0271008381103));
#1927=CARTESIAN_POINT('',(-9.,23.7877321498676,62.8837707574837));
#1928=CARTESIAN_POINT('Origin',(-8.5,16.782584916685,60.2046081567077));
#1929=CARTESIAN_POINT('',(-9.,17.0170609637252,52.7082743205363));
#1930=CARTESIAN_POINT('',(-9.,17.0170609637252,52.7082743205363));
#1931=CARTESIAN_POINT('Origin',(-9.,16.782584916685,60.2046081567077));
#1932=CARTESIAN_POINT('Origin',(-8.5,17.2046418013577,46.7112072515874));
#1933=CARTESIAN_POINT('',(-9.,20.5284258381949,51.7064509570002));
#1934=CARTESIAN_POINT('Origin',(-9.,17.2046418013577,46.7112072515874));
#1935=CARTESIAN_POINT('',(-9.,20.5284258381949,51.7064509570002));
#1936=CARTESIAN_POINT('Origin',(-8.5,29.764080308257,46.1617122954361));
#1937=CARTESIAN_POINT('',(-9.,32.4733224608539,43.7584389965339));
#1938=CARTESIAN_POINT('',(-9.,32.4733224608539,43.7584389965339));
#1939=CARTESIAN_POINT('',(-9.,29.4870983051872,45.7454419866517));
#1940=CARTESIAN_POINT('Origin',(-8.5,29.1495384240166,38.7631952911211));
#1941=CARTESIAN_POINT('Origin',(-9.,29.1495384240166,38.7631952911211));
#1942=CARTESIAN_POINT('Origin',(-8.,29.3918499364136,65.0271008381103));
#1943=CARTESIAN_POINT('',(-13.,26.0680658995763,60.0318571326976));
#1944=CARTESIAN_POINT('',(-8.,26.0680658995763,60.0318571326976));
#1945=CARTESIAN_POINT('',(-13.,23.7877321498676,62.8837707574837));
#1946=CARTESIAN_POINT('Origin',(-13.,29.3918499364136,65.0271008381103));
#1947=CARTESIAN_POINT('',(-8.,23.7877321498676,62.8837707574837));
#1948=CARTESIAN_POINT('Origin',(-8.,26.0680658995763,60.0318571326976));
#1949=CARTESIAN_POINT('',(-13.,38.0129625222494,52.0838451722218));
#1950=CARTESIAN_POINT('',(-8.,38.0129625222494,52.0838451722218));
#1951=CARTESIAN_POINT('',(-13.,29.0542900552462,58.0448541425776));
#1952=CARTESIAN_POINT('Origin',(-8.,41.3367465590866,57.0790888776345));
#1953=CARTESIAN_POINT('',(-13.,41.5243273967143,51.0820218086953));
#1954=CARTESIAN_POINT('',(-8.,41.5243273967143,51.0820218086953));
#1955=CARTESIAN_POINT('Origin',(-13.,41.3367465590866,57.0790888776345));
#1956=CARTESIAN_POINT('Origin',(-8.,41.7588034437488,43.5856879725214));
#1957=CARTESIAN_POINT('',(-13.,34.7536562105643,40.9065253717434));
#1958=CARTESIAN_POINT('',(-8.,34.7536562105643,40.9065253717434));
#1959=CARTESIAN_POINT('Origin',(-13.,41.7588034437488,43.5856879725214));
#1960=CARTESIAN_POINT('Origin',(-13.5,29.764080308257,46.1617122954361));
#1961=CARTESIAN_POINT('',(-13.,20.5284258381949,51.7064509570002));
#1962=CARTESIAN_POINT('',(-13.,20.5284258381949,51.7064509570002));
#1963=CARTESIAN_POINT('',(-13.,32.4733224608539,43.7584389965339));
#1964=CARTESIAN_POINT('',(-14.,33.0272864669934,44.5909796141026));
#1965=CARTESIAN_POINT('',(-13.,29.4870983051872,45.7454419866517));
#1966=CARTESIAN_POINT('Origin',(-13.5,17.2046418013577,46.7112072515874));
#1967=CARTESIAN_POINT('',(-13.,17.0170609637252,52.7082743205363));
#1968=CARTESIAN_POINT('',(-13.,17.0170609637252,52.7082743205363));
#1969=CARTESIAN_POINT('Origin',(-13.,17.2046418013577,46.7112072515874));
#1970=CARTESIAN_POINT('Origin',(-13.5,16.782584916685,60.2046081567077));
#1971=CARTESIAN_POINT('',(-13.,23.7877321498676,62.8837707574837));
#1972=CARTESIAN_POINT('Origin',(-13.,16.782584916685,60.2046081567077));
#1973=CARTESIAN_POINT('Origin',(-13.5,29.3918499364136,65.0271008381103));
#1974=CARTESIAN_POINT('',(-13.,26.0680658995763,60.0318571326976));
#1975=CARTESIAN_POINT('Origin',(-13.5,28.7773080521764,57.6285838337932));
#1976=CARTESIAN_POINT('',(-13.,38.0129625222494,52.0838451722218));
#1977=CARTESIAN_POINT('Origin',(-13.5,41.3367465590866,57.0790888776345));
#1978=CARTESIAN_POINT('',(-13.,41.5243273967143,51.0820218086953));
#1979=CARTESIAN_POINT('Origin',(-13.5,41.7588034437488,43.5856879725214));
#1980=CARTESIAN_POINT('',(-13.,34.7536562105643,40.9065253717434));
#1981=CARTESIAN_POINT('Origin',(-13.5,29.1495384240166,38.7631952911211));
#1982=CARTESIAN_POINT('Origin',(-13.,29.1495384240166,38.7631952911211));
#1983=CARTESIAN_POINT('Origin',(-8.,16.782584916685,60.2046081567077));
#1984=CARTESIAN_POINT('',(-8.,17.0170609637252,52.7082743205363));
#1985=CARTESIAN_POINT('Origin',(-8.,17.2046418013577,46.7112072515874));
#1986=CARTESIAN_POINT('',(-8.,20.5284258381949,51.7064509570002));
#1987=CARTESIAN_POINT('Origin',(-8.,32.4733224608539,43.7584389965338));
#1988=CARTESIAN_POINT('',(-8.,32.4733224608539,43.7584389965339));
#1989=CARTESIAN_POINT('Origin',(-9.6,16.782584916685,60.2046081567077));
#1990=CARTESIAN_POINT('',(-9.6,16.1975740326835,63.1162678664952));
#1991=CARTESIAN_POINT('',(-9.6,14.452587413344,60.4937649211535));
#1992=CARTESIAN_POINT('',(-9.6,17.0717416811308,62.5346056600487));
#1993=CARTESIAN_POINT('Origin',(-9.6,16.782584916685,60.2046081567077));
#1994=CARTESIAN_POINT('',(-9.6,19.6942446264725,60.7896190407091));
#1995=CARTESIAN_POINT('',(-9.6,17.0717416811308,62.5346056600487));
#1996=CARTESIAN_POINT('',(-9.6,19.112582420026,59.9154513922619));
#1997=CARTESIAN_POINT('Origin',(-9.6,16.782584916685,60.2046081567077));
#1998=CARTESIAN_POINT('',(-9.6,17.3675958006864,57.2929484469202));
#1999=CARTESIAN_POINT('',(-9.6,19.112582420026,59.9154513922619));
#2000=CARTESIAN_POINT('',(-9.6,16.4934281522392,57.8746106533667));
#2001=CARTESIAN_POINT('Origin',(-9.6,16.782584916685,60.2046081567077));
#2002=CARTESIAN_POINT('',(-9.6,13.8709252068975,59.6195972727062));
#2003=CARTESIAN_POINT('',(-9.6,16.4934281522392,57.8746106533667));
#2004=CARTESIAN_POINT('',(-9.6,14.452587413344,60.4937649211535));
#2005=CARTESIAN_POINT('Origin',(-9.8,19.6942446264725,60.7896190407091));
#2006=CARTESIAN_POINT('',(-9.8,19.6942446264725,60.7896190407091));
#2007=CARTESIAN_POINT('',(-9.8,16.1975740326835,63.1162678664952));
#2008=CARTESIAN_POINT('',(-9.8,25.0641316097912,57.2165512011091));
#2009=CARTESIAN_POINT('',(-9.8,19.6942446264725,60.7896190407091));
#2010=CARTESIAN_POINT('',(-9.8,16.1975740326835,63.1162678664952));
#2011=CARTESIAN_POINT('Origin',(-9.8,13.8709252068975,59.6195972727062));
#2012=CARTESIAN_POINT('',(-9.8,13.8709252068975,59.6195972727062));
#2013=CARTESIAN_POINT('',(-9.8,17.3675958006864,57.2929484469202));
#2014=CARTESIAN_POINT('',(-9.8,20.9891474871107,54.8832050202131));
#2015=CARTESIAN_POINT('',(-9.8,13.8709252068975,59.6195972727062));
#2016=CARTESIAN_POINT('',(-9.8,17.3675958006864,57.2929484469202));
#2017=CARTESIAN_POINT('Origin',(-9.8,29.2706941802169,51.8951480646145));
#2018=CARTESIAN_POINT('',(-9.8,16.6681091594187,56.2417049837204));
#2019=CARTESIAN_POINT('',(-9.8,19.4623257406598,60.4410731238618));
#2020=CARTESIAN_POINT('',(-9.8,16.5260473190228,56.1713065569858));
#2021=CARTESIAN_POINT('',(-9.8,20.8624453913623,58.32019890652));
#2022=CARTESIAN_POINT('',(-9.8,13.1613744713704,58.410125433448));
#2023=CARTESIAN_POINT('',(-9.8,21.9289337388756,52.5762812300548));
#2024=CARTESIAN_POINT('',(-9.8,13.1714385656297,58.5683538095064));
#2025=CARTESIAN_POINT('',(-9.8,12.987471645856,55.6760133550032));
#2026=CARTESIAN_POINT('',(-9.8,14.1028440927101,59.9681431895535));
#2027=CARTESIAN_POINT('Origin',(-9.8,29.2706941802169,51.8951480646145));
#2028=CARTESIAN_POINT('',(-9.8,14.1028440927101,59.9681431895535));
#2029=CARTESIAN_POINT('',(-9.8,19.4623257406598,60.4410731238618));
#2030=CARTESIAN_POINT('Origin',(-10.,16.6681091594187,56.2417049837204));
#2031=CARTESIAN_POINT('',(-10.,16.6681091594187,56.2417049837204));
#2032=CARTESIAN_POINT('',(-10.,17.599514686499,57.6414943637675));
#2033=CARTESIAN_POINT('',(-10.,16.6681091594187,56.2417049837204));
#2034=CARTESIAN_POINT('Origin',(-10.,16.8970606739513,64.167511329695));
#2035=CARTESIAN_POINT('',(-10.,13.1714385656297,58.5683538095064));
#2036=CARTESIAN_POINT('',(-10.,15.9656551468709,62.7677219496478));
#2037=CARTESIAN_POINT('',(-10.,13.1714385656297,58.5683538095064));
#2038=CARTESIAN_POINT('Origin',(-9.8,29.2706941802169,51.8951480646145));
#2039=CARTESIAN_POINT('',(-9.8,39.0790626197739,43.3492230053672));
#2040=CARTESIAN_POINT('',(-9.8,45.3800138890634,45.380170695781));
#2041=CARTESIAN_POINT('',(-9.8,36.6124546215581,51.2140148991742));
#2042=CARTESIAN_POINT('',(-9.8,45.369949794804,45.2219423197226));
#2043=CARTESIAN_POINT('',(-9.8,45.5539167145777,48.1142827742258));
#2044=CARTESIAN_POINT('',(-9.8,44.4385442677236,43.8221529396754));
#2045=CARTESIAN_POINT('Origin',(-9.8,29.2706941802169,51.8951480646145));
#2046=CARTESIAN_POINT('',(-9.8,41.6443276864824,39.6227847995341));
#2047=CARTESIAN_POINT('',(-9.8,44.4385442677236,43.8221529396754));
#2048=CARTESIAN_POINT('',(-9.8,39.1185348368003,38.3711338116298));
#2049=CARTESIAN_POINT('',(-9.8,39.0790626197739,43.3492230053672));
#2050=CARTESIAN_POINT('Origin',(-10.,41.6443276864824,39.6227847995341));
#2051=CARTESIAN_POINT('',(-10.,41.6443276864824,39.6227847995341));
#2052=CARTESIAN_POINT('',(-10.,45.369949794804,45.2219423197226));
#2053=CARTESIAN_POINT('',(-10.,42.5757332135628,41.0225741795812));
#2054=CARTESIAN_POINT('',(-10.,41.6443276864824,39.6227847995341));
#2055=CARTESIAN_POINT('',(-10.,45.369949794804,45.2219423197226));
#2056=CARTESIAN_POINT('Origin',(-10.,41.8732792010152,47.5485911455087));
#2057=CARTESIAN_POINT('',(-10.,40.9418736739347,46.1488017654615));
#2058=CARTESIAN_POINT('Origin',(-10.,29.2706941802169,51.8951480646145));
#2059=CARTESIAN_POINT('',(-10.,12.987471645856,55.6760133550032));
#2060=CARTESIAN_POINT('Origin',(-10.,29.2706941802169,51.8951480646145));
#2061=CARTESIAN_POINT('',(-10.,22.6020196938217,59.1822410547825));
#2062=CARTESIAN_POINT('Origin',(-10.,29.2706941802169,51.8951480646145));
#2063=CARTESIAN_POINT('Origin',(-10.,29.2706941802169,51.8951480646145));
#2064=CARTESIAN_POINT('',(-10.,45.1234762914012,41.3468690960592));
#2065=CARTESIAN_POINT('',(-10.,45.5539167145777,48.1142827742258));
#2066=CARTESIAN_POINT('',(-10.,40.8581091392597,39.2331759598923));
#2067=CARTESIAN_POINT('Origin',(-14.,16.5260473190228,56.1713065569858));
#2068=CARTESIAN_POINT('',(-14.,16.5260473190228,56.1713065569858));
#2069=CARTESIAN_POINT('Origin',(-14.,13.1613744713704,58.410125433448));
#2070=CARTESIAN_POINT('',(-14.,13.1613744713704,58.410125433448));
#2071=CARTESIAN_POINT('Origin',(-14.,13.4179120690325,62.4434270331699));
#2072=CARTESIAN_POINT('Origin',(-14.,45.3800138890634,45.380170695781));
#2073=CARTESIAN_POINT('',(-14.,45.3800138890634,45.380170695781));
#2074=CARTESIAN_POINT('Origin',(-14.,45.1234762914012,41.3468690960592));
#2075=CARTESIAN_POINT('',(-14.,45.1234762914012,41.3468690960592));
#2076=CARTESIAN_POINT('Origin',(-14.,41.5022658460866,39.5523863727995));
#2077=CARTESIAN_POINT('Origin',(-8.,29.1495384240166,38.7631952911211));
#2078=UNCERTAINTY_MEASURE_WITH_UNIT(LENGTH_MEASURE(0.01),#2082,
'DISTANCE_ACCURACY_VALUE',
'Maximum model space distance between geometric entities at asserted c
onnectivities');
#2079=UNCERTAINTY_MEASURE_WITH_UNIT(LENGTH_MEASURE(0.01),#2082,
'DISTANCE_ACCURACY_VALUE',
'Maximum model space distance between geometric entities at asserted c
onnectivities');
#2080=(
GEOMETRIC_REPRESENTATION_CONTEXT(3)
GLOBAL_UNCERTAINTY_ASSIGNED_CONTEXT((#2078))
GLOBAL_UNIT_ASSIGNED_CONTEXT((#2082,#2084,#2085))
REPRESENTATION_CONTEXT('','3D')
);
#2081=(
GEOMETRIC_REPRESENTATION_CONTEXT(3)
GLOBAL_UNCERTAINTY_ASSIGNED_CONTEXT((#2079))
GLOBAL_UNIT_ASSIGNED_CONTEXT((#2082,#2084,#2085))
REPRESENTATION_CONTEXT('','3D')
);
#2082=(
LENGTH_UNIT()
NAMED_UNIT(*)
SI_UNIT(.MILLI.,.METRE.)
);
#2083=(
LENGTH_UNIT()
NAMED_UNIT(*)
SI_UNIT($,.METRE.)
);
#2084=(
NAMED_UNIT(*)
PLANE_ANGLE_UNIT()
SI_UNIT($,.RADIAN.)
);
#2085=(
NAMED_UNIT(*)
SI_UNIT($,.STERADIAN.)
SOLID_ANGLE_UNIT()
);
#2086=SHAPE_DEFINITION_REPRESENTATION(#2087,#2088);
#2087=PRODUCT_DEFINITION_SHAPE('',$,#2090);
#2088=SHAPE_REPRESENTATION('',(#1262),#2080);
#2089=PRODUCT_DEFINITION_CONTEXT('part definition',#2094,'design');
#2090=PRODUCT_DEFINITION('2026-09-05-19-20-35-963','Dogbone (Nut)',#2091,
#2089);
#2091=PRODUCT_DEFINITION_FORMATION('',$,#2096);
#2092=PRODUCT_RELATED_PRODUCT_CATEGORY('Dogbone (Nut)','Dogbone (Nut)',
(#2096));
#2093=APPLICATION_PROTOCOL_DEFINITION('international standard',
'automotive_design',2009,#2094);
#2094=APPLICATION_CONTEXT(
'Core Data for Automotive Mechanical Design Process');
#2095=PRODUCT_CONTEXT('part definition',#2094,'mechanical');
#2096=PRODUCT('2026-09-05-19-20-35-963','Dogbone (Nut)',$,(#2095));
#2097=PRESENTATION_STYLE_ASSIGNMENT((#2098));
#2098=SURFACE_STYLE_USAGE(.BOTH.,#2099);
#2099=SURFACE_SIDE_STYLE('',(#2100));
#2100=SURFACE_STYLE_FILL_AREA(#2101);
#2101=FILL_AREA_STYLE('PETG Black',(#2102));
#2102=FILL_AREA_STYLE_COLOUR('PETG Black',#2103);
#2103=COLOUR_RGB('PETG Black',0.247058823529412,0.247058823529412,0.247058823529412);
ENDSEC;
END-ISO-10303-21;
